%TF.GenerationSoftware,KiCad,Pcbnew,7.0.9*%
%TF.CreationDate,2024-02-26T10:01:53+01:00*%
%TF.ProjectId,C2LoraGateway,43324c6f-7261-4476-9174-657761792e6b,rev?*%
%TF.SameCoordinates,Original*%
%TF.FileFunction,Copper,L3,Inr*%
%TF.FilePolarity,Positive*%
%FSLAX46Y46*%
G04 Gerber Fmt 4.6, Leading zero omitted, Abs format (unit mm)*
G04 Created by KiCad (PCBNEW 7.0.9) date 2024-02-26 10:01:53*
%MOMM*%
%LPD*%
G01*
G04 APERTURE LIST*
G04 Aperture macros list*
%AMRoundRect*
0 Rectangle with rounded corners*
0 $1 Rounding radius*
0 $2 $3 $4 $5 $6 $7 $8 $9 X,Y pos of 4 corners*
0 Add a 4 corners polygon primitive as box body*
4,1,4,$2,$3,$4,$5,$6,$7,$8,$9,$2,$3,0*
0 Add four circle primitives for the rounded corners*
1,1,$1+$1,$2,$3*
1,1,$1+$1,$4,$5*
1,1,$1+$1,$6,$7*
1,1,$1+$1,$8,$9*
0 Add four rect primitives between the rounded corners*
20,1,$1+$1,$2,$3,$4,$5,0*
20,1,$1+$1,$4,$5,$6,$7,0*
20,1,$1+$1,$6,$7,$8,$9,0*
20,1,$1+$1,$8,$9,$2,$3,0*%
G04 Aperture macros list end*
%TA.AperFunction,ComponentPad*%
%ADD10RoundRect,0.250000X0.350000X0.625000X-0.350000X0.625000X-0.350000X-0.625000X0.350000X-0.625000X0*%
%TD*%
%TA.AperFunction,ComponentPad*%
%ADD11O,1.200000X1.750000*%
%TD*%
%TA.AperFunction,ComponentPad*%
%ADD12O,2.100000X1.000000*%
%TD*%
%TA.AperFunction,ComponentPad*%
%ADD13O,1.800000X1.000000*%
%TD*%
%TA.AperFunction,ComponentPad*%
%ADD14R,1.700000X1.700000*%
%TD*%
%TA.AperFunction,ComponentPad*%
%ADD15O,1.700000X1.700000*%
%TD*%
%TA.AperFunction,ViaPad*%
%ADD16C,0.800000*%
%TD*%
%TA.AperFunction,ViaPad*%
%ADD17C,0.600000*%
%TD*%
%TA.AperFunction,Conductor*%
%ADD18C,0.400000*%
%TD*%
%TA.AperFunction,Conductor*%
%ADD19C,0.240000*%
%TD*%
G04 APERTURE END LIST*
D10*
%TO.N,GND*%
%TO.C,J5*%
X147000000Y-84900000D03*
D11*
%TO.N,Vin*%
X145000000Y-84900000D03*
%TD*%
D12*
%TO.N,GNDRF*%
%TO.C,J4*%
X165395000Y-111320000D03*
D13*
X169575000Y-111320000D03*
D12*
X165395000Y-102680000D03*
D13*
X169575000Y-102680000D03*
%TD*%
D14*
%TO.N,/USB_VBUS*%
%TO.C,J3*%
X161000000Y-89000000D03*
D15*
%TO.N,/TxD0*%
X161000000Y-91540000D03*
%TO.N,Vin*%
X158460000Y-89000000D03*
%TO.N,/RxD0*%
X158460000Y-91540000D03*
%TO.N,VCC*%
X155920000Y-89000000D03*
%TO.N,/CTS0*%
X155920000Y-91540000D03*
%TO.N,VCC*%
X153380000Y-89000000D03*
%TO.N,/RTS0*%
X153380000Y-91540000D03*
%TO.N,GND*%
X150840000Y-89000000D03*
%TO.N,/IO4*%
X150840000Y-91540000D03*
%TO.N,GND*%
X148300000Y-89000000D03*
%TO.N,/IO5*%
X148300000Y-91540000D03*
%TO.N,GND*%
X145760000Y-89000000D03*
%TO.N,/IO6*%
X145760000Y-91540000D03*
%TO.N,GND*%
X143220000Y-89000000D03*
%TO.N,/IO7*%
X143220000Y-91540000D03*
%TO.N,GND*%
X140680000Y-89000000D03*
%TO.N,/IO14*%
X140680000Y-91540000D03*
%TO.N,/IO17*%
X138140000Y-89000000D03*
%TO.N,/IO21*%
X138140000Y-91540000D03*
%TO.N,/IO47*%
X135600000Y-89000000D03*
%TO.N,/IO38*%
X135600000Y-91540000D03*
%TO.N,/IO39*%
X133060000Y-89000000D03*
%TO.N,/IO40*%
X133060000Y-91540000D03*
%TO.N,/IO41*%
X130520000Y-89000000D03*
%TO.N,/IO42*%
X130520000Y-91540000D03*
%TO.N,GND*%
X127980000Y-89000000D03*
%TO.N,/IO1*%
X127980000Y-91540000D03*
%TO.N,+5V*%
X125440000Y-89000000D03*
%TO.N,/IO2*%
X125440000Y-91540000D03*
%TD*%
D16*
%TO.N,Vin*%
X145000000Y-79200000D03*
X143200000Y-82200000D03*
X162000000Y-78800000D03*
X164000000Y-78800000D03*
X163000000Y-78800000D03*
X163000000Y-79800000D03*
X163000000Y-73000000D03*
X145100000Y-74800000D03*
X143200000Y-83400000D03*
X144400000Y-83400000D03*
D17*
%TO.N,GND*%
X155600000Y-107400000D03*
X136600000Y-77200000D03*
X147000000Y-76600000D03*
D16*
X157800000Y-98000000D03*
D17*
X127800000Y-76200000D03*
X168600000Y-93200000D03*
X149600000Y-76600000D03*
X154600000Y-77200000D03*
X119400000Y-92200000D03*
X156400000Y-73000000D03*
X119400000Y-95000000D03*
X140600000Y-73200000D03*
X122000000Y-72400000D03*
X156000000Y-77200000D03*
X141000000Y-102200000D03*
X145800000Y-107000000D03*
X144800000Y-102200000D03*
X145800000Y-104600000D03*
X157800000Y-103000000D03*
X118400000Y-108900000D03*
D16*
X166200000Y-94600000D03*
D17*
X92800000Y-79400000D03*
X141000000Y-106000000D03*
X119400000Y-93600000D03*
X168600000Y-77800000D03*
X119800000Y-107400000D03*
X142000000Y-102200000D03*
X160200000Y-103000000D03*
D16*
X153000000Y-112800000D03*
D17*
X117200000Y-102600000D03*
X168700000Y-101000000D03*
X94000000Y-97600000D03*
X167800000Y-77800000D03*
X134800000Y-99000000D03*
X114800000Y-108900000D03*
X116000000Y-102600000D03*
X106000000Y-72400000D03*
X122600000Y-75800000D03*
X144000000Y-113000000D03*
X123200000Y-99800000D03*
X114800000Y-107400000D03*
X117200000Y-108900000D03*
X155600000Y-105000000D03*
X144800000Y-107000000D03*
X168600000Y-94000000D03*
X130600000Y-113000000D03*
X130600000Y-112200000D03*
X93000000Y-83800000D03*
X130600000Y-111400000D03*
X137800000Y-76700000D03*
X114800000Y-102600000D03*
D16*
X158000000Y-110800000D03*
D17*
X141000000Y-104600000D03*
X97000000Y-74500000D03*
X114800000Y-105000000D03*
X157200000Y-76700000D03*
X145800000Y-96200000D03*
X152400000Y-76600000D03*
X138000000Y-96200000D03*
X125200000Y-76200000D03*
X130400000Y-76200000D03*
X119800000Y-105000000D03*
X164400000Y-77200000D03*
X102000000Y-72400000D03*
X145000000Y-73000000D03*
X135400000Y-77200000D03*
X148400000Y-98600000D03*
X137800000Y-77700000D03*
X123200000Y-97600000D03*
X114000000Y-72400000D03*
X143800000Y-76600000D03*
X123200000Y-110000000D03*
X165000000Y-77800000D03*
X166800000Y-101200000D03*
X92800000Y-77600000D03*
X136000000Y-113000000D03*
X142000000Y-107000000D03*
X140200000Y-77200000D03*
X153400000Y-93700000D03*
D16*
X163600000Y-103400000D03*
D17*
X110000000Y-72400000D03*
X145800000Y-103200000D03*
X118000000Y-72400000D03*
X162300000Y-108600000D03*
X133200000Y-76600000D03*
X145800000Y-106000000D03*
D16*
X163600000Y-110800000D03*
D17*
X139000000Y-77200000D03*
X159300000Y-108000000D03*
X118400000Y-102600000D03*
X122600000Y-76800000D03*
X143400000Y-102200000D03*
X123200000Y-107600000D03*
X126000000Y-72400000D03*
X119600000Y-102600000D03*
X119400000Y-96400000D03*
X166200000Y-99400000D03*
X125647803Y-99971697D03*
X158400000Y-77200000D03*
X92800000Y-91400000D03*
X116000000Y-108900000D03*
X157200000Y-77700000D03*
X145800000Y-102200000D03*
X119600000Y-108900000D03*
X123200000Y-102200000D03*
X158600000Y-93800000D03*
X114800000Y-103800000D03*
X130400000Y-72400000D03*
X141000000Y-103200000D03*
X150500000Y-93500000D03*
X155800000Y-93800000D03*
X143400000Y-107000000D03*
X93000000Y-81400000D03*
X114800000Y-106200000D03*
X123200000Y-104800000D03*
X122600000Y-74800000D03*
X159800000Y-77200000D03*
X140000000Y-113000000D03*
X119400000Y-97800000D03*
X148000000Y-113000000D03*
X163600000Y-112400000D03*
X141000000Y-107000000D03*
D16*
%TO.N,VCC*%
X152900000Y-110800000D03*
D17*
X157900000Y-112800000D03*
D16*
X149400000Y-75000000D03*
X127800000Y-103600000D03*
D17*
X167800000Y-97900000D03*
D16*
X149600000Y-85000000D03*
X148300000Y-85000000D03*
X152000000Y-85000000D03*
X155000000Y-110800000D03*
X148300000Y-79500000D03*
%TO.N,/USB_VBUS*%
X163700000Y-109500000D03*
X163700000Y-104600000D03*
D17*
%TO.N,/IO0{slash}Boot*%
X159300000Y-101800000D03*
X129200000Y-102200000D03*
X129200000Y-110600000D03*
X135100000Y-96300000D03*
X125124500Y-97324500D03*
%TO.N,/PowerSupply/1.22V*%
X161980500Y-98400000D03*
X162800000Y-96400000D03*
%TO.N,GNDRF*%
X93000000Y-107600000D03*
X95400000Y-104800000D03*
X92200000Y-104800000D03*
X94600000Y-110400000D03*
X93000000Y-104800000D03*
X92200000Y-107600000D03*
X96400000Y-110400000D03*
X91400000Y-102000000D03*
X99200000Y-104800000D03*
X93800000Y-107600000D03*
X99600000Y-105400000D03*
X96200000Y-107600000D03*
X93000000Y-102000000D03*
X98800000Y-102000000D03*
X91400000Y-104800000D03*
X91400000Y-107600000D03*
X99200000Y-107600000D03*
X96200000Y-104800000D03*
X94600000Y-102000000D03*
X96200000Y-102000000D03*
X94600000Y-107600000D03*
X99600000Y-107000000D03*
X99600000Y-106200000D03*
X99000000Y-110400000D03*
X93000000Y-110400000D03*
X93800000Y-104800000D03*
X94600000Y-104800000D03*
X91400000Y-110400000D03*
X95400000Y-107600000D03*
%TO.N,/TxD0*%
X135500000Y-101900000D03*
%TO.N,/RxD0*%
X134800000Y-101400000D03*
%TO.N,/CTS0*%
X151826519Y-102123537D03*
%TO.N,/RTS0*%
X152380500Y-102700000D03*
%TO.N,Net-(JP2-A)*%
X166800000Y-96300000D03*
%TO.N,Net-(JP2-C)*%
X159600000Y-75200000D03*
%TO.N,/~{ESP_RESET}*%
X159000000Y-111300000D03*
X156400000Y-109200000D03*
X152600000Y-105900000D03*
X129380500Y-97900000D03*
X148700000Y-108700000D03*
%TO.N,SPI2_CS0*%
X100000000Y-86000000D03*
X143600000Y-87500000D03*
%TO.N,SPI2_MOSI*%
X94500000Y-87400000D03*
X144200000Y-93000000D03*
%TO.N,SPI2_SCLK*%
X142200000Y-87600000D03*
X95300000Y-86500000D03*
%TO.N,SPI2_MISO*%
X95300000Y-88100000D03*
X141600000Y-93100000D03*
%TO.N,~{5V_PS}*%
X153291467Y-97413067D03*
X140900000Y-74600000D03*
%TO.N,LORA_DIO1*%
X149561832Y-90500000D03*
X95352197Y-83552197D03*
%TO.N,LORA_BUSY*%
X95352197Y-84428303D03*
X147035974Y-89900000D03*
%TO.N,LORA_RST*%
X146400000Y-93000000D03*
X95900000Y-85600000D03*
D16*
%TO.N,+5V*%
X132000000Y-79800000D03*
X130400000Y-75000000D03*
D17*
%TO.N,5V_ENABLE*%
X145600000Y-81900000D03*
X152500000Y-97300000D03*
X152500000Y-95400000D03*
X140900000Y-75500000D03*
%TO.N,/LoRaModule/DIO2_TXEN*%
X95200000Y-82700000D03*
X124300000Y-84200000D03*
%TO.N,/IO4*%
X154022030Y-98015635D03*
%TO.N,/IO5*%
X149138053Y-95961947D03*
%TO.N,/IO6*%
X153700000Y-101400000D03*
%TO.N,/IO7*%
X153000000Y-101800000D03*
%TO.N,/IO1*%
X123600000Y-95400000D03*
%TO.N,/IO2*%
X124200000Y-94400000D03*
%TO.N,/IO17*%
X151800000Y-101100000D03*
%TO.N,/IO38*%
X131700000Y-97200000D03*
%TO.N,/IO39*%
X131237701Y-95862299D03*
%TO.N,/IO40*%
X130250901Y-96223697D03*
%TO.N,/IO41*%
X131900000Y-104700000D03*
%TO.N,/IO42*%
X129914906Y-94924100D03*
%TO.N,/USB_D+*%
X163009398Y-106100000D03*
X163058136Y-107400500D03*
%TD*%
D18*
%TO.N,VCC*%
X127800000Y-103600000D02*
X135000000Y-110800000D01*
X135000000Y-110800000D02*
X152900000Y-110800000D01*
D19*
%TO.N,/IO0{slash}Boot*%
X136100000Y-97300000D02*
X135100000Y-96300000D01*
X149200000Y-97300000D02*
X136100000Y-97300000D01*
X159300000Y-101800000D02*
X157100000Y-99600000D01*
X151500000Y-99600000D02*
X149200000Y-97300000D01*
X157100000Y-99600000D02*
X151500000Y-99600000D01*
%TD*%
%TA.AperFunction,Conductor*%
%TO.N,GND*%
G36*
X145459191Y-72018907D02*
G01*
X145495155Y-72068407D01*
X145500000Y-72099000D01*
X145500000Y-74298669D01*
X145466522Y-74269010D01*
X145328790Y-74196723D01*
X145177774Y-74159500D01*
X145177771Y-74159500D01*
X145022229Y-74159500D01*
X145022225Y-74159500D01*
X144871209Y-74196723D01*
X144733477Y-74269010D01*
X144617058Y-74372149D01*
X144617053Y-74372155D01*
X144528702Y-74500154D01*
X144528701Y-74500156D01*
X144473544Y-74645593D01*
X144473543Y-74645594D01*
X144454796Y-74799998D01*
X144454796Y-74800001D01*
X144473543Y-74954405D01*
X144473544Y-74954407D01*
X144490836Y-75000001D01*
X144528701Y-75099843D01*
X144528702Y-75099845D01*
X144617053Y-75227844D01*
X144617058Y-75227850D01*
X144733477Y-75330989D01*
X144733480Y-75330991D01*
X144733482Y-75330992D01*
X144871208Y-75403276D01*
X145022229Y-75440500D01*
X145022233Y-75440500D01*
X145177767Y-75440500D01*
X145177771Y-75440500D01*
X145328792Y-75403276D01*
X145466518Y-75330992D01*
X145500000Y-75301329D01*
X145500000Y-78500000D01*
X140900000Y-78500000D01*
X140500000Y-78900000D01*
X131293477Y-88106521D01*
X131238960Y-88134298D01*
X131178528Y-88124727D01*
X131171361Y-88120692D01*
X131008160Y-88019642D01*
X130819708Y-87946635D01*
X130819707Y-87946634D01*
X130819705Y-87946634D01*
X130621050Y-87909500D01*
X130418950Y-87909500D01*
X130220294Y-87946634D01*
X130188643Y-87958896D01*
X130031840Y-88019642D01*
X129862122Y-88124727D01*
X129860011Y-88126034D01*
X129710659Y-88262186D01*
X129588867Y-88423464D01*
X129588862Y-88423473D01*
X129498784Y-88604375D01*
X129443475Y-88798761D01*
X129424828Y-89000000D01*
X129443475Y-89201238D01*
X129465470Y-89278541D01*
X129498783Y-89395622D01*
X129588866Y-89576534D01*
X129588867Y-89576535D01*
X129588871Y-89576541D01*
X129637886Y-89641448D01*
X129657865Y-89699279D01*
X129640036Y-89757809D01*
X129628886Y-89771112D01*
X128753477Y-90646521D01*
X128698960Y-90674298D01*
X128638528Y-90664727D01*
X128631361Y-90660692D01*
X128468160Y-90559642D01*
X128279708Y-90486635D01*
X128279707Y-90486634D01*
X128279705Y-90486634D01*
X128081050Y-90449500D01*
X127878950Y-90449500D01*
X127680294Y-90486634D01*
X127631877Y-90505391D01*
X127491840Y-90559642D01*
X127322122Y-90664727D01*
X127320011Y-90666034D01*
X127219419Y-90757736D01*
X127170658Y-90802187D01*
X127050983Y-90960662D01*
X127000829Y-90995704D01*
X126971981Y-91000000D01*
X126448019Y-91000000D01*
X126389828Y-90981093D01*
X126369017Y-90960663D01*
X126249342Y-90802187D01*
X126099989Y-90666034D01*
X125928160Y-90559642D01*
X125739708Y-90486635D01*
X125739707Y-90486634D01*
X125739705Y-90486634D01*
X125541050Y-90449500D01*
X125338950Y-90449500D01*
X125140294Y-90486634D01*
X125091877Y-90505391D01*
X124951840Y-90559642D01*
X124782122Y-90664727D01*
X124780011Y-90666034D01*
X124679419Y-90757736D01*
X124630658Y-90802187D01*
X124510983Y-90960662D01*
X124460829Y-90995704D01*
X124431981Y-91000000D01*
X123500000Y-91000000D01*
X123500000Y-91000001D01*
X123500000Y-94790238D01*
X123481093Y-94848429D01*
X123438886Y-94881702D01*
X123327419Y-94927873D01*
X123214512Y-95014510D01*
X123214510Y-95014512D01*
X123127872Y-95127420D01*
X123073413Y-95258896D01*
X123073411Y-95258904D01*
X123054836Y-95399999D01*
X123054836Y-95400000D01*
X123073411Y-95541095D01*
X123073413Y-95541103D01*
X123127872Y-95672579D01*
X123127873Y-95672581D01*
X123127874Y-95672582D01*
X123214511Y-95785489D01*
X123327418Y-95872126D01*
X123327419Y-95872126D01*
X123327420Y-95872127D01*
X123438885Y-95918297D01*
X123485411Y-95958033D01*
X123500000Y-96009761D01*
X123500000Y-117901000D01*
X123481093Y-117959191D01*
X123431593Y-117995155D01*
X123401000Y-118000000D01*
X95576095Y-118000000D01*
X95517904Y-117981093D01*
X95481940Y-117931593D01*
X95481940Y-117870407D01*
X95494373Y-117845120D01*
X95557421Y-117752915D01*
X95659448Y-117603706D01*
X95824921Y-117290098D01*
X95953568Y-116959672D01*
X96043710Y-116616736D01*
X96094173Y-116265759D01*
X96104299Y-115911317D01*
X96073955Y-115558032D01*
X96003537Y-115210508D01*
X95893964Y-114873277D01*
X95746664Y-114550734D01*
X95563557Y-114247085D01*
X95347029Y-113966287D01*
X95099905Y-113712003D01*
X95099904Y-113712002D01*
X95099900Y-113711998D01*
X94825410Y-113487549D01*
X94825401Y-113487542D01*
X94527106Y-113295839D01*
X94358762Y-113213071D01*
X94208904Y-113139391D01*
X93874939Y-113020232D01*
X93874934Y-113020230D01*
X93874929Y-113020229D01*
X93529575Y-112939921D01*
X93529569Y-112939920D01*
X93529568Y-112939920D01*
X93177293Y-112899500D01*
X93099000Y-112899500D01*
X93040809Y-112880593D01*
X93004845Y-112831093D01*
X93000000Y-112800500D01*
X93000000Y-112418500D01*
X93018907Y-112360309D01*
X93068407Y-112324345D01*
X93099000Y-112319500D01*
X103465266Y-112319500D01*
X103465267Y-112319500D01*
X103477807Y-112319007D01*
X103499552Y-112317296D01*
X103503510Y-112316897D01*
X103513413Y-112315900D01*
X103551271Y-112304325D01*
X103580215Y-112300000D01*
X104299999Y-112300000D01*
X104300000Y-112300000D01*
X104300000Y-111585291D01*
X104303738Y-111561689D01*
X104302956Y-111561502D01*
X104303863Y-111557724D01*
X104319500Y-111458995D01*
X104319500Y-100534734D01*
X104319007Y-100522193D01*
X104317296Y-100500448D01*
X104315900Y-100486591D01*
X104315900Y-100486588D01*
X104304325Y-100448723D01*
X104300000Y-100419781D01*
X104300000Y-99700001D01*
X104300000Y-99700000D01*
X104299999Y-99700000D01*
X103585291Y-99700000D01*
X103561689Y-99696261D01*
X103561502Y-99697044D01*
X103557724Y-99696136D01*
X103458995Y-99680500D01*
X103458992Y-99680500D01*
X92599000Y-99680500D01*
X92540809Y-99661593D01*
X92504845Y-99612093D01*
X92500000Y-99581500D01*
X92500000Y-89000000D01*
X124344828Y-89000000D01*
X124363475Y-89201238D01*
X124385470Y-89278541D01*
X124418783Y-89395622D01*
X124508866Y-89576534D01*
X124630658Y-89737813D01*
X124780011Y-89873966D01*
X124951840Y-89980358D01*
X125140292Y-90053365D01*
X125338950Y-90090500D01*
X125541050Y-90090500D01*
X125739708Y-90053365D01*
X125928160Y-89980358D01*
X126099989Y-89873966D01*
X126249342Y-89737813D01*
X126371134Y-89576534D01*
X126461217Y-89395622D01*
X126516525Y-89201237D01*
X126516640Y-89200000D01*
X126742722Y-89200000D01*
X126744286Y-89217881D01*
X126800897Y-89429157D01*
X126893332Y-89627386D01*
X127018783Y-89806549D01*
X127173450Y-89961216D01*
X127352613Y-90086667D01*
X127550842Y-90179102D01*
X127762118Y-90235713D01*
X127779999Y-90237277D01*
X127780000Y-90237277D01*
X127780000Y-89458335D01*
X127837685Y-89484680D01*
X127944237Y-89500000D01*
X128015763Y-89500000D01*
X128122315Y-89484680D01*
X128180000Y-89458335D01*
X128180000Y-90237277D01*
X128197881Y-90235713D01*
X128409157Y-90179102D01*
X128607386Y-90086667D01*
X128786549Y-89961216D01*
X128941216Y-89806549D01*
X129066667Y-89627386D01*
X129159102Y-89429157D01*
X129215713Y-89217881D01*
X129217277Y-89200000D01*
X128442383Y-89200000D01*
X128480000Y-89071889D01*
X128480000Y-88928111D01*
X128442383Y-88800000D01*
X129217277Y-88800000D01*
X129217277Y-88799999D01*
X129215713Y-88782118D01*
X129159102Y-88570842D01*
X129066667Y-88372614D01*
X128941216Y-88193450D01*
X128786549Y-88038783D01*
X128607386Y-87913332D01*
X128409157Y-87820897D01*
X128197887Y-87764288D01*
X128180000Y-87762722D01*
X128180000Y-88541664D01*
X128122315Y-88515320D01*
X128015763Y-88500000D01*
X127944237Y-88500000D01*
X127837685Y-88515320D01*
X127780000Y-88541664D01*
X127780000Y-87762722D01*
X127762112Y-87764288D01*
X127550843Y-87820897D01*
X127352614Y-87913332D01*
X127173450Y-88038783D01*
X127018783Y-88193450D01*
X126893332Y-88372614D01*
X126800897Y-88570842D01*
X126744286Y-88782118D01*
X126742722Y-88799999D01*
X126742723Y-88800000D01*
X127517617Y-88800000D01*
X127480000Y-88928111D01*
X127480000Y-89071889D01*
X127517617Y-89200000D01*
X126742722Y-89200000D01*
X126516640Y-89200000D01*
X126535172Y-89000000D01*
X126516525Y-88798763D01*
X126461217Y-88604378D01*
X126371134Y-88423466D01*
X126249342Y-88262187D01*
X126099989Y-88126034D01*
X125928160Y-88019642D01*
X125739708Y-87946635D01*
X125739707Y-87946634D01*
X125739705Y-87946634D01*
X125541050Y-87909500D01*
X125338950Y-87909500D01*
X125140294Y-87946634D01*
X125108643Y-87958896D01*
X124951840Y-88019642D01*
X124782122Y-88124727D01*
X124780011Y-88126034D01*
X124630659Y-88262186D01*
X124508867Y-88423464D01*
X124508862Y-88423473D01*
X124418784Y-88604375D01*
X124363475Y-88798761D01*
X124344828Y-89000000D01*
X92500000Y-89000000D01*
X92500000Y-87400000D01*
X93954836Y-87400000D01*
X93973411Y-87541095D01*
X93973413Y-87541103D01*
X94027872Y-87672579D01*
X94027873Y-87672581D01*
X94027874Y-87672582D01*
X94114511Y-87785489D01*
X94227418Y-87872126D01*
X94227419Y-87872126D01*
X94227420Y-87872127D01*
X94307990Y-87905500D01*
X94358901Y-87926588D01*
X94464725Y-87940520D01*
X94499999Y-87945164D01*
X94500000Y-87945164D01*
X94500001Y-87945164D01*
X94634665Y-87927435D01*
X94641099Y-87926588D01*
X94641099Y-87926587D01*
X94647532Y-87925741D01*
X94647755Y-87927435D01*
X94700643Y-87930205D01*
X94748194Y-87968709D01*
X94764031Y-88027809D01*
X94763320Y-88035552D01*
X94754836Y-88099998D01*
X94754836Y-88100000D01*
X94773411Y-88241095D01*
X94773413Y-88241103D01*
X94827872Y-88372579D01*
X94827873Y-88372581D01*
X94827874Y-88372582D01*
X94914511Y-88485489D01*
X95027418Y-88572126D01*
X95158901Y-88626588D01*
X95264725Y-88640520D01*
X95299999Y-88645164D01*
X95300000Y-88645164D01*
X95300001Y-88645164D01*
X95328219Y-88641448D01*
X95441099Y-88626588D01*
X95572582Y-88572126D01*
X95685489Y-88485489D01*
X95772126Y-88372582D01*
X95826588Y-88241099D01*
X95845164Y-88100000D01*
X95826588Y-87958901D01*
X95807713Y-87913332D01*
X95772127Y-87827420D01*
X95772126Y-87827419D01*
X95772126Y-87827418D01*
X95685489Y-87714511D01*
X95572582Y-87627874D01*
X95572581Y-87627873D01*
X95572579Y-87627872D01*
X95441103Y-87573413D01*
X95441095Y-87573411D01*
X95300001Y-87554836D01*
X95299999Y-87554836D01*
X95208711Y-87566854D01*
X95158901Y-87573412D01*
X95158900Y-87573412D01*
X95152468Y-87574259D01*
X95152245Y-87572569D01*
X95099333Y-87569785D01*
X95051792Y-87531269D01*
X95035969Y-87472165D01*
X95036677Y-87464461D01*
X95045164Y-87400000D01*
X95026588Y-87258901D01*
X95008201Y-87214511D01*
X94974493Y-87133131D01*
X94969692Y-87072135D01*
X95001662Y-87019966D01*
X95058190Y-86996551D01*
X95103842Y-87003781D01*
X95158901Y-87026588D01*
X95264725Y-87040520D01*
X95299999Y-87045164D01*
X95300000Y-87045164D01*
X95300001Y-87045164D01*
X95328219Y-87041448D01*
X95441099Y-87026588D01*
X95572582Y-86972126D01*
X95685489Y-86885489D01*
X95772126Y-86772582D01*
X95826588Y-86641099D01*
X95845164Y-86500000D01*
X95826588Y-86358901D01*
X95794333Y-86281032D01*
X95789533Y-86220037D01*
X95821502Y-86167868D01*
X95878030Y-86144453D01*
X95898723Y-86144995D01*
X95900000Y-86145164D01*
X96041099Y-86126588D01*
X96172582Y-86072126D01*
X96266578Y-86000000D01*
X99454836Y-86000000D01*
X99473411Y-86141095D01*
X99473413Y-86141103D01*
X99527872Y-86272579D01*
X99527873Y-86272581D01*
X99527874Y-86272582D01*
X99614511Y-86385489D01*
X99727418Y-86472126D01*
X99858901Y-86526588D01*
X99964725Y-86540520D01*
X99999999Y-86545164D01*
X100000000Y-86545164D01*
X100000001Y-86545164D01*
X100028219Y-86541448D01*
X100141099Y-86526588D01*
X100272582Y-86472126D01*
X100385489Y-86385489D01*
X100472126Y-86272582D01*
X100526588Y-86141099D01*
X100545164Y-86000000D01*
X100541663Y-85973411D01*
X100540520Y-85964725D01*
X100526588Y-85858901D01*
X100489764Y-85770000D01*
X100472127Y-85727420D01*
X100472126Y-85727419D01*
X100472126Y-85727418D01*
X100385489Y-85614511D01*
X100272582Y-85527874D01*
X100272581Y-85527873D01*
X100272579Y-85527872D01*
X100141103Y-85473413D01*
X100141095Y-85473411D01*
X100000001Y-85454836D01*
X99999999Y-85454836D01*
X99858904Y-85473411D01*
X99858896Y-85473413D01*
X99727420Y-85527872D01*
X99614512Y-85614510D01*
X99614510Y-85614512D01*
X99527872Y-85727420D01*
X99473413Y-85858896D01*
X99473411Y-85858904D01*
X99454836Y-85999999D01*
X99454836Y-86000000D01*
X96266578Y-86000000D01*
X96285489Y-85985489D01*
X96372126Y-85872582D01*
X96426588Y-85741099D01*
X96445164Y-85600000D01*
X96445139Y-85599813D01*
X96432270Y-85502059D01*
X96426588Y-85458901D01*
X96423742Y-85452029D01*
X96372127Y-85327420D01*
X96372126Y-85327419D01*
X96372126Y-85327418D01*
X96285489Y-85214511D01*
X96172582Y-85127874D01*
X96172581Y-85127873D01*
X96172579Y-85127872D01*
X96041103Y-85073413D01*
X96041095Y-85073411D01*
X95900001Y-85054836D01*
X95899999Y-85054836D01*
X95758904Y-85073411D01*
X95758896Y-85073413D01*
X95627420Y-85127872D01*
X95514512Y-85214510D01*
X95514510Y-85214512D01*
X95427872Y-85327420D01*
X95373413Y-85458896D01*
X95373411Y-85458904D01*
X95354836Y-85599999D01*
X95354836Y-85600000D01*
X95373411Y-85741095D01*
X95373413Y-85741103D01*
X95405665Y-85818966D01*
X95410466Y-85879962D01*
X95378496Y-85932131D01*
X95321968Y-85955546D01*
X95301283Y-85955005D01*
X95300000Y-85954836D01*
X95299999Y-85954836D01*
X95158904Y-85973411D01*
X95158896Y-85973413D01*
X95027420Y-86027872D01*
X94914512Y-86114510D01*
X94914510Y-86114512D01*
X94827872Y-86227420D01*
X94773413Y-86358896D01*
X94773411Y-86358904D01*
X94754836Y-86499999D01*
X94754836Y-86500000D01*
X94773411Y-86641095D01*
X94773413Y-86641104D01*
X94825506Y-86766868D01*
X94830306Y-86827865D01*
X94798337Y-86880034D01*
X94741809Y-86903448D01*
X94696157Y-86896217D01*
X94641104Y-86873413D01*
X94641095Y-86873411D01*
X94500001Y-86854836D01*
X94499999Y-86854836D01*
X94358904Y-86873411D01*
X94358896Y-86873413D01*
X94227420Y-86927872D01*
X94114512Y-87014510D01*
X94114510Y-87014512D01*
X94027872Y-87127420D01*
X93973413Y-87258896D01*
X93973411Y-87258904D01*
X93954836Y-87399999D01*
X93954836Y-87400000D01*
X92500000Y-87400000D01*
X92500000Y-82700000D01*
X94654836Y-82700000D01*
X94673411Y-82841095D01*
X94673413Y-82841103D01*
X94727872Y-82972579D01*
X94727873Y-82972581D01*
X94727874Y-82972582D01*
X94814511Y-83085489D01*
X94870989Y-83128826D01*
X94905644Y-83179251D01*
X94904042Y-83240415D01*
X94889265Y-83267633D01*
X94880071Y-83279615D01*
X94880070Y-83279615D01*
X94825610Y-83411096D01*
X94825608Y-83411101D01*
X94807033Y-83552196D01*
X94807033Y-83552197D01*
X94825608Y-83693292D01*
X94825610Y-83693300D01*
X94880069Y-83824776D01*
X94880071Y-83824780D01*
X94960796Y-83929983D01*
X94981220Y-83987659D01*
X94963842Y-84046324D01*
X94960796Y-84050517D01*
X94880071Y-84155719D01*
X94880069Y-84155723D01*
X94825610Y-84287199D01*
X94825608Y-84287207D01*
X94807033Y-84428302D01*
X94807033Y-84428303D01*
X94825608Y-84569398D01*
X94825610Y-84569406D01*
X94880069Y-84700882D01*
X94880070Y-84700884D01*
X94880071Y-84700885D01*
X94966708Y-84813792D01*
X95079615Y-84900429D01*
X95079616Y-84900429D01*
X95079617Y-84900430D01*
X95199109Y-84949925D01*
X95211098Y-84954891D01*
X95316922Y-84968823D01*
X95352196Y-84973467D01*
X95352197Y-84973467D01*
X95352198Y-84973467D01*
X95380416Y-84969751D01*
X95493296Y-84954891D01*
X95624779Y-84900429D01*
X95737686Y-84813792D01*
X95824323Y-84700885D01*
X95878785Y-84569402D01*
X95897361Y-84428303D01*
X95878785Y-84287204D01*
X95842664Y-84200000D01*
X123754836Y-84200000D01*
X123773411Y-84341095D01*
X123773413Y-84341103D01*
X123827872Y-84472579D01*
X123827873Y-84472581D01*
X123827874Y-84472582D01*
X123914511Y-84585489D01*
X124027418Y-84672126D01*
X124027419Y-84672126D01*
X124027420Y-84672127D01*
X124096841Y-84700882D01*
X124158901Y-84726588D01*
X124264725Y-84740520D01*
X124299999Y-84745164D01*
X124300000Y-84745164D01*
X124300001Y-84745164D01*
X124328219Y-84741448D01*
X124441099Y-84726588D01*
X124572582Y-84672126D01*
X124685489Y-84585489D01*
X124772126Y-84472582D01*
X124826588Y-84341099D01*
X124845164Y-84200000D01*
X124826588Y-84058901D01*
X124822223Y-84048363D01*
X124772127Y-83927420D01*
X124772126Y-83927419D01*
X124772126Y-83927418D01*
X124685489Y-83814511D01*
X124572582Y-83727874D01*
X124572581Y-83727873D01*
X124572579Y-83727872D01*
X124441103Y-83673413D01*
X124441095Y-83673411D01*
X124300001Y-83654836D01*
X124299999Y-83654836D01*
X124158904Y-83673411D01*
X124158896Y-83673413D01*
X124027420Y-83727872D01*
X123914512Y-83814510D01*
X123914510Y-83814512D01*
X123827872Y-83927420D01*
X123773413Y-84058896D01*
X123773411Y-84058904D01*
X123754836Y-84199999D01*
X123754836Y-84200000D01*
X95842664Y-84200000D01*
X95824323Y-84155721D01*
X95743596Y-84050516D01*
X95723173Y-83992842D01*
X95740550Y-83934176D01*
X95743587Y-83929994D01*
X95824323Y-83824779D01*
X95878785Y-83693296D01*
X95897361Y-83552197D01*
X95878785Y-83411098D01*
X95824323Y-83279615D01*
X95737686Y-83166708D01*
X95681206Y-83123369D01*
X95646552Y-83072945D01*
X95648154Y-83011780D01*
X95662934Y-82984559D01*
X95672126Y-82972582D01*
X95726588Y-82841099D01*
X95745164Y-82700000D01*
X95726588Y-82558901D01*
X95672126Y-82427418D01*
X95585489Y-82314511D01*
X95472582Y-82227874D01*
X95472581Y-82227873D01*
X95472579Y-82227872D01*
X95341103Y-82173413D01*
X95341095Y-82173411D01*
X95200001Y-82154836D01*
X95199999Y-82154836D01*
X95058904Y-82173411D01*
X95058896Y-82173413D01*
X94927420Y-82227872D01*
X94814512Y-82314510D01*
X94814510Y-82314512D01*
X94727872Y-82427420D01*
X94673413Y-82558896D01*
X94673411Y-82558904D01*
X94654836Y-82699999D01*
X94654836Y-82700000D01*
X92500000Y-82700000D01*
X92500000Y-79800001D01*
X131354796Y-79800001D01*
X131373543Y-79954405D01*
X131373544Y-79954406D01*
X131428701Y-80099843D01*
X131428702Y-80099845D01*
X131517053Y-80227844D01*
X131517058Y-80227850D01*
X131633477Y-80330989D01*
X131633480Y-80330991D01*
X131633482Y-80330992D01*
X131771208Y-80403276D01*
X131922229Y-80440500D01*
X131922233Y-80440500D01*
X132077767Y-80440500D01*
X132077771Y-80440500D01*
X132228792Y-80403276D01*
X132366518Y-80330992D01*
X132366520Y-80330989D01*
X132366522Y-80330989D01*
X132482941Y-80227850D01*
X132482946Y-80227844D01*
X132571297Y-80099845D01*
X132571300Y-80099841D01*
X132626456Y-79954407D01*
X132638954Y-79851469D01*
X132645204Y-79800001D01*
X132645204Y-79799998D01*
X132626456Y-79645594D01*
X132626456Y-79645593D01*
X132571300Y-79500159D01*
X132571297Y-79500154D01*
X132482946Y-79372155D01*
X132482941Y-79372149D01*
X132366522Y-79269010D01*
X132238084Y-79201601D01*
X132228792Y-79196724D01*
X132228791Y-79196723D01*
X132228790Y-79196723D01*
X132077774Y-79159500D01*
X132077771Y-79159500D01*
X131922229Y-79159500D01*
X131922225Y-79159500D01*
X131771209Y-79196723D01*
X131633477Y-79269010D01*
X131517058Y-79372149D01*
X131517053Y-79372155D01*
X131428702Y-79500154D01*
X131428701Y-79500156D01*
X131373544Y-79645593D01*
X131373543Y-79645594D01*
X131354796Y-79799998D01*
X131354796Y-79800001D01*
X92500000Y-79800001D01*
X92500000Y-77174481D01*
X92518907Y-77116290D01*
X92568407Y-77080326D01*
X92610281Y-77076126D01*
X92822707Y-77100500D01*
X92822716Y-77100500D01*
X93088571Y-77100500D01*
X93088576Y-77100500D01*
X93354008Y-77085322D01*
X93703400Y-77024857D01*
X94043623Y-76924959D01*
X94370241Y-76786929D01*
X94678995Y-76612568D01*
X94965861Y-76404147D01*
X94965870Y-76404138D01*
X94965872Y-76404138D01*
X95144486Y-76240206D01*
X95227099Y-76164385D01*
X95459304Y-75896407D01*
X95659448Y-75603706D01*
X95824921Y-75290098D01*
X95919409Y-75047408D01*
X95937867Y-75000001D01*
X129754796Y-75000001D01*
X129773543Y-75154405D01*
X129773544Y-75154407D01*
X129825004Y-75290096D01*
X129828701Y-75299843D01*
X129828702Y-75299845D01*
X129917053Y-75427844D01*
X129917058Y-75427850D01*
X130033477Y-75530989D01*
X130033480Y-75530991D01*
X130033482Y-75530992D01*
X130171208Y-75603276D01*
X130322229Y-75640500D01*
X130322233Y-75640500D01*
X130477767Y-75640500D01*
X130477771Y-75640500D01*
X130628792Y-75603276D01*
X130766518Y-75530992D01*
X130766520Y-75530989D01*
X130766522Y-75530989D01*
X130882941Y-75427850D01*
X130882946Y-75427844D01*
X130902165Y-75400000D01*
X136000000Y-75400000D01*
X136000000Y-79000000D01*
X139600000Y-79000000D01*
X139600000Y-75500000D01*
X140354836Y-75500000D01*
X140373411Y-75641095D01*
X140373413Y-75641103D01*
X140427872Y-75772579D01*
X140427873Y-75772581D01*
X140427874Y-75772582D01*
X140514511Y-75885489D01*
X140627418Y-75972126D01*
X140758901Y-76026588D01*
X140864725Y-76040520D01*
X140899999Y-76045164D01*
X140900000Y-76045164D01*
X140900001Y-76045164D01*
X140928219Y-76041448D01*
X141041099Y-76026588D01*
X141172582Y-75972126D01*
X141285489Y-75885489D01*
X141372126Y-75772582D01*
X141426588Y-75641099D01*
X141445164Y-75500000D01*
X141426588Y-75358901D01*
X141415027Y-75330990D01*
X141372127Y-75227420D01*
X141372126Y-75227419D01*
X141372126Y-75227418D01*
X141285489Y-75114511D01*
X141285486Y-75114508D01*
X141282232Y-75110268D01*
X141261808Y-75052592D01*
X141279185Y-74993926D01*
X141282232Y-74989732D01*
X141285486Y-74985491D01*
X141285489Y-74985489D01*
X141372126Y-74872582D01*
X141426588Y-74741099D01*
X141445164Y-74600000D01*
X141426588Y-74458901D01*
X141419574Y-74441968D01*
X141372127Y-74327420D01*
X141372126Y-74327419D01*
X141372126Y-74327418D01*
X141285489Y-74214511D01*
X141172582Y-74127874D01*
X141172581Y-74127873D01*
X141172579Y-74127872D01*
X141041103Y-74073413D01*
X141041095Y-74073411D01*
X140900001Y-74054836D01*
X140899999Y-74054836D01*
X140758904Y-74073411D01*
X140758896Y-74073413D01*
X140627420Y-74127872D01*
X140514512Y-74214510D01*
X140514510Y-74214512D01*
X140427872Y-74327420D01*
X140373413Y-74458896D01*
X140373411Y-74458904D01*
X140354836Y-74599999D01*
X140354836Y-74600000D01*
X140373411Y-74741095D01*
X140373413Y-74741103D01*
X140427872Y-74872579D01*
X140427873Y-74872581D01*
X140427874Y-74872582D01*
X140514511Y-74985489D01*
X140517767Y-74989732D01*
X140538191Y-75047408D01*
X140520814Y-75106074D01*
X140517767Y-75110268D01*
X140427872Y-75227420D01*
X140373413Y-75358896D01*
X140373411Y-75358904D01*
X140354836Y-75499999D01*
X140354836Y-75500000D01*
X139600000Y-75500000D01*
X139600000Y-75400000D01*
X136000000Y-75400000D01*
X130902165Y-75400000D01*
X130949800Y-75330989D01*
X130971300Y-75299841D01*
X131026456Y-75154407D01*
X131045204Y-75000000D01*
X131044466Y-74993926D01*
X131026456Y-74845594D01*
X131026456Y-74845593D01*
X130971300Y-74700159D01*
X130971297Y-74700154D01*
X130882946Y-74572155D01*
X130882941Y-74572149D01*
X130766522Y-74469010D01*
X130628790Y-74396723D01*
X130477774Y-74359500D01*
X130477771Y-74359500D01*
X130322229Y-74359500D01*
X130322225Y-74359500D01*
X130171209Y-74396723D01*
X130033477Y-74469010D01*
X129917058Y-74572149D01*
X129917053Y-74572155D01*
X129828702Y-74700154D01*
X129828701Y-74700156D01*
X129773544Y-74845593D01*
X129773543Y-74845594D01*
X129754796Y-74999998D01*
X129754796Y-75000001D01*
X95937867Y-75000001D01*
X95953564Y-74959683D01*
X95953566Y-74959678D01*
X95953568Y-74959672D01*
X96043710Y-74616736D01*
X96081279Y-74355431D01*
X96094172Y-74265767D01*
X96094172Y-74265764D01*
X96094173Y-74265759D01*
X96104299Y-73911317D01*
X96073955Y-73558032D01*
X96003537Y-73210508D01*
X95893964Y-72873277D01*
X95746664Y-72550734D01*
X95563557Y-72247085D01*
X95495982Y-72159453D01*
X95475421Y-72101827D01*
X95492659Y-72043120D01*
X95541112Y-72005757D01*
X95574381Y-72000000D01*
X145401000Y-72000000D01*
X145459191Y-72018907D01*
G37*
%TD.AperFunction*%
%TD*%
%TA.AperFunction,Conductor*%
%TO.N,GNDRF*%
G36*
X103517183Y-100018907D02*
G01*
X103528996Y-100028996D01*
X103971004Y-100471004D01*
X103998781Y-100525521D01*
X104000000Y-100541008D01*
X104000000Y-111458992D01*
X103981093Y-111517183D01*
X103971004Y-111528996D01*
X103528996Y-111971004D01*
X103474479Y-111998781D01*
X103458992Y-112000000D01*
X91341008Y-112000000D01*
X91282817Y-111981093D01*
X91271004Y-111971004D01*
X90828996Y-111528996D01*
X90801219Y-111474479D01*
X90800000Y-111458992D01*
X90800000Y-100541008D01*
X90818907Y-100482817D01*
X90828996Y-100471004D01*
X91271004Y-100028996D01*
X91325521Y-100001219D01*
X91341008Y-100000000D01*
X103458992Y-100000000D01*
X103517183Y-100018907D01*
G37*
%TD.AperFunction*%
%TD*%
%TA.AperFunction,Conductor*%
%TO.N,GND*%
G36*
X162342308Y-72518907D02*
G01*
X162378272Y-72568407D01*
X162378272Y-72629593D01*
X162367942Y-72651672D01*
X162346745Y-72685404D01*
X162346744Y-72685408D01*
X162293121Y-72838652D01*
X162293118Y-72838664D01*
X162274941Y-72999995D01*
X162274941Y-73000004D01*
X162293118Y-73161335D01*
X162293121Y-73161347D01*
X162346744Y-73314591D01*
X162346744Y-73314592D01*
X162433123Y-73452063D01*
X162433126Y-73452067D01*
X162547933Y-73566874D01*
X162685409Y-73653256D01*
X162746777Y-73674729D01*
X162838652Y-73706878D01*
X162838656Y-73706879D01*
X162838659Y-73706880D01*
X162838660Y-73706880D01*
X162838664Y-73706881D01*
X162999996Y-73725059D01*
X163000000Y-73725059D01*
X163000004Y-73725059D01*
X163161335Y-73706881D01*
X163161337Y-73706880D01*
X163161341Y-73706880D01*
X163314591Y-73653256D01*
X163452067Y-73566874D01*
X163566874Y-73452067D01*
X163653256Y-73314591D01*
X163706880Y-73161341D01*
X163720516Y-73040321D01*
X163725059Y-73000004D01*
X163725059Y-72999995D01*
X163706881Y-72838664D01*
X163706878Y-72838652D01*
X163684960Y-72776017D01*
X163653256Y-72685409D01*
X163653254Y-72685407D01*
X163653254Y-72685404D01*
X163632058Y-72651672D01*
X163617107Y-72592341D01*
X163639886Y-72535554D01*
X163691693Y-72503001D01*
X163715883Y-72500000D01*
X164121659Y-72500000D01*
X164179850Y-72518907D01*
X164215814Y-72568407D01*
X164215814Y-72629593D01*
X164209218Y-72645200D01*
X164175082Y-72709894D01*
X164175078Y-72709903D01*
X164046435Y-73040316D01*
X164046433Y-73040321D01*
X163956289Y-73383266D01*
X163956288Y-73383273D01*
X163905827Y-73734232D01*
X163905827Y-73734235D01*
X163905827Y-73734241D01*
X163895790Y-74085588D01*
X163895701Y-74088689D01*
X163926045Y-74441968D01*
X163996463Y-74789492D01*
X164106036Y-75126723D01*
X164139501Y-75200001D01*
X164253333Y-75449261D01*
X164253334Y-75449262D01*
X164253336Y-75449266D01*
X164413224Y-75714411D01*
X164436443Y-75752915D01*
X164436450Y-75752925D01*
X164652968Y-76033710D01*
X164652971Y-76033713D01*
X164900099Y-76288001D01*
X165042140Y-76404147D01*
X165174595Y-76512455D01*
X165472891Y-76704159D01*
X165791096Y-76860609D01*
X166125061Y-76979768D01*
X166470432Y-77060080D01*
X166822707Y-77100500D01*
X166822711Y-77100500D01*
X167088571Y-77100500D01*
X167088576Y-77100500D01*
X167354008Y-77085322D01*
X167703400Y-77024857D01*
X168043623Y-76924959D01*
X168370241Y-76786929D01*
X168678995Y-76612568D01*
X168842809Y-76493550D01*
X168901000Y-76474642D01*
X168959190Y-76493549D01*
X168995154Y-76543049D01*
X169000000Y-76573642D01*
X169000000Y-78187529D01*
X168981093Y-78245720D01*
X168931593Y-78281684D01*
X168870407Y-78281684D01*
X168830998Y-78257534D01*
X168810095Y-78236632D01*
X168798400Y-78225820D01*
X168780531Y-78210560D01*
X168767770Y-78200500D01*
X168755528Y-78190849D01*
X168755526Y-78190848D01*
X168755525Y-78190847D01*
X168642495Y-78133256D01*
X168642485Y-78133252D01*
X168584293Y-78114345D01*
X168458995Y-78094500D01*
X168458992Y-78094500D01*
X167886048Y-78094500D01*
X167886047Y-78094500D01*
X167881416Y-78094640D01*
X167873807Y-78094870D01*
X167873160Y-78094909D01*
X167870175Y-78094999D01*
X167729823Y-78094999D01*
X167726861Y-78094910D01*
X167726391Y-78094881D01*
X167726194Y-78094870D01*
X167720072Y-78094685D01*
X167713952Y-78094500D01*
X165087085Y-78094500D01*
X165085932Y-78094640D01*
X165079966Y-78095000D01*
X164976203Y-78095000D01*
X164952512Y-78092123D01*
X164906292Y-78080731D01*
X164883979Y-78072269D01*
X164841834Y-78050149D01*
X164822194Y-78036592D01*
X164786559Y-78005022D01*
X164770737Y-77987164D01*
X164743698Y-77947991D01*
X164732611Y-77926866D01*
X164698498Y-77836917D01*
X164698246Y-77831690D01*
X164685369Y-77802132D01*
X164684466Y-77799914D01*
X164682789Y-77795494D01*
X164680428Y-77790785D01*
X164669232Y-77765075D01*
X164669182Y-77764976D01*
X164663679Y-77752344D01*
X164663677Y-77752341D01*
X164663675Y-77752336D01*
X164601854Y-77652814D01*
X164601851Y-77652809D01*
X164505883Y-77569839D01*
X164505877Y-77569835D01*
X164453910Y-77537556D01*
X164336998Y-77488299D01*
X164306292Y-77480731D01*
X164283979Y-77472268D01*
X164241836Y-77450150D01*
X164222194Y-77436592D01*
X164186559Y-77405022D01*
X164170737Y-77387163D01*
X164143698Y-77347991D01*
X164132613Y-77326872D01*
X164104185Y-77251911D01*
X164102255Y-77245569D01*
X164095441Y-77216210D01*
X164081574Y-77176418D01*
X164044407Y-77097989D01*
X163962013Y-77001517D01*
X163915489Y-76961781D01*
X163915486Y-76961779D01*
X163855402Y-76924959D01*
X163807319Y-76895493D01*
X163807316Y-76895492D01*
X163807313Y-76895490D01*
X163173371Y-76632902D01*
X163173365Y-76632900D01*
X163173354Y-76632896D01*
X163097296Y-76609825D01*
X163059411Y-76602290D01*
X163059404Y-76602289D01*
X162980316Y-76594500D01*
X162980308Y-76594500D01*
X162019692Y-76594500D01*
X162019684Y-76594500D01*
X161940605Y-76602288D01*
X161940580Y-76602292D01*
X161902719Y-76609822D01*
X161902707Y-76609825D01*
X161826626Y-76632902D01*
X161009461Y-76971383D01*
X160939356Y-77008855D01*
X160939353Y-77008856D01*
X160907251Y-77030306D01*
X160845799Y-77080736D01*
X160845794Y-77080740D01*
X160845794Y-77080741D01*
X160089616Y-77836920D01*
X159361032Y-78565504D01*
X159306515Y-78593281D01*
X159291028Y-78594500D01*
X159000000Y-78594500D01*
X159000000Y-75400000D01*
X155400000Y-75400000D01*
X155400000Y-78594500D01*
X149097844Y-78594500D01*
X149090796Y-78594935D01*
X149072863Y-78596044D01*
X149066449Y-78596839D01*
X149036247Y-78600586D01*
X148987103Y-78609789D01*
X148987101Y-78609789D01*
X148870438Y-78659652D01*
X148820680Y-78690916D01*
X148819890Y-78691360D01*
X148818623Y-78692210D01*
X148723087Y-78775678D01*
X148723086Y-78775680D01*
X148710641Y-78796509D01*
X148664563Y-78836764D01*
X148603624Y-78842247D01*
X148592958Y-78839174D01*
X148461347Y-78793121D01*
X148461335Y-78793118D01*
X148300004Y-78774941D01*
X148299996Y-78774941D01*
X148138664Y-78793118D01*
X148138657Y-78793120D01*
X148005928Y-78839564D01*
X147944758Y-78840936D01*
X147894464Y-78806092D01*
X147893139Y-78804311D01*
X147875881Y-78780558D01*
X147786170Y-78690848D01*
X147786169Y-78690847D01*
X147673138Y-78633256D01*
X147673128Y-78633252D01*
X147614936Y-78614345D01*
X147489638Y-78594500D01*
X147489635Y-78594500D01*
X145419116Y-78594500D01*
X145366444Y-78579325D01*
X145314595Y-78546745D01*
X145314591Y-78546744D01*
X145161347Y-78493121D01*
X145161335Y-78493118D01*
X145000004Y-78474941D01*
X144999996Y-78474941D01*
X144838664Y-78493118D01*
X144838652Y-78493121D01*
X144685408Y-78546744D01*
X144685404Y-78546745D01*
X144633556Y-78579325D01*
X144580884Y-78594500D01*
X143033044Y-78594500D01*
X143017128Y-78595125D01*
X143005453Y-78596044D01*
X142993701Y-78596969D01*
X142962090Y-78600711D01*
X142962087Y-78600711D01*
X142841431Y-78639914D01*
X142841430Y-78639914D01*
X142803673Y-78659152D01*
X142786915Y-78667691D01*
X142786911Y-78667693D01*
X142786910Y-78667694D01*
X142786908Y-78667694D01*
X142684276Y-78742260D01*
X142684270Y-78742265D01*
X142236632Y-79189905D01*
X142225820Y-79201600D01*
X142210560Y-79219469D01*
X142190847Y-79244474D01*
X142133256Y-79357504D01*
X142133252Y-79357514D01*
X142114345Y-79415706D01*
X142094500Y-79541004D01*
X142094500Y-86909328D01*
X142093145Y-86909328D01*
X142078212Y-86963778D01*
X142030436Y-87002003D01*
X142019196Y-87005494D01*
X141978350Y-87015562D01*
X141844926Y-87085588D01*
X141732137Y-87185512D01*
X141646539Y-87309523D01*
X141646537Y-87309526D01*
X141593108Y-87450406D01*
X141593105Y-87450415D01*
X141574943Y-87599998D01*
X141574943Y-87600001D01*
X141593105Y-87749584D01*
X141593108Y-87749593D01*
X141646537Y-87890473D01*
X141646539Y-87890476D01*
X141646540Y-87890478D01*
X141732138Y-88014489D01*
X141844927Y-88114412D01*
X141978352Y-88184438D01*
X142124658Y-88220500D01*
X142124662Y-88220500D01*
X142275338Y-88220500D01*
X142275342Y-88220500D01*
X142275345Y-88220499D01*
X142281283Y-88219778D01*
X142281687Y-88223110D01*
X142328975Y-88225706D01*
X142376430Y-88264329D01*
X142392120Y-88323468D01*
X142370052Y-88380535D01*
X142369799Y-88380846D01*
X142342730Y-88413830D01*
X142342724Y-88413839D01*
X142245234Y-88596232D01*
X142245232Y-88596237D01*
X142185191Y-88794166D01*
X142179692Y-88849998D01*
X142179694Y-88850000D01*
X142742935Y-88850000D01*
X142720000Y-88928111D01*
X142720000Y-89071889D01*
X142742935Y-89150000D01*
X142179694Y-89150000D01*
X142179692Y-89150001D01*
X142185191Y-89205833D01*
X142185190Y-89205833D01*
X142245232Y-89403762D01*
X142245234Y-89403767D01*
X142342724Y-89586160D01*
X142342731Y-89586170D01*
X142473940Y-89746050D01*
X142473949Y-89746059D01*
X142633829Y-89877268D01*
X142633839Y-89877275D01*
X142816232Y-89974765D01*
X142816237Y-89974767D01*
X143014166Y-90034808D01*
X143069998Y-90040307D01*
X143070000Y-90040306D01*
X143070000Y-89481170D01*
X143077685Y-89484680D01*
X143184237Y-89500000D01*
X143255763Y-89500000D01*
X143362315Y-89484680D01*
X143370000Y-89481170D01*
X143370000Y-90040306D01*
X143370001Y-90040307D01*
X143425833Y-90034808D01*
X143623762Y-89974767D01*
X143623767Y-89974765D01*
X143806160Y-89877275D01*
X143806170Y-89877268D01*
X143966050Y-89746059D01*
X143966059Y-89746050D01*
X144097268Y-89586170D01*
X144097275Y-89586160D01*
X144194765Y-89403767D01*
X144194767Y-89403762D01*
X144254808Y-89205833D01*
X144260307Y-89150001D01*
X144260306Y-89150000D01*
X143697065Y-89150000D01*
X143720000Y-89071889D01*
X143720000Y-88928111D01*
X143697065Y-88850000D01*
X144260306Y-88850000D01*
X144260307Y-88849998D01*
X144254808Y-88794166D01*
X144254809Y-88794166D01*
X144194767Y-88596237D01*
X144194765Y-88596232D01*
X144097275Y-88413839D01*
X144097268Y-88413829D01*
X143966059Y-88253949D01*
X143966050Y-88253940D01*
X143899222Y-88199096D01*
X143866235Y-88147565D01*
X143869837Y-88086486D01*
X143908652Y-88039189D01*
X143916006Y-88034915D01*
X143955073Y-88014412D01*
X144067862Y-87914489D01*
X144079967Y-87896951D01*
X144128580Y-87859802D01*
X144189747Y-87858322D01*
X144206391Y-87864981D01*
X144209856Y-87866747D01*
X144268047Y-87885654D01*
X144318168Y-87893592D01*
X144393348Y-87905500D01*
X144393351Y-87905500D01*
X145185009Y-87905500D01*
X145243200Y-87924407D01*
X145279164Y-87973907D01*
X145279164Y-88035093D01*
X145243200Y-88084593D01*
X145231677Y-88091810D01*
X145173839Y-88122724D01*
X145173829Y-88122731D01*
X145013949Y-88253940D01*
X145013940Y-88253949D01*
X144882731Y-88413829D01*
X144882724Y-88413839D01*
X144785234Y-88596232D01*
X144785232Y-88596237D01*
X144725191Y-88794166D01*
X144719692Y-88849998D01*
X144719694Y-88850000D01*
X145282935Y-88850000D01*
X145260000Y-88928111D01*
X145260000Y-89071889D01*
X145282935Y-89150000D01*
X144719694Y-89150000D01*
X144719692Y-89150001D01*
X144725191Y-89205833D01*
X144725190Y-89205833D01*
X144785232Y-89403762D01*
X144785234Y-89403767D01*
X144882724Y-89586160D01*
X144882731Y-89586170D01*
X145013940Y-89746050D01*
X145013949Y-89746059D01*
X145173829Y-89877268D01*
X145173839Y-89877275D01*
X145356232Y-89974765D01*
X145356237Y-89974767D01*
X145554166Y-90034808D01*
X145609998Y-90040307D01*
X145610000Y-90040306D01*
X145610000Y-89481170D01*
X145617685Y-89484680D01*
X145724237Y-89500000D01*
X145795763Y-89500000D01*
X145902315Y-89484680D01*
X145910000Y-89481170D01*
X145910000Y-90040306D01*
X145910001Y-90040307D01*
X145965833Y-90034808D01*
X146163762Y-89974767D01*
X146276860Y-89914315D01*
X146337093Y-89903559D01*
X146392144Y-89930260D01*
X146420987Y-89984221D01*
X146421807Y-89989691D01*
X146429080Y-90049584D01*
X146429082Y-90049593D01*
X146482511Y-90190473D01*
X146482513Y-90190476D01*
X146482514Y-90190478D01*
X146568112Y-90314489D01*
X146680901Y-90414412D01*
X146814326Y-90484438D01*
X146960632Y-90520500D01*
X146960636Y-90520500D01*
X147111312Y-90520500D01*
X147111316Y-90520500D01*
X147257622Y-90484438D01*
X147391047Y-90414412D01*
X147503836Y-90314489D01*
X147589434Y-90190478D01*
X147642868Y-90049586D01*
X147649412Y-89995688D01*
X147675195Y-89940202D01*
X147728669Y-89910466D01*
X147789409Y-89917841D01*
X147794359Y-89920312D01*
X147896237Y-89974767D01*
X148094166Y-90034808D01*
X148149998Y-90040307D01*
X148150000Y-90040306D01*
X148150000Y-89481170D01*
X148157685Y-89484680D01*
X148264237Y-89500000D01*
X148335763Y-89500000D01*
X148442315Y-89484680D01*
X148450000Y-89481170D01*
X148450000Y-90040306D01*
X148450001Y-90040307D01*
X148505833Y-90034808D01*
X148703762Y-89974767D01*
X148703767Y-89974765D01*
X148886160Y-89877275D01*
X148886170Y-89877268D01*
X149046050Y-89746059D01*
X149046059Y-89746050D01*
X149177268Y-89586170D01*
X149177275Y-89586160D01*
X149274765Y-89403767D01*
X149274767Y-89403762D01*
X149334808Y-89205833D01*
X149340307Y-89150001D01*
X149340306Y-89150000D01*
X148777065Y-89150000D01*
X148800000Y-89071889D01*
X148800000Y-88928111D01*
X148777065Y-88850000D01*
X149340306Y-88850000D01*
X149340307Y-88849998D01*
X149334808Y-88794166D01*
X149334809Y-88794166D01*
X149274767Y-88596237D01*
X149274765Y-88596232D01*
X149177275Y-88413839D01*
X149177268Y-88413829D01*
X149046059Y-88253949D01*
X149046050Y-88253940D01*
X148886170Y-88122731D01*
X148886160Y-88122724D01*
X148828323Y-88091810D01*
X148785916Y-88047705D01*
X148777533Y-87987096D01*
X148806375Y-87933135D01*
X148861427Y-87906434D01*
X148874991Y-87905500D01*
X150265009Y-87905500D01*
X150323200Y-87924407D01*
X150359164Y-87973907D01*
X150359164Y-88035093D01*
X150323200Y-88084593D01*
X150311677Y-88091810D01*
X150253839Y-88122724D01*
X150253829Y-88122731D01*
X150093949Y-88253940D01*
X150093940Y-88253949D01*
X149962731Y-88413829D01*
X149962724Y-88413839D01*
X149865234Y-88596232D01*
X149865232Y-88596237D01*
X149805191Y-88794166D01*
X149799692Y-88849998D01*
X149799694Y-88850000D01*
X150362935Y-88850000D01*
X150340000Y-88928111D01*
X150340000Y-89071889D01*
X150362935Y-89150000D01*
X149799694Y-89150000D01*
X149799692Y-89150001D01*
X149805191Y-89205833D01*
X149805190Y-89205833D01*
X149865232Y-89403762D01*
X149865234Y-89403767D01*
X149962724Y-89586160D01*
X149962731Y-89586170D01*
X150093940Y-89746050D01*
X150093949Y-89746059D01*
X150253829Y-89877268D01*
X150253839Y-89877275D01*
X150436232Y-89974765D01*
X150436237Y-89974767D01*
X150634166Y-90034808D01*
X150689998Y-90040307D01*
X150690000Y-90040306D01*
X150690000Y-89481170D01*
X150697685Y-89484680D01*
X150804237Y-89500000D01*
X150875763Y-89500000D01*
X150982315Y-89484680D01*
X150990000Y-89481170D01*
X150990000Y-90040306D01*
X150990001Y-90040307D01*
X151045833Y-90034808D01*
X151243762Y-89974767D01*
X151243767Y-89974765D01*
X151426160Y-89877275D01*
X151426170Y-89877268D01*
X151586050Y-89746059D01*
X151586059Y-89746050D01*
X151717268Y-89586170D01*
X151717275Y-89586160D01*
X151814765Y-89403767D01*
X151814767Y-89403762D01*
X151874808Y-89205833D01*
X151880307Y-89150001D01*
X151880306Y-89150000D01*
X151317065Y-89150000D01*
X151340000Y-89071889D01*
X151340000Y-88928111D01*
X151317065Y-88850000D01*
X151880306Y-88850000D01*
X151880307Y-88849998D01*
X151874808Y-88794166D01*
X151874809Y-88794166D01*
X151814767Y-88596237D01*
X151814765Y-88596232D01*
X151717275Y-88413839D01*
X151717268Y-88413829D01*
X151586059Y-88253949D01*
X151586050Y-88253940D01*
X151426170Y-88122731D01*
X151426160Y-88122724D01*
X151368323Y-88091810D01*
X151325916Y-88047705D01*
X151317533Y-87987096D01*
X151346375Y-87933135D01*
X151401427Y-87906434D01*
X151414991Y-87905500D01*
X152587630Y-87905500D01*
X152645821Y-87924407D01*
X152681785Y-87973907D01*
X152681785Y-88035093D01*
X152654327Y-88077659D01*
X152511284Y-88208061D01*
X152497959Y-88225706D01*
X152380558Y-88381169D01*
X152380553Y-88381178D01*
X152283866Y-88575352D01*
X152283865Y-88575355D01*
X152224500Y-88784000D01*
X152204485Y-89000000D01*
X152224500Y-89216000D01*
X152283865Y-89424645D01*
X152380557Y-89618829D01*
X152511284Y-89791939D01*
X152671594Y-89938081D01*
X152856028Y-90052278D01*
X153058305Y-90130640D01*
X153271537Y-90170500D01*
X153488463Y-90170500D01*
X153701695Y-90130640D01*
X153903972Y-90052278D01*
X154088406Y-89938081D01*
X154248716Y-89791939D01*
X154379443Y-89618829D01*
X154476135Y-89424645D01*
X154535500Y-89216000D01*
X154551422Y-89044164D01*
X154569771Y-89001546D01*
X154564880Y-88997250D01*
X154551422Y-88955833D01*
X154535500Y-88784000D01*
X154476135Y-88575355D01*
X154379443Y-88381171D01*
X154248716Y-88208061D01*
X154105672Y-88077659D01*
X154075408Y-88024486D01*
X154082179Y-87963677D01*
X154123399Y-87918460D01*
X154172370Y-87905500D01*
X155127629Y-87905500D01*
X155185820Y-87924407D01*
X155221784Y-87973907D01*
X155221784Y-88035093D01*
X155194325Y-88077661D01*
X155051284Y-88208061D01*
X155037959Y-88225706D01*
X154920558Y-88381169D01*
X154920553Y-88381178D01*
X154823866Y-88575352D01*
X154823865Y-88575355D01*
X154764500Y-88784000D01*
X154751147Y-88928111D01*
X154748578Y-88955833D01*
X154730228Y-88998451D01*
X154735120Y-89002748D01*
X154748577Y-89044163D01*
X154764500Y-89216000D01*
X154823865Y-89424645D01*
X154920557Y-89618829D01*
X155051284Y-89791939D01*
X155211594Y-89938081D01*
X155396028Y-90052278D01*
X155598305Y-90130640D01*
X155811537Y-90170500D01*
X156028463Y-90170500D01*
X156241695Y-90130640D01*
X156443972Y-90052278D01*
X156628406Y-89938081D01*
X156788716Y-89791939D01*
X156919443Y-89618829D01*
X156919445Y-89618824D01*
X156920055Y-89618017D01*
X156970212Y-89582974D01*
X157031386Y-89584105D01*
X157047833Y-89591526D01*
X157084810Y-89612461D01*
X157207149Y-89646058D01*
X157207156Y-89646058D01*
X157207157Y-89646059D01*
X157216476Y-89647097D01*
X157267959Y-89652832D01*
X157267968Y-89652833D01*
X157394701Y-89646979D01*
X157394708Y-89646976D01*
X157402330Y-89645406D01*
X157402678Y-89647097D01*
X157454342Y-89644707D01*
X157505452Y-89678344D01*
X157507138Y-89680514D01*
X157591275Y-89791928D01*
X157591279Y-89791932D01*
X157591284Y-89791939D01*
X157751594Y-89938081D01*
X157805758Y-89971618D01*
X157845280Y-90018325D01*
X157849906Y-90078898D01*
X157849302Y-90081417D01*
X157848531Y-90084628D01*
X157848531Y-90084631D01*
X157858483Y-90211104D01*
X157872766Y-90270599D01*
X157872767Y-90270601D01*
X157872768Y-90270604D01*
X157921318Y-90387815D01*
X157921318Y-90387816D01*
X157924300Y-90395013D01*
X157921469Y-90396185D01*
X157932539Y-90442338D01*
X157909112Y-90498860D01*
X157885964Y-90518719D01*
X157751596Y-90601917D01*
X157591285Y-90748060D01*
X157460558Y-90921169D01*
X157460553Y-90921178D01*
X157397091Y-91048628D01*
X157363865Y-91115355D01*
X157342938Y-91188907D01*
X157304500Y-91324000D01*
X157288578Y-91495833D01*
X157270228Y-91538451D01*
X157275120Y-91542748D01*
X157288577Y-91584163D01*
X157304500Y-91756000D01*
X157363865Y-91964645D01*
X157460557Y-92158829D01*
X157591284Y-92331939D01*
X157751594Y-92478081D01*
X157936028Y-92592278D01*
X158138305Y-92670640D01*
X158351537Y-92710500D01*
X158568463Y-92710500D01*
X158781695Y-92670640D01*
X158983972Y-92592278D01*
X159168406Y-92478081D01*
X159328716Y-92331939D01*
X159459443Y-92158829D01*
X159556135Y-91964645D01*
X159615500Y-91756000D01*
X159631422Y-91584164D01*
X159649771Y-91541546D01*
X159644880Y-91537250D01*
X159631422Y-91495833D01*
X159615500Y-91324000D01*
X159556135Y-91115355D01*
X159522909Y-91048628D01*
X159513896Y-90988110D01*
X159542176Y-90933852D01*
X159596947Y-90906580D01*
X159611530Y-90905500D01*
X159848470Y-90905500D01*
X159906661Y-90924407D01*
X159942625Y-90973907D01*
X159942625Y-91035093D01*
X159937090Y-91048628D01*
X159903865Y-91115355D01*
X159882938Y-91188907D01*
X159844500Y-91324000D01*
X159828578Y-91495833D01*
X159810228Y-91538451D01*
X159815120Y-91542748D01*
X159828577Y-91584163D01*
X159844500Y-91756000D01*
X159903865Y-91964645D01*
X160000557Y-92158829D01*
X160131284Y-92331939D01*
X160291594Y-92478081D01*
X160476028Y-92592278D01*
X160678305Y-92670640D01*
X160891537Y-92710500D01*
X161108463Y-92710500D01*
X161321695Y-92670640D01*
X161523972Y-92592278D01*
X161708406Y-92478081D01*
X161868716Y-92331939D01*
X161999443Y-92158829D01*
X162096135Y-91964645D01*
X162155500Y-91756000D01*
X162175515Y-91540000D01*
X162155500Y-91324000D01*
X162096135Y-91115355D01*
X162062909Y-91048628D01*
X162053896Y-90988110D01*
X162082176Y-90933852D01*
X162136947Y-90906580D01*
X162151530Y-90905500D01*
X168466955Y-90905500D01*
X168466956Y-90905500D01*
X168482872Y-90904875D01*
X168494585Y-90903953D01*
X168506299Y-90903031D01*
X168509644Y-90902634D01*
X168537909Y-90899289D01*
X168658568Y-90860086D01*
X168713085Y-90832309D01*
X168713089Y-90832307D01*
X168815728Y-90757736D01*
X168830998Y-90742465D01*
X168885510Y-90714689D01*
X168945943Y-90724259D01*
X168989208Y-90767522D01*
X169000000Y-90812470D01*
X169000000Y-101801709D01*
X168981093Y-101859900D01*
X168933698Y-101895153D01*
X168816745Y-101936077D01*
X168816744Y-101936077D01*
X168660192Y-102034445D01*
X168529445Y-102165192D01*
X168431077Y-102321744D01*
X168431077Y-102321745D01*
X168370011Y-102496259D01*
X168370008Y-102496271D01*
X168349308Y-102679995D01*
X168349308Y-102680004D01*
X168370008Y-102863728D01*
X168370011Y-102863740D01*
X168431077Y-103038254D01*
X168431077Y-103038255D01*
X168529445Y-103194807D01*
X168529448Y-103194811D01*
X168660189Y-103325552D01*
X168660191Y-103325553D01*
X168660192Y-103325554D01*
X168816742Y-103423921D01*
X168816743Y-103423921D01*
X168816746Y-103423923D01*
X168933698Y-103464846D01*
X168982378Y-103501911D01*
X169000000Y-103558290D01*
X169000000Y-110441709D01*
X168981093Y-110499900D01*
X168933698Y-110535153D01*
X168816745Y-110576077D01*
X168816744Y-110576077D01*
X168660192Y-110674445D01*
X168529445Y-110805192D01*
X168431077Y-110961744D01*
X168431077Y-110961745D01*
X168370011Y-111136259D01*
X168370008Y-111136271D01*
X168349308Y-111319995D01*
X168349308Y-111320004D01*
X168370008Y-111503728D01*
X168370011Y-111503740D01*
X168431077Y-111678254D01*
X168431077Y-111678255D01*
X168516630Y-111814412D01*
X168529448Y-111834811D01*
X168660189Y-111965552D01*
X168660191Y-111965553D01*
X168660192Y-111965554D01*
X168816742Y-112063921D01*
X168816743Y-112063921D01*
X168816746Y-112063923D01*
X168933698Y-112104846D01*
X168982378Y-112141911D01*
X169000000Y-112198290D01*
X169000000Y-113401000D01*
X168981093Y-113459191D01*
X168931593Y-113495155D01*
X168901000Y-113500000D01*
X159499999Y-113500000D01*
X159028995Y-113971004D01*
X158974479Y-113998781D01*
X158958992Y-114000000D01*
X157041008Y-114000000D01*
X156982817Y-113981093D01*
X156971005Y-113971004D01*
X156500000Y-113500000D01*
X124099000Y-113500000D01*
X124040809Y-113481093D01*
X124004845Y-113431593D01*
X124000000Y-113401000D01*
X124000000Y-112800001D01*
X157274943Y-112800001D01*
X157293105Y-112949584D01*
X157293108Y-112949593D01*
X157346537Y-113090473D01*
X157346539Y-113090476D01*
X157346540Y-113090478D01*
X157432138Y-113214489D01*
X157544927Y-113314412D01*
X157678352Y-113384438D01*
X157824658Y-113420500D01*
X157824662Y-113420500D01*
X157975338Y-113420500D01*
X157975342Y-113420500D01*
X158121648Y-113384438D01*
X158255073Y-113314412D01*
X158367862Y-113214489D01*
X158453460Y-113090478D01*
X158506894Y-112949586D01*
X158525057Y-112800000D01*
X158506894Y-112650414D01*
X158453460Y-112509522D01*
X158367862Y-112385511D01*
X158255073Y-112285588D01*
X158121649Y-112215562D01*
X157975343Y-112179500D01*
X157975342Y-112179500D01*
X157824658Y-112179500D01*
X157824656Y-112179500D01*
X157678351Y-112215562D01*
X157678350Y-112215562D01*
X157544926Y-112285588D01*
X157432137Y-112385512D01*
X157346539Y-112509523D01*
X157346537Y-112509526D01*
X157293108Y-112650406D01*
X157293105Y-112650415D01*
X157274943Y-112799998D01*
X157274943Y-112800001D01*
X124000000Y-112800001D01*
X124000000Y-110600001D01*
X128574943Y-110600001D01*
X128593105Y-110749584D01*
X128593108Y-110749593D01*
X128646537Y-110890473D01*
X128646539Y-110890476D01*
X128646540Y-110890478D01*
X128732138Y-111014489D01*
X128844927Y-111114412D01*
X128978352Y-111184438D01*
X129124658Y-111220500D01*
X129124662Y-111220500D01*
X129275338Y-111220500D01*
X129275342Y-111220500D01*
X129421648Y-111184438D01*
X129555073Y-111114412D01*
X129667862Y-111014489D01*
X129753460Y-110890478D01*
X129806894Y-110749586D01*
X129825057Y-110600000D01*
X129814737Y-110515011D01*
X129806894Y-110450415D01*
X129806891Y-110450406D01*
X129753462Y-110309526D01*
X129753460Y-110309523D01*
X129753460Y-110309522D01*
X129667862Y-110185511D01*
X129555073Y-110085588D01*
X129519416Y-110066874D01*
X129421649Y-110015562D01*
X129275343Y-109979500D01*
X129275342Y-109979500D01*
X129124658Y-109979500D01*
X129124656Y-109979500D01*
X128978351Y-110015562D01*
X128978350Y-110015562D01*
X128844926Y-110085588D01*
X128732137Y-110185512D01*
X128646539Y-110309523D01*
X128646537Y-110309526D01*
X128593108Y-110450406D01*
X128593105Y-110450415D01*
X128574943Y-110599998D01*
X128574943Y-110600001D01*
X124000000Y-110600001D01*
X124000000Y-103600004D01*
X127074941Y-103600004D01*
X127093118Y-103761335D01*
X127093121Y-103761347D01*
X127146744Y-103914591D01*
X127146744Y-103914592D01*
X127233123Y-104052063D01*
X127233126Y-104052067D01*
X127347933Y-104166874D01*
X127485409Y-104253256D01*
X127546777Y-104274729D01*
X127638652Y-104306878D01*
X127638656Y-104306879D01*
X127638659Y-104306880D01*
X127638660Y-104306880D01*
X127638664Y-104306881D01*
X127753135Y-104319779D01*
X127808843Y-104345082D01*
X127812054Y-104348152D01*
X134625656Y-111161754D01*
X134668427Y-111207551D01*
X134668426Y-111207551D01*
X134668428Y-111207552D01*
X134668430Y-111207554D01*
X134704601Y-111229549D01*
X134708772Y-111232389D01*
X134727339Y-111246469D01*
X134742498Y-111257965D01*
X134742499Y-111257965D01*
X134742500Y-111257966D01*
X134759735Y-111264762D01*
X134774860Y-111272275D01*
X134790676Y-111281894D01*
X134790680Y-111281895D01*
X134790682Y-111281897D01*
X134790683Y-111281897D01*
X134790687Y-111281899D01*
X134811909Y-111287844D01*
X134831427Y-111293313D01*
X134836216Y-111294923D01*
X134875605Y-111310456D01*
X134894047Y-111312351D01*
X134910622Y-111315502D01*
X134928459Y-111320500D01*
X134970769Y-111320500D01*
X134975834Y-111320760D01*
X134986165Y-111321821D01*
X135017938Y-111325088D01*
X135036202Y-111321939D01*
X135053022Y-111320500D01*
X152360552Y-111320500D01*
X152418743Y-111339407D01*
X152430549Y-111349490D01*
X152447933Y-111366874D01*
X152585409Y-111453256D01*
X152646777Y-111474729D01*
X152738652Y-111506878D01*
X152738656Y-111506879D01*
X152738659Y-111506880D01*
X152738660Y-111506880D01*
X152738664Y-111506881D01*
X152899996Y-111525059D01*
X152900000Y-111525059D01*
X152900004Y-111525059D01*
X153061335Y-111506881D01*
X153061337Y-111506880D01*
X153061341Y-111506880D01*
X153214591Y-111453256D01*
X153352067Y-111366874D01*
X153466874Y-111252067D01*
X153553256Y-111114591D01*
X153606880Y-110961341D01*
X153606881Y-110961335D01*
X153625059Y-110800004D01*
X154274941Y-110800004D01*
X154293118Y-110961335D01*
X154293121Y-110961347D01*
X154346744Y-111114591D01*
X154346744Y-111114592D01*
X154420765Y-111232395D01*
X154433126Y-111252067D01*
X154547933Y-111366874D01*
X154685409Y-111453256D01*
X154746777Y-111474729D01*
X154838652Y-111506878D01*
X154838656Y-111506879D01*
X154838659Y-111506880D01*
X154838660Y-111506880D01*
X154838664Y-111506881D01*
X154999996Y-111525059D01*
X155000000Y-111525059D01*
X155000004Y-111525059D01*
X155161335Y-111506881D01*
X155161337Y-111506880D01*
X155161341Y-111506880D01*
X155314591Y-111453256D01*
X155452067Y-111366874D01*
X155518940Y-111300001D01*
X158374943Y-111300001D01*
X158393105Y-111449584D01*
X158393108Y-111449593D01*
X158446537Y-111590473D01*
X158446539Y-111590476D01*
X158446540Y-111590478D01*
X158532138Y-111714489D01*
X158644927Y-111814412D01*
X158778352Y-111884438D01*
X158924658Y-111920500D01*
X158924662Y-111920500D01*
X159075338Y-111920500D01*
X159075342Y-111920500D01*
X159221648Y-111884438D01*
X159355073Y-111814412D01*
X159467862Y-111714489D01*
X159553460Y-111590478D01*
X159606894Y-111449586D01*
X159622628Y-111320004D01*
X164019308Y-111320004D01*
X164040008Y-111503728D01*
X164040011Y-111503740D01*
X164101077Y-111678254D01*
X164101077Y-111678255D01*
X164186630Y-111814412D01*
X164199448Y-111834811D01*
X164330189Y-111965552D01*
X164330191Y-111965553D01*
X164330192Y-111965554D01*
X164486742Y-112063921D01*
X164486746Y-112063923D01*
X164556630Y-112088376D01*
X164661259Y-112124988D01*
X164661263Y-112124989D01*
X164661266Y-112124990D01*
X164661267Y-112124990D01*
X164661271Y-112124991D01*
X164798903Y-112140499D01*
X164798919Y-112140499D01*
X164798920Y-112140500D01*
X164798921Y-112140500D01*
X165991079Y-112140500D01*
X165991080Y-112140500D01*
X165991081Y-112140499D01*
X165991096Y-112140499D01*
X166128728Y-112124991D01*
X166128730Y-112124990D01*
X166128734Y-112124990D01*
X166303254Y-112063923D01*
X166459811Y-111965552D01*
X166590552Y-111834811D01*
X166688923Y-111678254D01*
X166749990Y-111503734D01*
X166755678Y-111453255D01*
X166770692Y-111320004D01*
X166770692Y-111319995D01*
X166749991Y-111136271D01*
X166749988Y-111136259D01*
X166725028Y-111064928D01*
X166688923Y-110961746D01*
X166688672Y-110961347D01*
X166590554Y-110805192D01*
X166590553Y-110805191D01*
X166590552Y-110805189D01*
X166459811Y-110674448D01*
X166459808Y-110674446D01*
X166459807Y-110674445D01*
X166303255Y-110576077D01*
X166235446Y-110552350D01*
X166186766Y-110515285D01*
X166169169Y-110456685D01*
X166189377Y-110398933D01*
X166207877Y-110380364D01*
X166250142Y-110347933D01*
X166308304Y-110303304D01*
X166401192Y-110182250D01*
X166459584Y-110041280D01*
X166479500Y-109890000D01*
X166459584Y-109738720D01*
X166401192Y-109597750D01*
X166308304Y-109476696D01*
X166187250Y-109383808D01*
X166046280Y-109325416D01*
X166046278Y-109325415D01*
X166046276Y-109325415D01*
X165932981Y-109310500D01*
X165932980Y-109310500D01*
X165857020Y-109310500D01*
X165857018Y-109310500D01*
X165743723Y-109325415D01*
X165743717Y-109325417D01*
X165602751Y-109383807D01*
X165481697Y-109476695D01*
X165481695Y-109476697D01*
X165388807Y-109597751D01*
X165330417Y-109738717D01*
X165330415Y-109738723D01*
X165310500Y-109889999D01*
X165310500Y-109890000D01*
X165322282Y-109979500D01*
X165330416Y-110041280D01*
X165388808Y-110182250D01*
X165481696Y-110303304D01*
X165506007Y-110321959D01*
X165540662Y-110372383D01*
X165539060Y-110433547D01*
X165501813Y-110482089D01*
X165445739Y-110499500D01*
X164798903Y-110499500D01*
X164661271Y-110515008D01*
X164661259Y-110515011D01*
X164486745Y-110576077D01*
X164486744Y-110576077D01*
X164330192Y-110674445D01*
X164199445Y-110805192D01*
X164101077Y-110961744D01*
X164101077Y-110961745D01*
X164040011Y-111136259D01*
X164040008Y-111136271D01*
X164019308Y-111319995D01*
X164019308Y-111320004D01*
X159622628Y-111320004D01*
X159622629Y-111319995D01*
X159625057Y-111300001D01*
X159625057Y-111299998D01*
X159606894Y-111150415D01*
X159606891Y-111150406D01*
X159553462Y-111009526D01*
X159553460Y-111009523D01*
X159553460Y-111009522D01*
X159467862Y-110885511D01*
X159355073Y-110785588D01*
X159221649Y-110715562D01*
X159075343Y-110679500D01*
X159075342Y-110679500D01*
X158924658Y-110679500D01*
X158924656Y-110679500D01*
X158778351Y-110715562D01*
X158778350Y-110715562D01*
X158644926Y-110785588D01*
X158532137Y-110885512D01*
X158446539Y-111009523D01*
X158446537Y-111009526D01*
X158393108Y-111150406D01*
X158393105Y-111150415D01*
X158374943Y-111299998D01*
X158374943Y-111300001D01*
X155518940Y-111300001D01*
X155566874Y-111252067D01*
X155653256Y-111114591D01*
X155706880Y-110961341D01*
X155706881Y-110961335D01*
X155725059Y-110800004D01*
X155725059Y-110799995D01*
X155706881Y-110638664D01*
X155706878Y-110638652D01*
X155663614Y-110515011D01*
X155653256Y-110485409D01*
X155635207Y-110456685D01*
X155566876Y-110347936D01*
X155566875Y-110347935D01*
X155566874Y-110347933D01*
X155452067Y-110233126D01*
X155452064Y-110233124D01*
X155452063Y-110233123D01*
X155314592Y-110146744D01*
X155161347Y-110093121D01*
X155161335Y-110093118D01*
X155000004Y-110074941D01*
X154999996Y-110074941D01*
X154838664Y-110093118D01*
X154838652Y-110093121D01*
X154685408Y-110146744D01*
X154685407Y-110146744D01*
X154547936Y-110233123D01*
X154433123Y-110347936D01*
X154346744Y-110485407D01*
X154346744Y-110485408D01*
X154293121Y-110638652D01*
X154293118Y-110638664D01*
X154274941Y-110799995D01*
X154274941Y-110800004D01*
X153625059Y-110800004D01*
X153625059Y-110799995D01*
X153606881Y-110638664D01*
X153606878Y-110638652D01*
X153563614Y-110515011D01*
X153553256Y-110485409D01*
X153535207Y-110456685D01*
X153466876Y-110347936D01*
X153466875Y-110347935D01*
X153466874Y-110347933D01*
X153352067Y-110233126D01*
X153352064Y-110233124D01*
X153352063Y-110233123D01*
X153214592Y-110146744D01*
X153061347Y-110093121D01*
X153061335Y-110093118D01*
X152900004Y-110074941D01*
X152899996Y-110074941D01*
X152738664Y-110093118D01*
X152738652Y-110093121D01*
X152585408Y-110146744D01*
X152585407Y-110146744D01*
X152447936Y-110233123D01*
X152447933Y-110233125D01*
X152447933Y-110233126D01*
X152430553Y-110250505D01*
X152376039Y-110278281D01*
X152360552Y-110279500D01*
X135256606Y-110279500D01*
X135198415Y-110260593D01*
X135186602Y-110250504D01*
X133636099Y-108700001D01*
X148074943Y-108700001D01*
X148093105Y-108849584D01*
X148093108Y-108849593D01*
X148146537Y-108990473D01*
X148146539Y-108990476D01*
X148146540Y-108990478D01*
X148232138Y-109114489D01*
X148344927Y-109214412D01*
X148478352Y-109284438D01*
X148624658Y-109320500D01*
X148624662Y-109320500D01*
X148775338Y-109320500D01*
X148775342Y-109320500D01*
X148921648Y-109284438D01*
X149055073Y-109214412D01*
X149071340Y-109200001D01*
X155774943Y-109200001D01*
X155793105Y-109349584D01*
X155793108Y-109349593D01*
X155846537Y-109490473D01*
X155846539Y-109490476D01*
X155846540Y-109490478D01*
X155932138Y-109614489D01*
X156044927Y-109714412D01*
X156178352Y-109784438D01*
X156324658Y-109820500D01*
X156324662Y-109820500D01*
X156475338Y-109820500D01*
X156475342Y-109820500D01*
X156621648Y-109784438D01*
X156755073Y-109714412D01*
X156867862Y-109614489D01*
X156946885Y-109500004D01*
X162974941Y-109500004D01*
X162993118Y-109661335D01*
X162993121Y-109661347D01*
X163046744Y-109814591D01*
X163046744Y-109814592D01*
X163133123Y-109952063D01*
X163133126Y-109952067D01*
X163247933Y-110066874D01*
X163247935Y-110066875D01*
X163247936Y-110066876D01*
X163260771Y-110074941D01*
X163385409Y-110153256D01*
X163446777Y-110174729D01*
X163538652Y-110206878D01*
X163538656Y-110206879D01*
X163538659Y-110206880D01*
X163538660Y-110206880D01*
X163538664Y-110206881D01*
X163699996Y-110225059D01*
X163700000Y-110225059D01*
X163700004Y-110225059D01*
X163861335Y-110206881D01*
X163861337Y-110206880D01*
X163861341Y-110206880D01*
X164014591Y-110153256D01*
X164152067Y-110066874D01*
X164266874Y-109952067D01*
X164353256Y-109814591D01*
X164406880Y-109661341D01*
X164412159Y-109614489D01*
X164425059Y-109500004D01*
X164425059Y-109499995D01*
X164406881Y-109338664D01*
X164406878Y-109338652D01*
X164363404Y-109214411D01*
X164353256Y-109185409D01*
X164266874Y-109047933D01*
X164152067Y-108933126D01*
X164152064Y-108933124D01*
X164152063Y-108933123D01*
X164014592Y-108846744D01*
X163861347Y-108793121D01*
X163861335Y-108793118D01*
X163700004Y-108774941D01*
X163699996Y-108774941D01*
X163538664Y-108793118D01*
X163538652Y-108793121D01*
X163385408Y-108846744D01*
X163385407Y-108846744D01*
X163247936Y-108933123D01*
X163133123Y-109047936D01*
X163046744Y-109185407D01*
X163046744Y-109185408D01*
X162993121Y-109338652D01*
X162993118Y-109338664D01*
X162974941Y-109499995D01*
X162974941Y-109500004D01*
X156946885Y-109500004D01*
X156953460Y-109490478D01*
X157006894Y-109349586D01*
X157025057Y-109200000D01*
X157023285Y-109185409D01*
X157006894Y-109050415D01*
X157006891Y-109050406D01*
X156953462Y-108909526D01*
X156953460Y-108909523D01*
X156953460Y-108909522D01*
X156867862Y-108785511D01*
X156755073Y-108685588D01*
X156621649Y-108615562D01*
X156475343Y-108579500D01*
X156475342Y-108579500D01*
X156324658Y-108579500D01*
X156324656Y-108579500D01*
X156178351Y-108615562D01*
X156178350Y-108615562D01*
X156044926Y-108685588D01*
X155932137Y-108785512D01*
X155846539Y-108909523D01*
X155846537Y-108909526D01*
X155793108Y-109050406D01*
X155793105Y-109050415D01*
X155774943Y-109199998D01*
X155774943Y-109200001D01*
X149071340Y-109200001D01*
X149167862Y-109114489D01*
X149253460Y-108990478D01*
X149306894Y-108849586D01*
X149325057Y-108700000D01*
X149306894Y-108550414D01*
X149253460Y-108409522D01*
X149167862Y-108285511D01*
X149055073Y-108185588D01*
X148921649Y-108115562D01*
X148775343Y-108079500D01*
X148775342Y-108079500D01*
X148624658Y-108079500D01*
X148624656Y-108079500D01*
X148478351Y-108115562D01*
X148478350Y-108115562D01*
X148344926Y-108185588D01*
X148232137Y-108285512D01*
X148146539Y-108409523D01*
X148146537Y-108409526D01*
X148093108Y-108550406D01*
X148093105Y-108550415D01*
X148074943Y-108699998D01*
X148074943Y-108700001D01*
X133636099Y-108700001D01*
X130836099Y-105900001D01*
X151974943Y-105900001D01*
X151993105Y-106049584D01*
X151993108Y-106049593D01*
X152046537Y-106190473D01*
X152046539Y-106190476D01*
X152046540Y-106190478D01*
X152132138Y-106314489D01*
X152244927Y-106414412D01*
X152378352Y-106484438D01*
X152524658Y-106520500D01*
X152524662Y-106520500D01*
X152675338Y-106520500D01*
X152675342Y-106520500D01*
X152821648Y-106484438D01*
X152955073Y-106414412D01*
X153067862Y-106314489D01*
X153153460Y-106190478D01*
X153187774Y-106100001D01*
X162384341Y-106100001D01*
X162402503Y-106249584D01*
X162402506Y-106249593D01*
X162455935Y-106390473D01*
X162455937Y-106390476D01*
X162455938Y-106390478D01*
X162541536Y-106514489D01*
X162617329Y-106581636D01*
X162654321Y-106614409D01*
X162654322Y-106614409D01*
X162654325Y-106614412D01*
X162770492Y-106675380D01*
X162813229Y-106719162D01*
X162822070Y-106779706D01*
X162793636Y-106833883D01*
X162770491Y-106850699D01*
X162703061Y-106886089D01*
X162590273Y-106986012D01*
X162504675Y-107110023D01*
X162504673Y-107110026D01*
X162451244Y-107250906D01*
X162451241Y-107250915D01*
X162433079Y-107400498D01*
X162433079Y-107400501D01*
X162451241Y-107550084D01*
X162451244Y-107550093D01*
X162504673Y-107690973D01*
X162504675Y-107690976D01*
X162504676Y-107690978D01*
X162590274Y-107814989D01*
X162703063Y-107914912D01*
X162836488Y-107984938D01*
X162982794Y-108021000D01*
X162982798Y-108021000D01*
X163133474Y-108021000D01*
X163133478Y-108021000D01*
X163279784Y-107984938D01*
X163413209Y-107914912D01*
X163525998Y-107814989D01*
X163611596Y-107690978D01*
X163665030Y-107550086D01*
X163683193Y-107400500D01*
X163665030Y-107250914D01*
X163611596Y-107110022D01*
X163525998Y-106986011D01*
X163413209Y-106886088D01*
X163345780Y-106850699D01*
X163297043Y-106825120D01*
X163254304Y-106781336D01*
X163245463Y-106720793D01*
X163273897Y-106666616D01*
X163297039Y-106649802D01*
X163364471Y-106614412D01*
X163477260Y-106514489D01*
X163562858Y-106390478D01*
X163616292Y-106249586D01*
X163634455Y-106100000D01*
X163628334Y-106049593D01*
X163616292Y-105950415D01*
X163616289Y-105950406D01*
X163562860Y-105809526D01*
X163562858Y-105809523D01*
X163562858Y-105809522D01*
X163477260Y-105685511D01*
X163364471Y-105585588D01*
X163231047Y-105515562D01*
X163084741Y-105479500D01*
X163084740Y-105479500D01*
X162934056Y-105479500D01*
X162934054Y-105479500D01*
X162787749Y-105515562D01*
X162787748Y-105515562D01*
X162654324Y-105585588D01*
X162541535Y-105685512D01*
X162455937Y-105809523D01*
X162455935Y-105809526D01*
X162402506Y-105950406D01*
X162402503Y-105950415D01*
X162384341Y-106099998D01*
X162384341Y-106100001D01*
X153187774Y-106100001D01*
X153206894Y-106049586D01*
X153225057Y-105900000D01*
X153214071Y-105809526D01*
X153206894Y-105750415D01*
X153206891Y-105750406D01*
X153153462Y-105609526D01*
X153153460Y-105609523D01*
X153153460Y-105609522D01*
X153067862Y-105485511D01*
X152955073Y-105385588D01*
X152821649Y-105315562D01*
X152675343Y-105279500D01*
X152675342Y-105279500D01*
X152524658Y-105279500D01*
X152524656Y-105279500D01*
X152378351Y-105315562D01*
X152378350Y-105315562D01*
X152244926Y-105385588D01*
X152132137Y-105485512D01*
X152046539Y-105609523D01*
X152046537Y-105609526D01*
X151993108Y-105750406D01*
X151993105Y-105750415D01*
X151974943Y-105899998D01*
X151974943Y-105900001D01*
X130836099Y-105900001D01*
X129636099Y-104700001D01*
X131274943Y-104700001D01*
X131293105Y-104849584D01*
X131293108Y-104849593D01*
X131346537Y-104990473D01*
X131346539Y-104990476D01*
X131346540Y-104990478D01*
X131432138Y-105114489D01*
X131544927Y-105214412D01*
X131678352Y-105284438D01*
X131824658Y-105320500D01*
X131824662Y-105320500D01*
X131975338Y-105320500D01*
X131975342Y-105320500D01*
X132121648Y-105284438D01*
X132255073Y-105214412D01*
X132367862Y-105114489D01*
X132453460Y-104990478D01*
X132506894Y-104849586D01*
X132525057Y-104700000D01*
X132512915Y-104600004D01*
X162974941Y-104600004D01*
X162993118Y-104761335D01*
X162993121Y-104761347D01*
X163046744Y-104914591D01*
X163046744Y-104914592D01*
X163133123Y-105052063D01*
X163133126Y-105052067D01*
X163247933Y-105166874D01*
X163247935Y-105166875D01*
X163247936Y-105166876D01*
X163323587Y-105214411D01*
X163385409Y-105253256D01*
X163446777Y-105274729D01*
X163538652Y-105306878D01*
X163538656Y-105306879D01*
X163538659Y-105306880D01*
X163538660Y-105306880D01*
X163538664Y-105306881D01*
X163699996Y-105325059D01*
X163700000Y-105325059D01*
X163700004Y-105325059D01*
X163861335Y-105306881D01*
X163861337Y-105306880D01*
X163861341Y-105306880D01*
X164014591Y-105253256D01*
X164152067Y-105166874D01*
X164266874Y-105052067D01*
X164353256Y-104914591D01*
X164406880Y-104761341D01*
X164406881Y-104761335D01*
X164425059Y-104600004D01*
X164425059Y-104599995D01*
X164406881Y-104438664D01*
X164406878Y-104438652D01*
X164384960Y-104376017D01*
X164353256Y-104285409D01*
X164333052Y-104253255D01*
X164266876Y-104147936D01*
X164266875Y-104147935D01*
X164266874Y-104147933D01*
X164152067Y-104033126D01*
X164152064Y-104033124D01*
X164152063Y-104033123D01*
X164014592Y-103946744D01*
X163861347Y-103893121D01*
X163861335Y-103893118D01*
X163700004Y-103874941D01*
X163699996Y-103874941D01*
X163538664Y-103893118D01*
X163538652Y-103893121D01*
X163385408Y-103946744D01*
X163385407Y-103946744D01*
X163247936Y-104033123D01*
X163133123Y-104147936D01*
X163046744Y-104285407D01*
X163046744Y-104285408D01*
X162993121Y-104438652D01*
X162993118Y-104438664D01*
X162974941Y-104599995D01*
X162974941Y-104600004D01*
X132512915Y-104600004D01*
X132506894Y-104550414D01*
X132506891Y-104550406D01*
X132453462Y-104409526D01*
X132453460Y-104409523D01*
X132453460Y-104409522D01*
X132367862Y-104285511D01*
X132255073Y-104185588D01*
X132219416Y-104166874D01*
X132121649Y-104115562D01*
X131975343Y-104079500D01*
X131975342Y-104079500D01*
X131824658Y-104079500D01*
X131824656Y-104079500D01*
X131678351Y-104115562D01*
X131678350Y-104115562D01*
X131544926Y-104185588D01*
X131468547Y-104253255D01*
X131432256Y-104285407D01*
X131432137Y-104285512D01*
X131346539Y-104409523D01*
X131346537Y-104409526D01*
X131293108Y-104550406D01*
X131293105Y-104550415D01*
X131274943Y-104699998D01*
X131274943Y-104700001D01*
X129636099Y-104700001D01*
X128548152Y-103612054D01*
X128520375Y-103557537D01*
X128519779Y-103553135D01*
X128506881Y-103438664D01*
X128506878Y-103438652D01*
X128467303Y-103325554D01*
X128453256Y-103285409D01*
X128452645Y-103284437D01*
X128366876Y-103147936D01*
X128366875Y-103147935D01*
X128366874Y-103147933D01*
X128252067Y-103033126D01*
X128252064Y-103033124D01*
X128252063Y-103033123D01*
X128114592Y-102946744D01*
X127961347Y-102893121D01*
X127961335Y-102893118D01*
X127800004Y-102874941D01*
X127799996Y-102874941D01*
X127638664Y-102893118D01*
X127638652Y-102893121D01*
X127485408Y-102946744D01*
X127485407Y-102946744D01*
X127347936Y-103033123D01*
X127233123Y-103147936D01*
X127146744Y-103285407D01*
X127146744Y-103285408D01*
X127093121Y-103438652D01*
X127093118Y-103438664D01*
X127074941Y-103599995D01*
X127074941Y-103600004D01*
X124000000Y-103600004D01*
X124000000Y-102200001D01*
X128574943Y-102200001D01*
X128593105Y-102349584D01*
X128593108Y-102349593D01*
X128646537Y-102490473D01*
X128646539Y-102490476D01*
X128646540Y-102490478D01*
X128732138Y-102614489D01*
X128844927Y-102714412D01*
X128978352Y-102784438D01*
X129124658Y-102820500D01*
X129124662Y-102820500D01*
X129275338Y-102820500D01*
X129275342Y-102820500D01*
X129421648Y-102784438D01*
X129555073Y-102714412D01*
X129667862Y-102614489D01*
X129753460Y-102490478D01*
X129806894Y-102349586D01*
X129825057Y-102200000D01*
X129815772Y-102123535D01*
X129806894Y-102050415D01*
X129806891Y-102050406D01*
X129753462Y-101909526D01*
X129753460Y-101909523D01*
X129753460Y-101909522D01*
X129667862Y-101785511D01*
X129555073Y-101685588D01*
X129488054Y-101650414D01*
X129421649Y-101615562D01*
X129275343Y-101579500D01*
X129275342Y-101579500D01*
X129124658Y-101579500D01*
X129124656Y-101579500D01*
X128978351Y-101615562D01*
X128978350Y-101615562D01*
X128844926Y-101685588D01*
X128732137Y-101785512D01*
X128646539Y-101909523D01*
X128646537Y-101909526D01*
X128593108Y-102050406D01*
X128593105Y-102050415D01*
X128574943Y-102199998D01*
X128574943Y-102200001D01*
X124000000Y-102200001D01*
X124000000Y-100783890D01*
X126446372Y-100783890D01*
X126476808Y-100956503D01*
X126476809Y-100956506D01*
X126476810Y-100956509D01*
X126489321Y-100985512D01*
X126546234Y-101117452D01*
X126650902Y-101258046D01*
X126650904Y-101258048D01*
X126785170Y-101370711D01*
X126785171Y-101370711D01*
X126785173Y-101370713D01*
X126941808Y-101449378D01*
X126941813Y-101449379D01*
X126941817Y-101449381D01*
X127112360Y-101489800D01*
X127112361Y-101489800D01*
X127243662Y-101489800D01*
X127243667Y-101489800D01*
X127374093Y-101474555D01*
X127538800Y-101414607D01*
X127561007Y-101400001D01*
X134174943Y-101400001D01*
X134193105Y-101549584D01*
X134193108Y-101549593D01*
X134246537Y-101690473D01*
X134246539Y-101690476D01*
X134246540Y-101690478D01*
X134332138Y-101814489D01*
X134444927Y-101914412D01*
X134578352Y-101984438D01*
X134724658Y-102020500D01*
X134724662Y-102020500D01*
X134813741Y-102020500D01*
X134871932Y-102039407D01*
X134906306Y-102084391D01*
X134946540Y-102190478D01*
X135032138Y-102314489D01*
X135144927Y-102414412D01*
X135278352Y-102484438D01*
X135424658Y-102520500D01*
X135424662Y-102520500D01*
X135575338Y-102520500D01*
X135575342Y-102520500D01*
X135721648Y-102484438D01*
X135855073Y-102414412D01*
X135967862Y-102314489D01*
X136053460Y-102190478D01*
X136106894Y-102049586D01*
X136125057Y-101900000D01*
X136124468Y-101895153D01*
X136106894Y-101750415D01*
X136106891Y-101750406D01*
X136053462Y-101609526D01*
X136053460Y-101609523D01*
X136053460Y-101609522D01*
X135967862Y-101485511D01*
X135855073Y-101385588D01*
X135818265Y-101366270D01*
X135721649Y-101315562D01*
X135575343Y-101279500D01*
X135575342Y-101279500D01*
X135486259Y-101279500D01*
X135428068Y-101260593D01*
X135393693Y-101215608D01*
X135353460Y-101109522D01*
X135346888Y-101100001D01*
X151174943Y-101100001D01*
X151193105Y-101249584D01*
X151193108Y-101249593D01*
X151246537Y-101390473D01*
X151246539Y-101390476D01*
X151246540Y-101390478D01*
X151287198Y-101449381D01*
X151332138Y-101514489D01*
X151332138Y-101514490D01*
X151371558Y-101549413D01*
X151402577Y-101602153D01*
X151396671Y-101663052D01*
X151371561Y-101697615D01*
X151358660Y-101709044D01*
X151358657Y-101709048D01*
X151273058Y-101833060D01*
X151273056Y-101833063D01*
X151219627Y-101973943D01*
X151219624Y-101973952D01*
X151201462Y-102123535D01*
X151201462Y-102123538D01*
X151219624Y-102273121D01*
X151219627Y-102273130D01*
X151273056Y-102414010D01*
X151273058Y-102414013D01*
X151273059Y-102414015D01*
X151358657Y-102538026D01*
X151471446Y-102637949D01*
X151604871Y-102707975D01*
X151694738Y-102730125D01*
X151746712Y-102762408D01*
X151769323Y-102814314D01*
X151773606Y-102849584D01*
X151773608Y-102849593D01*
X151827037Y-102990473D01*
X151827039Y-102990476D01*
X151827040Y-102990478D01*
X151912638Y-103114489D01*
X152025427Y-103214412D01*
X152158852Y-103284438D01*
X152305158Y-103320500D01*
X152305162Y-103320500D01*
X152455838Y-103320500D01*
X152455842Y-103320500D01*
X152602148Y-103284438D01*
X152735573Y-103214412D01*
X152848362Y-103114489D01*
X152933960Y-102990478D01*
X152987394Y-102849586D01*
X153005557Y-102700000D01*
X153003129Y-102680004D01*
X164019308Y-102680004D01*
X164040008Y-102863728D01*
X164040011Y-102863740D01*
X164101077Y-103038254D01*
X164101077Y-103038255D01*
X164199445Y-103194807D01*
X164199448Y-103194811D01*
X164330189Y-103325552D01*
X164330191Y-103325553D01*
X164330192Y-103325554D01*
X164486742Y-103423921D01*
X164486746Y-103423923D01*
X164554548Y-103447648D01*
X164661259Y-103484988D01*
X164661263Y-103484989D01*
X164661266Y-103484990D01*
X164661267Y-103484990D01*
X164661271Y-103484991D01*
X164798903Y-103500499D01*
X164798919Y-103500499D01*
X164798920Y-103500500D01*
X164798921Y-103500500D01*
X165445739Y-103500500D01*
X165503930Y-103519407D01*
X165539894Y-103568907D01*
X165539894Y-103630093D01*
X165506007Y-103678040D01*
X165489565Y-103690657D01*
X165481697Y-103696695D01*
X165481695Y-103696697D01*
X165388807Y-103817751D01*
X165330417Y-103958717D01*
X165330415Y-103958723D01*
X165310500Y-104109999D01*
X165310500Y-104110000D01*
X165329359Y-104253256D01*
X165330416Y-104261280D01*
X165388808Y-104402250D01*
X165481696Y-104523304D01*
X165602750Y-104616192D01*
X165743720Y-104674584D01*
X165857020Y-104689500D01*
X165857021Y-104689500D01*
X165932979Y-104689500D01*
X165932980Y-104689500D01*
X166046280Y-104674584D01*
X166187250Y-104616192D01*
X166308304Y-104523304D01*
X166401192Y-104402250D01*
X166459584Y-104261280D01*
X166479500Y-104110000D01*
X166459584Y-103958720D01*
X166401192Y-103817750D01*
X166308304Y-103696696D01*
X166207875Y-103619634D01*
X166173221Y-103569210D01*
X166174823Y-103508046D01*
X166212070Y-103459504D01*
X166235439Y-103447652D01*
X166303254Y-103423923D01*
X166459811Y-103325552D01*
X166590552Y-103194811D01*
X166688923Y-103038254D01*
X166749990Y-102863734D01*
X166749991Y-102863728D01*
X166770692Y-102680004D01*
X166770692Y-102679995D01*
X166749991Y-102496271D01*
X166749988Y-102496259D01*
X166721209Y-102414015D01*
X166688923Y-102321746D01*
X166590552Y-102165189D01*
X166459811Y-102034448D01*
X166459808Y-102034446D01*
X166459807Y-102034445D01*
X166303255Y-101936077D01*
X166128740Y-101875011D01*
X166128728Y-101875008D01*
X165991096Y-101859500D01*
X165991080Y-101859500D01*
X164798920Y-101859500D01*
X164798903Y-101859500D01*
X164661271Y-101875008D01*
X164661259Y-101875011D01*
X164486745Y-101936077D01*
X164486744Y-101936077D01*
X164330192Y-102034445D01*
X164199445Y-102165192D01*
X164101077Y-102321744D01*
X164101077Y-102321745D01*
X164040011Y-102496259D01*
X164040008Y-102496271D01*
X164019308Y-102679995D01*
X164019308Y-102680004D01*
X153003129Y-102680004D01*
X152987394Y-102550414D01*
X152987393Y-102550412D01*
X152985960Y-102544597D01*
X152988467Y-102543979D01*
X152986009Y-102493497D01*
X153019522Y-102442306D01*
X153069609Y-102421196D01*
X153075339Y-102420500D01*
X153075342Y-102420500D01*
X153221648Y-102384438D01*
X153355073Y-102314412D01*
X153467862Y-102214489D01*
X153553460Y-102090478D01*
X153554242Y-102088414D01*
X153555768Y-102084393D01*
X153594082Y-102036689D01*
X153648334Y-102020500D01*
X153775338Y-102020500D01*
X153775342Y-102020500D01*
X153921648Y-101984438D01*
X154055073Y-101914412D01*
X154167862Y-101814489D01*
X154253460Y-101690478D01*
X154306894Y-101549586D01*
X154325057Y-101400000D01*
X154320961Y-101366270D01*
X154306894Y-101250415D01*
X154306891Y-101250406D01*
X154253462Y-101109526D01*
X154253460Y-101109523D01*
X154253460Y-101109522D01*
X154167862Y-100985511D01*
X154055073Y-100885588D01*
X154027436Y-100871083D01*
X153921649Y-100815562D01*
X153775343Y-100779500D01*
X153775342Y-100779500D01*
X153624658Y-100779500D01*
X153624656Y-100779500D01*
X153478351Y-100815562D01*
X153478350Y-100815562D01*
X153344926Y-100885588D01*
X153232137Y-100985512D01*
X153146539Y-101109523D01*
X153144233Y-101115605D01*
X153105920Y-101163310D01*
X153051666Y-101179500D01*
X152924656Y-101179500D01*
X152778351Y-101215562D01*
X152778350Y-101215562D01*
X152644924Y-101285589D01*
X152644923Y-101285589D01*
X152566534Y-101355037D01*
X152510440Y-101379473D01*
X152450696Y-101366270D01*
X152410123Y-101320472D01*
X152404217Y-101259572D01*
X152405461Y-101255403D01*
X152405460Y-101255403D01*
X152406894Y-101249584D01*
X152425057Y-101100001D01*
X152425057Y-101099998D01*
X152406894Y-100950415D01*
X152406891Y-100950406D01*
X152353462Y-100809526D01*
X152353460Y-100809523D01*
X152353460Y-100809522D01*
X152267862Y-100685511D01*
X152155073Y-100585588D01*
X152021649Y-100515562D01*
X151875343Y-100479500D01*
X151875342Y-100479500D01*
X151724658Y-100479500D01*
X151724656Y-100479500D01*
X151578351Y-100515562D01*
X151578350Y-100515562D01*
X151444926Y-100585588D01*
X151332137Y-100685512D01*
X151246539Y-100809523D01*
X151246537Y-100809526D01*
X151193108Y-100950406D01*
X151193105Y-100950415D01*
X151174943Y-101099998D01*
X151174943Y-101100001D01*
X135346888Y-101100001D01*
X135267862Y-100985511D01*
X135155073Y-100885588D01*
X135127436Y-100871083D01*
X135021649Y-100815562D01*
X134875343Y-100779500D01*
X134875342Y-100779500D01*
X134724658Y-100779500D01*
X134724656Y-100779500D01*
X134578351Y-100815562D01*
X134578350Y-100815562D01*
X134444926Y-100885588D01*
X134332137Y-100985512D01*
X134246539Y-101109523D01*
X134246537Y-101109526D01*
X134193108Y-101250406D01*
X134193105Y-101250415D01*
X134174943Y-101399998D01*
X134174943Y-101400001D01*
X127561007Y-101400001D01*
X127685243Y-101318290D01*
X127805526Y-101190797D01*
X127893165Y-101039002D01*
X127943435Y-100871088D01*
X127953627Y-100696106D01*
X127938252Y-100608912D01*
X127923191Y-100523496D01*
X127923190Y-100523495D01*
X127923190Y-100523491D01*
X127853766Y-100362548D01*
X127749097Y-100221953D01*
X127749095Y-100221951D01*
X127614829Y-100109288D01*
X127614143Y-100108943D01*
X127458192Y-100030622D01*
X127458188Y-100030621D01*
X127458182Y-100030618D01*
X127287640Y-99990200D01*
X127287639Y-99990200D01*
X127156333Y-99990200D01*
X127025907Y-100005445D01*
X127025904Y-100005445D01*
X127025904Y-100005446D01*
X126861197Y-100065394D01*
X126714762Y-100161705D01*
X126714757Y-100161710D01*
X126594477Y-100289199D01*
X126594470Y-100289207D01*
X126506836Y-100440993D01*
X126456565Y-100608908D01*
X126456564Y-100608916D01*
X126446372Y-100783890D01*
X124000000Y-100783890D01*
X124000000Y-97324501D01*
X124499443Y-97324501D01*
X124517605Y-97474084D01*
X124517608Y-97474093D01*
X124571037Y-97614973D01*
X124571039Y-97614976D01*
X124571040Y-97614978D01*
X124656638Y-97738989D01*
X124769427Y-97838912D01*
X124902852Y-97908938D01*
X125049158Y-97945000D01*
X125049162Y-97945000D01*
X125199838Y-97945000D01*
X125199842Y-97945000D01*
X125346148Y-97908938D01*
X125363176Y-97900001D01*
X128755443Y-97900001D01*
X128773605Y-98049584D01*
X128773608Y-98049593D01*
X128827037Y-98190473D01*
X128827039Y-98190476D01*
X128827040Y-98190478D01*
X128912638Y-98314489D01*
X129025427Y-98414412D01*
X129158852Y-98484438D01*
X129305158Y-98520500D01*
X129305162Y-98520500D01*
X129455838Y-98520500D01*
X129455842Y-98520500D01*
X129602148Y-98484438D01*
X129735573Y-98414412D01*
X129848362Y-98314489D01*
X129933960Y-98190478D01*
X129987394Y-98049586D01*
X130000093Y-97944999D01*
X130005557Y-97900001D01*
X130005557Y-97899998D01*
X129987394Y-97750415D01*
X129987391Y-97750406D01*
X129933962Y-97609526D01*
X129933960Y-97609523D01*
X129933960Y-97609522D01*
X129848362Y-97485511D01*
X129735573Y-97385588D01*
X129717739Y-97376228D01*
X129602149Y-97315562D01*
X129455843Y-97279500D01*
X129455842Y-97279500D01*
X129305158Y-97279500D01*
X129305156Y-97279500D01*
X129158851Y-97315562D01*
X129158850Y-97315562D01*
X129025426Y-97385588D01*
X128912637Y-97485512D01*
X128827039Y-97609523D01*
X128827037Y-97609526D01*
X128773608Y-97750406D01*
X128773605Y-97750415D01*
X128755443Y-97899998D01*
X128755443Y-97900001D01*
X125363176Y-97900001D01*
X125479573Y-97838912D01*
X125592362Y-97738989D01*
X125677960Y-97614978D01*
X125678146Y-97614489D01*
X125725179Y-97490473D01*
X125731394Y-97474086D01*
X125746511Y-97349584D01*
X125749557Y-97324501D01*
X125749557Y-97324498D01*
X125731394Y-97174915D01*
X125731391Y-97174906D01*
X125677962Y-97034026D01*
X125677960Y-97034023D01*
X125677960Y-97034022D01*
X125592362Y-96910011D01*
X125479573Y-96810088D01*
X125446189Y-96792567D01*
X125346149Y-96740062D01*
X125199843Y-96704000D01*
X125199842Y-96704000D01*
X125049158Y-96704000D01*
X125049156Y-96704000D01*
X124902851Y-96740062D01*
X124902850Y-96740062D01*
X124769426Y-96810088D01*
X124684291Y-96885512D01*
X124657186Y-96909526D01*
X124656637Y-96910012D01*
X124571039Y-97034023D01*
X124571037Y-97034026D01*
X124517608Y-97174906D01*
X124517605Y-97174915D01*
X124499443Y-97324498D01*
X124499443Y-97324501D01*
X124000000Y-97324501D01*
X124000000Y-95919165D01*
X124018907Y-95860974D01*
X124033352Y-95845062D01*
X124067861Y-95814490D01*
X124067861Y-95814489D01*
X124067862Y-95814489D01*
X124144202Y-95703890D01*
X125430372Y-95703890D01*
X125460808Y-95876503D01*
X125460809Y-95876506D01*
X125460810Y-95876509D01*
X125522921Y-96020499D01*
X125530234Y-96037452D01*
X125634902Y-96178046D01*
X125634904Y-96178048D01*
X125769170Y-96290711D01*
X125769171Y-96290711D01*
X125769173Y-96290713D01*
X125925808Y-96369378D01*
X125925813Y-96369379D01*
X125925817Y-96369381D01*
X126096360Y-96409800D01*
X126096361Y-96409800D01*
X126227662Y-96409800D01*
X126227667Y-96409800D01*
X126358093Y-96394555D01*
X126522800Y-96334607D01*
X126669243Y-96238290D01*
X126789526Y-96110797D01*
X126847997Y-96009522D01*
X126877163Y-95959006D01*
X126877163Y-95959004D01*
X126877165Y-95959002D01*
X126927435Y-95791088D01*
X126932514Y-95703890D01*
X127462372Y-95703890D01*
X127492808Y-95876503D01*
X127492809Y-95876506D01*
X127492810Y-95876509D01*
X127554921Y-96020499D01*
X127562234Y-96037452D01*
X127666902Y-96178046D01*
X127666904Y-96178048D01*
X127801170Y-96290711D01*
X127801171Y-96290711D01*
X127801173Y-96290713D01*
X127957808Y-96369378D01*
X127957813Y-96369379D01*
X127957817Y-96369381D01*
X128128360Y-96409800D01*
X128128361Y-96409800D01*
X128259662Y-96409800D01*
X128259667Y-96409800D01*
X128390093Y-96394555D01*
X128554800Y-96334607D01*
X128701243Y-96238290D01*
X128821526Y-96110797D01*
X128879997Y-96009522D01*
X128909163Y-95959006D01*
X128909163Y-95959004D01*
X128909165Y-95959002D01*
X128959435Y-95791088D01*
X128965805Y-95681724D01*
X128969627Y-95616109D01*
X128969627Y-95616106D01*
X128939191Y-95443496D01*
X128939190Y-95443495D01*
X128939190Y-95443491D01*
X128869766Y-95282548D01*
X128765097Y-95141953D01*
X128765095Y-95141951D01*
X128630829Y-95029288D01*
X128630143Y-95028943D01*
X128474192Y-94950622D01*
X128474188Y-94950621D01*
X128474182Y-94950618D01*
X128362295Y-94924101D01*
X129289849Y-94924101D01*
X129308011Y-95073684D01*
X129308014Y-95073693D01*
X129361443Y-95214573D01*
X129361445Y-95214576D01*
X129361446Y-95214578D01*
X129447044Y-95338589D01*
X129559833Y-95438512D01*
X129693258Y-95508538D01*
X129839564Y-95544600D01*
X129839565Y-95544600D01*
X129845379Y-95546033D01*
X129844687Y-95548840D01*
X129889629Y-95569706D01*
X129919381Y-95623171D01*
X129912025Y-95683912D01*
X129887881Y-95716324D01*
X129783038Y-95809208D01*
X129697440Y-95933220D01*
X129697438Y-95933223D01*
X129644009Y-96074103D01*
X129644006Y-96074112D01*
X129625844Y-96223695D01*
X129625844Y-96223698D01*
X129644006Y-96373281D01*
X129644009Y-96373290D01*
X129697438Y-96514170D01*
X129697440Y-96514173D01*
X129697441Y-96514175D01*
X129783039Y-96638186D01*
X129895828Y-96738109D01*
X130029253Y-96808135D01*
X130175559Y-96844197D01*
X130175563Y-96844197D01*
X130326239Y-96844197D01*
X130326243Y-96844197D01*
X130472549Y-96808135D01*
X130605974Y-96738109D01*
X130718763Y-96638186D01*
X130804361Y-96514175D01*
X130821207Y-96469755D01*
X130859520Y-96422052D01*
X130918556Y-96405979D01*
X130959778Y-96417202D01*
X131016053Y-96446737D01*
X131162359Y-96482799D01*
X131162363Y-96482799D01*
X131313039Y-96482799D01*
X131313043Y-96482799D01*
X131313046Y-96482798D01*
X131318984Y-96482077D01*
X131319243Y-96484216D01*
X131371028Y-96487967D01*
X131417801Y-96527413D01*
X131432455Y-96586817D01*
X131409394Y-96643490D01*
X131379722Y-96667326D01*
X131344925Y-96685589D01*
X131232137Y-96785512D01*
X131146539Y-96909523D01*
X131146537Y-96909526D01*
X131093108Y-97050406D01*
X131093105Y-97050415D01*
X131074943Y-97199998D01*
X131074943Y-97200001D01*
X131093105Y-97349584D01*
X131093108Y-97349593D01*
X131146537Y-97490473D01*
X131146539Y-97490476D01*
X131146540Y-97490478D01*
X131232138Y-97614489D01*
X131344927Y-97714412D01*
X131478352Y-97784438D01*
X131624658Y-97820500D01*
X131624662Y-97820500D01*
X131775338Y-97820500D01*
X131775342Y-97820500D01*
X131921648Y-97784438D01*
X132055073Y-97714412D01*
X132167862Y-97614489D01*
X132253460Y-97490478D01*
X132306894Y-97349586D01*
X132325057Y-97200000D01*
X132306894Y-97050414D01*
X132289228Y-97003832D01*
X132253462Y-96909526D01*
X132253460Y-96909523D01*
X132253460Y-96909522D01*
X132167862Y-96785511D01*
X132055073Y-96685588D01*
X132043473Y-96679500D01*
X131921649Y-96615562D01*
X131775343Y-96579500D01*
X131775342Y-96579500D01*
X131624658Y-96579500D01*
X131624655Y-96579500D01*
X131618717Y-96580222D01*
X131618458Y-96578090D01*
X131566633Y-96574315D01*
X131519877Y-96534850D01*
X131505248Y-96475439D01*
X131528333Y-96418776D01*
X131557976Y-96394974D01*
X131592774Y-96376711D01*
X131679361Y-96300001D01*
X134474943Y-96300001D01*
X134493105Y-96449584D01*
X134493108Y-96449593D01*
X134546537Y-96590473D01*
X134546539Y-96590476D01*
X134546540Y-96590478D01*
X134632138Y-96714489D01*
X134744927Y-96814412D01*
X134878352Y-96884438D01*
X135024658Y-96920500D01*
X135056531Y-96920500D01*
X135114722Y-96939407D01*
X135126535Y-96949496D01*
X135769057Y-97592019D01*
X135772758Y-97596160D01*
X135787763Y-97614976D01*
X135797000Y-97626558D01*
X135845054Y-97659320D01*
X135891846Y-97693854D01*
X135898407Y-97697322D01*
X135898188Y-97697736D01*
X135899824Y-97698562D01*
X135900028Y-97698140D01*
X135906713Y-97701359D01*
X135906715Y-97701360D01*
X135962271Y-97718496D01*
X136017181Y-97737711D01*
X136017184Y-97737711D01*
X136024473Y-97739091D01*
X136024386Y-97739549D01*
X136026200Y-97739857D01*
X136026270Y-97739394D01*
X136033603Y-97740499D01*
X136033605Y-97740500D01*
X136033607Y-97740500D01*
X136091736Y-97740500D01*
X136149878Y-97742675D01*
X136149883Y-97742673D01*
X136157254Y-97741844D01*
X136157306Y-97742307D01*
X136171030Y-97740500D01*
X148976531Y-97740500D01*
X149034722Y-97759407D01*
X149046535Y-97769496D01*
X151169057Y-99892019D01*
X151172758Y-99896161D01*
X151196995Y-99926554D01*
X151196996Y-99926555D01*
X151245049Y-99959318D01*
X151291838Y-99993850D01*
X151298402Y-99997319D01*
X151298184Y-99997731D01*
X151299824Y-99998559D01*
X151300027Y-99998139D01*
X151306710Y-100001356D01*
X151306715Y-100001360D01*
X151362281Y-100018499D01*
X151417181Y-100037710D01*
X151424473Y-100039090D01*
X151424386Y-100039547D01*
X151426196Y-100039855D01*
X151426266Y-100039394D01*
X151433605Y-100040500D01*
X151491747Y-100040500D01*
X151549877Y-100042675D01*
X151549883Y-100042673D01*
X151557252Y-100041844D01*
X151557304Y-100042307D01*
X151571028Y-100040500D01*
X156876531Y-100040500D01*
X156934722Y-100059407D01*
X156946535Y-100069496D01*
X158650497Y-101773458D01*
X158678274Y-101827975D01*
X158678771Y-101831529D01*
X158693105Y-101949583D01*
X158693108Y-101949593D01*
X158746537Y-102090473D01*
X158746539Y-102090476D01*
X158746540Y-102090478D01*
X158832138Y-102214489D01*
X158944927Y-102314412D01*
X159078352Y-102384438D01*
X159224658Y-102420500D01*
X159224662Y-102420500D01*
X159375338Y-102420500D01*
X159375342Y-102420500D01*
X159521648Y-102384438D01*
X159655073Y-102314412D01*
X159767862Y-102214489D01*
X159853460Y-102090478D01*
X159906894Y-101949586D01*
X159923298Y-101814487D01*
X159925057Y-101800001D01*
X159925057Y-101799998D01*
X159911165Y-101685588D01*
X159906894Y-101650414D01*
X159868657Y-101549593D01*
X159853462Y-101509526D01*
X159853460Y-101509523D01*
X159853460Y-101509522D01*
X159767862Y-101385511D01*
X159655073Y-101285588D01*
X159643473Y-101279500D01*
X159521649Y-101215562D01*
X159375343Y-101179500D01*
X159375342Y-101179500D01*
X159343469Y-101179500D01*
X159285278Y-101160593D01*
X159273465Y-101150504D01*
X157430937Y-99307975D01*
X157427246Y-99303845D01*
X157403001Y-99273443D01*
X157354945Y-99240679D01*
X157337678Y-99227935D01*
X157308156Y-99206146D01*
X157301597Y-99202680D01*
X157301815Y-99202267D01*
X157300172Y-99201437D01*
X157299970Y-99201859D01*
X157293288Y-99198641D01*
X157237715Y-99181499D01*
X157182823Y-99162291D01*
X157182820Y-99162290D01*
X157182819Y-99162290D01*
X157182817Y-99162289D01*
X157175534Y-99160912D01*
X157175620Y-99160455D01*
X157173801Y-99160146D01*
X157173732Y-99160605D01*
X157166398Y-99159500D01*
X157166395Y-99159500D01*
X157108253Y-99159500D01*
X157050123Y-99157325D01*
X157050122Y-99157325D01*
X157042748Y-99158156D01*
X157042695Y-99157692D01*
X157028972Y-99159500D01*
X151723469Y-99159500D01*
X151665278Y-99140593D01*
X151653465Y-99130504D01*
X149822963Y-97300001D01*
X151874943Y-97300001D01*
X151893105Y-97449584D01*
X151893108Y-97449593D01*
X151946537Y-97590473D01*
X151946539Y-97590476D01*
X151946540Y-97590478D01*
X152032138Y-97714489D01*
X152144927Y-97814412D01*
X152278352Y-97884438D01*
X152424658Y-97920500D01*
X152424662Y-97920500D01*
X152575338Y-97920500D01*
X152575342Y-97920500D01*
X152721648Y-97884438D01*
X152765486Y-97861429D01*
X152825797Y-97851129D01*
X152877142Y-97874987D01*
X152936393Y-97927479D01*
X153046966Y-97985511D01*
X153069819Y-97997505D01*
X153216125Y-98033567D01*
X153216129Y-98033567D01*
X153311444Y-98033567D01*
X153369635Y-98052474D01*
X153405599Y-98101974D01*
X153409722Y-98120633D01*
X153415136Y-98165219D01*
X153415138Y-98165228D01*
X153468567Y-98306108D01*
X153468569Y-98306111D01*
X153468570Y-98306113D01*
X153554168Y-98430124D01*
X153666957Y-98530047D01*
X153800382Y-98600073D01*
X153946688Y-98636135D01*
X153946692Y-98636135D01*
X154097368Y-98636135D01*
X154097372Y-98636135D01*
X154243678Y-98600073D01*
X154377103Y-98530047D01*
X154489892Y-98430124D01*
X154510684Y-98400001D01*
X161355443Y-98400001D01*
X161373605Y-98549584D01*
X161373608Y-98549593D01*
X161427037Y-98690473D01*
X161427039Y-98690476D01*
X161427040Y-98690478D01*
X161512638Y-98814489D01*
X161625427Y-98914412D01*
X161758852Y-98984438D01*
X161905158Y-99020500D01*
X161905162Y-99020500D01*
X162055838Y-99020500D01*
X162055842Y-99020500D01*
X162202148Y-98984438D01*
X162335573Y-98914412D01*
X162448362Y-98814489D01*
X162533960Y-98690478D01*
X162587394Y-98549586D01*
X162605557Y-98400000D01*
X162587394Y-98250414D01*
X162555084Y-98165221D01*
X162533962Y-98109526D01*
X162533960Y-98109523D01*
X162533960Y-98109522D01*
X162448362Y-97985511D01*
X162351842Y-97900001D01*
X167174943Y-97900001D01*
X167193105Y-98049584D01*
X167193108Y-98049593D01*
X167246537Y-98190473D01*
X167246539Y-98190476D01*
X167246540Y-98190478D01*
X167332138Y-98314489D01*
X167444927Y-98414412D01*
X167578352Y-98484438D01*
X167724658Y-98520500D01*
X167724662Y-98520500D01*
X167875338Y-98520500D01*
X167875342Y-98520500D01*
X168021648Y-98484438D01*
X168155073Y-98414412D01*
X168267862Y-98314489D01*
X168353460Y-98190478D01*
X168406894Y-98049586D01*
X168419593Y-97944999D01*
X168425057Y-97900001D01*
X168425057Y-97899998D01*
X168406894Y-97750415D01*
X168406891Y-97750406D01*
X168353462Y-97609526D01*
X168353460Y-97609523D01*
X168353460Y-97609522D01*
X168267862Y-97485511D01*
X168155073Y-97385588D01*
X168137239Y-97376228D01*
X168021649Y-97315562D01*
X167875343Y-97279500D01*
X167875342Y-97279500D01*
X167724658Y-97279500D01*
X167724656Y-97279500D01*
X167578351Y-97315562D01*
X167578350Y-97315562D01*
X167444926Y-97385588D01*
X167332137Y-97485512D01*
X167246539Y-97609523D01*
X167246537Y-97609526D01*
X167193108Y-97750406D01*
X167193105Y-97750415D01*
X167174943Y-97899998D01*
X167174943Y-97900001D01*
X162351842Y-97900001D01*
X162335573Y-97885588D01*
X162298329Y-97866041D01*
X162202149Y-97815562D01*
X162055843Y-97779500D01*
X162055842Y-97779500D01*
X161905158Y-97779500D01*
X161905156Y-97779500D01*
X161758851Y-97815562D01*
X161758850Y-97815562D01*
X161625426Y-97885588D01*
X161512637Y-97985512D01*
X161427039Y-98109523D01*
X161427037Y-98109526D01*
X161373608Y-98250406D01*
X161373605Y-98250415D01*
X161355443Y-98399998D01*
X161355443Y-98400001D01*
X154510684Y-98400001D01*
X154575490Y-98306113D01*
X154628924Y-98165221D01*
X154644910Y-98033566D01*
X154647087Y-98015636D01*
X154647087Y-98015633D01*
X154634132Y-97908937D01*
X154628924Y-97866049D01*
X154609777Y-97815562D01*
X154575492Y-97725161D01*
X154575490Y-97725158D01*
X154575490Y-97725157D01*
X154489892Y-97601146D01*
X154377103Y-97501223D01*
X154347166Y-97485511D01*
X154243679Y-97431197D01*
X154097373Y-97395135D01*
X154097372Y-97395135D01*
X154002053Y-97395135D01*
X153943862Y-97376228D01*
X153907898Y-97326728D01*
X153903775Y-97308069D01*
X153902795Y-97299998D01*
X153898361Y-97263481D01*
X153864772Y-97174914D01*
X153844929Y-97122593D01*
X153844927Y-97122590D01*
X153844927Y-97122589D01*
X153759329Y-96998578D01*
X153646540Y-96898655D01*
X153621496Y-96885511D01*
X153513116Y-96828629D01*
X153366810Y-96792567D01*
X153366809Y-96792567D01*
X153216125Y-96792567D01*
X153216123Y-96792567D01*
X153069820Y-96828628D01*
X153025976Y-96851638D01*
X152965664Y-96861937D01*
X152914323Y-96838078D01*
X152855075Y-96785589D01*
X152721649Y-96715562D01*
X152575343Y-96679500D01*
X152575342Y-96679500D01*
X152424658Y-96679500D01*
X152424656Y-96679500D01*
X152278351Y-96715562D01*
X152278350Y-96715562D01*
X152144926Y-96785588D01*
X152032137Y-96885512D01*
X151946539Y-97009523D01*
X151946537Y-97009526D01*
X151893108Y-97150406D01*
X151893105Y-97150415D01*
X151874943Y-97299998D01*
X151874943Y-97300001D01*
X149822963Y-97300001D01*
X149530937Y-97007975D01*
X149527246Y-97003845D01*
X149503001Y-96973443D01*
X149454945Y-96940679D01*
X149437678Y-96927935D01*
X149408156Y-96906146D01*
X149401597Y-96902680D01*
X149401815Y-96902267D01*
X149400172Y-96901437D01*
X149399970Y-96901859D01*
X149393288Y-96898641D01*
X149337715Y-96881499D01*
X149282823Y-96862291D01*
X149282820Y-96862290D01*
X149282819Y-96862290D01*
X149282817Y-96862289D01*
X149275534Y-96860912D01*
X149275620Y-96860455D01*
X149273801Y-96860146D01*
X149273732Y-96860605D01*
X149266398Y-96859500D01*
X149266395Y-96859500D01*
X149208253Y-96859500D01*
X149150123Y-96857325D01*
X149150122Y-96857325D01*
X149142748Y-96858156D01*
X149142695Y-96857692D01*
X149128972Y-96859500D01*
X136323469Y-96859500D01*
X136265278Y-96840593D01*
X136253465Y-96830504D01*
X135749502Y-96326541D01*
X135721725Y-96272024D01*
X135721232Y-96268500D01*
X135706894Y-96150414D01*
X135692148Y-96111533D01*
X135653462Y-96009526D01*
X135653460Y-96009523D01*
X135653460Y-96009522D01*
X135620622Y-95961948D01*
X148512996Y-95961948D01*
X148531158Y-96111531D01*
X148531161Y-96111540D01*
X148584590Y-96252420D01*
X148584592Y-96252423D01*
X148584593Y-96252425D01*
X148670191Y-96376436D01*
X148782980Y-96476359D01*
X148916405Y-96546385D01*
X149062711Y-96582447D01*
X149062715Y-96582447D01*
X149213391Y-96582447D01*
X149213395Y-96582447D01*
X149359701Y-96546385D01*
X149493126Y-96476359D01*
X149579316Y-96400001D01*
X162174943Y-96400001D01*
X162193105Y-96549584D01*
X162193108Y-96549593D01*
X162246537Y-96690473D01*
X162246539Y-96690476D01*
X162246540Y-96690478D01*
X162332138Y-96814489D01*
X162444927Y-96914412D01*
X162578352Y-96984438D01*
X162724658Y-97020500D01*
X162724662Y-97020500D01*
X162875338Y-97020500D01*
X162875342Y-97020500D01*
X163021648Y-96984438D01*
X163155073Y-96914412D01*
X163267862Y-96814489D01*
X163353460Y-96690478D01*
X163357624Y-96679500D01*
X163381872Y-96615562D01*
X163406894Y-96549586D01*
X163425057Y-96400000D01*
X163424446Y-96394971D01*
X163412915Y-96300001D01*
X166174943Y-96300001D01*
X166193105Y-96449584D01*
X166193108Y-96449593D01*
X166246537Y-96590473D01*
X166246539Y-96590476D01*
X166246540Y-96590478D01*
X166332138Y-96714489D01*
X166444927Y-96814412D01*
X166578352Y-96884438D01*
X166724658Y-96920500D01*
X166724662Y-96920500D01*
X166875338Y-96920500D01*
X166875342Y-96920500D01*
X167021648Y-96884438D01*
X167155073Y-96814412D01*
X167267862Y-96714489D01*
X167353460Y-96590478D01*
X167354849Y-96586817D01*
X167394298Y-96482798D01*
X167406894Y-96449586D01*
X167425057Y-96300000D01*
X167423929Y-96290713D01*
X167406894Y-96150415D01*
X167406891Y-96150406D01*
X167353462Y-96009526D01*
X167353460Y-96009523D01*
X167353460Y-96009522D01*
X167267862Y-95885511D01*
X167155073Y-95785588D01*
X167143473Y-95779500D01*
X167021649Y-95715562D01*
X166875343Y-95679500D01*
X166875342Y-95679500D01*
X166724658Y-95679500D01*
X166724656Y-95679500D01*
X166578351Y-95715562D01*
X166578350Y-95715562D01*
X166444926Y-95785588D01*
X166332137Y-95885512D01*
X166246539Y-96009523D01*
X166246537Y-96009526D01*
X166193108Y-96150406D01*
X166193105Y-96150415D01*
X166174943Y-96299998D01*
X166174943Y-96300001D01*
X163412915Y-96300001D01*
X163407138Y-96252423D01*
X163406894Y-96250414D01*
X163406891Y-96250406D01*
X163353462Y-96109526D01*
X163353460Y-96109523D01*
X163353460Y-96109522D01*
X163267862Y-95985511D01*
X163155073Y-95885588D01*
X163110699Y-95862299D01*
X163021649Y-95815562D01*
X162875343Y-95779500D01*
X162875342Y-95779500D01*
X162724658Y-95779500D01*
X162724656Y-95779500D01*
X162578351Y-95815562D01*
X162578350Y-95815562D01*
X162444926Y-95885588D01*
X162332137Y-95985512D01*
X162246539Y-96109523D01*
X162246537Y-96109526D01*
X162193108Y-96250406D01*
X162193105Y-96250415D01*
X162174943Y-96399998D01*
X162174943Y-96400001D01*
X149579316Y-96400001D01*
X149605915Y-96376436D01*
X149691513Y-96252425D01*
X149744947Y-96111533D01*
X149763110Y-95961947D01*
X149762752Y-95959002D01*
X149745336Y-95815562D01*
X149744947Y-95812361D01*
X149732484Y-95779500D01*
X149691515Y-95671473D01*
X149691513Y-95671470D01*
X149691513Y-95671469D01*
X149605915Y-95547458D01*
X149493126Y-95447535D01*
X149462520Y-95431472D01*
X149402557Y-95400001D01*
X151874943Y-95400001D01*
X151893105Y-95549584D01*
X151893108Y-95549593D01*
X151946537Y-95690473D01*
X151946539Y-95690476D01*
X151946540Y-95690478D01*
X152032138Y-95814489D01*
X152144927Y-95914412D01*
X152278352Y-95984438D01*
X152424658Y-96020500D01*
X152424662Y-96020500D01*
X152575338Y-96020500D01*
X152575342Y-96020500D01*
X152721648Y-95984438D01*
X152855073Y-95914412D01*
X152967862Y-95814489D01*
X153053460Y-95690478D01*
X153057624Y-95679500D01*
X153072885Y-95639259D01*
X153106894Y-95549586D01*
X153125057Y-95400000D01*
X153117600Y-95338590D01*
X153106894Y-95250415D01*
X153106891Y-95250406D01*
X153053462Y-95109526D01*
X153053460Y-95109523D01*
X153053460Y-95109522D01*
X152967862Y-94985511D01*
X152855073Y-94885588D01*
X152721649Y-94815562D01*
X152575343Y-94779500D01*
X152575342Y-94779500D01*
X152424658Y-94779500D01*
X152424656Y-94779500D01*
X152278351Y-94815562D01*
X152278350Y-94815562D01*
X152144926Y-94885588D01*
X152032137Y-94985512D01*
X151946539Y-95109523D01*
X151946537Y-95109526D01*
X151893108Y-95250406D01*
X151893105Y-95250415D01*
X151874943Y-95399998D01*
X151874943Y-95400001D01*
X149402557Y-95400001D01*
X149359702Y-95377509D01*
X149213396Y-95341447D01*
X149213395Y-95341447D01*
X149062711Y-95341447D01*
X149062709Y-95341447D01*
X148916404Y-95377509D01*
X148916403Y-95377509D01*
X148782979Y-95447535D01*
X148764687Y-95463741D01*
X148671800Y-95546033D01*
X148670190Y-95547459D01*
X148584592Y-95671470D01*
X148584590Y-95671473D01*
X148531161Y-95812353D01*
X148531158Y-95812362D01*
X148512996Y-95961945D01*
X148512996Y-95961948D01*
X135620622Y-95961948D01*
X135567862Y-95885511D01*
X135455073Y-95785588D01*
X135443473Y-95779500D01*
X135321649Y-95715562D01*
X135175343Y-95679500D01*
X135175342Y-95679500D01*
X135024658Y-95679500D01*
X135024656Y-95679500D01*
X134878351Y-95715562D01*
X134878350Y-95715562D01*
X134744926Y-95785588D01*
X134632137Y-95885512D01*
X134546539Y-96009523D01*
X134546537Y-96009526D01*
X134493108Y-96150406D01*
X134493105Y-96150415D01*
X134474943Y-96299998D01*
X134474943Y-96300001D01*
X131679361Y-96300001D01*
X131705563Y-96276788D01*
X131791161Y-96152777D01*
X131844595Y-96011885D01*
X131859930Y-95885588D01*
X131862758Y-95862300D01*
X131862758Y-95862297D01*
X131844595Y-95712714D01*
X131844592Y-95712705D01*
X131791163Y-95571825D01*
X131791161Y-95571822D01*
X131791161Y-95571821D01*
X131705563Y-95447810D01*
X131592774Y-95347887D01*
X131459350Y-95277861D01*
X131313044Y-95241799D01*
X131313043Y-95241799D01*
X131162359Y-95241799D01*
X131162357Y-95241799D01*
X131016052Y-95277861D01*
X131016051Y-95277861D01*
X130882627Y-95347887D01*
X130788281Y-95431472D01*
X130770150Y-95447535D01*
X130769838Y-95447811D01*
X130684240Y-95571822D01*
X130667394Y-95616240D01*
X130629079Y-95663944D01*
X130570042Y-95680016D01*
X130528821Y-95668792D01*
X130472550Y-95639259D01*
X130379159Y-95616240D01*
X130326243Y-95603197D01*
X130326242Y-95603197D01*
X130320428Y-95601764D01*
X130321112Y-95598986D01*
X130276062Y-95577983D01*
X130246395Y-95524471D01*
X130253847Y-95463741D01*
X130277926Y-95431472D01*
X130382767Y-95338590D01*
X130382767Y-95338589D01*
X130382768Y-95338589D01*
X130468366Y-95214578D01*
X130470405Y-95209203D01*
X130508207Y-95109526D01*
X130521800Y-95073686D01*
X130539963Y-94924100D01*
X130521800Y-94774514D01*
X130468366Y-94633622D01*
X130382768Y-94509611D01*
X130269979Y-94409688D01*
X130251516Y-94399998D01*
X130136555Y-94339662D01*
X129990249Y-94303600D01*
X129990248Y-94303600D01*
X129839564Y-94303600D01*
X129839562Y-94303600D01*
X129693257Y-94339662D01*
X129693256Y-94339662D01*
X129559832Y-94409688D01*
X129447043Y-94509612D01*
X129361445Y-94633623D01*
X129361443Y-94633626D01*
X129308014Y-94774506D01*
X129308011Y-94774515D01*
X129289849Y-94924098D01*
X129289849Y-94924101D01*
X128362295Y-94924101D01*
X128303640Y-94910200D01*
X128303639Y-94910200D01*
X128172333Y-94910200D01*
X128041907Y-94925445D01*
X128041904Y-94925445D01*
X128041904Y-94925446D01*
X127877197Y-94985394D01*
X127730762Y-95081705D01*
X127730757Y-95081710D01*
X127610477Y-95209199D01*
X127610470Y-95209207D01*
X127522836Y-95360993D01*
X127472565Y-95528908D01*
X127472564Y-95528916D01*
X127462372Y-95703890D01*
X126932514Y-95703890D01*
X126933805Y-95681724D01*
X126937627Y-95616109D01*
X126937627Y-95616106D01*
X126907191Y-95443496D01*
X126907190Y-95443495D01*
X126907190Y-95443491D01*
X126837766Y-95282548D01*
X126733097Y-95141953D01*
X126733095Y-95141951D01*
X126598829Y-95029288D01*
X126598143Y-95028943D01*
X126442192Y-94950622D01*
X126442188Y-94950621D01*
X126442182Y-94950618D01*
X126271640Y-94910200D01*
X126271639Y-94910200D01*
X126140333Y-94910200D01*
X126009907Y-94925445D01*
X126009904Y-94925445D01*
X126009904Y-94925446D01*
X125845197Y-94985394D01*
X125698762Y-95081705D01*
X125698757Y-95081710D01*
X125578477Y-95209199D01*
X125578470Y-95209207D01*
X125490836Y-95360993D01*
X125440565Y-95528908D01*
X125440564Y-95528916D01*
X125430372Y-95703890D01*
X124144202Y-95703890D01*
X124153460Y-95690478D01*
X124157624Y-95679500D01*
X124172885Y-95639259D01*
X124206894Y-95549586D01*
X124225057Y-95400000D01*
X124217600Y-95338590D01*
X124206894Y-95250415D01*
X124206891Y-95250406D01*
X124170559Y-95154606D01*
X124167602Y-95093492D01*
X124201132Y-95042312D01*
X124258342Y-95020616D01*
X124263125Y-95020500D01*
X124275338Y-95020500D01*
X124275342Y-95020500D01*
X124421648Y-94984438D01*
X124555073Y-94914412D01*
X124667862Y-94814489D01*
X124753460Y-94690478D01*
X124806894Y-94549586D01*
X124825057Y-94400000D01*
X124806894Y-94250414D01*
X124753460Y-94109522D01*
X124667862Y-93985511D01*
X124555073Y-93885588D01*
X124421649Y-93815562D01*
X124275343Y-93779500D01*
X124275342Y-93779500D01*
X124124658Y-93779500D01*
X124124653Y-93779500D01*
X124122685Y-93779986D01*
X124121418Y-93779893D01*
X124118717Y-93780222D01*
X124118652Y-93779692D01*
X124061661Y-93775550D01*
X124014899Y-93736091D01*
X124000000Y-93683861D01*
X124000000Y-91599000D01*
X124018907Y-91540809D01*
X124068407Y-91504845D01*
X124099000Y-91500000D01*
X124170528Y-91500000D01*
X124228719Y-91518907D01*
X124264683Y-91568407D01*
X124269105Y-91589861D01*
X124284500Y-91756000D01*
X124343865Y-91964645D01*
X124440557Y-92158829D01*
X124571284Y-92331939D01*
X124731594Y-92478081D01*
X124916028Y-92592278D01*
X125118305Y-92670640D01*
X125331537Y-92710500D01*
X125548463Y-92710500D01*
X125761695Y-92670640D01*
X125963972Y-92592278D01*
X126148406Y-92478081D01*
X126308716Y-92331939D01*
X126439443Y-92158829D01*
X126536135Y-91964645D01*
X126595500Y-91756000D01*
X126610894Y-91589863D01*
X126635090Y-91533667D01*
X126687697Y-91502424D01*
X126709472Y-91500000D01*
X126710528Y-91500000D01*
X126768719Y-91518907D01*
X126804683Y-91568407D01*
X126809105Y-91589861D01*
X126824500Y-91756000D01*
X126883865Y-91964645D01*
X126980557Y-92158829D01*
X127111284Y-92331939D01*
X127271594Y-92478081D01*
X127456028Y-92592278D01*
X127658305Y-92670640D01*
X127871537Y-92710500D01*
X128088463Y-92710500D01*
X128301695Y-92670640D01*
X128503972Y-92592278D01*
X128688406Y-92478081D01*
X128848716Y-92331939D01*
X128979443Y-92158829D01*
X129076135Y-91964645D01*
X129135500Y-91756000D01*
X129151422Y-91584164D01*
X129169771Y-91541546D01*
X129166247Y-91538451D01*
X129330228Y-91538451D01*
X129335120Y-91542748D01*
X129348577Y-91584163D01*
X129364500Y-91756000D01*
X129423865Y-91964645D01*
X129520557Y-92158829D01*
X129651284Y-92331939D01*
X129811594Y-92478081D01*
X129996028Y-92592278D01*
X130198305Y-92670640D01*
X130411537Y-92710500D01*
X130628463Y-92710500D01*
X130841695Y-92670640D01*
X131043972Y-92592278D01*
X131228406Y-92478081D01*
X131388716Y-92331939D01*
X131519443Y-92158829D01*
X131616135Y-91964645D01*
X131675500Y-91756000D01*
X131691422Y-91584164D01*
X131709771Y-91541546D01*
X131706247Y-91538451D01*
X131870228Y-91538451D01*
X131875120Y-91542748D01*
X131888577Y-91584163D01*
X131904500Y-91756000D01*
X131963865Y-91964645D01*
X132060557Y-92158829D01*
X132191284Y-92331939D01*
X132351594Y-92478081D01*
X132536028Y-92592278D01*
X132738305Y-92670640D01*
X132951537Y-92710500D01*
X133168463Y-92710500D01*
X133381695Y-92670640D01*
X133583972Y-92592278D01*
X133768406Y-92478081D01*
X133928716Y-92331939D01*
X134059443Y-92158829D01*
X134156135Y-91964645D01*
X134215500Y-91756000D01*
X134231422Y-91584164D01*
X134249771Y-91541546D01*
X134246247Y-91538451D01*
X134410228Y-91538451D01*
X134415120Y-91542748D01*
X134428577Y-91584163D01*
X134444500Y-91756000D01*
X134503865Y-91964645D01*
X134600557Y-92158829D01*
X134731284Y-92331939D01*
X134891594Y-92478081D01*
X135076028Y-92592278D01*
X135278305Y-92670640D01*
X135491537Y-92710500D01*
X135708463Y-92710500D01*
X135921695Y-92670640D01*
X136123972Y-92592278D01*
X136308406Y-92478081D01*
X136468716Y-92331939D01*
X136599443Y-92158829D01*
X136696135Y-91964645D01*
X136755500Y-91756000D01*
X136771422Y-91584164D01*
X136789771Y-91541546D01*
X136786247Y-91538451D01*
X136950228Y-91538451D01*
X136955120Y-91542748D01*
X136968577Y-91584163D01*
X136984500Y-91756000D01*
X137043865Y-91964645D01*
X137140557Y-92158829D01*
X137271284Y-92331939D01*
X137431594Y-92478081D01*
X137616028Y-92592278D01*
X137818305Y-92670640D01*
X138031537Y-92710500D01*
X138248463Y-92710500D01*
X138461695Y-92670640D01*
X138663972Y-92592278D01*
X138848406Y-92478081D01*
X139008716Y-92331939D01*
X139139443Y-92158829D01*
X139236135Y-91964645D01*
X139295500Y-91756000D01*
X139311422Y-91584164D01*
X139329771Y-91541546D01*
X139326247Y-91538451D01*
X139490228Y-91538451D01*
X139495120Y-91542748D01*
X139508577Y-91584163D01*
X139524500Y-91756000D01*
X139583865Y-91964645D01*
X139680557Y-92158829D01*
X139811284Y-92331939D01*
X139971594Y-92478081D01*
X140156028Y-92592278D01*
X140358305Y-92670640D01*
X140571537Y-92710500D01*
X140788463Y-92710500D01*
X140933391Y-92683408D01*
X140994064Y-92691300D01*
X141038511Y-92733349D01*
X141049754Y-92793493D01*
X141044148Y-92815828D01*
X140993106Y-92950414D01*
X140993105Y-92950415D01*
X140974943Y-93099998D01*
X140974943Y-93100001D01*
X140993105Y-93249584D01*
X140993108Y-93249593D01*
X141046537Y-93390473D01*
X141046539Y-93390476D01*
X141046540Y-93390478D01*
X141132138Y-93514489D01*
X141244927Y-93614412D01*
X141378352Y-93684438D01*
X141524658Y-93720500D01*
X141524662Y-93720500D01*
X141675338Y-93720500D01*
X141675342Y-93720500D01*
X141821648Y-93684438D01*
X141955073Y-93614412D01*
X142067862Y-93514489D01*
X142153460Y-93390478D01*
X142206894Y-93249586D01*
X142225057Y-93100000D01*
X142206894Y-92950414D01*
X142168969Y-92850415D01*
X142153462Y-92809526D01*
X142153460Y-92809523D01*
X142153460Y-92809522D01*
X142067862Y-92685511D01*
X141955073Y-92585588D01*
X141954926Y-92585511D01*
X141821649Y-92515562D01*
X141675343Y-92479500D01*
X141675342Y-92479500D01*
X141636101Y-92479500D01*
X141577910Y-92460593D01*
X141541946Y-92411093D01*
X141541946Y-92349907D01*
X141557098Y-92320839D01*
X141564458Y-92311093D01*
X141679443Y-92158829D01*
X141776135Y-91964645D01*
X141835500Y-91756000D01*
X141851422Y-91584164D01*
X141869771Y-91541546D01*
X141866247Y-91538451D01*
X142030228Y-91538451D01*
X142035120Y-91542748D01*
X142048577Y-91584163D01*
X142064500Y-91756000D01*
X142123865Y-91964645D01*
X142220557Y-92158829D01*
X142351284Y-92331939D01*
X142511594Y-92478081D01*
X142696028Y-92592278D01*
X142898305Y-92670640D01*
X143111537Y-92710500D01*
X143328462Y-92710500D01*
X143328463Y-92710500D01*
X143497152Y-92678966D01*
X143557822Y-92686858D01*
X143602270Y-92728907D01*
X143613513Y-92789050D01*
X143607907Y-92811384D01*
X143593107Y-92850407D01*
X143593105Y-92850415D01*
X143574943Y-92999998D01*
X143574943Y-93000001D01*
X143593105Y-93149584D01*
X143593108Y-93149593D01*
X143646537Y-93290473D01*
X143646539Y-93290476D01*
X143646540Y-93290478D01*
X143732138Y-93414489D01*
X143844927Y-93514412D01*
X143978352Y-93584438D01*
X144124658Y-93620500D01*
X144124662Y-93620500D01*
X144275338Y-93620500D01*
X144275342Y-93620500D01*
X144421648Y-93584438D01*
X144555073Y-93514412D01*
X144667862Y-93414489D01*
X144753460Y-93290478D01*
X144806894Y-93149586D01*
X144825057Y-93000000D01*
X144806894Y-92850414D01*
X144791386Y-92809522D01*
X144753462Y-92709526D01*
X144753460Y-92709523D01*
X144753460Y-92709522D01*
X144667862Y-92585511D01*
X144555073Y-92485588D01*
X144540773Y-92478083D01*
X144421649Y-92415562D01*
X144275343Y-92379500D01*
X144275342Y-92379500D01*
X144251619Y-92379500D01*
X144193428Y-92360593D01*
X144157464Y-92311093D01*
X144157464Y-92249907D01*
X144172615Y-92220839D01*
X144219443Y-92158829D01*
X144316135Y-91964645D01*
X144375500Y-91756000D01*
X144391422Y-91584164D01*
X144409771Y-91541546D01*
X144406247Y-91538451D01*
X144570228Y-91538451D01*
X144575120Y-91542748D01*
X144588577Y-91584163D01*
X144604500Y-91756000D01*
X144663865Y-91964645D01*
X144760557Y-92158829D01*
X144891284Y-92331939D01*
X145051594Y-92478081D01*
X145236028Y-92592278D01*
X145438305Y-92670640D01*
X145651537Y-92710500D01*
X145702742Y-92710500D01*
X145760933Y-92729407D01*
X145796897Y-92778907D01*
X145796897Y-92840093D01*
X145795309Y-92844605D01*
X145793107Y-92850411D01*
X145793105Y-92850415D01*
X145774943Y-92999998D01*
X145774943Y-93000001D01*
X145793105Y-93149584D01*
X145793108Y-93149593D01*
X145846537Y-93290473D01*
X145846539Y-93290476D01*
X145846540Y-93290478D01*
X145932138Y-93414489D01*
X146044927Y-93514412D01*
X146178352Y-93584438D01*
X146324658Y-93620500D01*
X146324662Y-93620500D01*
X146475338Y-93620500D01*
X146475342Y-93620500D01*
X146621648Y-93584438D01*
X146755073Y-93514412D01*
X146867862Y-93414489D01*
X146953460Y-93290478D01*
X147006894Y-93149586D01*
X147025057Y-93000000D01*
X147006894Y-92850414D01*
X146991386Y-92809522D01*
X146953462Y-92709526D01*
X146953460Y-92709523D01*
X146953460Y-92709522D01*
X146867862Y-92585511D01*
X146811467Y-92535549D01*
X146755073Y-92485587D01*
X146684789Y-92448700D01*
X146642050Y-92404916D01*
X146633209Y-92344373D01*
X146651791Y-92301381D01*
X146759443Y-92158829D01*
X146856135Y-91964645D01*
X146915500Y-91756000D01*
X146931422Y-91584164D01*
X146949771Y-91541546D01*
X146946247Y-91538451D01*
X147110228Y-91538451D01*
X147115120Y-91542748D01*
X147128577Y-91584163D01*
X147144500Y-91756000D01*
X147203865Y-91964645D01*
X147300557Y-92158829D01*
X147431284Y-92331939D01*
X147591594Y-92478081D01*
X147776028Y-92592278D01*
X147978305Y-92670640D01*
X148191537Y-92710500D01*
X148408463Y-92710500D01*
X148621695Y-92670640D01*
X148823972Y-92592278D01*
X149008406Y-92478081D01*
X149168716Y-92331939D01*
X149299443Y-92158829D01*
X149396135Y-91964645D01*
X149455500Y-91756000D01*
X149471422Y-91584164D01*
X149489771Y-91541546D01*
X149484880Y-91537250D01*
X149471422Y-91495833D01*
X149455500Y-91324000D01*
X149433475Y-91246590D01*
X149435736Y-91185449D01*
X149473505Y-91137312D01*
X149528696Y-91120500D01*
X149611304Y-91120500D01*
X149669495Y-91139407D01*
X149705459Y-91188907D01*
X149706524Y-91246590D01*
X149684500Y-91324000D01*
X149668578Y-91495833D01*
X149650228Y-91538451D01*
X149655120Y-91542748D01*
X149668577Y-91584163D01*
X149684500Y-91756000D01*
X149743865Y-91964645D01*
X149840557Y-92158829D01*
X149971284Y-92331939D01*
X150131594Y-92478081D01*
X150316028Y-92592278D01*
X150518305Y-92670640D01*
X150731537Y-92710500D01*
X150948463Y-92710500D01*
X151161695Y-92670640D01*
X151363972Y-92592278D01*
X151548406Y-92478081D01*
X151708716Y-92331939D01*
X151839443Y-92158829D01*
X151936135Y-91964645D01*
X151995500Y-91756000D01*
X152011422Y-91584164D01*
X152029771Y-91541546D01*
X152026247Y-91538451D01*
X152190228Y-91538451D01*
X152195120Y-91542748D01*
X152208577Y-91584163D01*
X152224500Y-91756000D01*
X152283865Y-91964645D01*
X152380557Y-92158829D01*
X152511284Y-92331939D01*
X152671594Y-92478081D01*
X152856028Y-92592278D01*
X153058305Y-92670640D01*
X153271537Y-92710500D01*
X153488463Y-92710500D01*
X153701695Y-92670640D01*
X153903972Y-92592278D01*
X154088406Y-92478081D01*
X154248716Y-92331939D01*
X154379443Y-92158829D01*
X154476135Y-91964645D01*
X154535500Y-91756000D01*
X154551422Y-91584164D01*
X154569771Y-91541546D01*
X154566247Y-91538451D01*
X154730228Y-91538451D01*
X154735120Y-91542748D01*
X154748577Y-91584163D01*
X154764500Y-91756000D01*
X154823865Y-91964645D01*
X154920557Y-92158829D01*
X155051284Y-92331939D01*
X155211594Y-92478081D01*
X155396028Y-92592278D01*
X155598305Y-92670640D01*
X155811537Y-92710500D01*
X156028463Y-92710500D01*
X156241695Y-92670640D01*
X156443972Y-92592278D01*
X156628406Y-92478081D01*
X156788716Y-92331939D01*
X156919443Y-92158829D01*
X157016135Y-91964645D01*
X157075500Y-91756000D01*
X157091422Y-91584164D01*
X157109771Y-91541546D01*
X157104880Y-91537250D01*
X157091422Y-91495833D01*
X157075500Y-91324000D01*
X157016135Y-91115355D01*
X156919443Y-90921171D01*
X156788716Y-90748061D01*
X156628406Y-90601919D01*
X156463802Y-90500000D01*
X156443977Y-90487725D01*
X156443972Y-90487722D01*
X156370175Y-90459133D01*
X156241695Y-90409360D01*
X156241694Y-90409359D01*
X156241692Y-90409359D01*
X156028463Y-90369500D01*
X155811537Y-90369500D01*
X155598307Y-90409359D01*
X155396027Y-90487722D01*
X155396022Y-90487725D01*
X155211598Y-90601916D01*
X155211596Y-90601917D01*
X155211594Y-90601919D01*
X155087891Y-90714689D01*
X155051285Y-90748060D01*
X154920558Y-90921169D01*
X154920553Y-90921178D01*
X154857091Y-91048628D01*
X154823865Y-91115355D01*
X154802938Y-91188907D01*
X154764500Y-91324000D01*
X154748578Y-91495833D01*
X154730228Y-91538451D01*
X154566247Y-91538451D01*
X154564880Y-91537250D01*
X154551422Y-91495833D01*
X154535500Y-91324000D01*
X154476135Y-91115355D01*
X154379443Y-90921171D01*
X154248716Y-90748061D01*
X154088406Y-90601919D01*
X153923802Y-90500000D01*
X153903977Y-90487725D01*
X153903972Y-90487722D01*
X153830175Y-90459133D01*
X153701695Y-90409360D01*
X153701694Y-90409359D01*
X153701692Y-90409359D01*
X153488463Y-90369500D01*
X153271537Y-90369500D01*
X153058307Y-90409359D01*
X152856027Y-90487722D01*
X152856022Y-90487725D01*
X152671598Y-90601916D01*
X152671596Y-90601917D01*
X152671594Y-90601919D01*
X152547891Y-90714689D01*
X152511285Y-90748060D01*
X152380558Y-90921169D01*
X152380553Y-90921178D01*
X152317091Y-91048628D01*
X152283865Y-91115355D01*
X152262938Y-91188907D01*
X152224500Y-91324000D01*
X152208578Y-91495833D01*
X152190228Y-91538451D01*
X152026247Y-91538451D01*
X152024880Y-91537250D01*
X152011422Y-91495833D01*
X151995500Y-91324000D01*
X151936135Y-91115355D01*
X151839443Y-90921171D01*
X151708716Y-90748061D01*
X151548406Y-90601919D01*
X151383802Y-90500000D01*
X151363977Y-90487725D01*
X151363972Y-90487722D01*
X151290175Y-90459133D01*
X151161695Y-90409360D01*
X151161694Y-90409359D01*
X151161692Y-90409359D01*
X150948463Y-90369500D01*
X150731537Y-90369500D01*
X150518307Y-90409359D01*
X150505264Y-90414412D01*
X150316028Y-90487722D01*
X150316025Y-90487723D01*
X150311760Y-90489376D01*
X150311092Y-90487654D01*
X150257797Y-90495571D01*
X150203550Y-90467270D01*
X150176298Y-90412488D01*
X150175946Y-90409876D01*
X150173267Y-90387815D01*
X150168726Y-90350414D01*
X150138458Y-90270604D01*
X150115294Y-90209526D01*
X150115292Y-90209523D01*
X150115292Y-90209522D01*
X150029694Y-90085511D01*
X149916905Y-89985588D01*
X149866230Y-89958992D01*
X149783481Y-89915562D01*
X149637175Y-89879500D01*
X149637174Y-89879500D01*
X149486490Y-89879500D01*
X149486488Y-89879500D01*
X149340183Y-89915562D01*
X149340182Y-89915562D01*
X149206758Y-89985588D01*
X149124101Y-90058817D01*
X149095342Y-90084296D01*
X149093969Y-90085512D01*
X149008371Y-90209523D01*
X149008369Y-90209526D01*
X148954940Y-90350406D01*
X148954938Y-90350415D01*
X148948474Y-90403646D01*
X148922690Y-90459133D01*
X148869215Y-90488868D01*
X148814434Y-90484027D01*
X148621695Y-90409360D01*
X148621694Y-90409359D01*
X148621692Y-90409359D01*
X148408463Y-90369500D01*
X148191537Y-90369500D01*
X147978307Y-90409359D01*
X147776027Y-90487722D01*
X147776022Y-90487725D01*
X147591598Y-90601916D01*
X147591596Y-90601917D01*
X147591594Y-90601919D01*
X147467891Y-90714689D01*
X147431285Y-90748060D01*
X147300558Y-90921169D01*
X147300553Y-90921178D01*
X147237091Y-91048628D01*
X147203865Y-91115355D01*
X147182938Y-91188907D01*
X147144500Y-91324000D01*
X147128578Y-91495833D01*
X147110228Y-91538451D01*
X146946247Y-91538451D01*
X146944880Y-91537250D01*
X146931422Y-91495833D01*
X146915500Y-91324000D01*
X146856135Y-91115355D01*
X146759443Y-90921171D01*
X146628716Y-90748061D01*
X146468406Y-90601919D01*
X146303802Y-90500000D01*
X146283977Y-90487725D01*
X146283972Y-90487722D01*
X146210175Y-90459133D01*
X146081695Y-90409360D01*
X146081694Y-90409359D01*
X146081692Y-90409359D01*
X145868463Y-90369500D01*
X145651537Y-90369500D01*
X145438307Y-90409359D01*
X145236027Y-90487722D01*
X145236022Y-90487725D01*
X145051598Y-90601916D01*
X145051596Y-90601917D01*
X145051594Y-90601919D01*
X144927891Y-90714689D01*
X144891285Y-90748060D01*
X144760558Y-90921169D01*
X144760553Y-90921178D01*
X144697091Y-91048628D01*
X144663865Y-91115355D01*
X144642938Y-91188907D01*
X144604500Y-91324000D01*
X144588578Y-91495833D01*
X144570228Y-91538451D01*
X144406247Y-91538451D01*
X144404880Y-91537250D01*
X144391422Y-91495833D01*
X144375500Y-91324000D01*
X144316135Y-91115355D01*
X144219443Y-90921171D01*
X144088716Y-90748061D01*
X143928406Y-90601919D01*
X143763802Y-90500000D01*
X143743977Y-90487725D01*
X143743972Y-90487722D01*
X143670175Y-90459133D01*
X143541695Y-90409360D01*
X143541694Y-90409359D01*
X143541692Y-90409359D01*
X143328463Y-90369500D01*
X143111537Y-90369500D01*
X142898307Y-90409359D01*
X142696027Y-90487722D01*
X142696022Y-90487725D01*
X142511598Y-90601916D01*
X142511596Y-90601917D01*
X142511594Y-90601919D01*
X142387891Y-90714689D01*
X142351285Y-90748060D01*
X142220558Y-90921169D01*
X142220553Y-90921178D01*
X142157091Y-91048628D01*
X142123865Y-91115355D01*
X142102938Y-91188907D01*
X142064500Y-91324000D01*
X142048578Y-91495833D01*
X142030228Y-91538451D01*
X141866247Y-91538451D01*
X141864880Y-91537250D01*
X141851422Y-91495833D01*
X141835500Y-91324000D01*
X141776135Y-91115355D01*
X141679443Y-90921171D01*
X141548716Y-90748061D01*
X141388406Y-90601919D01*
X141223802Y-90500000D01*
X141203977Y-90487725D01*
X141203972Y-90487722D01*
X141130175Y-90459133D01*
X141001695Y-90409360D01*
X141001694Y-90409359D01*
X141001692Y-90409359D01*
X140788463Y-90369500D01*
X140571537Y-90369500D01*
X140358307Y-90409359D01*
X140156027Y-90487722D01*
X140156022Y-90487725D01*
X139971598Y-90601916D01*
X139971596Y-90601917D01*
X139971594Y-90601919D01*
X139847891Y-90714689D01*
X139811285Y-90748060D01*
X139680558Y-90921169D01*
X139680553Y-90921178D01*
X139617091Y-91048628D01*
X139583865Y-91115355D01*
X139562938Y-91188907D01*
X139524500Y-91324000D01*
X139508578Y-91495833D01*
X139490228Y-91538451D01*
X139326247Y-91538451D01*
X139324880Y-91537250D01*
X139311422Y-91495833D01*
X139295500Y-91324000D01*
X139236135Y-91115355D01*
X139139443Y-90921171D01*
X139008716Y-90748061D01*
X138848406Y-90601919D01*
X138683802Y-90500000D01*
X138663977Y-90487725D01*
X138663972Y-90487722D01*
X138590175Y-90459133D01*
X138461695Y-90409360D01*
X138461694Y-90409359D01*
X138461692Y-90409359D01*
X138248463Y-90369500D01*
X138031537Y-90369500D01*
X137818307Y-90409359D01*
X137616027Y-90487722D01*
X137616022Y-90487725D01*
X137431598Y-90601916D01*
X137431596Y-90601917D01*
X137431594Y-90601919D01*
X137307891Y-90714689D01*
X137271285Y-90748060D01*
X137140558Y-90921169D01*
X137140553Y-90921178D01*
X137077091Y-91048628D01*
X137043865Y-91115355D01*
X137022938Y-91188907D01*
X136984500Y-91324000D01*
X136968578Y-91495833D01*
X136950228Y-91538451D01*
X136786247Y-91538451D01*
X136784880Y-91537250D01*
X136771422Y-91495833D01*
X136755500Y-91324000D01*
X136696135Y-91115355D01*
X136599443Y-90921171D01*
X136468716Y-90748061D01*
X136308406Y-90601919D01*
X136143802Y-90500000D01*
X136123977Y-90487725D01*
X136123972Y-90487722D01*
X136050175Y-90459133D01*
X135921695Y-90409360D01*
X135921694Y-90409359D01*
X135921692Y-90409359D01*
X135708463Y-90369500D01*
X135491537Y-90369500D01*
X135278307Y-90409359D01*
X135076027Y-90487722D01*
X135076022Y-90487725D01*
X134891598Y-90601916D01*
X134891596Y-90601917D01*
X134891594Y-90601919D01*
X134767891Y-90714689D01*
X134731285Y-90748060D01*
X134600558Y-90921169D01*
X134600553Y-90921178D01*
X134537091Y-91048628D01*
X134503865Y-91115355D01*
X134482938Y-91188907D01*
X134444500Y-91324000D01*
X134428578Y-91495833D01*
X134410228Y-91538451D01*
X134246247Y-91538451D01*
X134244880Y-91537250D01*
X134231422Y-91495833D01*
X134215500Y-91324000D01*
X134156135Y-91115355D01*
X134059443Y-90921171D01*
X133928716Y-90748061D01*
X133768406Y-90601919D01*
X133603802Y-90500000D01*
X133583977Y-90487725D01*
X133583972Y-90487722D01*
X133510175Y-90459133D01*
X133381695Y-90409360D01*
X133381694Y-90409359D01*
X133381692Y-90409359D01*
X133168463Y-90369500D01*
X132951537Y-90369500D01*
X132738307Y-90409359D01*
X132536027Y-90487722D01*
X132536022Y-90487725D01*
X132351598Y-90601916D01*
X132351596Y-90601917D01*
X132351594Y-90601919D01*
X132227891Y-90714689D01*
X132191285Y-90748060D01*
X132060558Y-90921169D01*
X132060553Y-90921178D01*
X131997091Y-91048628D01*
X131963865Y-91115355D01*
X131942938Y-91188907D01*
X131904500Y-91324000D01*
X131888578Y-91495833D01*
X131870228Y-91538451D01*
X131706247Y-91538451D01*
X131704880Y-91537250D01*
X131691422Y-91495833D01*
X131675500Y-91324000D01*
X131616135Y-91115355D01*
X131519443Y-90921171D01*
X131388716Y-90748061D01*
X131228406Y-90601919D01*
X131063802Y-90500000D01*
X131043977Y-90487725D01*
X131043972Y-90487722D01*
X130970175Y-90459133D01*
X130841695Y-90409360D01*
X130841694Y-90409359D01*
X130841692Y-90409359D01*
X130628463Y-90369500D01*
X130411537Y-90369500D01*
X130198307Y-90409359D01*
X129996027Y-90487722D01*
X129996022Y-90487725D01*
X129811598Y-90601916D01*
X129811596Y-90601917D01*
X129811594Y-90601919D01*
X129687891Y-90714689D01*
X129651285Y-90748060D01*
X129520558Y-90921169D01*
X129520553Y-90921178D01*
X129457091Y-91048628D01*
X129423865Y-91115355D01*
X129402938Y-91188907D01*
X129364500Y-91324000D01*
X129348578Y-91495833D01*
X129330228Y-91538451D01*
X129166247Y-91538451D01*
X129164880Y-91537250D01*
X129151422Y-91495833D01*
X129135500Y-91324000D01*
X129076135Y-91115355D01*
X129042674Y-91048156D01*
X129033662Y-90987643D01*
X129061000Y-90934324D01*
X129906858Y-90081417D01*
X129961254Y-90053416D01*
X130012906Y-90058816D01*
X130198305Y-90130640D01*
X130411537Y-90170500D01*
X130628463Y-90170500D01*
X130841695Y-90130640D01*
X131043972Y-90052278D01*
X131228406Y-89938081D01*
X131388716Y-89791939D01*
X131519443Y-89618829D01*
X131616135Y-89424645D01*
X131675500Y-89216000D01*
X131691422Y-89044164D01*
X131709771Y-89001546D01*
X131706247Y-88998451D01*
X131870228Y-88998451D01*
X131875120Y-89002748D01*
X131888577Y-89044163D01*
X131904500Y-89216000D01*
X131963865Y-89424645D01*
X132060557Y-89618829D01*
X132191284Y-89791939D01*
X132351594Y-89938081D01*
X132536028Y-90052278D01*
X132738305Y-90130640D01*
X132951537Y-90170500D01*
X133168463Y-90170500D01*
X133381695Y-90130640D01*
X133583972Y-90052278D01*
X133768406Y-89938081D01*
X133928716Y-89791939D01*
X134059443Y-89618829D01*
X134156135Y-89424645D01*
X134215500Y-89216000D01*
X134231422Y-89044164D01*
X134249771Y-89001546D01*
X134246247Y-88998451D01*
X134410228Y-88998451D01*
X134415120Y-89002748D01*
X134428577Y-89044163D01*
X134444500Y-89216000D01*
X134503865Y-89424645D01*
X134600557Y-89618829D01*
X134731284Y-89791939D01*
X134891594Y-89938081D01*
X135076028Y-90052278D01*
X135278305Y-90130640D01*
X135491537Y-90170500D01*
X135708463Y-90170500D01*
X135921695Y-90130640D01*
X136123972Y-90052278D01*
X136308406Y-89938081D01*
X136468716Y-89791939D01*
X136599443Y-89618829D01*
X136696135Y-89424645D01*
X136755500Y-89216000D01*
X136771422Y-89044164D01*
X136789771Y-89001546D01*
X136786247Y-88998451D01*
X136950228Y-88998451D01*
X136955120Y-89002748D01*
X136968577Y-89044163D01*
X136984500Y-89216000D01*
X137043865Y-89424645D01*
X137140557Y-89618829D01*
X137271284Y-89791939D01*
X137431594Y-89938081D01*
X137616028Y-90052278D01*
X137818305Y-90130640D01*
X138031537Y-90170500D01*
X138248463Y-90170500D01*
X138461695Y-90130640D01*
X138663972Y-90052278D01*
X138848406Y-89938081D01*
X139008716Y-89791939D01*
X139139443Y-89618829D01*
X139236135Y-89424645D01*
X139295500Y-89216000D01*
X139301616Y-89150001D01*
X139639692Y-89150001D01*
X139645191Y-89205833D01*
X139645190Y-89205833D01*
X139705232Y-89403762D01*
X139705234Y-89403767D01*
X139802724Y-89586160D01*
X139802731Y-89586170D01*
X139933940Y-89746050D01*
X139933949Y-89746059D01*
X140093829Y-89877268D01*
X140093839Y-89877275D01*
X140276232Y-89974765D01*
X140276237Y-89974767D01*
X140474166Y-90034808D01*
X140529998Y-90040307D01*
X140530000Y-90040306D01*
X140530000Y-89481170D01*
X140537685Y-89484680D01*
X140644237Y-89500000D01*
X140715763Y-89500000D01*
X140822315Y-89484680D01*
X140830000Y-89481170D01*
X140830000Y-90040306D01*
X140830001Y-90040307D01*
X140885833Y-90034808D01*
X141083762Y-89974767D01*
X141083767Y-89974765D01*
X141266160Y-89877275D01*
X141266170Y-89877268D01*
X141426050Y-89746059D01*
X141426059Y-89746050D01*
X141557268Y-89586170D01*
X141557275Y-89586160D01*
X141654765Y-89403767D01*
X141654767Y-89403762D01*
X141714808Y-89205833D01*
X141720307Y-89150001D01*
X141720306Y-89150000D01*
X141157065Y-89150000D01*
X141180000Y-89071889D01*
X141180000Y-88928111D01*
X141157065Y-88850000D01*
X141720306Y-88850000D01*
X141720307Y-88849998D01*
X141714808Y-88794166D01*
X141714809Y-88794166D01*
X141654767Y-88596237D01*
X141654765Y-88596232D01*
X141557275Y-88413839D01*
X141557268Y-88413829D01*
X141426059Y-88253949D01*
X141426050Y-88253940D01*
X141266170Y-88122731D01*
X141266160Y-88122724D01*
X141083767Y-88025234D01*
X141083762Y-88025232D01*
X140885843Y-87965194D01*
X140885832Y-87965191D01*
X140830000Y-87959692D01*
X140830000Y-88518829D01*
X140822315Y-88515320D01*
X140715763Y-88500000D01*
X140644237Y-88500000D01*
X140537685Y-88515320D01*
X140530000Y-88518829D01*
X140530000Y-87959692D01*
X140474167Y-87965191D01*
X140474156Y-87965194D01*
X140276237Y-88025232D01*
X140276232Y-88025234D01*
X140093839Y-88122724D01*
X140093829Y-88122731D01*
X139933949Y-88253940D01*
X139933940Y-88253949D01*
X139802731Y-88413829D01*
X139802724Y-88413839D01*
X139705234Y-88596232D01*
X139705232Y-88596237D01*
X139645191Y-88794166D01*
X139639692Y-88849998D01*
X139639694Y-88850000D01*
X140202935Y-88850000D01*
X140180000Y-88928111D01*
X140180000Y-89071889D01*
X140202935Y-89150000D01*
X139639694Y-89150000D01*
X139639692Y-89150001D01*
X139301616Y-89150001D01*
X139315515Y-89000000D01*
X139295500Y-88784000D01*
X139236135Y-88575355D01*
X139139443Y-88381171D01*
X139008716Y-88208061D01*
X138848406Y-88061919D01*
X138663972Y-87947722D01*
X138461695Y-87869360D01*
X138461694Y-87869359D01*
X138461692Y-87869359D01*
X138248463Y-87829500D01*
X138031537Y-87829500D01*
X137818307Y-87869359D01*
X137616027Y-87947722D01*
X137616022Y-87947725D01*
X137431598Y-88061916D01*
X137431596Y-88061917D01*
X137431594Y-88061919D01*
X137271284Y-88208061D01*
X137257959Y-88225706D01*
X137140558Y-88381169D01*
X137140553Y-88381178D01*
X137043866Y-88575352D01*
X137043865Y-88575355D01*
X136984500Y-88784000D01*
X136971147Y-88928111D01*
X136968578Y-88955833D01*
X136950228Y-88998451D01*
X136786247Y-88998451D01*
X136784880Y-88997250D01*
X136771422Y-88955833D01*
X136755500Y-88784000D01*
X136696135Y-88575355D01*
X136599443Y-88381171D01*
X136468716Y-88208061D01*
X136308406Y-88061919D01*
X136123972Y-87947722D01*
X135921695Y-87869360D01*
X135921694Y-87869359D01*
X135921692Y-87869359D01*
X135708463Y-87829500D01*
X135491537Y-87829500D01*
X135278307Y-87869359D01*
X135076027Y-87947722D01*
X135076022Y-87947725D01*
X134891598Y-88061916D01*
X134891596Y-88061917D01*
X134891594Y-88061919D01*
X134731284Y-88208061D01*
X134717959Y-88225706D01*
X134600558Y-88381169D01*
X134600553Y-88381178D01*
X134503866Y-88575352D01*
X134503865Y-88575355D01*
X134444500Y-88784000D01*
X134431147Y-88928111D01*
X134428578Y-88955833D01*
X134410228Y-88998451D01*
X134246247Y-88998451D01*
X134244880Y-88997250D01*
X134231422Y-88955833D01*
X134215500Y-88784000D01*
X134156135Y-88575355D01*
X134059443Y-88381171D01*
X133928716Y-88208061D01*
X133768406Y-88061919D01*
X133583972Y-87947722D01*
X133381695Y-87869360D01*
X133381694Y-87869359D01*
X133381692Y-87869359D01*
X133168463Y-87829500D01*
X132951537Y-87829500D01*
X132738307Y-87869359D01*
X132536027Y-87947722D01*
X132536022Y-87947725D01*
X132351598Y-88061916D01*
X132351596Y-88061917D01*
X132351594Y-88061919D01*
X132191284Y-88208061D01*
X132177959Y-88225706D01*
X132060558Y-88381169D01*
X132060553Y-88381178D01*
X131963866Y-88575352D01*
X131963865Y-88575355D01*
X131904500Y-88784000D01*
X131891147Y-88928111D01*
X131888578Y-88955833D01*
X131870228Y-88998451D01*
X131706247Y-88998451D01*
X131704880Y-88997250D01*
X131691422Y-88955833D01*
X131675500Y-88784000D01*
X131616135Y-88575355D01*
X131575658Y-88494067D01*
X131566646Y-88433551D01*
X131593985Y-88380231D01*
X140500000Y-79400000D01*
X140500000Y-77500000D01*
X145500000Y-77500000D01*
X145500000Y-75399589D01*
X145552067Y-75366874D01*
X145666874Y-75252067D01*
X145753256Y-75114591D01*
X145793351Y-75000004D01*
X148674941Y-75000004D01*
X148693118Y-75161335D01*
X148693121Y-75161347D01*
X148746744Y-75314591D01*
X148746744Y-75314592D01*
X148831363Y-75449262D01*
X148833126Y-75452067D01*
X148947933Y-75566874D01*
X148947935Y-75566875D01*
X148947936Y-75566876D01*
X149023711Y-75614489D01*
X149085409Y-75653256D01*
X149146777Y-75674729D01*
X149238652Y-75706878D01*
X149238656Y-75706879D01*
X149238659Y-75706880D01*
X149238660Y-75706880D01*
X149238664Y-75706881D01*
X149399996Y-75725059D01*
X149400000Y-75725059D01*
X149400004Y-75725059D01*
X149561335Y-75706881D01*
X149561337Y-75706880D01*
X149561341Y-75706880D01*
X149714591Y-75653256D01*
X149852067Y-75566874D01*
X149966874Y-75452067D01*
X150053256Y-75314591D01*
X150093352Y-75200001D01*
X158974943Y-75200001D01*
X158993105Y-75349584D01*
X158993108Y-75349593D01*
X159046537Y-75490473D01*
X159046539Y-75490476D01*
X159046540Y-75490478D01*
X159132138Y-75614489D01*
X159244927Y-75714412D01*
X159378352Y-75784438D01*
X159524658Y-75820500D01*
X159524662Y-75820500D01*
X159675338Y-75820500D01*
X159675342Y-75820500D01*
X159821648Y-75784438D01*
X159955073Y-75714412D01*
X160067862Y-75614489D01*
X160153460Y-75490478D01*
X160206894Y-75349586D01*
X160225057Y-75200000D01*
X160214686Y-75114591D01*
X160206894Y-75050415D01*
X160206891Y-75050406D01*
X160153462Y-74909526D01*
X160153460Y-74909523D01*
X160153460Y-74909522D01*
X160067862Y-74785511D01*
X159955073Y-74685588D01*
X159865666Y-74638664D01*
X159821649Y-74615562D01*
X159675343Y-74579500D01*
X159675342Y-74579500D01*
X159524658Y-74579500D01*
X159524656Y-74579500D01*
X159378351Y-74615562D01*
X159378350Y-74615562D01*
X159244926Y-74685588D01*
X159132137Y-74785512D01*
X159046539Y-74909523D01*
X159046537Y-74909526D01*
X158993108Y-75050406D01*
X158993105Y-75050415D01*
X158974943Y-75199998D01*
X158974943Y-75200001D01*
X150093352Y-75200001D01*
X150106880Y-75161341D01*
X150110781Y-75126723D01*
X150125059Y-75000004D01*
X150125059Y-74999995D01*
X150106881Y-74838664D01*
X150106878Y-74838652D01*
X150075712Y-74749586D01*
X150053256Y-74685409D01*
X149966874Y-74547933D01*
X149852067Y-74433126D01*
X149852064Y-74433124D01*
X149852063Y-74433123D01*
X149714592Y-74346744D01*
X149561347Y-74293121D01*
X149561335Y-74293118D01*
X149400004Y-74274941D01*
X149399996Y-74274941D01*
X149238664Y-74293118D01*
X149238652Y-74293121D01*
X149085408Y-74346744D01*
X149085407Y-74346744D01*
X148947936Y-74433123D01*
X148833123Y-74547936D01*
X148746744Y-74685407D01*
X148746744Y-74685408D01*
X148693121Y-74838652D01*
X148693118Y-74838664D01*
X148674941Y-74999995D01*
X148674941Y-75000004D01*
X145793351Y-75000004D01*
X145806880Y-74961341D01*
X145807068Y-74959672D01*
X145825059Y-74800004D01*
X145825059Y-74799995D01*
X145806881Y-74638664D01*
X145806878Y-74638652D01*
X145775134Y-74547933D01*
X145753256Y-74485409D01*
X145725961Y-74441970D01*
X145666876Y-74347936D01*
X145666875Y-74347935D01*
X145666874Y-74347933D01*
X145552067Y-74233126D01*
X145552064Y-74233124D01*
X145552063Y-74233123D01*
X145500000Y-74200409D01*
X145500000Y-72500000D01*
X145500001Y-72500000D01*
X162284117Y-72500000D01*
X162342308Y-72518907D01*
G37*
%TD.AperFunction*%
%TA.AperFunction,Conductor*%
G36*
X147783200Y-87924407D02*
G01*
X147819164Y-87973907D01*
X147819164Y-88035093D01*
X147783200Y-88084593D01*
X147771677Y-88091810D01*
X147713839Y-88122724D01*
X147713829Y-88122731D01*
X147553949Y-88253940D01*
X147553940Y-88253949D01*
X147422731Y-88413829D01*
X147422724Y-88413839D01*
X147325234Y-88596232D01*
X147325232Y-88596237D01*
X147265191Y-88794166D01*
X147259692Y-88849998D01*
X147259694Y-88850000D01*
X147822935Y-88850000D01*
X147800000Y-88928111D01*
X147800000Y-89071889D01*
X147822935Y-89150000D01*
X147259693Y-89150000D01*
X147262733Y-89180873D01*
X147249618Y-89240636D01*
X147203881Y-89281278D01*
X147142990Y-89287273D01*
X147140531Y-89286701D01*
X147111316Y-89279500D01*
X146960632Y-89279500D01*
X146960631Y-89279500D01*
X146919182Y-89289716D01*
X146858158Y-89285283D01*
X146811394Y-89245827D01*
X146796752Y-89186419D01*
X146796969Y-89183888D01*
X146800306Y-89150000D01*
X146237065Y-89150000D01*
X146260000Y-89071889D01*
X146260000Y-88928111D01*
X146237065Y-88850000D01*
X146800306Y-88850000D01*
X146800307Y-88849998D01*
X146794808Y-88794166D01*
X146794809Y-88794166D01*
X146734767Y-88596237D01*
X146734765Y-88596232D01*
X146637275Y-88413839D01*
X146637268Y-88413829D01*
X146506059Y-88253949D01*
X146506050Y-88253940D01*
X146346170Y-88122731D01*
X146346160Y-88122724D01*
X146288323Y-88091810D01*
X146245916Y-88047705D01*
X146237533Y-87987096D01*
X146266375Y-87933135D01*
X146321427Y-87906434D01*
X146334991Y-87905500D01*
X147725009Y-87905500D01*
X147783200Y-87924407D01*
G37*
%TD.AperFunction*%
%TD*%
%TA.AperFunction,Conductor*%
%TO.N,GND*%
G36*
X158975182Y-75527930D02*
G01*
X159000000Y-75563884D01*
X159000000Y-78594500D01*
X155400000Y-78594500D01*
X155400000Y-75400000D01*
X158926665Y-75400000D01*
X158975182Y-75527930D01*
G37*
%TD.AperFunction*%
%TD*%
%TA.AperFunction,Conductor*%
%TO.N,GND*%
G36*
X139600000Y-79000000D02*
G01*
X136000000Y-79000000D01*
X136000000Y-75400000D01*
X139600000Y-75400000D01*
X139600000Y-79000000D01*
G37*
%TD.AperFunction*%
%TD*%
%TA.AperFunction,Conductor*%
%TO.N,Vin*%
G36*
X163018193Y-77007535D02*
G01*
X163652135Y-77270123D01*
X163698659Y-77309859D01*
X163712526Y-77349651D01*
X163714860Y-77368872D01*
X163775182Y-77527930D01*
X163871817Y-77667929D01*
X163999148Y-77780734D01*
X164149775Y-77859790D01*
X164239952Y-77882016D01*
X164291925Y-77914298D01*
X164313192Y-77963115D01*
X164313427Y-77963058D01*
X164313766Y-77964433D01*
X164314535Y-77966199D01*
X164314860Y-77968872D01*
X164375182Y-78127930D01*
X164471817Y-78267929D01*
X164599148Y-78380734D01*
X164749775Y-78459790D01*
X164914944Y-78500500D01*
X164914947Y-78500500D01*
X165085053Y-78500500D01*
X165085056Y-78500500D01*
X165087085Y-78500000D01*
X167707829Y-78500000D01*
X167713799Y-78500361D01*
X167714943Y-78500499D01*
X167714944Y-78500500D01*
X167714945Y-78500500D01*
X167885055Y-78500500D01*
X167885056Y-78500500D01*
X167885056Y-78500499D01*
X167886201Y-78500361D01*
X167892171Y-78500000D01*
X168458992Y-78500000D01*
X168517183Y-78518907D01*
X168528996Y-78528996D01*
X168971004Y-78971004D01*
X168998781Y-79025521D01*
X169000000Y-79041008D01*
X169000000Y-89958992D01*
X168981093Y-90017183D01*
X168971004Y-90028996D01*
X168528996Y-90471004D01*
X168474479Y-90498781D01*
X168458992Y-90500000D01*
X161726122Y-90500000D01*
X161669338Y-90482096D01*
X161627636Y-90452896D01*
X161627628Y-90452892D01*
X161598315Y-90439223D01*
X161553567Y-90397495D01*
X161541892Y-90337434D01*
X161567750Y-90281981D01*
X161621264Y-90252318D01*
X161640152Y-90250499D01*
X161881518Y-90250499D01*
X161881521Y-90250499D01*
X161881522Y-90250498D01*
X161928411Y-90243072D01*
X161975299Y-90235647D01*
X161975299Y-90235646D01*
X161975304Y-90235646D01*
X162088342Y-90178050D01*
X162178050Y-90088342D01*
X162235646Y-89975304D01*
X162250500Y-89881519D01*
X162250499Y-88118482D01*
X162250499Y-88118481D01*
X162250499Y-88118478D01*
X162250498Y-88118476D01*
X162235647Y-88024700D01*
X162235646Y-88024698D01*
X162235646Y-88024696D01*
X162178050Y-87911658D01*
X162088342Y-87821950D01*
X161975304Y-87764354D01*
X161975305Y-87764354D01*
X161881521Y-87749500D01*
X160118478Y-87749500D01*
X160118476Y-87749501D01*
X160024700Y-87764352D01*
X160024695Y-87764354D01*
X159911659Y-87821949D01*
X159821949Y-87911659D01*
X159764354Y-88024695D01*
X159749500Y-88118478D01*
X159749500Y-89881521D01*
X159749501Y-89881523D01*
X159764352Y-89975299D01*
X159764354Y-89975304D01*
X159821950Y-90088342D01*
X159911658Y-90178050D01*
X160024696Y-90235646D01*
X160118481Y-90250500D01*
X160359847Y-90250499D01*
X160418035Y-90269406D01*
X160453999Y-90318906D01*
X160454000Y-90380091D01*
X160418036Y-90429591D01*
X160401686Y-90439223D01*
X160372364Y-90452896D01*
X160330663Y-90482096D01*
X160273879Y-90500000D01*
X159186122Y-90500000D01*
X159129338Y-90482096D01*
X159113497Y-90471004D01*
X159087639Y-90452898D01*
X158889330Y-90360425D01*
X158677977Y-90303793D01*
X158677976Y-90303792D01*
X158677969Y-90303791D01*
X158500883Y-90288299D01*
X158471625Y-90281140D01*
X158313590Y-90215679D01*
X158267064Y-90175942D01*
X158252781Y-90116447D01*
X158260000Y-90099019D01*
X158260000Y-89458335D01*
X158317685Y-89484680D01*
X158424237Y-89500000D01*
X158495763Y-89500000D01*
X158602315Y-89484680D01*
X158660000Y-89458335D01*
X158660000Y-90071494D01*
X158759568Y-90052882D01*
X158947936Y-89979907D01*
X158947938Y-89979906D01*
X159119683Y-89873567D01*
X159268970Y-89737474D01*
X159390705Y-89576270D01*
X159390710Y-89576261D01*
X159480747Y-89395442D01*
X159536030Y-89201144D01*
X159536031Y-89201141D01*
X159536137Y-89200000D01*
X158922383Y-89200000D01*
X158960000Y-89071889D01*
X158960000Y-88928111D01*
X158922383Y-88800000D01*
X159536137Y-88800000D01*
X159536137Y-88799999D01*
X159536031Y-88798858D01*
X159536030Y-88798855D01*
X159480747Y-88604557D01*
X159390710Y-88423738D01*
X159390705Y-88423729D01*
X159268970Y-88262525D01*
X159119683Y-88126432D01*
X158947938Y-88020093D01*
X158947936Y-88020092D01*
X158759568Y-87947117D01*
X158660000Y-87928504D01*
X158660000Y-88541664D01*
X158602315Y-88515320D01*
X158495763Y-88500000D01*
X158424237Y-88500000D01*
X158317685Y-88515320D01*
X158260000Y-88541664D01*
X158260000Y-87928505D01*
X158259999Y-87928504D01*
X158160431Y-87947117D01*
X157972063Y-88020092D01*
X157972061Y-88020093D01*
X157800316Y-88126432D01*
X157651029Y-88262525D01*
X157529294Y-88423729D01*
X157529289Y-88423738D01*
X157439252Y-88604557D01*
X157383969Y-88798855D01*
X157383968Y-88798858D01*
X157383862Y-88799999D01*
X157383863Y-88800000D01*
X157997617Y-88800000D01*
X157960000Y-88928111D01*
X157960000Y-89071889D01*
X157997617Y-89200000D01*
X157383863Y-89200000D01*
X157366029Y-89219561D01*
X157312852Y-89249825D01*
X157252042Y-89243051D01*
X157222866Y-89222866D01*
X157193818Y-89193818D01*
X157166041Y-89139301D01*
X157165199Y-89115192D01*
X157175277Y-89000000D01*
X157156207Y-88782023D01*
X157099575Y-88570670D01*
X157007102Y-88372362D01*
X156881598Y-88193123D01*
X156726877Y-88038402D01*
X156726873Y-88038399D01*
X156726872Y-88038398D01*
X156626231Y-87967929D01*
X156547639Y-87912898D01*
X156349330Y-87820425D01*
X156137977Y-87763793D01*
X156137976Y-87763792D01*
X156137969Y-87763791D01*
X155920003Y-87744723D01*
X155919997Y-87744723D01*
X155758823Y-87758823D01*
X155500000Y-87500000D01*
X155000000Y-87500000D01*
X154999998Y-87500000D01*
X144393351Y-87500000D01*
X144335160Y-87481093D01*
X144299196Y-87431593D01*
X144295073Y-87412933D01*
X144285140Y-87331128D01*
X144224818Y-87172070D01*
X144128183Y-87032071D01*
X144000852Y-86919266D01*
X143850225Y-86840210D01*
X143850224Y-86840209D01*
X143850223Y-86840209D01*
X143685058Y-86799500D01*
X143685056Y-86799500D01*
X143514944Y-86799500D01*
X143514941Y-86799500D01*
X143349776Y-86840209D01*
X143199146Y-86919267D01*
X143071818Y-87032069D01*
X143071816Y-87032072D01*
X142975182Y-87172070D01*
X142975180Y-87172072D01*
X142964273Y-87200833D01*
X142925959Y-87248537D01*
X142866922Y-87264610D01*
X142809714Y-87242913D01*
X142790232Y-87221964D01*
X142728186Y-87132075D01*
X142728181Y-87132069D01*
X142600851Y-87019265D01*
X142552991Y-86994145D01*
X142510253Y-86950360D01*
X142500000Y-86906486D01*
X142500000Y-85220540D01*
X144160000Y-85220540D01*
X144174803Y-85356643D01*
X144233141Y-85529787D01*
X144327342Y-85686348D01*
X144452987Y-85818989D01*
X144452990Y-85818992D01*
X144604214Y-85921524D01*
X144773952Y-85989154D01*
X144799999Y-85993424D01*
X144800000Y-85993423D01*
X144800000Y-85219534D01*
X144819052Y-85234363D01*
X144937424Y-85275000D01*
X145031073Y-85275000D01*
X145123446Y-85259586D01*
X145200000Y-85218156D01*
X145200000Y-85991245D01*
X145312746Y-85959942D01*
X145474180Y-85874355D01*
X145613430Y-85756075D01*
X145613435Y-85756070D01*
X145724001Y-85610622D01*
X145800722Y-85444793D01*
X145800724Y-85444789D01*
X145803815Y-85430747D01*
X145834789Y-85377981D01*
X145890863Y-85353499D01*
X145950618Y-85366652D01*
X145991229Y-85412416D01*
X145999500Y-85452029D01*
X145999500Y-85590690D01*
X146002401Y-85627565D01*
X146002401Y-85627568D01*
X146002402Y-85627569D01*
X146048256Y-85785398D01*
X146131919Y-85926865D01*
X146248135Y-86043081D01*
X146389602Y-86126744D01*
X146547431Y-86172598D01*
X146584306Y-86175500D01*
X146584310Y-86175500D01*
X147415690Y-86175500D01*
X147415694Y-86175500D01*
X147452569Y-86172598D01*
X147610398Y-86126744D01*
X147751865Y-86043081D01*
X147868081Y-85926865D01*
X147939425Y-85806228D01*
X147985319Y-85765767D01*
X148046232Y-85760008D01*
X148057335Y-85763180D01*
X148120738Y-85785366D01*
X148120742Y-85785367D01*
X148120745Y-85785368D01*
X148300000Y-85805565D01*
X148479255Y-85785368D01*
X148649522Y-85725789D01*
X148802262Y-85629816D01*
X148879998Y-85552079D01*
X148934513Y-85524304D01*
X148994945Y-85533875D01*
X149020000Y-85552078D01*
X149097738Y-85629816D01*
X149250478Y-85725789D01*
X149318657Y-85749646D01*
X149420738Y-85785366D01*
X149420742Y-85785367D01*
X149420745Y-85785368D01*
X149600000Y-85805565D01*
X149779255Y-85785368D01*
X149949522Y-85725789D01*
X150102262Y-85629816D01*
X150229816Y-85502262D01*
X150325789Y-85349522D01*
X150385368Y-85179255D01*
X150405565Y-85000000D01*
X151194435Y-85000000D01*
X151214632Y-85179257D01*
X151214633Y-85179261D01*
X151274211Y-85349522D01*
X151274211Y-85349523D01*
X151370181Y-85502258D01*
X151370184Y-85502262D01*
X151497738Y-85629816D01*
X151650478Y-85725789D01*
X151718657Y-85749646D01*
X151820738Y-85785366D01*
X151820742Y-85785367D01*
X151820745Y-85785368D01*
X152000000Y-85805565D01*
X152179255Y-85785368D01*
X152349522Y-85725789D01*
X152502262Y-85629816D01*
X152629816Y-85502262D01*
X152725789Y-85349522D01*
X152785368Y-85179255D01*
X152805565Y-85000000D01*
X152785368Y-84820745D01*
X152725789Y-84650478D01*
X152629816Y-84497738D01*
X152502262Y-84370184D01*
X152502259Y-84370182D01*
X152502258Y-84370181D01*
X152349523Y-84274211D01*
X152179261Y-84214633D01*
X152179257Y-84214632D01*
X152000000Y-84194435D01*
X151820742Y-84214632D01*
X151820738Y-84214633D01*
X151650477Y-84274211D01*
X151650476Y-84274211D01*
X151497741Y-84370181D01*
X151370181Y-84497741D01*
X151274211Y-84650476D01*
X151274211Y-84650477D01*
X151214633Y-84820738D01*
X151214632Y-84820742D01*
X151194435Y-85000000D01*
X150405565Y-85000000D01*
X150385368Y-84820745D01*
X150325789Y-84650478D01*
X150229816Y-84497738D01*
X150102262Y-84370184D01*
X150102259Y-84370182D01*
X150102258Y-84370181D01*
X149949523Y-84274211D01*
X149779261Y-84214633D01*
X149779257Y-84214632D01*
X149600000Y-84194435D01*
X149420742Y-84214632D01*
X149420738Y-84214633D01*
X149250477Y-84274211D01*
X149250476Y-84274211D01*
X149097741Y-84370181D01*
X149097738Y-84370183D01*
X149097738Y-84370184D01*
X149020001Y-84447920D01*
X148965487Y-84475696D01*
X148905055Y-84466125D01*
X148879999Y-84447921D01*
X148802262Y-84370184D01*
X148802259Y-84370182D01*
X148802258Y-84370181D01*
X148649523Y-84274211D01*
X148479261Y-84214633D01*
X148479257Y-84214632D01*
X148300000Y-84194435D01*
X148120742Y-84214632D01*
X148120735Y-84214634D01*
X148118695Y-84215348D01*
X148117490Y-84215374D01*
X148115321Y-84215870D01*
X148115219Y-84215425D01*
X148057525Y-84216712D01*
X148007235Y-84181861D01*
X147990941Y-84149519D01*
X147951744Y-84014602D01*
X147868081Y-83873135D01*
X147751865Y-83756919D01*
X147610398Y-83673256D01*
X147452569Y-83627402D01*
X147452568Y-83627401D01*
X147452565Y-83627401D01*
X147427298Y-83625413D01*
X147415694Y-83624500D01*
X146584306Y-83624500D01*
X146573548Y-83625346D01*
X146547434Y-83627401D01*
X146547427Y-83627403D01*
X146389602Y-83673256D01*
X146248136Y-83756918D01*
X146131918Y-83873136D01*
X146048256Y-84014602D01*
X146002403Y-84172427D01*
X146002401Y-84172434D01*
X145999500Y-84209310D01*
X145999500Y-84356794D01*
X145980593Y-84414985D01*
X145931093Y-84450949D01*
X145869907Y-84450949D01*
X145820407Y-84414985D01*
X145806682Y-84388405D01*
X145766858Y-84270212D01*
X145672657Y-84113651D01*
X145547012Y-83981010D01*
X145547009Y-83981007D01*
X145395783Y-83878474D01*
X145395784Y-83878474D01*
X145226050Y-83810846D01*
X145200000Y-83806575D01*
X145200000Y-84580465D01*
X145180948Y-84565637D01*
X145062576Y-84525000D01*
X144968927Y-84525000D01*
X144876554Y-84540414D01*
X144800000Y-84581843D01*
X144800000Y-83808753D01*
X144799999Y-83808752D01*
X144687253Y-83840057D01*
X144525819Y-83925644D01*
X144386569Y-84043924D01*
X144386564Y-84043929D01*
X144275998Y-84189377D01*
X144199277Y-84355206D01*
X144199275Y-84355210D01*
X144160000Y-84533644D01*
X144160000Y-84699999D01*
X144160001Y-84700000D01*
X144678239Y-84700000D01*
X144631449Y-84806670D01*
X144621114Y-84931395D01*
X144651837Y-85052719D01*
X144682727Y-85100000D01*
X144160001Y-85100000D01*
X144160000Y-85100001D01*
X144160000Y-85220540D01*
X142500000Y-85220540D01*
X142500000Y-81900000D01*
X144894355Y-81900000D01*
X144914860Y-82068872D01*
X144975182Y-82227930D01*
X145071817Y-82367929D01*
X145199148Y-82480734D01*
X145349775Y-82559790D01*
X145514944Y-82600500D01*
X145514947Y-82600500D01*
X145685053Y-82600500D01*
X145685056Y-82600500D01*
X145850225Y-82559790D01*
X146000852Y-82480734D01*
X146128183Y-82367929D01*
X146224818Y-82227930D01*
X146285140Y-82068872D01*
X146305645Y-81900000D01*
X146285140Y-81731128D01*
X146224818Y-81572070D01*
X146128183Y-81432071D01*
X146000852Y-81319266D01*
X145850225Y-81240210D01*
X145850224Y-81240209D01*
X145850223Y-81240209D01*
X145685058Y-81199500D01*
X145685056Y-81199500D01*
X145514944Y-81199500D01*
X145514941Y-81199500D01*
X145349776Y-81240209D01*
X145199146Y-81319267D01*
X145071818Y-81432069D01*
X145071817Y-81432071D01*
X144975182Y-81572070D01*
X144914860Y-81731128D01*
X144894355Y-81900000D01*
X142500000Y-81900000D01*
X142500000Y-79541008D01*
X142518907Y-79482817D01*
X142528996Y-79471004D01*
X142971004Y-79028996D01*
X143025521Y-79001219D01*
X143041008Y-79000000D01*
X147489635Y-79000000D01*
X147547826Y-79018907D01*
X147583790Y-79068407D01*
X147583790Y-79129593D01*
X147576413Y-79145359D01*
X147576626Y-79145462D01*
X147574211Y-79150477D01*
X147514633Y-79320738D01*
X147514632Y-79320742D01*
X147494435Y-79500000D01*
X147514632Y-79679257D01*
X147514633Y-79679261D01*
X147574211Y-79849522D01*
X147574211Y-79849523D01*
X147670181Y-80002258D01*
X147670184Y-80002262D01*
X147797738Y-80129816D01*
X147950478Y-80225789D01*
X148018657Y-80249646D01*
X148120738Y-80285366D01*
X148120742Y-80285367D01*
X148120745Y-80285368D01*
X148300000Y-80305565D01*
X148479255Y-80285368D01*
X148649522Y-80225789D01*
X148802262Y-80129816D01*
X148929816Y-80002262D01*
X149025789Y-79849522D01*
X149085368Y-79679255D01*
X149105565Y-79500000D01*
X149085368Y-79320745D01*
X149025789Y-79150478D01*
X149025786Y-79150474D01*
X149023374Y-79145462D01*
X149024801Y-79144774D01*
X149011589Y-79092341D01*
X149034368Y-79035553D01*
X149086175Y-79003001D01*
X149110365Y-79000000D01*
X158999998Y-79000000D01*
X159000000Y-79000000D01*
X159500000Y-79000000D01*
X161132526Y-77367473D01*
X161164637Y-77346018D01*
X161981806Y-77007535D01*
X162019692Y-77000000D01*
X162980308Y-77000000D01*
X163018193Y-77007535D01*
G37*
%TD.AperFunction*%
%TD*%
M02*
