%TF.GenerationSoftware,KiCad,Pcbnew,7.0.9*%
%TF.CreationDate,2024-02-26T10:01:54+01:00*%
%TF.ProjectId,C2LoraGateway,43324c6f-7261-4476-9174-657761792e6b,rev?*%
%TF.SameCoordinates,Original*%
%TF.FileFunction,Soldermask,Top*%
%TF.FilePolarity,Negative*%
%FSLAX46Y46*%
G04 Gerber Fmt 4.6, Leading zero omitted, Abs format (unit mm)*
G04 Created by KiCad (PCBNEW 7.0.9) date 2024-02-26 10:01:54*
%MOMM*%
%LPD*%
G01*
G04 APERTURE LIST*
G04 Aperture macros list*
%AMRoundRect*
0 Rectangle with rounded corners*
0 $1 Rounding radius*
0 $2 $3 $4 $5 $6 $7 $8 $9 X,Y pos of 4 corners*
0 Add a 4 corners polygon primitive as box body*
4,1,4,$2,$3,$4,$5,$6,$7,$8,$9,$2,$3,0*
0 Add four circle primitives for the rounded corners*
1,1,$1+$1,$2,$3*
1,1,$1+$1,$4,$5*
1,1,$1+$1,$6,$7*
1,1,$1+$1,$8,$9*
0 Add four rect primitives between the rounded corners*
20,1,$1+$1,$2,$3,$4,$5,0*
20,1,$1+$1,$4,$5,$6,$7,0*
20,1,$1+$1,$6,$7,$8,$9,0*
20,1,$1+$1,$8,$9,$2,$3,0*%
%AMFreePoly0*
4,1,21,-0.125000,1.200000,0.125000,1.200000,0.125000,1.700000,0.375000,1.700000,0.375000,1.200000,0.825000,1.200000,0.825000,-1.200000,0.375000,-1.200000,0.375000,-1.700000,0.125000,-1.700000,0.125000,-1.200000,-0.125000,-1.200000,-0.125000,-1.700000,-0.375000,-1.700000,-0.375000,-1.200000,-0.825000,-1.200000,-0.825000,1.200000,-0.375000,1.200000,-0.375000,1.700000,-0.125000,1.700000,
-0.125000,1.200000,-0.125000,1.200000,$1*%
G04 Aperture macros list end*
%ADD10RoundRect,0.200000X-0.200000X-0.275000X0.200000X-0.275000X0.200000X0.275000X-0.200000X0.275000X0*%
%ADD11C,3.200000*%
%ADD12RoundRect,0.218750X0.256250X-0.218750X0.256250X0.218750X-0.256250X0.218750X-0.256250X-0.218750X0*%
%ADD13RoundRect,0.250000X0.650000X-0.325000X0.650000X0.325000X-0.650000X0.325000X-0.650000X-0.325000X0*%
%ADD14RoundRect,0.225000X0.225000X0.250000X-0.225000X0.250000X-0.225000X-0.250000X0.225000X-0.250000X0*%
%ADD15RoundRect,0.250000X-0.325000X-0.650000X0.325000X-0.650000X0.325000X0.650000X-0.325000X0.650000X0*%
%ADD16R,0.650000X0.400000*%
%ADD17R,3.600000X1.270000*%
%ADD18R,4.200000X1.350000*%
%ADD19RoundRect,0.218750X-0.256250X0.218750X-0.256250X-0.218750X0.256250X-0.218750X0.256250X0.218750X0*%
%ADD20RoundRect,0.225000X-0.225000X-0.250000X0.225000X-0.250000X0.225000X0.250000X-0.225000X0.250000X0*%
%ADD21RoundRect,0.250000X0.350000X0.625000X-0.350000X0.625000X-0.350000X-0.625000X0.350000X-0.625000X0*%
%ADD22O,1.200000X1.750000*%
%ADD23RoundRect,0.200000X0.275000X-0.200000X0.275000X0.200000X-0.275000X0.200000X-0.275000X-0.200000X0*%
%ADD24RoundRect,0.250000X-1.000000X-0.900000X1.000000X-0.900000X1.000000X0.900000X-1.000000X0.900000X0*%
%ADD25RoundRect,0.250000X0.550000X-1.712500X0.550000X1.712500X-0.550000X1.712500X-0.550000X-1.712500X0*%
%ADD26C,0.650000*%
%ADD27RoundRect,0.150000X0.425000X-0.150000X0.425000X0.150000X-0.425000X0.150000X-0.425000X-0.150000X0*%
%ADD28RoundRect,0.075000X0.500000X-0.075000X0.500000X0.075000X-0.500000X0.075000X-0.500000X-0.075000X0*%
%ADD29O,2.100000X1.000000*%
%ADD30O,1.800000X1.000000*%
%ADD31RoundRect,0.250000X-0.250000X-0.475000X0.250000X-0.475000X0.250000X0.475000X-0.250000X0.475000X0*%
%ADD32RoundRect,0.200000X-0.275000X0.200000X-0.275000X-0.200000X0.275000X-0.200000X0.275000X0.200000X0*%
%ADD33RoundRect,0.225000X-0.250000X0.225000X-0.250000X-0.225000X0.250000X-0.225000X0.250000X0.225000X0*%
%ADD34R,1.700000X1.700000*%
%ADD35O,1.700000X1.700000*%
%ADD36R,1.700000X5.700000*%
%ADD37R,1.500000X0.900000*%
%ADD38R,0.900000X1.500000*%
%ADD39R,0.900000X0.900000*%
%ADD40RoundRect,0.200000X0.200000X0.275000X-0.200000X0.275000X-0.200000X-0.275000X0.200000X-0.275000X0*%
%ADD41R,1.400000X2.400000*%
%ADD42RoundRect,0.225000X0.250000X-0.225000X0.250000X0.225000X-0.250000X0.225000X-0.250000X-0.225000X0*%
%ADD43R,0.240000X0.600000*%
%ADD44FreePoly0,90.000000*%
%ADD45RoundRect,0.150000X0.150000X-0.587500X0.150000X0.587500X-0.150000X0.587500X-0.150000X-0.587500X0*%
%ADD46R,2.250000X1.500000*%
%ADD47R,0.625000X0.250000*%
%ADD48R,0.700000X0.450000*%
%ADD49R,0.575000X0.450000*%
%ADD50RoundRect,0.150000X0.587500X0.150000X-0.587500X0.150000X-0.587500X-0.150000X0.587500X-0.150000X0*%
%ADD51C,0.990600*%
%ADD52C,0.787400*%
%ADD53RoundRect,0.250000X0.312500X0.625000X-0.312500X0.625000X-0.312500X-0.625000X0.312500X-0.625000X0*%
G04 APERTURE END LIST*
%TO.C,FID2*%
G36*
X160550000Y-116550000D02*
G01*
X163450000Y-116550000D01*
X163450000Y-119450000D01*
X160550000Y-119450000D01*
X160550000Y-116550000D01*
G37*
%TO.C,FID1*%
G36*
X96550000Y-70550000D02*
G01*
X99450000Y-70550000D01*
X99450000Y-73450000D01*
X96550000Y-73450000D01*
X96550000Y-70550000D01*
G37*
%TO.C,M1*%
G36*
X115250000Y-103250000D02*
G01*
X119250000Y-103250000D01*
X119250000Y-108250000D01*
X115250000Y-108250000D01*
X115250000Y-103250000D01*
G37*
%TD*%
D10*
%TO.C,R8*%
X142375000Y-74825000D03*
X144025000Y-74825000D03*
%TD*%
D11*
%TO.C,H2*%
X167000000Y-74000000D03*
%TD*%
D12*
%TO.C,D2*%
X90000000Y-94212500D03*
X90000000Y-92637500D03*
%TD*%
D13*
%TO.C,C14*%
X147000000Y-80525000D03*
X147000000Y-77575000D03*
%TD*%
%TO.C,C13*%
X143800000Y-80550000D03*
X143800000Y-77600000D03*
%TD*%
D14*
%TO.C,C11*%
X158775000Y-73000000D03*
X157225000Y-73000000D03*
%TD*%
D13*
%TO.C,C4*%
X127800000Y-80675000D03*
X127800000Y-77725000D03*
%TD*%
D15*
%TO.C,C18*%
X153925000Y-110800000D03*
X156875000Y-110800000D03*
%TD*%
D16*
%TO.C,U5*%
X165550000Y-97650000D03*
X165550000Y-97000000D03*
X165550000Y-96350000D03*
X163650000Y-96350000D03*
X163650000Y-97650000D03*
%TD*%
D11*
%TO.C,H1*%
X93000000Y-74000000D03*
%TD*%
D17*
%TO.C,J1*%
X92662500Y-106200000D03*
D18*
X92862500Y-103375000D03*
X92862500Y-109025000D03*
%TD*%
D19*
%TO.C,D6*%
X169800000Y-98812500D03*
X169800000Y-100387500D03*
%TD*%
D20*
%TO.C,C16*%
X168225000Y-88200000D03*
X169775000Y-88200000D03*
%TD*%
D21*
%TO.C,J5*%
X147000000Y-84900000D03*
D22*
X145000000Y-84900000D03*
%TD*%
D23*
%TO.C,R17*%
X167800000Y-97025000D03*
X167800000Y-95375000D03*
%TD*%
D19*
%TO.C,D1*%
X90000000Y-96037500D03*
X90000000Y-97612500D03*
%TD*%
D24*
%TO.C,D4*%
X164650000Y-91200000D03*
X168950000Y-91200000D03*
%TD*%
D25*
%TO.C,C15*%
X166400000Y-85887500D03*
X166400000Y-79712500D03*
%TD*%
D26*
%TO.C,J4*%
X165895000Y-109890000D03*
X165895000Y-104110000D03*
D27*
X164820000Y-110200000D03*
X164820000Y-109400000D03*
D28*
X164820000Y-108250000D03*
X164820000Y-107250000D03*
X164820000Y-106750000D03*
X164820000Y-105750000D03*
D27*
X164820000Y-104600000D03*
X164820000Y-103800000D03*
X164820000Y-103800000D03*
X164820000Y-104600000D03*
D28*
X164820000Y-105250000D03*
X164820000Y-106250000D03*
X164820000Y-107750000D03*
X164820000Y-108750000D03*
D27*
X164820000Y-109400000D03*
X164820000Y-110200000D03*
D29*
X165395000Y-111320000D03*
D30*
X169575000Y-111320000D03*
D29*
X165395000Y-102680000D03*
D30*
X169575000Y-102680000D03*
%TD*%
D23*
%TO.C,R10*%
X92800000Y-97650000D03*
X92800000Y-96000000D03*
%TD*%
D31*
%TO.C,C1*%
X131450000Y-75000000D03*
X133350000Y-75000000D03*
%TD*%
D13*
%TO.C,C12*%
X149600000Y-80525000D03*
X149600000Y-77575000D03*
%TD*%
D11*
%TO.C,H4*%
X167000000Y-116000000D03*
%TD*%
D20*
%TO.C,C10*%
X142425000Y-73000000D03*
X143975000Y-73000000D03*
%TD*%
D32*
%TO.C,R16*%
X167800000Y-98775000D03*
X167800000Y-100425000D03*
%TD*%
D33*
%TO.C,C9*%
X150800000Y-84825000D03*
X150800000Y-86375000D03*
%TD*%
D34*
%TO.C,J3*%
X161000000Y-89000000D03*
D35*
X161000000Y-91540000D03*
X158460000Y-89000000D03*
X158460000Y-91540000D03*
X155920000Y-89000000D03*
X155920000Y-91540000D03*
X153380000Y-89000000D03*
X153380000Y-91540000D03*
X150840000Y-89000000D03*
X150840000Y-91540000D03*
X148300000Y-89000000D03*
X148300000Y-91540000D03*
X145760000Y-89000000D03*
X145760000Y-91540000D03*
X143220000Y-89000000D03*
X143220000Y-91540000D03*
X140680000Y-89000000D03*
X140680000Y-91540000D03*
X138140000Y-89000000D03*
X138140000Y-91540000D03*
X135600000Y-89000000D03*
X135600000Y-91540000D03*
X133060000Y-89000000D03*
X133060000Y-91540000D03*
X130520000Y-89000000D03*
X130520000Y-91540000D03*
X127980000Y-89000000D03*
X127980000Y-91540000D03*
X125440000Y-89000000D03*
X125440000Y-91540000D03*
%TD*%
D36*
%TO.C,L2*%
X135550000Y-83800000D03*
X140050000Y-83800000D03*
%TD*%
D20*
%TO.C,C19*%
X163650000Y-99400000D03*
X165200000Y-99400000D03*
%TD*%
D37*
%TO.C,U6*%
X150650000Y-112320000D03*
X150650000Y-111050000D03*
X150650000Y-109780000D03*
X150650000Y-108510000D03*
X150650000Y-107240000D03*
X150650000Y-105970000D03*
X150650000Y-104700000D03*
X150650000Y-103430000D03*
X150650000Y-102160000D03*
X150650000Y-100890000D03*
X150650000Y-99620000D03*
X150650000Y-98350000D03*
X150650000Y-97080000D03*
X150650000Y-95810000D03*
D38*
X148885000Y-94560000D03*
X147615000Y-94560000D03*
X146345000Y-94560000D03*
X145075000Y-94560000D03*
X143805000Y-94560000D03*
X142535000Y-94560000D03*
X141265000Y-94560000D03*
X139995000Y-94560000D03*
X138725000Y-94560000D03*
X137455000Y-94560000D03*
X136185000Y-94560000D03*
X134915000Y-94560000D03*
D37*
X133150000Y-95810000D03*
X133150000Y-97080000D03*
X133150000Y-98350000D03*
X133150000Y-99620000D03*
X133150000Y-100890000D03*
X133150000Y-102160000D03*
X133150000Y-103430000D03*
X133150000Y-104700000D03*
X133150000Y-105970000D03*
X133150000Y-107240000D03*
X133150000Y-108510000D03*
X133150000Y-109780000D03*
X133150000Y-111050000D03*
X133150000Y-112320000D03*
D39*
X144800000Y-106000000D03*
X144800000Y-104600000D03*
X144800000Y-103200000D03*
X144800000Y-103200000D03*
X143400000Y-106000000D03*
X143400000Y-106000000D03*
X143400000Y-104600000D03*
X143400000Y-103200000D03*
X142000000Y-106000000D03*
X142000000Y-104600000D03*
X142000000Y-103200000D03*
%TD*%
D13*
%TO.C,C6*%
X162000000Y-77575000D03*
X162000000Y-74625000D03*
%TD*%
D32*
%TO.C,R9*%
X92800000Y-92600000D03*
X92800000Y-94250000D03*
%TD*%
D40*
%TO.C,R6*%
X155625000Y-73000000D03*
X153975000Y-73000000D03*
%TD*%
D10*
%TO.C,R5*%
X160375000Y-73000000D03*
X162025000Y-73000000D03*
%TD*%
D40*
%TO.C,R15*%
X161425000Y-110200000D03*
X159775000Y-110200000D03*
%TD*%
D13*
%TO.C,C2*%
X130400000Y-80675000D03*
X130400000Y-77725000D03*
%TD*%
D36*
%TO.C,L3*%
X154950000Y-83800000D03*
X159450000Y-83800000D03*
%TD*%
D41*
%TO.C,SW2*%
X157800000Y-99700000D03*
X157800000Y-108300000D03*
X153200000Y-99700000D03*
X153200000Y-108300000D03*
%TD*%
D42*
%TO.C,C3*%
X133200000Y-79400000D03*
X133200000Y-77850000D03*
%TD*%
D40*
%TO.C,R14*%
X162025000Y-94600000D03*
X160375000Y-94600000D03*
%TD*%
D43*
%TO.C,U2*%
X156200000Y-78600000D03*
X156700000Y-78600000D03*
X157200000Y-78600000D03*
X157700000Y-78600000D03*
X158200000Y-78600000D03*
X158200000Y-75800000D03*
X157700000Y-75800000D03*
X157200000Y-75800000D03*
X156700000Y-75800000D03*
X156200000Y-75800000D03*
D44*
X157200000Y-77200000D03*
%TD*%
D43*
%TO.C,U1*%
X136800000Y-78600000D03*
X137300000Y-78600000D03*
X137800000Y-78600000D03*
X138300000Y-78600000D03*
X138800000Y-78600000D03*
X138800000Y-75800000D03*
X138300000Y-75800000D03*
X137800000Y-75800000D03*
X137300000Y-75800000D03*
X136800000Y-75800000D03*
D44*
X137800000Y-77200000D03*
%TD*%
D45*
%TO.C,D3*%
X156850000Y-96737500D03*
X158750000Y-96737500D03*
X157800000Y-94862500D03*
%TD*%
D46*
%TO.C,M1*%
X121375000Y-108790000D03*
X121375000Y-106250000D03*
X121375000Y-103710000D03*
X121375000Y-96090000D03*
X121375000Y-93550000D03*
X121375000Y-91010000D03*
X121375000Y-88470000D03*
X121375000Y-85930000D03*
X121375000Y-83390000D03*
X121375000Y-80850000D03*
X121375000Y-78310000D03*
X97625000Y-78310000D03*
X97625000Y-80850000D03*
X97625000Y-83390000D03*
X97625000Y-85930000D03*
X97625000Y-88470000D03*
X97625000Y-91010000D03*
X97625000Y-93550000D03*
X97625000Y-96090000D03*
X97625000Y-103710000D03*
X97625000Y-106250000D03*
X97625000Y-108790000D03*
%TD*%
D47*
%TO.C,U4*%
X160612500Y-106750000D03*
X160612500Y-107250000D03*
D48*
X160650000Y-107750000D03*
D47*
X160612500Y-108250000D03*
X160612500Y-108750000D03*
X161387500Y-108750000D03*
X161387500Y-108250000D03*
D49*
X161412500Y-107750000D03*
D47*
X161387500Y-107250000D03*
X161387500Y-106750000D03*
%TD*%
D11*
%TO.C,H3*%
X93000000Y-116000000D03*
%TD*%
D40*
%TO.C,R13*%
X161425000Y-105250000D03*
X159775000Y-105250000D03*
%TD*%
%TO.C,R2*%
X133400000Y-73000000D03*
X131750000Y-73000000D03*
%TD*%
D31*
%TO.C,C7*%
X152350000Y-75000000D03*
X150450000Y-75000000D03*
%TD*%
D40*
%TO.C,R12*%
X162025000Y-96400000D03*
X160375000Y-96400000D03*
%TD*%
D50*
%TO.C,U3*%
X161937500Y-113750000D03*
X161937500Y-111850000D03*
X160062500Y-112800000D03*
%TD*%
D42*
%TO.C,C8*%
X152375000Y-79375000D03*
X152375000Y-77825000D03*
%TD*%
D12*
%TO.C,D5*%
X169800000Y-96987500D03*
X169800000Y-95412500D03*
%TD*%
D40*
%TO.C,R11*%
X165225000Y-94600000D03*
X163575000Y-94600000D03*
%TD*%
D10*
%TO.C,R3*%
X123775000Y-85928629D03*
X125425000Y-85928629D03*
%TD*%
D51*
%TO.C,J2*%
X127200000Y-100740000D03*
X126184000Y-95660000D03*
X128216000Y-95660000D03*
D52*
X127835000Y-99470000D03*
X126565000Y-99470000D03*
X127835000Y-98200000D03*
X126565000Y-98200000D03*
X127835000Y-96930000D03*
X126565000Y-96930000D03*
%TD*%
D13*
%TO.C,C5*%
X125200000Y-80675000D03*
X125200000Y-77725000D03*
%TD*%
D53*
%TO.C,R4*%
X139262499Y-73189723D03*
X136337499Y-73189723D03*
%TD*%
D40*
%TO.C,R7*%
X152425000Y-73000000D03*
X150775000Y-73000000D03*
%TD*%
D14*
%TO.C,C17*%
X156975000Y-112800000D03*
X155425000Y-112800000D03*
%TD*%
D41*
%TO.C,SW1*%
X129300000Y-103700000D03*
X129300000Y-112300000D03*
X124700000Y-103700000D03*
X124700000Y-112300000D03*
%TD*%
M02*
