%TF.GenerationSoftware,KiCad,Pcbnew,7.0.9*%
%TF.CreationDate,2024-02-26T10:01:59+01:00*%
%TF.ProjectId,C2LoraGateway,43324c6f-7261-4476-9174-657761792e6b,rev?*%
%TF.SameCoordinates,Original*%
%TF.FileFunction,Plated,1,4,PTH,Mixed*%
%TF.FilePolarity,Positive*%
%FSLAX46Y46*%
G04 Gerber Fmt 4.6, Leading zero omitted, Abs format (unit mm)*
G04 Created by KiCad (PCBNEW 7.0.9) date 2024-02-26 10:01:59*
%MOMM*%
%LPD*%
G01*
G04 APERTURE LIST*
%TA.AperFunction,ViaDrill*%
%ADD10C,0.300000*%
%TD*%
%TA.AperFunction,ViaDrill*%
%ADD11C,0.400000*%
%TD*%
G04 aperture for slot hole*
%TA.AperFunction,ComponentDrill*%
%ADD12O,1.700000X0.600000*%
%TD*%
G04 aperture for slot hole*
%TA.AperFunction,ComponentDrill*%
%ADD13O,1.400000X0.600000*%
%TD*%
%TA.AperFunction,ComponentDrill*%
%ADD14C,0.750000*%
%TD*%
%TA.AperFunction,ComponentDrill*%
%ADD15C,1.000000*%
%TD*%
G04 APERTURE END LIST*
D10*
X91400000Y-102000000D03*
X91400000Y-104800000D03*
X91400000Y-107600000D03*
X91400000Y-110400000D03*
X92200000Y-104800000D03*
X92200000Y-107600000D03*
X92800000Y-77600000D03*
X92800000Y-79400000D03*
X92800000Y-91400000D03*
X93000000Y-81400000D03*
X93000000Y-83800000D03*
X93000000Y-102000000D03*
X93000000Y-104800000D03*
X93000000Y-107600000D03*
X93000000Y-110400000D03*
X93800000Y-104800000D03*
X93800000Y-107600000D03*
X94000000Y-97600000D03*
X94500000Y-87400000D03*
X94600000Y-102000000D03*
X94600000Y-104800000D03*
X94600000Y-107600000D03*
X94600000Y-110400000D03*
X95200000Y-82700000D03*
X95300000Y-86500000D03*
X95300000Y-88100000D03*
X95352197Y-83552197D03*
X95352197Y-84428303D03*
X95400000Y-104800000D03*
X95400000Y-107600000D03*
X95900000Y-85600000D03*
X96200000Y-102000000D03*
X96200000Y-104800000D03*
X96200000Y-107600000D03*
X96400000Y-110400000D03*
X97000000Y-74500000D03*
X98800000Y-102000000D03*
X99000000Y-110400000D03*
X99200000Y-104800000D03*
X99200000Y-107600000D03*
X99600000Y-105400000D03*
X99600000Y-106200000D03*
X99600000Y-107000000D03*
X100000000Y-86000000D03*
X102000000Y-72400000D03*
X106000000Y-72400000D03*
X110000000Y-72400000D03*
X114000000Y-72400000D03*
X114800000Y-102600000D03*
X114800000Y-103800000D03*
X114800000Y-105000000D03*
X114800000Y-106200000D03*
X114800000Y-107400000D03*
X114800000Y-108900000D03*
X116000000Y-102600000D03*
X116000000Y-108900000D03*
X117200000Y-102600000D03*
X117200000Y-108900000D03*
X118000000Y-72400000D03*
X118400000Y-102600000D03*
X118400000Y-108900000D03*
X119400000Y-92200000D03*
X119400000Y-93600000D03*
X119400000Y-95000000D03*
X119400000Y-96400000D03*
X119400000Y-97800000D03*
X119600000Y-102600000D03*
X119600000Y-108900000D03*
X119800000Y-105000000D03*
X119800000Y-107400000D03*
X122000000Y-72400000D03*
X122600000Y-74800000D03*
X122600000Y-75800000D03*
X122600000Y-76800000D03*
X123200000Y-97600000D03*
X123200000Y-99800000D03*
X123200000Y-102200000D03*
X123200000Y-104800000D03*
X123200000Y-107600000D03*
X123200000Y-110000000D03*
X123600000Y-95400000D03*
X124200000Y-94400000D03*
X124300000Y-84200000D03*
X125124500Y-97324500D03*
X125200000Y-76200000D03*
X125647803Y-99971697D03*
X126000000Y-72400000D03*
X127800000Y-76200000D03*
X129200000Y-102200000D03*
X129200000Y-110600000D03*
X129380500Y-97900000D03*
X129914906Y-94924100D03*
X130250901Y-96223697D03*
X130400000Y-72400000D03*
X130400000Y-76200000D03*
X130600000Y-111400000D03*
X130600000Y-112200000D03*
X130600000Y-113000000D03*
X131237701Y-95862299D03*
X131700000Y-97200000D03*
X131900000Y-104700000D03*
X133200000Y-76600000D03*
X134800000Y-99000000D03*
X134800000Y-101400000D03*
X135100000Y-96300000D03*
X135400000Y-77200000D03*
X135500000Y-101900000D03*
X136000000Y-113000000D03*
X136600000Y-77200000D03*
X137800000Y-76700000D03*
X137800000Y-77700000D03*
X138000000Y-96200000D03*
X139000000Y-77200000D03*
X140000000Y-113000000D03*
X140200000Y-77200000D03*
X140600000Y-73200000D03*
X140900000Y-74600000D03*
X140900000Y-75500000D03*
X141000000Y-102200000D03*
X141000000Y-103200000D03*
X141000000Y-104600000D03*
X141000000Y-106000000D03*
X141000000Y-107000000D03*
X141600000Y-93100000D03*
X142000000Y-102200000D03*
X142000000Y-107000000D03*
X142200000Y-87600000D03*
X143400000Y-102200000D03*
X143400000Y-107000000D03*
X143600000Y-87500000D03*
X143800000Y-76600000D03*
X144000000Y-113000000D03*
X144200000Y-93000000D03*
X144800000Y-102200000D03*
X144800000Y-107000000D03*
X145000000Y-73000000D03*
X145600000Y-81900000D03*
X145800000Y-96200000D03*
X145800000Y-102200000D03*
X145800000Y-103200000D03*
X145800000Y-104600000D03*
X145800000Y-106000000D03*
X145800000Y-107000000D03*
X146400000Y-93000000D03*
X147000000Y-76600000D03*
X147035974Y-89900000D03*
X148000000Y-113000000D03*
X148400000Y-98600000D03*
X148700000Y-108700000D03*
X149138053Y-95961947D03*
X149561832Y-90500000D03*
X149600000Y-76600000D03*
X150500000Y-93500000D03*
X151800000Y-101100000D03*
X151826519Y-102123537D03*
X152380500Y-102700000D03*
X152400000Y-76600000D03*
X152500000Y-95400000D03*
X152500000Y-97300000D03*
X152600000Y-105900000D03*
X153000000Y-101800000D03*
X153291467Y-97413067D03*
X153400000Y-93700000D03*
X153700000Y-101400000D03*
X154022030Y-98015635D03*
X154600000Y-77200000D03*
X155600000Y-105000000D03*
X155600000Y-107400000D03*
X155800000Y-93800000D03*
X156000000Y-77200000D03*
X156400000Y-73000000D03*
X156400000Y-109200000D03*
X157200000Y-76700000D03*
X157200000Y-77700000D03*
X157800000Y-103000000D03*
X157900000Y-112800000D03*
X158400000Y-77200000D03*
X158600000Y-93800000D03*
X159000000Y-111300000D03*
X159300000Y-101800000D03*
X159300000Y-108000000D03*
X159600000Y-75200000D03*
X159800000Y-77200000D03*
X160200000Y-103000000D03*
X161980500Y-98400000D03*
X162300000Y-108600000D03*
X162800000Y-96400000D03*
X163009398Y-106100000D03*
X163058136Y-107400500D03*
X163600000Y-112400000D03*
X164400000Y-77200000D03*
X165000000Y-77800000D03*
X166200000Y-99400000D03*
X166800000Y-96300000D03*
X166800000Y-101200000D03*
X167800000Y-77800000D03*
X167800000Y-97900000D03*
X168600000Y-77800000D03*
X168600000Y-93200000D03*
X168600000Y-94000000D03*
X168700000Y-101000000D03*
D11*
X127800000Y-103600000D03*
X130400000Y-75000000D03*
X132000000Y-79800000D03*
X143200000Y-82200000D03*
X143200000Y-83400000D03*
X144400000Y-83400000D03*
X145000000Y-79200000D03*
X145100000Y-74800000D03*
X148300000Y-79500000D03*
X148300000Y-85000000D03*
X149400000Y-75000000D03*
X149600000Y-85000000D03*
X152000000Y-85000000D03*
X152900000Y-110800000D03*
X153000000Y-112800000D03*
X155000000Y-110800000D03*
X157800000Y-98000000D03*
X158000000Y-110800000D03*
X162000000Y-78800000D03*
X163000000Y-73000000D03*
X163000000Y-78800000D03*
X163000000Y-79800000D03*
X163600000Y-103400000D03*
X163600000Y-110800000D03*
X163700000Y-104600000D03*
X163700000Y-109500000D03*
X164000000Y-78800000D03*
X166200000Y-94600000D03*
D12*
%TO.C,J4*%
X165395000Y-102680000D03*
X165395000Y-111320000D03*
D13*
X169575000Y-102680000D03*
X169575000Y-111320000D03*
D14*
%TO.C,J5*%
X145000000Y-84900000D03*
X147000000Y-84900000D03*
D15*
%TO.C,J3*%
X125440000Y-89000000D03*
X125440000Y-91540000D03*
X127980000Y-89000000D03*
X127980000Y-91540000D03*
X130520000Y-89000000D03*
X130520000Y-91540000D03*
X133060000Y-89000000D03*
X133060000Y-91540000D03*
X135600000Y-89000000D03*
X135600000Y-91540000D03*
X138140000Y-89000000D03*
X138140000Y-91540000D03*
X140680000Y-89000000D03*
X140680000Y-91540000D03*
X143220000Y-89000000D03*
X143220000Y-91540000D03*
X145760000Y-89000000D03*
X145760000Y-91540000D03*
X148300000Y-89000000D03*
X148300000Y-91540000D03*
X150840000Y-89000000D03*
X150840000Y-91540000D03*
X153380000Y-89000000D03*
X153380000Y-91540000D03*
X155920000Y-89000000D03*
X155920000Y-91540000D03*
X158460000Y-89000000D03*
X158460000Y-91540000D03*
X161000000Y-89000000D03*
X161000000Y-91540000D03*
M02*
