%TF.GenerationSoftware,KiCad,Pcbnew,7.0.9*%
%TF.CreationDate,2024-02-26T10:01:53+01:00*%
%TF.ProjectId,C2LoraGateway,43324c6f-7261-4476-9174-657761792e6b,rev?*%
%TF.SameCoordinates,Original*%
%TF.FileFunction,Copper,L4,Bot*%
%TF.FilePolarity,Positive*%
%FSLAX46Y46*%
G04 Gerber Fmt 4.6, Leading zero omitted, Abs format (unit mm)*
G04 Created by KiCad (PCBNEW 7.0.9) date 2024-02-26 10:01:53*
%MOMM*%
%LPD*%
G01*
G04 APERTURE LIST*
G04 Aperture macros list*
%AMRoundRect*
0 Rectangle with rounded corners*
0 $1 Rounding radius*
0 $2 $3 $4 $5 $6 $7 $8 $9 X,Y pos of 4 corners*
0 Add a 4 corners polygon primitive as box body*
4,1,4,$2,$3,$4,$5,$6,$7,$8,$9,$2,$3,0*
0 Add four circle primitives for the rounded corners*
1,1,$1+$1,$2,$3*
1,1,$1+$1,$4,$5*
1,1,$1+$1,$6,$7*
1,1,$1+$1,$8,$9*
0 Add four rect primitives between the rounded corners*
20,1,$1+$1,$2,$3,$4,$5,0*
20,1,$1+$1,$4,$5,$6,$7,0*
20,1,$1+$1,$6,$7,$8,$9,0*
20,1,$1+$1,$8,$9,$2,$3,0*%
%AMFreePoly0*
4,1,19,0.550000,-0.750000,0.000000,-0.750000,0.000000,-0.744911,-0.071157,-0.744911,-0.207708,-0.704816,-0.327430,-0.627875,-0.420627,-0.520320,-0.479746,-0.390866,-0.500000,-0.250000,-0.500000,0.250000,-0.479746,0.390866,-0.420627,0.520320,-0.327430,0.627875,-0.207708,0.704816,-0.071157,0.744911,0.000000,0.744911,0.000000,0.750000,0.550000,0.750000,0.550000,-0.750000,0.550000,-0.750000,
$1*%
%AMFreePoly1*
4,1,19,0.000000,0.744911,0.071157,0.744911,0.207708,0.704816,0.327430,0.627875,0.420627,0.520320,0.479746,0.390866,0.500000,0.250000,0.500000,-0.250000,0.479746,-0.390866,0.420627,-0.520320,0.327430,-0.627875,0.207708,-0.704816,0.071157,-0.744911,0.000000,-0.744911,0.000000,-0.750000,-0.550000,-0.750000,-0.550000,0.750000,0.000000,0.750000,0.000000,0.744911,0.000000,0.744911,
$1*%
%AMFreePoly2*
4,1,19,0.500000,-0.750000,0.000000,-0.750000,0.000000,-0.744911,-0.071157,-0.744911,-0.207708,-0.704816,-0.327430,-0.627875,-0.420627,-0.520320,-0.479746,-0.390866,-0.500000,-0.250000,-0.500000,0.250000,-0.479746,0.390866,-0.420627,0.520320,-0.327430,0.627875,-0.207708,0.704816,-0.071157,0.744911,0.000000,0.744911,0.000000,0.750000,0.500000,0.750000,0.500000,-0.750000,0.500000,-0.750000,
$1*%
%AMFreePoly3*
4,1,19,0.000000,0.744911,0.071157,0.744911,0.207708,0.704816,0.327430,0.627875,0.420627,0.520320,0.479746,0.390866,0.500000,0.250000,0.500000,-0.250000,0.479746,-0.390866,0.420627,-0.520320,0.327430,-0.627875,0.207708,-0.704816,0.071157,-0.744911,0.000000,-0.744911,0.000000,-0.750000,-0.500000,-0.750000,-0.500000,0.750000,0.000000,0.750000,0.000000,0.744911,0.000000,0.744911,
$1*%
G04 Aperture macros list end*
%TA.AperFunction,SMDPad,CuDef*%
%ADD10R,4.200000X1.350000*%
%TD*%
%TA.AperFunction,ComponentPad*%
%ADD11RoundRect,0.250000X0.350000X0.625000X-0.350000X0.625000X-0.350000X-0.625000X0.350000X-0.625000X0*%
%TD*%
%TA.AperFunction,ComponentPad*%
%ADD12O,1.200000X1.750000*%
%TD*%
%TA.AperFunction,ComponentPad*%
%ADD13O,2.100000X1.000000*%
%TD*%
%TA.AperFunction,ComponentPad*%
%ADD14O,1.800000X1.000000*%
%TD*%
%TA.AperFunction,ComponentPad*%
%ADD15R,1.700000X1.700000*%
%TD*%
%TA.AperFunction,ComponentPad*%
%ADD16O,1.700000X1.700000*%
%TD*%
%TA.AperFunction,SMDPad,CuDef*%
%ADD17FreePoly0,90.000000*%
%TD*%
%TA.AperFunction,SMDPad,CuDef*%
%ADD18R,1.500000X1.000000*%
%TD*%
%TA.AperFunction,SMDPad,CuDef*%
%ADD19FreePoly1,90.000000*%
%TD*%
%TA.AperFunction,SMDPad,CuDef*%
%ADD20FreePoly2,0.000000*%
%TD*%
%TA.AperFunction,SMDPad,CuDef*%
%ADD21FreePoly3,0.000000*%
%TD*%
%TA.AperFunction,ViaPad*%
%ADD22C,0.800000*%
%TD*%
%TA.AperFunction,ViaPad*%
%ADD23C,0.600000*%
%TD*%
%TA.AperFunction,Conductor*%
%ADD24C,0.250000*%
%TD*%
%TA.AperFunction,Conductor*%
%ADD25C,0.400000*%
%TD*%
%TA.AperFunction,Conductor*%
%ADD26C,0.240000*%
%TD*%
G04 APERTURE END LIST*
D10*
%TO.P,J1,2,Ext*%
%TO.N,GNDRF*%
X92862500Y-103375000D03*
X92862500Y-109025000D03*
%TD*%
D11*
%TO.P,J5,1,Pin_1*%
%TO.N,GND*%
X147000000Y-84900000D03*
D12*
%TO.P,J5,2,Pin_2*%
%TO.N,Vin*%
X145000000Y-84900000D03*
%TD*%
D13*
%TO.P,J4,S1,SHIELD*%
%TO.N,GNDRF*%
X165395000Y-111320000D03*
D14*
X169575000Y-111320000D03*
D13*
X165395000Y-102680000D03*
D14*
X169575000Y-102680000D03*
%TD*%
D15*
%TO.P,J3,1,Pin_1*%
%TO.N,/USB_VBUS*%
X161000000Y-89000000D03*
D16*
%TO.P,J3,2,Pin_2*%
%TO.N,/TxD0*%
X161000000Y-91540000D03*
%TO.P,J3,3,Pin_3*%
%TO.N,Vin*%
X158460000Y-89000000D03*
%TO.P,J3,4,Pin_4*%
%TO.N,/RxD0*%
X158460000Y-91540000D03*
%TO.P,J3,5,Pin_5*%
%TO.N,VCC*%
X155920000Y-89000000D03*
%TO.P,J3,6,Pin_6*%
%TO.N,/CTS0*%
X155920000Y-91540000D03*
%TO.P,J3,7,Pin_7*%
%TO.N,VCC*%
X153380000Y-89000000D03*
%TO.P,J3,8,Pin_8*%
%TO.N,/RTS0*%
X153380000Y-91540000D03*
%TO.P,J3,9,Pin_9*%
%TO.N,GND*%
X150840000Y-89000000D03*
%TO.P,J3,10,Pin_10*%
%TO.N,/IO4*%
X150840000Y-91540000D03*
%TO.P,J3,11,Pin_11*%
%TO.N,GND*%
X148300000Y-89000000D03*
%TO.P,J3,12,Pin_12*%
%TO.N,/IO5*%
X148300000Y-91540000D03*
%TO.P,J3,13,Pin_13*%
%TO.N,GND*%
X145760000Y-89000000D03*
%TO.P,J3,14,Pin_14*%
%TO.N,/IO6*%
X145760000Y-91540000D03*
%TO.P,J3,15,Pin_15*%
%TO.N,GND*%
X143220000Y-89000000D03*
%TO.P,J3,16,Pin_16*%
%TO.N,/IO7*%
X143220000Y-91540000D03*
%TO.P,J3,17,Pin_17*%
%TO.N,GND*%
X140680000Y-89000000D03*
%TO.P,J3,18,Pin_18*%
%TO.N,/IO14*%
X140680000Y-91540000D03*
%TO.P,J3,19,Pin_19*%
%TO.N,/IO17*%
X138140000Y-89000000D03*
%TO.P,J3,20,Pin_20*%
%TO.N,/IO21*%
X138140000Y-91540000D03*
%TO.P,J3,21,Pin_21*%
%TO.N,/IO47*%
X135600000Y-89000000D03*
%TO.P,J3,22,Pin_22*%
%TO.N,/IO38*%
X135600000Y-91540000D03*
%TO.P,J3,23,Pin_23*%
%TO.N,/IO39*%
X133060000Y-89000000D03*
%TO.P,J3,24,Pin_24*%
%TO.N,/IO40*%
X133060000Y-91540000D03*
%TO.P,J3,25,Pin_25*%
%TO.N,/IO41*%
X130520000Y-89000000D03*
%TO.P,J3,26,Pin_26*%
%TO.N,/IO42*%
X130520000Y-91540000D03*
%TO.P,J3,27,Pin_27*%
%TO.N,GND*%
X127980000Y-89000000D03*
%TO.P,J3,28,Pin_28*%
%TO.N,/IO1*%
X127980000Y-91540000D03*
%TO.P,J3,29,Pin_29*%
%TO.N,+5V*%
X125440000Y-89000000D03*
%TO.P,J3,30,Pin_30*%
%TO.N,/IO2*%
X125440000Y-91540000D03*
%TD*%
D17*
%TO.P,JP2,1,A*%
%TO.N,Net-(JP2-A)*%
X161600000Y-76500000D03*
D18*
%TO.P,JP2,2,C*%
%TO.N,Net-(JP2-C)*%
X161600000Y-75200000D03*
D19*
%TO.P,JP2,3,B*%
%TO.N,Vin*%
X161600000Y-73900000D03*
%TD*%
D20*
%TO.P,JP3,1,A*%
%TO.N,Vin*%
X159150000Y-87000000D03*
D21*
%TO.P,JP3,2,B*%
%TO.N,/USB_VBUS*%
X160450000Y-87000000D03*
%TD*%
D22*
%TO.N,Vin*%
X145000000Y-79200000D03*
X143200000Y-82200000D03*
X162000000Y-78800000D03*
X164000000Y-78800000D03*
X163000000Y-78800000D03*
X163000000Y-79800000D03*
X163000000Y-73000000D03*
X145100000Y-74800000D03*
X143200000Y-83400000D03*
X144400000Y-83400000D03*
D23*
%TO.N,GND*%
X155600000Y-107400000D03*
X136600000Y-77200000D03*
X147000000Y-76600000D03*
D22*
X157800000Y-98000000D03*
D23*
X127800000Y-76200000D03*
X168600000Y-93200000D03*
X149600000Y-76600000D03*
X154600000Y-77200000D03*
X119400000Y-92200000D03*
X156400000Y-73000000D03*
X119400000Y-95000000D03*
X140600000Y-73200000D03*
X122000000Y-72400000D03*
X156000000Y-77200000D03*
X141000000Y-102200000D03*
X145800000Y-107000000D03*
X144800000Y-102200000D03*
X145800000Y-104600000D03*
X157800000Y-103000000D03*
X118400000Y-108900000D03*
D22*
X166200000Y-94600000D03*
D23*
X92800000Y-79400000D03*
X141000000Y-106000000D03*
X119400000Y-93600000D03*
X168600000Y-77800000D03*
X119800000Y-107400000D03*
X142000000Y-102200000D03*
X160200000Y-103000000D03*
D22*
X153000000Y-112800000D03*
D23*
X117200000Y-102600000D03*
X168700000Y-101000000D03*
X94000000Y-97600000D03*
X167800000Y-77800000D03*
X134800000Y-99000000D03*
X114800000Y-108900000D03*
X116000000Y-102600000D03*
X106000000Y-72400000D03*
X122600000Y-75800000D03*
X144000000Y-113000000D03*
X123200000Y-99800000D03*
X114800000Y-107400000D03*
X117200000Y-108900000D03*
X155600000Y-105000000D03*
X144800000Y-107000000D03*
X168600000Y-94000000D03*
X130600000Y-113000000D03*
X130600000Y-112200000D03*
X93000000Y-83800000D03*
X130600000Y-111400000D03*
X137800000Y-76700000D03*
X114800000Y-102600000D03*
D22*
X158000000Y-110800000D03*
D23*
X141000000Y-104600000D03*
X97000000Y-74500000D03*
X114800000Y-105000000D03*
X157200000Y-76700000D03*
X145800000Y-96200000D03*
X152400000Y-76600000D03*
X138000000Y-96200000D03*
X125200000Y-76200000D03*
X130400000Y-76200000D03*
X119800000Y-105000000D03*
X164400000Y-77200000D03*
X102000000Y-72400000D03*
X145000000Y-73000000D03*
X135400000Y-77200000D03*
X148400000Y-98600000D03*
X137800000Y-77700000D03*
X123200000Y-97600000D03*
X114000000Y-72400000D03*
X143800000Y-76600000D03*
X123200000Y-110000000D03*
X165000000Y-77800000D03*
X166800000Y-101200000D03*
X92800000Y-77600000D03*
X136000000Y-113000000D03*
X142000000Y-107000000D03*
X140200000Y-77200000D03*
X153400000Y-93700000D03*
D22*
X163600000Y-103400000D03*
D23*
X110000000Y-72400000D03*
X145800000Y-103200000D03*
X118000000Y-72400000D03*
X162300000Y-108600000D03*
X133200000Y-76600000D03*
X145800000Y-106000000D03*
D22*
X163600000Y-110800000D03*
D23*
X139000000Y-77200000D03*
X159300000Y-108000000D03*
X118400000Y-102600000D03*
X122600000Y-76800000D03*
X143400000Y-102200000D03*
X123200000Y-107600000D03*
X126000000Y-72400000D03*
X119600000Y-102600000D03*
X119400000Y-96400000D03*
X166200000Y-99400000D03*
X125647803Y-99971697D03*
X158400000Y-77200000D03*
X92800000Y-91400000D03*
X116000000Y-108900000D03*
X157200000Y-77700000D03*
X145800000Y-102200000D03*
X119600000Y-108900000D03*
X123200000Y-102200000D03*
X158600000Y-93800000D03*
X114800000Y-103800000D03*
X130400000Y-72400000D03*
X141000000Y-103200000D03*
X150500000Y-93500000D03*
X155800000Y-93800000D03*
X143400000Y-107000000D03*
X93000000Y-81400000D03*
X114800000Y-106200000D03*
X123200000Y-104800000D03*
X122600000Y-74800000D03*
X159800000Y-77200000D03*
X140000000Y-113000000D03*
X119400000Y-97800000D03*
X148000000Y-113000000D03*
X163600000Y-112400000D03*
X141000000Y-107000000D03*
D22*
%TO.N,VCC*%
X152900000Y-110800000D03*
D23*
X157900000Y-112800000D03*
D22*
X149400000Y-75000000D03*
X127800000Y-103600000D03*
D23*
X167800000Y-97900000D03*
D22*
X149600000Y-85000000D03*
X148300000Y-85000000D03*
X152000000Y-85000000D03*
X155000000Y-110800000D03*
X148300000Y-79500000D03*
%TO.N,/USB_VBUS*%
X163700000Y-109500000D03*
X163700000Y-104600000D03*
D23*
%TO.N,/IO0{slash}Boot*%
X159300000Y-101800000D03*
X129200000Y-102200000D03*
X129200000Y-110600000D03*
X135100000Y-96300000D03*
X125124500Y-97324500D03*
%TO.N,/PowerSupply/1.22V*%
X161980500Y-98400000D03*
X162800000Y-96400000D03*
%TO.N,GNDRF*%
X93000000Y-107600000D03*
X95400000Y-104800000D03*
X92200000Y-104800000D03*
X94600000Y-110400000D03*
X93000000Y-104800000D03*
X92200000Y-107600000D03*
X96400000Y-110400000D03*
X91400000Y-102000000D03*
X99200000Y-104800000D03*
X93800000Y-107600000D03*
X99600000Y-105400000D03*
X96200000Y-107600000D03*
X93000000Y-102000000D03*
X98800000Y-102000000D03*
X91400000Y-104800000D03*
X91400000Y-107600000D03*
X99200000Y-107600000D03*
X96200000Y-104800000D03*
X94600000Y-102000000D03*
X96200000Y-102000000D03*
X94600000Y-107600000D03*
X99600000Y-107000000D03*
X99600000Y-106200000D03*
X99000000Y-110400000D03*
X93000000Y-110400000D03*
X93800000Y-104800000D03*
X94600000Y-104800000D03*
X91400000Y-110400000D03*
X95400000Y-107600000D03*
%TO.N,/TxD0*%
X135500000Y-101900000D03*
%TO.N,/RxD0*%
X134800000Y-101400000D03*
%TO.N,/CTS0*%
X151826519Y-102123537D03*
%TO.N,/RTS0*%
X152380500Y-102700000D03*
%TO.N,Net-(JP2-A)*%
X166800000Y-96300000D03*
%TO.N,Net-(JP2-C)*%
X159600000Y-75200000D03*
%TO.N,/~{ESP_RESET}*%
X159000000Y-111300000D03*
X156400000Y-109200000D03*
X152600000Y-105900000D03*
X129380500Y-97900000D03*
X148700000Y-108700000D03*
%TO.N,SPI2_CS0*%
X100000000Y-86000000D03*
X143600000Y-87500000D03*
%TO.N,SPI2_MOSI*%
X94500000Y-87400000D03*
X144200000Y-93000000D03*
%TO.N,SPI2_SCLK*%
X142200000Y-87600000D03*
X95300000Y-86500000D03*
%TO.N,SPI2_MISO*%
X95300000Y-88100000D03*
X141600000Y-93100000D03*
%TO.N,~{5V_PS}*%
X153291467Y-97413067D03*
X140900000Y-74600000D03*
%TO.N,LORA_DIO1*%
X149561832Y-90500000D03*
X95352197Y-83552197D03*
%TO.N,LORA_BUSY*%
X95352197Y-84428303D03*
X147035974Y-89900000D03*
%TO.N,LORA_RST*%
X146400000Y-93000000D03*
X95900000Y-85600000D03*
D22*
%TO.N,+5V*%
X132000000Y-79800000D03*
X130400000Y-75000000D03*
D23*
%TO.N,5V_ENABLE*%
X145600000Y-81900000D03*
X152500000Y-97300000D03*
X152500000Y-95400000D03*
X140900000Y-75500000D03*
%TO.N,/LoRaModule/DIO2_TXEN*%
X95200000Y-82700000D03*
X124300000Y-84200000D03*
%TO.N,/IO4*%
X154022030Y-98015635D03*
%TO.N,/IO5*%
X149138053Y-95961947D03*
%TO.N,/IO6*%
X153700000Y-101400000D03*
%TO.N,/IO7*%
X153000000Y-101800000D03*
%TO.N,/IO1*%
X123600000Y-95400000D03*
%TO.N,/IO2*%
X124200000Y-94400000D03*
%TO.N,/IO17*%
X151800000Y-101100000D03*
%TO.N,/IO38*%
X131700000Y-97200000D03*
%TO.N,/IO39*%
X131237701Y-95862299D03*
%TO.N,/IO40*%
X130250901Y-96223697D03*
%TO.N,/IO41*%
X131900000Y-104700000D03*
%TO.N,/IO42*%
X129914906Y-94924100D03*
%TO.N,/USB_D+*%
X163009398Y-106100000D03*
X163058136Y-107400500D03*
%TD*%
D24*
%TO.N,Vin*%
X162025000Y-73000000D02*
X163000000Y-73000000D01*
D25*
X145100000Y-79100000D02*
X145100000Y-74800000D01*
X162000000Y-78800000D02*
X163000000Y-78800000D01*
X163000000Y-79800000D02*
X163000000Y-78800000D01*
X158000000Y-88540000D02*
X158460000Y-89000000D01*
X158000000Y-87400000D02*
X158000000Y-88540000D01*
X159150000Y-87000000D02*
X158400000Y-87000000D01*
X145000000Y-79200000D02*
X145100000Y-79100000D01*
D26*
X161600000Y-73425000D02*
X161600000Y-73900000D01*
X161962500Y-73062500D02*
X161600000Y-73425000D01*
D25*
X158400000Y-87000000D02*
X158000000Y-87400000D01*
D24*
X161962500Y-73062500D02*
X162025000Y-73000000D01*
D25*
X163000000Y-73000000D02*
X163000000Y-78800000D01*
X164000000Y-78800000D02*
X163000000Y-78800000D01*
D26*
%TO.N,GND*%
X146500000Y-84900000D02*
X146500000Y-85300000D01*
D24*
%TO.N,VCC*%
X149400000Y-75000000D02*
X149000000Y-75000000D01*
X149000000Y-75000000D02*
X148300000Y-75700000D01*
X148300000Y-75700000D02*
X148300000Y-79500000D01*
D25*
%TO.N,/USB_VBUS*%
X161400000Y-87400000D02*
X161400000Y-88600000D01*
X160450000Y-87000000D02*
X161000000Y-87000000D01*
X161400000Y-88600000D02*
X161000000Y-89000000D01*
X161000000Y-87000000D02*
X161400000Y-87400000D01*
D26*
%TO.N,/IO0{slash}Boot*%
X126000000Y-102100000D02*
X128700000Y-102100000D01*
X128700000Y-102100000D02*
X129200000Y-102600000D01*
X125000000Y-97449000D02*
X125000000Y-101100000D01*
X125000000Y-101100000D02*
X126000000Y-102100000D01*
X129200000Y-102600000D02*
X129200000Y-110600000D01*
X125124500Y-97324500D02*
X125000000Y-97449000D01*
%TO.N,/PowerSupply/1.22V*%
X161980500Y-97219500D02*
X162800000Y-96400000D01*
X161980500Y-98400000D02*
X161980500Y-97219500D01*
%TO.N,/TxD0*%
X148917746Y-101540000D02*
X135860000Y-101540000D01*
X161000000Y-91540000D02*
X159900000Y-92640000D01*
X159900000Y-92640000D02*
X159900000Y-99422254D01*
X159900000Y-99422254D02*
X154982254Y-104340000D01*
X154982254Y-104340000D02*
X151717746Y-104340000D01*
X135860000Y-101540000D02*
X135500000Y-101900000D01*
X151717746Y-104340000D02*
X148917746Y-101540000D01*
%TO.N,/RxD0*%
X135100000Y-101100000D02*
X134800000Y-101400000D01*
X159400000Y-99300000D02*
X154800000Y-103900000D01*
X151900000Y-103900000D02*
X149100000Y-101100000D01*
X159400000Y-92480000D02*
X159400000Y-99300000D01*
X158460000Y-91540000D02*
X159400000Y-92480000D01*
X154800000Y-103900000D02*
X151900000Y-103900000D01*
X135200000Y-101100000D02*
X135100000Y-101100000D01*
X149100000Y-101100000D02*
X135200000Y-101100000D01*
%TO.N,/CTS0*%
X151760500Y-102956813D02*
X152123687Y-103320000D01*
X154840000Y-95240000D02*
X154840000Y-92620000D01*
X152123687Y-103320000D02*
X152740000Y-103320000D01*
X153200000Y-102860000D02*
X154362254Y-102860000D01*
X151760500Y-102189556D02*
X151760500Y-102956813D01*
X155840000Y-101382254D02*
X155840000Y-96240000D01*
X155840000Y-96240000D02*
X154840000Y-95240000D01*
X151826519Y-102123537D02*
X151760500Y-102189556D01*
X154840000Y-92620000D02*
X155920000Y-91540000D01*
X152740000Y-103320000D02*
X153200000Y-102860000D01*
X154362254Y-102860000D02*
X155840000Y-101382254D01*
%TO.N,/RTS0*%
X152660500Y-102420000D02*
X154180000Y-102420000D01*
X154400000Y-95422254D02*
X154400000Y-92560000D01*
X155400000Y-96422254D02*
X154400000Y-95422254D01*
X154400000Y-92560000D02*
X153380000Y-91540000D01*
X154180000Y-102420000D02*
X155400000Y-101200000D01*
X152380500Y-102700000D02*
X152660500Y-102420000D01*
X155400000Y-101200000D02*
X155400000Y-96422254D01*
%TO.N,Net-(JP2-A)*%
X166800000Y-96300000D02*
X167100000Y-96000000D01*
X161100000Y-78100000D02*
X161600000Y-77600000D01*
X167100000Y-96000000D02*
X167100000Y-86100000D01*
X167100000Y-86100000D02*
X161100000Y-80100000D01*
X161600000Y-77600000D02*
X161600000Y-76500000D01*
X161100000Y-80100000D02*
X161100000Y-78100000D01*
%TO.N,Net-(JP2-C)*%
X159600000Y-75200000D02*
X161600000Y-75200000D01*
%TO.N,/~{ESP_RESET}*%
X149800000Y-108700000D02*
X148700000Y-108700000D01*
X159000000Y-110600000D02*
X157600000Y-109200000D01*
X134000000Y-108000000D02*
X130700000Y-104700000D01*
X157600000Y-109200000D02*
X156400000Y-109200000D01*
X159000000Y-111300000D02*
X159000000Y-110600000D01*
X148000000Y-108000000D02*
X134000000Y-108000000D01*
X130700000Y-99219500D02*
X129380500Y-97900000D01*
X152600000Y-105900000D02*
X149800000Y-108700000D01*
X130700000Y-104700000D02*
X130700000Y-99219500D01*
X148700000Y-108700000D02*
X148000000Y-108000000D01*
%TO.N,SPI2_CS0*%
X100000000Y-86000000D02*
X100350000Y-86350000D01*
X139800000Y-86800000D02*
X142900000Y-86800000D01*
X139350000Y-86350000D02*
X139800000Y-86800000D01*
X100350000Y-86350000D02*
X139350000Y-86350000D01*
X142900000Y-86800000D02*
X143600000Y-87500000D01*
%TO.N,SPI2_MOSI*%
X144200000Y-93000000D02*
X144500000Y-92700000D01*
X144500000Y-92700000D02*
X144500000Y-91100000D01*
X144500000Y-91100000D02*
X143672826Y-90272826D01*
X143672826Y-90272826D02*
X142672826Y-90272826D01*
X138750000Y-87250000D02*
X94650000Y-87250000D01*
X141925581Y-88428635D02*
X141206749Y-87709803D01*
X94650000Y-87250000D02*
X94500000Y-87400000D01*
X139209803Y-87709803D02*
X138750000Y-87250000D01*
X141206749Y-87709803D02*
X139209803Y-87709803D01*
X142672826Y-90272826D02*
X141925581Y-89525581D01*
X141925581Y-89525581D02*
X141925581Y-88428635D01*
%TO.N,SPI2_SCLK*%
X139500000Y-87259803D02*
X141859803Y-87259803D01*
X139040197Y-86800000D02*
X139500000Y-87259803D01*
X95300000Y-86500000D02*
X95600000Y-86800000D01*
X95600000Y-86800000D02*
X139040197Y-86800000D01*
X141859803Y-87259803D02*
X142200000Y-87600000D01*
%TO.N,SPI2_MISO*%
X124200000Y-87700000D02*
X95700000Y-87700000D01*
X141932347Y-90878584D02*
X141308421Y-90254658D01*
X140131472Y-90254658D02*
X139400000Y-89523186D01*
X95700000Y-87700000D02*
X95300000Y-88100000D01*
X141308421Y-90254658D02*
X140131472Y-90254658D01*
X138501701Y-87700000D02*
X124200000Y-87700000D01*
X139400000Y-89523186D02*
X139400000Y-88598299D01*
X139400000Y-88598299D02*
X138501701Y-87700000D01*
X141600000Y-93100000D02*
X141932347Y-92767653D01*
X141932347Y-92767653D02*
X141932347Y-90878584D01*
%TO.N,~{5V_PS}*%
X143281766Y-81000000D02*
X145576813Y-81000000D01*
X142700000Y-80418234D02*
X143281766Y-81000000D01*
X146000000Y-82800000D02*
X146000000Y-86300000D01*
X140900000Y-74600000D02*
X142700000Y-76400000D01*
X151500000Y-87805370D02*
X152100000Y-88405370D01*
X150860000Y-87160000D02*
X151500000Y-87800000D01*
X145576813Y-81000000D02*
X146300000Y-81723187D01*
X142700000Y-76400000D02*
X142700000Y-80418234D01*
X146300000Y-82500000D02*
X146000000Y-82800000D01*
X152100000Y-88405370D02*
X152100000Y-94000000D01*
X146300000Y-81723187D02*
X146300000Y-82500000D01*
X146860000Y-87160000D02*
X150860000Y-87160000D01*
X153291467Y-95191467D02*
X153291467Y-97413067D01*
X146000000Y-86300000D02*
X146860000Y-87160000D01*
X152100000Y-94000000D02*
X153291467Y-95191467D01*
X151500000Y-87800000D02*
X151500000Y-87805370D01*
%TO.N,LORA_DIO1*%
X149000000Y-87600000D02*
X149561832Y-88161832D01*
X102000000Y-85000000D02*
X143300000Y-85000000D01*
X143300000Y-85000000D02*
X145460000Y-87160000D01*
X95352197Y-83552197D02*
X95752197Y-83552197D01*
X146636884Y-87600000D02*
X149000000Y-87600000D01*
X145460000Y-87160000D02*
X146196884Y-87160000D01*
X101300000Y-84300000D02*
X102000000Y-85000000D01*
X95752197Y-83552197D02*
X96500000Y-84300000D01*
X149561832Y-88161832D02*
X149561832Y-90500000D01*
X96500000Y-84300000D02*
X101300000Y-84300000D01*
X146196884Y-87160000D02*
X146636884Y-87600000D01*
%TO.N,LORA_BUSY*%
X100950000Y-84750000D02*
X101650000Y-85450000D01*
X101650000Y-85450000D02*
X143049067Y-85450000D01*
X147035974Y-88621344D02*
X147035974Y-89900000D01*
X95673894Y-84750000D02*
X100950000Y-84750000D01*
X146014630Y-87600000D02*
X147035974Y-88621344D01*
X95352197Y-84428303D02*
X95673894Y-84750000D01*
X145199067Y-87600000D02*
X146014630Y-87600000D01*
X143049067Y-85450000D02*
X145199067Y-87600000D01*
%TO.N,LORA_RST*%
X147000000Y-92400000D02*
X146400000Y-93000000D01*
X95900000Y-85600000D02*
X96300000Y-85200000D01*
X142876813Y-85900000D02*
X144500000Y-87523187D01*
X144500000Y-87523187D02*
X144500000Y-89500000D01*
X145300000Y-90300000D02*
X146300000Y-90300000D01*
X147000000Y-91000000D02*
X147000000Y-92400000D01*
X144500000Y-89500000D02*
X145300000Y-90300000D01*
X96300000Y-85200000D02*
X100600000Y-85200000D01*
X100600000Y-85200000D02*
X101300000Y-85900000D01*
X146300000Y-90300000D02*
X147000000Y-91000000D01*
X101300000Y-85900000D02*
X142876813Y-85900000D01*
D24*
%TO.N,+5V*%
X129775000Y-77575000D02*
X129775000Y-75625000D01*
X129775000Y-75625000D02*
X130400000Y-75000000D01*
X132000000Y-79800000D02*
X129775000Y-77575000D01*
D26*
%TO.N,5V_ENABLE*%
X143080000Y-81480000D02*
X142260000Y-80660000D01*
X152500000Y-97300000D02*
X152500000Y-95400000D01*
X145600000Y-81900000D02*
X145180000Y-81480000D01*
X142260000Y-76860000D02*
X140900000Y-75500000D01*
X142260000Y-80660000D02*
X142260000Y-76860000D01*
X145180000Y-81480000D02*
X143080000Y-81480000D01*
%TO.N,/LoRaModule/DIO2_TXEN*%
X95200000Y-82700000D02*
X96000000Y-82700000D01*
X123950000Y-84550000D02*
X124300000Y-84200000D01*
X101650000Y-83850000D02*
X102350000Y-84550000D01*
X96000000Y-82700000D02*
X97150000Y-83850000D01*
X97150000Y-83850000D02*
X101650000Y-83850000D01*
X102350000Y-84550000D02*
X123950000Y-84550000D01*
%TO.N,/IO4*%
X151600000Y-97400000D02*
X151600000Y-92300000D01*
X154022030Y-98015635D02*
X154004598Y-98033067D01*
X154004598Y-98033067D02*
X152233067Y-98033067D01*
X152233067Y-98033067D02*
X151600000Y-97400000D01*
X151600000Y-92300000D02*
X150840000Y-91540000D01*
%TO.N,/IO5*%
X148300000Y-95123894D02*
X148300000Y-91540000D01*
X149138053Y-95961947D02*
X148300000Y-95123894D01*
%TO.N,/IO6*%
X153700000Y-101400000D02*
X145760000Y-93460000D01*
X145760000Y-93460000D02*
X145760000Y-91540000D01*
%TO.N,/IO7*%
X143200000Y-93400000D02*
X143220000Y-93380000D01*
X143800000Y-94000000D02*
X143200000Y-93400000D01*
X145677746Y-94000000D02*
X143800000Y-94000000D01*
X143220000Y-93380000D02*
X143220000Y-91540000D01*
X153000000Y-101322254D02*
X145677746Y-94000000D01*
X153000000Y-101800000D02*
X153000000Y-101322254D01*
%TO.N,/IO1*%
X127600000Y-92800000D02*
X127980000Y-92420000D01*
X124200000Y-95400000D02*
X126800000Y-92800000D01*
X126800000Y-92800000D02*
X127600000Y-92800000D01*
X127980000Y-92420000D02*
X127980000Y-91540000D01*
X123600000Y-95400000D02*
X124200000Y-95400000D01*
%TO.N,/IO2*%
X124200000Y-94400000D02*
X125440000Y-93160000D01*
X125440000Y-93160000D02*
X125440000Y-91540000D01*
%TO.N,/IO17*%
X151800000Y-100744508D02*
X145555492Y-94500000D01*
X141800000Y-94500000D02*
X139400000Y-92100000D01*
X139400000Y-90260000D02*
X138140000Y-89000000D01*
X151800000Y-101100000D02*
X151800000Y-100744508D01*
X145555492Y-94500000D02*
X141800000Y-94500000D01*
X139400000Y-92100000D02*
X139400000Y-90260000D01*
%TO.N,/IO38*%
X131700000Y-96500000D02*
X135600000Y-92600000D01*
X135600000Y-92600000D02*
X135600000Y-91540000D01*
X131700000Y-97200000D02*
X131700000Y-96500000D01*
%TO.N,/IO39*%
X134300000Y-90240000D02*
X133060000Y-89000000D01*
X131237701Y-95862299D02*
X131237701Y-95462299D01*
X131237701Y-95462299D02*
X134300000Y-92400000D01*
X134300000Y-92400000D02*
X134300000Y-90240000D01*
%TO.N,/IO40*%
X130250901Y-95749099D02*
X133060000Y-92940000D01*
X133060000Y-92940000D02*
X133060000Y-91540000D01*
X130250901Y-96223697D02*
X130250901Y-95749099D01*
%TO.N,/IO41*%
X131500000Y-98500000D02*
X129200000Y-96200000D01*
X131900000Y-104700000D02*
X131500000Y-104300000D01*
X131500000Y-104300000D02*
X131500000Y-98500000D01*
X129200000Y-96200000D02*
X129200000Y-90800000D01*
X130520000Y-89480000D02*
X130520000Y-89000000D01*
X129200000Y-90800000D02*
X130520000Y-89480000D01*
%TO.N,/IO42*%
X130520000Y-94319006D02*
X130520000Y-91540000D01*
X129914906Y-94924100D02*
X130520000Y-94319006D01*
%TO.N,/USB_D+*%
X163009398Y-107351762D02*
X163009398Y-106100000D01*
X163058136Y-107400500D02*
X163009398Y-107351762D01*
%TD*%
%TA.AperFunction,Conductor*%
%TO.N,GND*%
G36*
X145500000Y-74298669D02*
G01*
X145466522Y-74269010D01*
X145328790Y-74196723D01*
X145177774Y-74159500D01*
X145177771Y-74159500D01*
X145022229Y-74159500D01*
X145022225Y-74159500D01*
X144871209Y-74196723D01*
X144733477Y-74269010D01*
X144617058Y-74372149D01*
X144617053Y-74372155D01*
X144528702Y-74500154D01*
X144528701Y-74500156D01*
X144473544Y-74645593D01*
X144473543Y-74645594D01*
X144454796Y-74799998D01*
X144454796Y-74800001D01*
X144473543Y-74954405D01*
X144473544Y-74954407D01*
X144528700Y-75099841D01*
X144617058Y-75227849D01*
X144617060Y-75227851D01*
X144617062Y-75227853D01*
X144626147Y-75235901D01*
X144657167Y-75288640D01*
X144659500Y-75310005D01*
X144659500Y-78401000D01*
X144640593Y-78459191D01*
X144591093Y-78495155D01*
X144560500Y-78500000D01*
X143159500Y-78500000D01*
X143101309Y-78481093D01*
X143065345Y-78431593D01*
X143060500Y-78401000D01*
X143060500Y-76447652D01*
X143062607Y-76427336D01*
X143065172Y-76415104D01*
X143060879Y-76380667D01*
X143060500Y-76374543D01*
X143060500Y-76370126D01*
X143056809Y-76348008D01*
X143050291Y-76295714D01*
X143050287Y-76295707D01*
X143048137Y-76288483D01*
X143045683Y-76281334D01*
X143045682Y-76281327D01*
X143020593Y-76234967D01*
X142997449Y-76187625D01*
X142997446Y-76187622D01*
X142993050Y-76181465D01*
X142988419Y-76175514D01*
X142949635Y-76139811D01*
X141474160Y-74664336D01*
X141446383Y-74609819D01*
X141446115Y-74606420D01*
X141446011Y-74606434D01*
X141441498Y-74572155D01*
X141426588Y-74458901D01*
X141419574Y-74441968D01*
X141372127Y-74327420D01*
X141372126Y-74327419D01*
X141372126Y-74327418D01*
X141285489Y-74214511D01*
X141172582Y-74127874D01*
X141172581Y-74127873D01*
X141172579Y-74127872D01*
X141041103Y-74073413D01*
X141041095Y-74073411D01*
X140900001Y-74054836D01*
X140899999Y-74054836D01*
X140758904Y-74073411D01*
X140758896Y-74073413D01*
X140627420Y-74127872D01*
X140514512Y-74214510D01*
X140514510Y-74214512D01*
X140427872Y-74327420D01*
X140373413Y-74458896D01*
X140373411Y-74458904D01*
X140354836Y-74599999D01*
X140354836Y-74600000D01*
X140373411Y-74741095D01*
X140373413Y-74741103D01*
X140427872Y-74872579D01*
X140427873Y-74872581D01*
X140427874Y-74872582D01*
X140514511Y-74985489D01*
X140517767Y-74989732D01*
X140538191Y-75047408D01*
X140520814Y-75106074D01*
X140517767Y-75110268D01*
X140427872Y-75227420D01*
X140373413Y-75358896D01*
X140373411Y-75358904D01*
X140354836Y-75499999D01*
X140354836Y-75500000D01*
X140373411Y-75641095D01*
X140373413Y-75641103D01*
X140427872Y-75772579D01*
X140427873Y-75772581D01*
X140427874Y-75772582D01*
X140514511Y-75885489D01*
X140627418Y-75972126D01*
X140758901Y-76026588D01*
X140900000Y-76045164D01*
X140906434Y-76046011D01*
X140906044Y-76048969D01*
X140952523Y-76064071D01*
X140964336Y-76074160D01*
X141870504Y-76980328D01*
X141898281Y-77034845D01*
X141899500Y-77050332D01*
X141899500Y-78401000D01*
X141880593Y-78459191D01*
X141831093Y-78495155D01*
X141800500Y-78500000D01*
X140900000Y-78500000D01*
X137245164Y-82154836D01*
X134789496Y-84610504D01*
X134734979Y-84638281D01*
X134719492Y-84639500D01*
X124844798Y-84639500D01*
X124786607Y-84620593D01*
X124750643Y-84571093D01*
X124750643Y-84509907D01*
X124766255Y-84480234D01*
X124772125Y-84472583D01*
X124772124Y-84472583D01*
X124772126Y-84472582D01*
X124826588Y-84341099D01*
X124845164Y-84200000D01*
X124826588Y-84058901D01*
X124823115Y-84050517D01*
X124772127Y-83927420D01*
X124772126Y-83927419D01*
X124772126Y-83927418D01*
X124685489Y-83814511D01*
X124572582Y-83727874D01*
X124572581Y-83727873D01*
X124572579Y-83727872D01*
X124441103Y-83673413D01*
X124441095Y-83673411D01*
X124300001Y-83654836D01*
X124299999Y-83654836D01*
X124158904Y-83673411D01*
X124158896Y-83673413D01*
X124027420Y-83727872D01*
X123914512Y-83814510D01*
X123914510Y-83814512D01*
X123827872Y-83927420D01*
X123773412Y-84058900D01*
X123773411Y-84058901D01*
X123767551Y-84103421D01*
X123741211Y-84158647D01*
X123687440Y-84187842D01*
X123669398Y-84189500D01*
X102540332Y-84189500D01*
X102482141Y-84170593D01*
X102470328Y-84160504D01*
X101938607Y-83628783D01*
X101925731Y-83612926D01*
X101918896Y-83602464D01*
X101891513Y-83581151D01*
X101886918Y-83577094D01*
X101883789Y-83573965D01*
X101865539Y-83560934D01*
X101823952Y-83528566D01*
X101823951Y-83528565D01*
X101817282Y-83524956D01*
X101810520Y-83521651D01*
X101759987Y-83506606D01*
X101710156Y-83489499D01*
X101702685Y-83488253D01*
X101695207Y-83487321D01*
X101695206Y-83487321D01*
X101642534Y-83489500D01*
X97340332Y-83489500D01*
X97282141Y-83470593D01*
X97270328Y-83460504D01*
X96288607Y-82478783D01*
X96275731Y-82462926D01*
X96268896Y-82452464D01*
X96241513Y-82431151D01*
X96236918Y-82427094D01*
X96233789Y-82423965D01*
X96215539Y-82410934D01*
X96173952Y-82378566D01*
X96173951Y-82378565D01*
X96167282Y-82374956D01*
X96160520Y-82371651D01*
X96109987Y-82356606D01*
X96060156Y-82339499D01*
X96052685Y-82338253D01*
X96045207Y-82337321D01*
X96045206Y-82337321D01*
X95992534Y-82339500D01*
X95651485Y-82339500D01*
X95593294Y-82320593D01*
X95590700Y-82318377D01*
X95590636Y-82318461D01*
X95585490Y-82314512D01*
X95585489Y-82314511D01*
X95472582Y-82227874D01*
X95472581Y-82227873D01*
X95472579Y-82227872D01*
X95341103Y-82173413D01*
X95341095Y-82173411D01*
X95200001Y-82154836D01*
X95199999Y-82154836D01*
X95058904Y-82173411D01*
X95058896Y-82173413D01*
X94927420Y-82227872D01*
X94814512Y-82314510D01*
X94814510Y-82314512D01*
X94727872Y-82427420D01*
X94673413Y-82558896D01*
X94673411Y-82558904D01*
X94654836Y-82699999D01*
X94654836Y-82700000D01*
X94673411Y-82841095D01*
X94673413Y-82841103D01*
X94727872Y-82972579D01*
X94727873Y-82972581D01*
X94727874Y-82972582D01*
X94814511Y-83085489D01*
X94870989Y-83128826D01*
X94905644Y-83179251D01*
X94904042Y-83240415D01*
X94889265Y-83267633D01*
X94880071Y-83279615D01*
X94880070Y-83279615D01*
X94825610Y-83411096D01*
X94825608Y-83411101D01*
X94807033Y-83552196D01*
X94807033Y-83552197D01*
X94825608Y-83693292D01*
X94825610Y-83693300D01*
X94880069Y-83824776D01*
X94880071Y-83824780D01*
X94960796Y-83929983D01*
X94981220Y-83987659D01*
X94963842Y-84046324D01*
X94960796Y-84050517D01*
X94880071Y-84155719D01*
X94880069Y-84155723D01*
X94825610Y-84287199D01*
X94825608Y-84287207D01*
X94807033Y-84428302D01*
X94807033Y-84428303D01*
X94825608Y-84569398D01*
X94825610Y-84569406D01*
X94880069Y-84700882D01*
X94880070Y-84700884D01*
X94880071Y-84700885D01*
X94966708Y-84813792D01*
X95079615Y-84900429D01*
X95079616Y-84900429D01*
X95079617Y-84900430D01*
X95211093Y-84954889D01*
X95211098Y-84954891D01*
X95351867Y-84973423D01*
X95399753Y-84993453D01*
X95404997Y-84997534D01*
X95404998Y-84997536D01*
X95427413Y-85014982D01*
X95432377Y-85018846D01*
X95436974Y-85022905D01*
X95440101Y-85026031D01*
X95440105Y-85026035D01*
X95458351Y-85039062D01*
X95499942Y-85071434D01*
X95499943Y-85071434D01*
X95500210Y-85071642D01*
X95534518Y-85122304D01*
X95532495Y-85183456D01*
X95517945Y-85210034D01*
X95427874Y-85327416D01*
X95427872Y-85327420D01*
X95373413Y-85458896D01*
X95373411Y-85458904D01*
X95354836Y-85599999D01*
X95354836Y-85600000D01*
X95373411Y-85741095D01*
X95373413Y-85741103D01*
X95405665Y-85818966D01*
X95410466Y-85879962D01*
X95378496Y-85932131D01*
X95321968Y-85955546D01*
X95301283Y-85955005D01*
X95300000Y-85954836D01*
X95299999Y-85954836D01*
X95158904Y-85973411D01*
X95158896Y-85973413D01*
X95027420Y-86027872D01*
X94914512Y-86114510D01*
X94914510Y-86114512D01*
X94827872Y-86227420D01*
X94773413Y-86358896D01*
X94773411Y-86358904D01*
X94754836Y-86499999D01*
X94754836Y-86500000D01*
X94773411Y-86641095D01*
X94773413Y-86641101D01*
X94819603Y-86752614D01*
X94824404Y-86813611D01*
X94792434Y-86865780D01*
X94735906Y-86889195D01*
X94728139Y-86889500D01*
X94699632Y-86889500D01*
X94661747Y-86881964D01*
X94641105Y-86873414D01*
X94641096Y-86873411D01*
X94500001Y-86854836D01*
X94499999Y-86854836D01*
X94358904Y-86873411D01*
X94358896Y-86873413D01*
X94227420Y-86927872D01*
X94114512Y-87014510D01*
X94114510Y-87014512D01*
X94027872Y-87127420D01*
X93973413Y-87258896D01*
X93973411Y-87258904D01*
X93954836Y-87399999D01*
X93954836Y-87400000D01*
X93973411Y-87541095D01*
X93973413Y-87541103D01*
X94027872Y-87672579D01*
X94027873Y-87672581D01*
X94027874Y-87672582D01*
X94114511Y-87785489D01*
X94227418Y-87872126D01*
X94227419Y-87872126D01*
X94227420Y-87872127D01*
X94356856Y-87925741D01*
X94358901Y-87926588D01*
X94464725Y-87940520D01*
X94499999Y-87945164D01*
X94500000Y-87945164D01*
X94500001Y-87945164D01*
X94634665Y-87927435D01*
X94641099Y-87926588D01*
X94641099Y-87926587D01*
X94647532Y-87925741D01*
X94647755Y-87927435D01*
X94700643Y-87930205D01*
X94748194Y-87968709D01*
X94764031Y-88027809D01*
X94763320Y-88035552D01*
X94754836Y-88099998D01*
X94754836Y-88100000D01*
X94773411Y-88241095D01*
X94773413Y-88241103D01*
X94827872Y-88372579D01*
X94827873Y-88372581D01*
X94827874Y-88372582D01*
X94914511Y-88485489D01*
X95027418Y-88572126D01*
X95027419Y-88572126D01*
X95027420Y-88572127D01*
X95158896Y-88626586D01*
X95158901Y-88626588D01*
X95264725Y-88640520D01*
X95299999Y-88645164D01*
X95300000Y-88645164D01*
X95300001Y-88645164D01*
X95328219Y-88641448D01*
X95441099Y-88626588D01*
X95572582Y-88572126D01*
X95685489Y-88485489D01*
X95772126Y-88372582D01*
X95826588Y-88241099D01*
X95839032Y-88146578D01*
X95865373Y-88091353D01*
X95919144Y-88062158D01*
X95937185Y-88060500D01*
X124139843Y-88060500D01*
X124596350Y-88060500D01*
X124654541Y-88079407D01*
X124690505Y-88128907D01*
X124690505Y-88190093D01*
X124663046Y-88232660D01*
X124630658Y-88262187D01*
X124594580Y-88309962D01*
X124508867Y-88423464D01*
X124508862Y-88423473D01*
X124418784Y-88604375D01*
X124363475Y-88798761D01*
X124344828Y-89000000D01*
X124363475Y-89201238D01*
X124385470Y-89278541D01*
X124418783Y-89395622D01*
X124508866Y-89576534D01*
X124630658Y-89737813D01*
X124780011Y-89873966D01*
X124951840Y-89980358D01*
X125140292Y-90053365D01*
X125338950Y-90090500D01*
X125541050Y-90090500D01*
X125739708Y-90053365D01*
X125928160Y-89980358D01*
X126099989Y-89873966D01*
X126249342Y-89737813D01*
X126371134Y-89576534D01*
X126461217Y-89395622D01*
X126516525Y-89201237D01*
X126535172Y-89000000D01*
X126516525Y-88798763D01*
X126461217Y-88604378D01*
X126371134Y-88423466D01*
X126249342Y-88262187D01*
X126216953Y-88232660D01*
X126186688Y-88179486D01*
X126193459Y-88118676D01*
X126234680Y-88073460D01*
X126283650Y-88060500D01*
X126921699Y-88060500D01*
X126979890Y-88079407D01*
X127015854Y-88128907D01*
X127015854Y-88190093D01*
X127002795Y-88216284D01*
X126893332Y-88372614D01*
X126800897Y-88570842D01*
X126744286Y-88782118D01*
X126742722Y-88799999D01*
X126742723Y-88800000D01*
X127517617Y-88800000D01*
X127480000Y-88928111D01*
X127480000Y-89071889D01*
X127517617Y-89200000D01*
X126742722Y-89200000D01*
X126744286Y-89217881D01*
X126800897Y-89429157D01*
X126893332Y-89627386D01*
X127018783Y-89806549D01*
X127173450Y-89961216D01*
X127352613Y-90086667D01*
X127550842Y-90179102D01*
X127762118Y-90235713D01*
X127779999Y-90237277D01*
X127780000Y-90237277D01*
X127780000Y-89458335D01*
X127837685Y-89484680D01*
X127944237Y-89500000D01*
X128015763Y-89500000D01*
X128122315Y-89484680D01*
X128180000Y-89458335D01*
X128180000Y-90237277D01*
X128197881Y-90235713D01*
X128409157Y-90179102D01*
X128607386Y-90086667D01*
X128786549Y-89961216D01*
X128941216Y-89806549D01*
X129066667Y-89627386D01*
X129159102Y-89429157D01*
X129215713Y-89217881D01*
X129217277Y-89200000D01*
X128442383Y-89200000D01*
X128480000Y-89071889D01*
X128480000Y-88928111D01*
X128442383Y-88800000D01*
X129217277Y-88800000D01*
X129217277Y-88799999D01*
X129215713Y-88782118D01*
X129159102Y-88570842D01*
X129066667Y-88372614D01*
X128957205Y-88216284D01*
X128939316Y-88157772D01*
X128959236Y-88099920D01*
X129009357Y-88064826D01*
X129038301Y-88060500D01*
X129676350Y-88060500D01*
X129734541Y-88079407D01*
X129770505Y-88128907D01*
X129770505Y-88190093D01*
X129743046Y-88232660D01*
X129710658Y-88262187D01*
X129674580Y-88309962D01*
X129588867Y-88423464D01*
X129588862Y-88423473D01*
X129498784Y-88604375D01*
X129443475Y-88798761D01*
X129424828Y-89000000D01*
X129443475Y-89201238D01*
X129465470Y-89278541D01*
X129498783Y-89395622D01*
X129588866Y-89576534D01*
X129588867Y-89576535D01*
X129588871Y-89576541D01*
X129637886Y-89641448D01*
X129657865Y-89699279D01*
X129640036Y-89757809D01*
X129628886Y-89771112D01*
X128753477Y-90646521D01*
X128698960Y-90674298D01*
X128638528Y-90664727D01*
X128631361Y-90660692D01*
X128468160Y-90559642D01*
X128279708Y-90486635D01*
X128279707Y-90486634D01*
X128279705Y-90486634D01*
X128081050Y-90449500D01*
X127878950Y-90449500D01*
X127680294Y-90486634D01*
X127642437Y-90501300D01*
X127491840Y-90559642D01*
X127328445Y-90660812D01*
X127320011Y-90666034D01*
X127230677Y-90747473D01*
X127170658Y-90802187D01*
X127050983Y-90960662D01*
X127000829Y-90995704D01*
X126971981Y-91000000D01*
X126448019Y-91000000D01*
X126389828Y-90981093D01*
X126369017Y-90960663D01*
X126249342Y-90802187D01*
X126099989Y-90666034D01*
X125928160Y-90559642D01*
X125739708Y-90486635D01*
X125739707Y-90486634D01*
X125739705Y-90486634D01*
X125541050Y-90449500D01*
X125338950Y-90449500D01*
X125140294Y-90486634D01*
X125102437Y-90501300D01*
X124951840Y-90559642D01*
X124788445Y-90660812D01*
X124780011Y-90666034D01*
X124690677Y-90747473D01*
X124630658Y-90802187D01*
X124510983Y-90960662D01*
X124460829Y-90995704D01*
X124431981Y-91000000D01*
X123500000Y-91000000D01*
X123500000Y-91000001D01*
X123500000Y-94790238D01*
X123481093Y-94848429D01*
X123438886Y-94881702D01*
X123327419Y-94927873D01*
X123214512Y-95014510D01*
X123214510Y-95014512D01*
X123127872Y-95127420D01*
X123073413Y-95258896D01*
X123073411Y-95258904D01*
X123054836Y-95399999D01*
X123054836Y-95400000D01*
X123073411Y-95541095D01*
X123073413Y-95541103D01*
X123127872Y-95672579D01*
X123127873Y-95672581D01*
X123127874Y-95672582D01*
X123214511Y-95785489D01*
X123327418Y-95872126D01*
X123327419Y-95872126D01*
X123327420Y-95872127D01*
X123438885Y-95918297D01*
X123485411Y-95958033D01*
X123500000Y-96009761D01*
X123500000Y-111800665D01*
X123481093Y-111858856D01*
X123431593Y-111894820D01*
X123370407Y-111894820D01*
X123330997Y-111870669D01*
X123289810Y-111829483D01*
X123254639Y-111794312D01*
X123245250Y-111785633D01*
X123245249Y-111785632D01*
X123228576Y-111771392D01*
X123217574Y-111762404D01*
X123117770Y-111709339D01*
X123117769Y-111709338D01*
X123117766Y-111709337D01*
X123079260Y-111696826D01*
X123059570Y-111690428D01*
X122958996Y-111674500D01*
X122958992Y-111674500D01*
X104418500Y-111674500D01*
X104360309Y-111655593D01*
X104324345Y-111606093D01*
X104319500Y-111575500D01*
X104319500Y-100534734D01*
X104319007Y-100522193D01*
X104317296Y-100500448D01*
X104315900Y-100486591D01*
X104315900Y-100486588D01*
X104304325Y-100448723D01*
X104300000Y-100419781D01*
X104300000Y-99700001D01*
X104300000Y-99700000D01*
X104299999Y-99700000D01*
X103585291Y-99700000D01*
X103561689Y-99696261D01*
X103561502Y-99697044D01*
X103557724Y-99696136D01*
X103458995Y-99680500D01*
X103458992Y-99680500D01*
X92599000Y-99680500D01*
X92540809Y-99661593D01*
X92504845Y-99612093D01*
X92500000Y-99581500D01*
X92500000Y-77559685D01*
X129404763Y-77559685D01*
X129409120Y-77594639D01*
X129409500Y-77600767D01*
X129409500Y-77605288D01*
X129413241Y-77627707D01*
X129419851Y-77680733D01*
X129422039Y-77688084D01*
X129424522Y-77695316D01*
X129449954Y-77742310D01*
X129473423Y-77790317D01*
X129477876Y-77796553D01*
X129482581Y-77802599D01*
X129521895Y-77838790D01*
X131334603Y-79651498D01*
X131362380Y-79706015D01*
X131362877Y-79733433D01*
X131354796Y-79799995D01*
X131354796Y-79800001D01*
X131373543Y-79954405D01*
X131373544Y-79954406D01*
X131428701Y-80099843D01*
X131428702Y-80099845D01*
X131517053Y-80227844D01*
X131517058Y-80227850D01*
X131633477Y-80330989D01*
X131633480Y-80330991D01*
X131633482Y-80330992D01*
X131771208Y-80403276D01*
X131922229Y-80440500D01*
X131922233Y-80440500D01*
X132077767Y-80440500D01*
X132077771Y-80440500D01*
X132228792Y-80403276D01*
X132366518Y-80330992D01*
X132366520Y-80330989D01*
X132366522Y-80330989D01*
X132482941Y-80227850D01*
X132482946Y-80227844D01*
X132571297Y-80099845D01*
X132571300Y-80099841D01*
X132626456Y-79954407D01*
X132645204Y-79800000D01*
X132645203Y-79799995D01*
X132626456Y-79645594D01*
X132626456Y-79645593D01*
X132571300Y-79500159D01*
X132571297Y-79500154D01*
X132482946Y-79372155D01*
X132482941Y-79372149D01*
X132366522Y-79269010D01*
X132228790Y-79196723D01*
X132077774Y-79159500D01*
X132077771Y-79159500D01*
X131922229Y-79159500D01*
X131917403Y-79159500D01*
X131859212Y-79140593D01*
X131847399Y-79130504D01*
X130169496Y-77452600D01*
X130141719Y-77398083D01*
X130140500Y-77382596D01*
X130140500Y-75817401D01*
X130159407Y-75759210D01*
X130169485Y-75747409D01*
X130247399Y-75669494D01*
X130301914Y-75641719D01*
X130317401Y-75640500D01*
X130477767Y-75640500D01*
X130477771Y-75640500D01*
X130628792Y-75603276D01*
X130766518Y-75530992D01*
X130766520Y-75530989D01*
X130766522Y-75530989D01*
X130882941Y-75427850D01*
X130882946Y-75427844D01*
X130902165Y-75400000D01*
X136000000Y-75400000D01*
X136000000Y-79000000D01*
X139600000Y-79000000D01*
X139600000Y-75400000D01*
X136000000Y-75400000D01*
X130902165Y-75400000D01*
X130971297Y-75299845D01*
X130971300Y-75299841D01*
X131026456Y-75154407D01*
X131045204Y-75000000D01*
X131040307Y-74959672D01*
X131026456Y-74845594D01*
X131026456Y-74845593D01*
X130971300Y-74700159D01*
X130971297Y-74700154D01*
X130882946Y-74572155D01*
X130882941Y-74572149D01*
X130766522Y-74469010D01*
X130628790Y-74396723D01*
X130477774Y-74359500D01*
X130477771Y-74359500D01*
X130322229Y-74359500D01*
X130322225Y-74359500D01*
X130171209Y-74396723D01*
X130033477Y-74469010D01*
X129917058Y-74572149D01*
X129917053Y-74572155D01*
X129828702Y-74700154D01*
X129828701Y-74700156D01*
X129773544Y-74845593D01*
X129773543Y-74845594D01*
X129754796Y-74999998D01*
X129754796Y-75000002D01*
X129762877Y-75066564D01*
X129751121Y-75126610D01*
X129734603Y-75148500D01*
X129550612Y-75332491D01*
X129534763Y-75345362D01*
X129524034Y-75352372D01*
X129524031Y-75352375D01*
X129502395Y-75380171D01*
X129498336Y-75384768D01*
X129495141Y-75387963D01*
X129495134Y-75387971D01*
X129481930Y-75406465D01*
X129449105Y-75448637D01*
X129445477Y-75455341D01*
X129442096Y-75462256D01*
X129426853Y-75513460D01*
X129409499Y-75564009D01*
X129408240Y-75571553D01*
X129407292Y-75579167D01*
X129409500Y-75632549D01*
X129409500Y-77526828D01*
X129407393Y-77547142D01*
X129404763Y-77559685D01*
X92500000Y-77559685D01*
X92500000Y-77174481D01*
X92518907Y-77116290D01*
X92568407Y-77080326D01*
X92610281Y-77076126D01*
X92822707Y-77100500D01*
X92822716Y-77100500D01*
X93088571Y-77100500D01*
X93088576Y-77100500D01*
X93354008Y-77085322D01*
X93703400Y-77024857D01*
X94043623Y-76924959D01*
X94370241Y-76786929D01*
X94678995Y-76612568D01*
X94965861Y-76404147D01*
X94965870Y-76404138D01*
X94965872Y-76404138D01*
X95201777Y-76187625D01*
X95227099Y-76164385D01*
X95459304Y-75896407D01*
X95659448Y-75603706D01*
X95824921Y-75290098D01*
X95937866Y-75000002D01*
X95953564Y-74959683D01*
X95953566Y-74959678D01*
X95953568Y-74959672D01*
X96043710Y-74616736D01*
X96081279Y-74355431D01*
X96094172Y-74265767D01*
X96094172Y-74265764D01*
X96094173Y-74265759D01*
X96104299Y-73911317D01*
X96073955Y-73558032D01*
X96003537Y-73210508D01*
X95893964Y-72873277D01*
X95746664Y-72550734D01*
X95563557Y-72247085D01*
X95495982Y-72159453D01*
X95475421Y-72101827D01*
X95492659Y-72043120D01*
X95541112Y-72005757D01*
X95574381Y-72000000D01*
X145500000Y-72000000D01*
X145500000Y-74298669D01*
G37*
%TD.AperFunction*%
%TD*%
%TA.AperFunction,Conductor*%
%TO.N,GNDRF*%
G36*
X103517183Y-100018907D02*
G01*
X103528996Y-100028996D01*
X103971004Y-100471004D01*
X103998781Y-100525521D01*
X104000000Y-100541008D01*
X104000000Y-112000000D01*
X90800000Y-112000000D01*
X90800000Y-100541008D01*
X90818907Y-100482817D01*
X90828996Y-100471004D01*
X91271004Y-100028996D01*
X91325521Y-100001219D01*
X91341008Y-100000000D01*
X103458992Y-100000000D01*
X103517183Y-100018907D01*
G37*
%TD.AperFunction*%
%TD*%
%TA.AperFunction,Conductor*%
%TO.N,GND*%
G36*
X136047491Y-112707877D02*
G01*
X136081640Y-112716293D01*
X136093700Y-112719266D01*
X136116014Y-112727727D01*
X136158168Y-112749851D01*
X136177802Y-112763403D01*
X136213439Y-112794975D01*
X136229258Y-112812831D01*
X136234948Y-112821075D01*
X136256297Y-112852006D01*
X136267386Y-112873133D01*
X136284268Y-112917645D01*
X136289980Y-112940821D01*
X136295716Y-112988068D01*
X136295716Y-113011932D01*
X136289979Y-113059182D01*
X136284268Y-113082355D01*
X136267388Y-113126864D01*
X136256299Y-113147993D01*
X136251054Y-113155593D01*
X136248109Y-113159859D01*
X136224209Y-113200492D01*
X136211529Y-113226137D01*
X136201261Y-113250147D01*
X136197442Y-113259076D01*
X136197441Y-113259080D01*
X136177811Y-113370404D01*
X136177811Y-113401000D01*
X136158904Y-113459191D01*
X136109404Y-113495155D01*
X136078811Y-113500000D01*
X135923594Y-113500000D01*
X135865403Y-113481093D01*
X135829439Y-113431593D01*
X135825254Y-113412413D01*
X135813413Y-113310314D01*
X135795917Y-113251684D01*
X135751890Y-113159856D01*
X135743698Y-113147988D01*
X135732613Y-113126868D01*
X135715727Y-113082346D01*
X135710018Y-113059180D01*
X135704281Y-113011926D01*
X135704281Y-112988073D01*
X135710018Y-112940814D01*
X135715729Y-112917645D01*
X135732608Y-112873140D01*
X135743699Y-112852008D01*
X135743701Y-112852006D01*
X135770741Y-112812830D01*
X135786566Y-112794968D01*
X135822194Y-112763404D01*
X135841828Y-112749852D01*
X135883985Y-112727726D01*
X135906286Y-112719269D01*
X135952512Y-112707875D01*
X135976198Y-112705000D01*
X136023800Y-112705000D01*
X136047491Y-112707877D01*
G37*
%TD.AperFunction*%
%TA.AperFunction,Conductor*%
G36*
X140047491Y-112707877D02*
G01*
X140081640Y-112716293D01*
X140093700Y-112719266D01*
X140116014Y-112727727D01*
X140158168Y-112749851D01*
X140177802Y-112763403D01*
X140213439Y-112794975D01*
X140229258Y-112812831D01*
X140234948Y-112821075D01*
X140256297Y-112852006D01*
X140267386Y-112873133D01*
X140284268Y-112917645D01*
X140289980Y-112940821D01*
X140295716Y-112988068D01*
X140295716Y-113011932D01*
X140289979Y-113059182D01*
X140284268Y-113082355D01*
X140267388Y-113126864D01*
X140256299Y-113147993D01*
X140251054Y-113155593D01*
X140248109Y-113159859D01*
X140224209Y-113200492D01*
X140211529Y-113226137D01*
X140201261Y-113250147D01*
X140197442Y-113259076D01*
X140197441Y-113259080D01*
X140177811Y-113370404D01*
X140177811Y-113401000D01*
X140158904Y-113459191D01*
X140109404Y-113495155D01*
X140078811Y-113500000D01*
X139923594Y-113500000D01*
X139865403Y-113481093D01*
X139829439Y-113431593D01*
X139825254Y-113412413D01*
X139813413Y-113310314D01*
X139795917Y-113251684D01*
X139751890Y-113159856D01*
X139743698Y-113147988D01*
X139732613Y-113126868D01*
X139715727Y-113082346D01*
X139710018Y-113059180D01*
X139704281Y-113011926D01*
X139704281Y-112988073D01*
X139710018Y-112940814D01*
X139715729Y-112917645D01*
X139732608Y-112873140D01*
X139743699Y-112852008D01*
X139743701Y-112852006D01*
X139770741Y-112812830D01*
X139786566Y-112794968D01*
X139822194Y-112763404D01*
X139841828Y-112749852D01*
X139883985Y-112727726D01*
X139906286Y-112719269D01*
X139952512Y-112707875D01*
X139976198Y-112705000D01*
X140023800Y-112705000D01*
X140047491Y-112707877D01*
G37*
%TD.AperFunction*%
%TA.AperFunction,Conductor*%
G36*
X144047491Y-112707877D02*
G01*
X144081640Y-112716293D01*
X144093700Y-112719266D01*
X144116014Y-112727727D01*
X144158168Y-112749851D01*
X144177802Y-112763403D01*
X144213439Y-112794975D01*
X144229258Y-112812831D01*
X144234948Y-112821075D01*
X144256297Y-112852006D01*
X144267386Y-112873133D01*
X144284268Y-112917645D01*
X144289980Y-112940821D01*
X144295716Y-112988068D01*
X144295716Y-113011932D01*
X144289979Y-113059182D01*
X144284268Y-113082355D01*
X144267388Y-113126864D01*
X144256299Y-113147993D01*
X144251054Y-113155593D01*
X144248109Y-113159859D01*
X144224209Y-113200492D01*
X144211529Y-113226137D01*
X144201261Y-113250147D01*
X144197442Y-113259076D01*
X144197441Y-113259080D01*
X144177811Y-113370404D01*
X144177811Y-113401000D01*
X144158904Y-113459191D01*
X144109404Y-113495155D01*
X144078811Y-113500000D01*
X143923594Y-113500000D01*
X143865403Y-113481093D01*
X143829439Y-113431593D01*
X143825254Y-113412413D01*
X143813413Y-113310314D01*
X143795917Y-113251684D01*
X143751890Y-113159856D01*
X143743698Y-113147988D01*
X143732613Y-113126868D01*
X143715727Y-113082346D01*
X143710018Y-113059180D01*
X143704281Y-113011926D01*
X143704281Y-112988073D01*
X143710018Y-112940814D01*
X143715729Y-112917645D01*
X143732608Y-112873140D01*
X143743699Y-112852008D01*
X143743701Y-112852006D01*
X143770741Y-112812830D01*
X143786566Y-112794968D01*
X143822194Y-112763404D01*
X143841828Y-112749852D01*
X143883985Y-112727726D01*
X143906286Y-112719269D01*
X143952512Y-112707875D01*
X143976198Y-112705000D01*
X144023800Y-112705000D01*
X144047491Y-112707877D01*
G37*
%TD.AperFunction*%
%TA.AperFunction,Conductor*%
G36*
X148047491Y-112707877D02*
G01*
X148081640Y-112716293D01*
X148093700Y-112719266D01*
X148116014Y-112727727D01*
X148158168Y-112749851D01*
X148177802Y-112763403D01*
X148213439Y-112794975D01*
X148229258Y-112812831D01*
X148234948Y-112821075D01*
X148256297Y-112852006D01*
X148267386Y-112873133D01*
X148284268Y-112917645D01*
X148289980Y-112940821D01*
X148295716Y-112988068D01*
X148295716Y-113011932D01*
X148289979Y-113059182D01*
X148284268Y-113082355D01*
X148267388Y-113126864D01*
X148256299Y-113147993D01*
X148251054Y-113155593D01*
X148248109Y-113159859D01*
X148224209Y-113200492D01*
X148211529Y-113226137D01*
X148201261Y-113250147D01*
X148197442Y-113259076D01*
X148197441Y-113259080D01*
X148177811Y-113370404D01*
X148177811Y-113401000D01*
X148158904Y-113459191D01*
X148109404Y-113495155D01*
X148078811Y-113500000D01*
X147923594Y-113500000D01*
X147865403Y-113481093D01*
X147829439Y-113431593D01*
X147825254Y-113412413D01*
X147813413Y-113310314D01*
X147795917Y-113251684D01*
X147751890Y-113159856D01*
X147743698Y-113147988D01*
X147732613Y-113126868D01*
X147715727Y-113082346D01*
X147710018Y-113059180D01*
X147704281Y-113011926D01*
X147704281Y-112988073D01*
X147710018Y-112940814D01*
X147715729Y-112917645D01*
X147732608Y-112873140D01*
X147743699Y-112852008D01*
X147743701Y-112852006D01*
X147770741Y-112812830D01*
X147786566Y-112794968D01*
X147822194Y-112763404D01*
X147841828Y-112749852D01*
X147883985Y-112727726D01*
X147906286Y-112719269D01*
X147952512Y-112707875D01*
X147976198Y-112705000D01*
X148023800Y-112705000D01*
X148047491Y-112707877D01*
G37*
%TD.AperFunction*%
%TA.AperFunction,Conductor*%
G36*
X164482096Y-72018907D02*
G01*
X164518060Y-72068407D01*
X164518060Y-72129593D01*
X164505627Y-72154880D01*
X164340551Y-72396295D01*
X164175082Y-72709894D01*
X164175078Y-72709903D01*
X164046435Y-73040316D01*
X164046433Y-73040321D01*
X163956289Y-73383266D01*
X163956288Y-73383273D01*
X163905827Y-73734232D01*
X163905827Y-73734235D01*
X163895701Y-74088689D01*
X163926045Y-74441970D01*
X163957692Y-74598149D01*
X163996463Y-74789492D01*
X164005848Y-74818377D01*
X164097301Y-75099841D01*
X164106036Y-75126723D01*
X164155896Y-75235901D01*
X164253333Y-75449261D01*
X164253334Y-75449262D01*
X164253336Y-75449266D01*
X164420566Y-75726586D01*
X164436443Y-75752915D01*
X164436450Y-75752925D01*
X164652968Y-76033710D01*
X164652971Y-76033713D01*
X164900099Y-76288001D01*
X165009699Y-76377620D01*
X165174595Y-76512455D01*
X165472891Y-76704159D01*
X165791096Y-76860609D01*
X166125061Y-76979768D01*
X166470432Y-77060080D01*
X166822707Y-77100500D01*
X166822711Y-77100500D01*
X167088571Y-77100500D01*
X167088576Y-77100500D01*
X167354008Y-77085322D01*
X167703400Y-77024857D01*
X168043623Y-76924959D01*
X168370241Y-76786929D01*
X168678995Y-76612568D01*
X168842809Y-76493550D01*
X168901000Y-76474642D01*
X168959190Y-76493549D01*
X168995154Y-76543049D01*
X169000000Y-76573642D01*
X169000000Y-101695209D01*
X168981093Y-101753400D01*
X168931593Y-101789364D01*
X168870407Y-101789364D01*
X168834580Y-101766976D01*
X168834489Y-101767097D01*
X168833107Y-101766055D01*
X168829787Y-101763981D01*
X168828271Y-101762411D01*
X168828264Y-101762406D01*
X168728458Y-101709339D01*
X168728457Y-101709338D01*
X168728454Y-101709337D01*
X168684972Y-101695209D01*
X168670258Y-101690428D01*
X168569684Y-101674500D01*
X168569680Y-101674500D01*
X166557246Y-101674500D01*
X166557245Y-101674500D01*
X166485862Y-101682422D01*
X166443517Y-101691940D01*
X166443502Y-101691944D01*
X166385956Y-101710643D01*
X166385952Y-101710645D01*
X166291511Y-101772762D01*
X166291507Y-101772765D01*
X166247005Y-101814753D01*
X166190396Y-101885499D01*
X166190395Y-101885500D01*
X166189392Y-101888161D01*
X166187616Y-101890378D01*
X166186542Y-101892266D01*
X166186242Y-101892095D01*
X166151160Y-101935931D01*
X166092152Y-101952105D01*
X166073937Y-101949545D01*
X166049650Y-101943789D01*
X166031552Y-101939500D01*
X164801871Y-101939500D01*
X164737468Y-101947027D01*
X164673063Y-101954555D01*
X164673058Y-101954557D01*
X164510403Y-102013759D01*
X164510393Y-102013764D01*
X164365780Y-102108877D01*
X164365775Y-102108882D01*
X164246987Y-102234790D01*
X164246983Y-102234795D01*
X164160434Y-102384701D01*
X164160433Y-102384702D01*
X164110785Y-102550534D01*
X164110784Y-102550541D01*
X164100719Y-102723345D01*
X164130779Y-102893821D01*
X164130780Y-102893826D01*
X164199339Y-103052763D01*
X164199347Y-103052776D01*
X164302708Y-103191616D01*
X164302714Y-103191622D01*
X164435316Y-103302888D01*
X164435317Y-103302888D01*
X164435319Y-103302890D01*
X164590010Y-103380579D01*
X164603266Y-103383720D01*
X164655527Y-103415538D01*
X164679106Y-103471997D01*
X164678215Y-103495538D01*
X164674500Y-103518995D01*
X164674500Y-103519000D01*
X164674500Y-104110000D01*
X164674500Y-109890002D01*
X164674500Y-110481000D01*
X164676007Y-110500154D01*
X164677242Y-110515836D01*
X164662958Y-110575331D01*
X164616432Y-110615067D01*
X164612408Y-110616632D01*
X164510403Y-110653759D01*
X164510393Y-110653764D01*
X164365780Y-110748877D01*
X164365775Y-110748882D01*
X164246987Y-110874790D01*
X164246983Y-110874795D01*
X164160434Y-111024701D01*
X164160433Y-111024702D01*
X164110785Y-111190534D01*
X164110784Y-111190541D01*
X164100719Y-111363345D01*
X164130779Y-111533821D01*
X164130780Y-111533826D01*
X164199339Y-111692763D01*
X164199347Y-111692776D01*
X164302708Y-111831616D01*
X164302714Y-111831622D01*
X164439736Y-111946597D01*
X164437991Y-111948675D01*
X164469414Y-111987952D01*
X164472254Y-112049072D01*
X164446785Y-112092887D01*
X163394170Y-113145504D01*
X163339653Y-113173281D01*
X163324166Y-113174500D01*
X158478074Y-113174500D01*
X158419883Y-113155593D01*
X158383919Y-113106093D01*
X158383919Y-113044907D01*
X158386610Y-113037614D01*
X158426588Y-112941099D01*
X158445164Y-112800000D01*
X158444501Y-112794967D01*
X158433036Y-112707877D01*
X158426588Y-112658901D01*
X158372126Y-112527418D01*
X158285489Y-112414511D01*
X158172582Y-112327874D01*
X158172581Y-112327873D01*
X158172579Y-112327872D01*
X158041103Y-112273413D01*
X158041095Y-112273411D01*
X157900001Y-112254836D01*
X157899999Y-112254836D01*
X157758904Y-112273411D01*
X157758896Y-112273413D01*
X157627420Y-112327872D01*
X157514512Y-112414510D01*
X157514510Y-112414512D01*
X157427872Y-112527420D01*
X157373413Y-112658896D01*
X157373411Y-112658904D01*
X157354836Y-112799999D01*
X157354836Y-112800000D01*
X157371803Y-112928884D01*
X157373412Y-112941099D01*
X157397810Y-113000000D01*
X157413390Y-113037614D01*
X157418191Y-113098611D01*
X157386221Y-113150780D01*
X157329693Y-113174195D01*
X157321926Y-113174500D01*
X153181003Y-113174500D01*
X153136840Y-113182002D01*
X153134097Y-113182390D01*
X153011084Y-113196250D01*
X152988916Y-113196250D01*
X152922630Y-113188782D01*
X152901016Y-113183848D01*
X152838062Y-113161819D01*
X152818089Y-113152201D01*
X152761607Y-113116711D01*
X152744275Y-113102889D01*
X152697106Y-113055721D01*
X152683288Y-113038394D01*
X152647796Y-112981910D01*
X152638182Y-112961946D01*
X152624921Y-112924046D01*
X152593299Y-112858381D01*
X152569859Y-112821075D01*
X152524410Y-112764084D01*
X151497639Y-111737313D01*
X151448309Y-111696829D01*
X151448302Y-111696824D01*
X151416198Y-111675373D01*
X151416188Y-111675367D01*
X151359941Y-111645303D01*
X151359929Y-111645297D01*
X151359923Y-111645294D01*
X151359918Y-111645291D01*
X151359914Y-111645290D01*
X150542758Y-111306812D01*
X150481681Y-111288286D01*
X150443805Y-111280753D01*
X150443800Y-111280752D01*
X150380315Y-111274500D01*
X150380308Y-111274500D01*
X133119692Y-111274500D01*
X133119685Y-111274500D01*
X133056210Y-111280751D01*
X133056185Y-111280755D01*
X133018318Y-111288286D01*
X132957240Y-111306812D01*
X132140081Y-111645291D01*
X132140054Y-111645304D01*
X132083807Y-111675368D01*
X132083797Y-111675374D01*
X132051696Y-111696823D01*
X132051695Y-111696824D01*
X132002368Y-111737305D01*
X131020348Y-112719325D01*
X131015841Y-112724000D01*
X130954999Y-112812737D01*
X130954997Y-112812740D01*
X130954997Y-112812741D01*
X130951123Y-112821078D01*
X130929213Y-112868230D01*
X130901277Y-112966146D01*
X130901274Y-112966159D01*
X130889979Y-113059183D01*
X130884268Y-113082355D01*
X130867390Y-113126859D01*
X130856298Y-113147992D01*
X130829259Y-113187164D01*
X130813433Y-113205028D01*
X130777808Y-113236589D01*
X130758166Y-113250147D01*
X130716015Y-113272269D01*
X130693704Y-113280730D01*
X130647493Y-113292122D01*
X130623797Y-113295000D01*
X130579500Y-113295000D01*
X130551130Y-113296239D01*
X130441938Y-113325497D01*
X130441935Y-113325498D01*
X130397524Y-113356596D01*
X130340740Y-113374500D01*
X124099000Y-113374500D01*
X124040809Y-113355593D01*
X124004845Y-113306093D01*
X124000000Y-113275500D01*
X124000000Y-103600001D01*
X127154796Y-103600001D01*
X127173543Y-103754405D01*
X127173544Y-103754406D01*
X127228701Y-103899843D01*
X127228702Y-103899845D01*
X127317053Y-104027844D01*
X127317058Y-104027850D01*
X127433477Y-104130989D01*
X127433480Y-104130991D01*
X127433482Y-104130992D01*
X127571208Y-104203276D01*
X127722229Y-104240500D01*
X127722233Y-104240500D01*
X127877767Y-104240500D01*
X127877771Y-104240500D01*
X128028792Y-104203276D01*
X128166518Y-104130992D01*
X128166520Y-104130989D01*
X128166522Y-104130989D01*
X128282941Y-104027850D01*
X128282946Y-104027844D01*
X128371297Y-103899845D01*
X128371300Y-103899841D01*
X128426456Y-103754407D01*
X128445204Y-103600000D01*
X128435562Y-103520593D01*
X128426456Y-103445594D01*
X128426456Y-103445593D01*
X128371300Y-103300159D01*
X128336330Y-103249496D01*
X128282946Y-103172155D01*
X128282941Y-103172149D01*
X128166522Y-103069010D01*
X128028790Y-102996723D01*
X127877774Y-102959500D01*
X127877771Y-102959500D01*
X127722229Y-102959500D01*
X127722225Y-102959500D01*
X127571209Y-102996723D01*
X127433477Y-103069010D01*
X127317058Y-103172149D01*
X127317053Y-103172155D01*
X127228702Y-103300154D01*
X127228701Y-103300156D01*
X127173544Y-103445593D01*
X127173543Y-103445594D01*
X127154796Y-103599998D01*
X127154796Y-103600001D01*
X124000000Y-103600001D01*
X124000000Y-97324500D01*
X124579336Y-97324500D01*
X124593208Y-97429874D01*
X124597912Y-97465599D01*
X124631964Y-97547807D01*
X124639500Y-97585693D01*
X124639500Y-101052342D01*
X124637393Y-101072656D01*
X124634827Y-101084894D01*
X124639120Y-101119334D01*
X124639500Y-101125462D01*
X124639500Y-101129874D01*
X124643189Y-101151981D01*
X124649709Y-101204288D01*
X124651864Y-101211526D01*
X124654317Y-101218672D01*
X124679406Y-101265032D01*
X124702549Y-101312372D01*
X124706954Y-101318541D01*
X124711582Y-101324487D01*
X124750364Y-101360188D01*
X125711393Y-102321217D01*
X125724268Y-102337073D01*
X125731104Y-102347536D01*
X125756400Y-102367224D01*
X125758483Y-102368846D01*
X125763080Y-102372905D01*
X125766211Y-102376035D01*
X125766212Y-102376036D01*
X125784461Y-102389065D01*
X125826048Y-102421434D01*
X125826050Y-102421434D01*
X125832712Y-102425040D01*
X125839479Y-102428348D01*
X125839480Y-102428348D01*
X125839481Y-102428349D01*
X125890008Y-102443391D01*
X125939843Y-102460500D01*
X125939847Y-102460500D01*
X125947307Y-102461745D01*
X125954786Y-102462677D01*
X125954793Y-102462679D01*
X126007476Y-102460500D01*
X128509668Y-102460500D01*
X128567859Y-102479407D01*
X128579672Y-102489496D01*
X128810504Y-102720328D01*
X128838281Y-102774845D01*
X128839500Y-102790332D01*
X128839500Y-110148514D01*
X128820593Y-110206705D01*
X128818378Y-110209300D01*
X128818461Y-110209364D01*
X128814512Y-110214510D01*
X128814511Y-110214511D01*
X128772694Y-110269008D01*
X128727872Y-110327420D01*
X128673413Y-110458896D01*
X128673411Y-110458904D01*
X128654836Y-110599999D01*
X128654836Y-110600000D01*
X128673411Y-110741095D01*
X128673413Y-110741103D01*
X128727872Y-110872579D01*
X128727873Y-110872581D01*
X128727874Y-110872582D01*
X128814511Y-110985489D01*
X128927418Y-111072126D01*
X128927419Y-111072126D01*
X128927420Y-111072127D01*
X129009622Y-111106176D01*
X129058901Y-111126588D01*
X129164725Y-111140520D01*
X129199999Y-111145164D01*
X129200000Y-111145164D01*
X129200001Y-111145164D01*
X129228219Y-111141448D01*
X129341099Y-111126588D01*
X129472582Y-111072126D01*
X129585489Y-110985489D01*
X129672126Y-110872582D01*
X129702190Y-110800001D01*
X152254796Y-110800001D01*
X152273543Y-110954405D01*
X152273544Y-110954407D01*
X152328700Y-111099841D01*
X152328701Y-111099843D01*
X152328702Y-111099845D01*
X152417053Y-111227844D01*
X152417058Y-111227850D01*
X152533477Y-111330989D01*
X152533480Y-111330991D01*
X152533482Y-111330992D01*
X152671208Y-111403276D01*
X152822229Y-111440500D01*
X152822233Y-111440500D01*
X152977767Y-111440500D01*
X152977771Y-111440500D01*
X153128792Y-111403276D01*
X153266518Y-111330992D01*
X153266520Y-111330989D01*
X153266522Y-111330989D01*
X153382941Y-111227850D01*
X153382946Y-111227844D01*
X153471297Y-111099845D01*
X153471300Y-111099841D01*
X153526456Y-110954407D01*
X153545204Y-110800001D01*
X154354796Y-110800001D01*
X154373543Y-110954405D01*
X154373544Y-110954407D01*
X154428700Y-111099841D01*
X154428701Y-111099843D01*
X154428702Y-111099845D01*
X154517053Y-111227844D01*
X154517058Y-111227850D01*
X154633477Y-111330989D01*
X154633480Y-111330991D01*
X154633482Y-111330992D01*
X154771208Y-111403276D01*
X154922229Y-111440500D01*
X154922233Y-111440500D01*
X155077767Y-111440500D01*
X155077771Y-111440500D01*
X155228792Y-111403276D01*
X155366518Y-111330992D01*
X155366520Y-111330989D01*
X155366522Y-111330989D01*
X155482941Y-111227850D01*
X155482946Y-111227844D01*
X155571297Y-111099845D01*
X155571300Y-111099841D01*
X155626456Y-110954407D01*
X155645204Y-110800000D01*
X155626456Y-110645593D01*
X155571300Y-110500159D01*
X155568232Y-110495714D01*
X155482946Y-110372155D01*
X155482941Y-110372149D01*
X155366522Y-110269010D01*
X155228790Y-110196723D01*
X155077774Y-110159500D01*
X155077771Y-110159500D01*
X154922229Y-110159500D01*
X154922225Y-110159500D01*
X154771209Y-110196723D01*
X154633477Y-110269010D01*
X154517058Y-110372149D01*
X154517053Y-110372155D01*
X154428702Y-110500154D01*
X154428701Y-110500156D01*
X154373544Y-110645593D01*
X154373543Y-110645594D01*
X154354796Y-110799998D01*
X154354796Y-110800001D01*
X153545204Y-110800001D01*
X153545204Y-110800000D01*
X153526456Y-110645593D01*
X153471300Y-110500159D01*
X153468232Y-110495714D01*
X153382946Y-110372155D01*
X153382941Y-110372149D01*
X153266522Y-110269010D01*
X153128790Y-110196723D01*
X152977774Y-110159500D01*
X152977771Y-110159500D01*
X152822229Y-110159500D01*
X152822225Y-110159500D01*
X152671209Y-110196723D01*
X152533477Y-110269010D01*
X152417058Y-110372149D01*
X152417053Y-110372155D01*
X152328702Y-110500154D01*
X152328701Y-110500156D01*
X152273544Y-110645593D01*
X152273543Y-110645594D01*
X152254796Y-110799998D01*
X152254796Y-110800001D01*
X129702190Y-110800001D01*
X129726588Y-110741099D01*
X129745164Y-110600000D01*
X129726588Y-110458901D01*
X129702349Y-110400383D01*
X129672127Y-110327420D01*
X129672126Y-110327419D01*
X129672126Y-110327418D01*
X129585489Y-110214511D01*
X129585487Y-110214509D01*
X129581539Y-110209364D01*
X129583894Y-110207556D01*
X129561706Y-110163917D01*
X129560500Y-110148514D01*
X129560500Y-102651485D01*
X129579407Y-102593294D01*
X129581621Y-102590701D01*
X129581538Y-102590637D01*
X129585487Y-102585490D01*
X129585489Y-102585489D01*
X129672126Y-102472582D01*
X129726588Y-102341099D01*
X129745164Y-102200000D01*
X129726588Y-102058901D01*
X129672126Y-101927418D01*
X129585489Y-101814511D01*
X129472582Y-101727874D01*
X129472581Y-101727873D01*
X129472579Y-101727872D01*
X129341103Y-101673413D01*
X129341095Y-101673411D01*
X129200001Y-101654836D01*
X129199999Y-101654836D01*
X129058904Y-101673411D01*
X129058901Y-101673411D01*
X129058901Y-101673412D01*
X129042673Y-101680134D01*
X128927415Y-101727875D01*
X128907698Y-101743004D01*
X128850021Y-101763426D01*
X128819188Y-101759345D01*
X128814316Y-101757895D01*
X128809987Y-101756606D01*
X128793889Y-101751079D01*
X128760156Y-101739499D01*
X128752685Y-101738253D01*
X128745207Y-101737321D01*
X128745206Y-101737321D01*
X128692534Y-101739500D01*
X126190332Y-101739500D01*
X126132141Y-101720593D01*
X126120328Y-101710504D01*
X125389496Y-100979672D01*
X125361719Y-100925155D01*
X125360500Y-100909668D01*
X125360500Y-100783890D01*
X126446372Y-100783890D01*
X126476808Y-100956503D01*
X126476809Y-100956506D01*
X126476810Y-100956509D01*
X126522577Y-101062609D01*
X126546234Y-101117452D01*
X126650902Y-101258046D01*
X126650904Y-101258048D01*
X126785170Y-101370711D01*
X126785171Y-101370711D01*
X126785173Y-101370713D01*
X126941808Y-101449378D01*
X126941813Y-101449379D01*
X126941817Y-101449381D01*
X127112360Y-101489800D01*
X127112361Y-101489800D01*
X127243662Y-101489800D01*
X127243667Y-101489800D01*
X127374093Y-101474555D01*
X127538800Y-101414607D01*
X127685243Y-101318290D01*
X127805526Y-101190797D01*
X127818541Y-101168255D01*
X127893163Y-101039006D01*
X127893163Y-101039004D01*
X127893165Y-101039002D01*
X127943435Y-100871088D01*
X127950885Y-100743189D01*
X127953627Y-100696109D01*
X127953627Y-100696106D01*
X127923191Y-100523496D01*
X127923190Y-100523495D01*
X127923190Y-100523491D01*
X127853766Y-100362548D01*
X127749097Y-100221953D01*
X127749095Y-100221951D01*
X127614829Y-100109288D01*
X127614143Y-100108943D01*
X127458192Y-100030622D01*
X127458188Y-100030621D01*
X127458182Y-100030618D01*
X127287640Y-99990200D01*
X127287639Y-99990200D01*
X127156333Y-99990200D01*
X127025907Y-100005445D01*
X127025904Y-100005445D01*
X127025904Y-100005446D01*
X126861197Y-100065394D01*
X126714762Y-100161705D01*
X126714757Y-100161710D01*
X126594477Y-100289199D01*
X126594470Y-100289207D01*
X126506836Y-100440993D01*
X126456565Y-100608908D01*
X126456564Y-100608916D01*
X126446372Y-100783890D01*
X125360500Y-100783890D01*
X125360500Y-97873517D01*
X125379407Y-97815326D01*
X125399231Y-97794976D01*
X125509989Y-97709989D01*
X125596626Y-97597082D01*
X125651088Y-97465599D01*
X125669664Y-97324500D01*
X125651088Y-97183401D01*
X125640940Y-97158901D01*
X125596627Y-97051920D01*
X125596626Y-97051919D01*
X125596626Y-97051918D01*
X125509989Y-96939011D01*
X125397082Y-96852374D01*
X125397081Y-96852373D01*
X125397079Y-96852372D01*
X125265603Y-96797913D01*
X125265595Y-96797911D01*
X125124501Y-96779336D01*
X125124499Y-96779336D01*
X124983404Y-96797911D01*
X124983396Y-96797913D01*
X124851920Y-96852372D01*
X124739012Y-96939010D01*
X124739010Y-96939012D01*
X124652372Y-97051920D01*
X124597913Y-97183396D01*
X124597911Y-97183404D01*
X124579336Y-97324499D01*
X124579336Y-97324500D01*
X124000000Y-97324500D01*
X124000000Y-95859500D01*
X124018907Y-95801309D01*
X124068407Y-95765345D01*
X124099000Y-95760500D01*
X124152343Y-95760500D01*
X124172657Y-95762606D01*
X124184896Y-95765173D01*
X124219337Y-95760879D01*
X124225463Y-95760500D01*
X124229870Y-95760500D01*
X124229873Y-95760500D01*
X124246454Y-95757732D01*
X124251982Y-95756810D01*
X124267819Y-95754836D01*
X124304286Y-95750291D01*
X124304290Y-95750288D01*
X124311557Y-95748125D01*
X124318671Y-95745682D01*
X124318673Y-95745682D01*
X124365032Y-95720593D01*
X124399199Y-95703890D01*
X125430372Y-95703890D01*
X125460808Y-95876503D01*
X125460809Y-95876506D01*
X125460810Y-95876509D01*
X125525996Y-96027627D01*
X125530234Y-96037452D01*
X125634902Y-96178046D01*
X125634904Y-96178048D01*
X125769170Y-96290711D01*
X125769171Y-96290711D01*
X125769173Y-96290713D01*
X125925808Y-96369378D01*
X125925813Y-96369379D01*
X125925817Y-96369381D01*
X126096360Y-96409800D01*
X126096361Y-96409800D01*
X126227662Y-96409800D01*
X126227667Y-96409800D01*
X126358093Y-96394555D01*
X126522800Y-96334607D01*
X126669243Y-96238290D01*
X126789526Y-96110797D01*
X126789995Y-96109985D01*
X126877163Y-95959006D01*
X126877163Y-95959004D01*
X126877165Y-95959002D01*
X126927435Y-95791088D01*
X126934140Y-95675980D01*
X126937627Y-95616109D01*
X126937627Y-95616106D01*
X126907191Y-95443496D01*
X126907190Y-95443495D01*
X126907190Y-95443491D01*
X126837766Y-95282548D01*
X126733097Y-95141953D01*
X126733095Y-95141951D01*
X126598829Y-95029288D01*
X126593150Y-95026436D01*
X126442192Y-94950622D01*
X126442188Y-94950621D01*
X126442182Y-94950618D01*
X126271640Y-94910200D01*
X126271639Y-94910200D01*
X126140333Y-94910200D01*
X126009907Y-94925445D01*
X126009904Y-94925445D01*
X126009904Y-94925446D01*
X125845197Y-94985394D01*
X125698762Y-95081705D01*
X125698757Y-95081710D01*
X125578477Y-95209199D01*
X125578470Y-95209207D01*
X125490836Y-95360993D01*
X125440565Y-95528908D01*
X125440564Y-95528916D01*
X125430372Y-95703890D01*
X124399199Y-95703890D01*
X124412375Y-95697449D01*
X124412380Y-95697443D01*
X124418532Y-95693052D01*
X124424483Y-95688420D01*
X124424486Y-95688419D01*
X124460188Y-95649635D01*
X126920328Y-93189496D01*
X126974845Y-93161719D01*
X126990332Y-93160500D01*
X127552343Y-93160500D01*
X127572657Y-93162606D01*
X127584896Y-93165173D01*
X127619337Y-93160879D01*
X127625463Y-93160500D01*
X127629870Y-93160500D01*
X127629873Y-93160500D01*
X127646454Y-93157732D01*
X127651982Y-93156810D01*
X127665057Y-93155180D01*
X127704286Y-93150291D01*
X127704290Y-93150288D01*
X127711557Y-93148125D01*
X127718671Y-93145682D01*
X127718673Y-93145682D01*
X127765032Y-93120593D01*
X127812375Y-93097449D01*
X127812380Y-93097443D01*
X127818532Y-93093052D01*
X127824483Y-93088420D01*
X127824486Y-93088419D01*
X127860188Y-93049635D01*
X128201220Y-92708602D01*
X128217071Y-92695732D01*
X128227536Y-92688896D01*
X128248856Y-92661503D01*
X128252913Y-92656910D01*
X128256035Y-92653789D01*
X128266533Y-92639085D01*
X128269062Y-92635543D01*
X128294644Y-92602675D01*
X128337005Y-92571167D01*
X128468160Y-92520358D01*
X128639989Y-92413966D01*
X128673805Y-92383138D01*
X128729545Y-92357908D01*
X128789470Y-92370260D01*
X128830691Y-92415476D01*
X128839500Y-92456300D01*
X128839500Y-94992078D01*
X128820593Y-95050269D01*
X128771093Y-95086233D01*
X128709907Y-95086233D01*
X128676864Y-95067916D01*
X128630829Y-95029288D01*
X128625150Y-95026436D01*
X128474192Y-94950622D01*
X128474188Y-94950621D01*
X128474182Y-94950618D01*
X128303640Y-94910200D01*
X128303639Y-94910200D01*
X128172333Y-94910200D01*
X128041907Y-94925445D01*
X128041904Y-94925445D01*
X128041904Y-94925446D01*
X127877197Y-94985394D01*
X127730762Y-95081705D01*
X127730757Y-95081710D01*
X127610477Y-95209199D01*
X127610470Y-95209207D01*
X127522836Y-95360993D01*
X127472565Y-95528908D01*
X127472564Y-95528916D01*
X127462372Y-95703890D01*
X127492808Y-95876503D01*
X127492809Y-95876506D01*
X127492810Y-95876509D01*
X127557996Y-96027627D01*
X127562234Y-96037452D01*
X127666902Y-96178046D01*
X127666904Y-96178048D01*
X127801170Y-96290711D01*
X127801171Y-96290711D01*
X127801173Y-96290713D01*
X127957808Y-96369378D01*
X127957813Y-96369379D01*
X127957817Y-96369381D01*
X128128360Y-96409800D01*
X128128361Y-96409800D01*
X128259662Y-96409800D01*
X128259667Y-96409800D01*
X128390093Y-96394555D01*
X128554800Y-96334607D01*
X128697900Y-96240488D01*
X128756905Y-96224309D01*
X128814154Y-96245903D01*
X128847776Y-96297023D01*
X128848235Y-96299336D01*
X128851864Y-96311526D01*
X128854317Y-96318672D01*
X128879406Y-96365032D01*
X128902549Y-96412372D01*
X128906954Y-96418541D01*
X128911580Y-96424485D01*
X128911581Y-96424486D01*
X128950364Y-96460188D01*
X129753479Y-97263303D01*
X129781255Y-97317818D01*
X129771684Y-97378250D01*
X129728419Y-97421515D01*
X129667987Y-97431086D01*
X129645589Y-97424769D01*
X129521604Y-97373413D01*
X129521595Y-97373411D01*
X129380501Y-97354836D01*
X129380499Y-97354836D01*
X129239404Y-97373411D01*
X129239396Y-97373413D01*
X129107920Y-97427872D01*
X128995012Y-97514510D01*
X128995010Y-97514512D01*
X128908372Y-97627420D01*
X128853913Y-97758896D01*
X128853911Y-97758904D01*
X128835336Y-97899999D01*
X128835336Y-97900000D01*
X128853911Y-98041095D01*
X128853913Y-98041103D01*
X128908372Y-98172579D01*
X128908373Y-98172581D01*
X128908374Y-98172582D01*
X128995011Y-98285489D01*
X129107918Y-98372126D01*
X129107919Y-98372126D01*
X129107920Y-98372127D01*
X129177925Y-98401124D01*
X129239401Y-98426588D01*
X129380500Y-98445164D01*
X129386934Y-98446011D01*
X129386544Y-98448969D01*
X129433023Y-98464071D01*
X129444836Y-98474160D01*
X130310504Y-99339828D01*
X130338281Y-99394345D01*
X130339500Y-99409832D01*
X130339500Y-104652342D01*
X130337393Y-104672656D01*
X130334827Y-104684896D01*
X130337355Y-104705173D01*
X130339120Y-104719334D01*
X130339500Y-104725462D01*
X130339500Y-104729874D01*
X130343189Y-104751981D01*
X130349709Y-104804288D01*
X130351864Y-104811526D01*
X130354317Y-104818672D01*
X130379406Y-104865032D01*
X130402549Y-104912372D01*
X130406954Y-104918541D01*
X130411582Y-104924487D01*
X130450364Y-104960188D01*
X133711393Y-108221217D01*
X133724268Y-108237073D01*
X133731104Y-108247536D01*
X133756400Y-108267224D01*
X133758483Y-108268846D01*
X133763080Y-108272905D01*
X133766211Y-108276035D01*
X133766212Y-108276036D01*
X133784461Y-108289065D01*
X133826048Y-108321434D01*
X133826050Y-108321434D01*
X133832712Y-108325040D01*
X133839479Y-108328348D01*
X133839480Y-108328348D01*
X133839481Y-108328349D01*
X133890008Y-108343391D01*
X133939843Y-108360500D01*
X133939847Y-108360500D01*
X133947307Y-108361745D01*
X133954787Y-108362677D01*
X133954793Y-108362679D01*
X134005373Y-108360586D01*
X134007466Y-108360500D01*
X147809668Y-108360500D01*
X147867859Y-108379407D01*
X147879672Y-108389496D01*
X148125840Y-108635664D01*
X148153617Y-108690181D01*
X148153884Y-108693580D01*
X148153989Y-108693567D01*
X148173411Y-108841095D01*
X148173413Y-108841103D01*
X148227872Y-108972579D01*
X148227873Y-108972581D01*
X148227874Y-108972582D01*
X148314511Y-109085489D01*
X148427418Y-109172126D01*
X148427419Y-109172126D01*
X148427420Y-109172127D01*
X148558896Y-109226586D01*
X148558901Y-109226588D01*
X148664725Y-109240520D01*
X148699999Y-109245164D01*
X148700000Y-109245164D01*
X148700001Y-109245164D01*
X148728219Y-109241448D01*
X148841099Y-109226588D01*
X148905288Y-109200000D01*
X155854836Y-109200000D01*
X155873411Y-109341095D01*
X155873413Y-109341103D01*
X155927872Y-109472579D01*
X155927873Y-109472581D01*
X155927874Y-109472582D01*
X156014511Y-109585489D01*
X156127418Y-109672126D01*
X156258901Y-109726588D01*
X156364725Y-109740520D01*
X156399999Y-109745164D01*
X156400000Y-109745164D01*
X156400001Y-109745164D01*
X156428219Y-109741448D01*
X156541099Y-109726588D01*
X156672582Y-109672126D01*
X156785489Y-109585489D01*
X156785490Y-109585487D01*
X156790636Y-109581539D01*
X156792452Y-109583906D01*
X156835998Y-109561719D01*
X156851485Y-109560500D01*
X157409668Y-109560500D01*
X157467859Y-109579407D01*
X157479672Y-109589496D01*
X158610504Y-110720328D01*
X158638281Y-110774845D01*
X158639500Y-110790332D01*
X158639500Y-110848514D01*
X158620593Y-110906705D01*
X158618378Y-110909300D01*
X158618461Y-110909364D01*
X158614512Y-110914510D01*
X158614511Y-110914511D01*
X158583898Y-110954407D01*
X158527872Y-111027420D01*
X158473413Y-111158896D01*
X158473411Y-111158904D01*
X158454836Y-111299999D01*
X158454836Y-111300000D01*
X158473411Y-111441095D01*
X158473413Y-111441103D01*
X158527872Y-111572579D01*
X158527873Y-111572581D01*
X158527874Y-111572582D01*
X158614511Y-111685489D01*
X158727418Y-111772126D01*
X158727419Y-111772126D01*
X158727420Y-111772127D01*
X158858896Y-111826586D01*
X158858901Y-111826588D01*
X158952990Y-111838975D01*
X158999999Y-111845164D01*
X159000000Y-111845164D01*
X159000001Y-111845164D01*
X159047010Y-111838975D01*
X159141099Y-111826588D01*
X159272582Y-111772126D01*
X159385489Y-111685489D01*
X159472126Y-111572582D01*
X159526588Y-111441099D01*
X159545164Y-111300000D01*
X159526588Y-111158901D01*
X159502126Y-111099845D01*
X159472127Y-111027420D01*
X159472126Y-111027419D01*
X159472126Y-111027418D01*
X159385489Y-110914511D01*
X159385487Y-110914509D01*
X159381539Y-110909364D01*
X159383894Y-110907556D01*
X159361706Y-110863917D01*
X159360500Y-110848514D01*
X159360500Y-110647657D01*
X159362607Y-110627341D01*
X159365173Y-110615104D01*
X159360880Y-110580663D01*
X159360500Y-110574536D01*
X159360500Y-110570129D01*
X159356810Y-110548017D01*
X159354803Y-110531915D01*
X159350291Y-110495714D01*
X159350287Y-110495707D01*
X159348137Y-110488483D01*
X159345683Y-110481334D01*
X159345682Y-110481327D01*
X159320593Y-110434967D01*
X159297449Y-110387625D01*
X159297446Y-110387622D01*
X159293050Y-110381465D01*
X159288419Y-110375514D01*
X159249635Y-110339811D01*
X158409825Y-109500001D01*
X163054796Y-109500001D01*
X163073543Y-109654405D01*
X163073544Y-109654407D01*
X163100918Y-109726586D01*
X163128701Y-109799843D01*
X163128702Y-109799845D01*
X163217053Y-109927844D01*
X163217058Y-109927850D01*
X163333477Y-110030989D01*
X163333480Y-110030991D01*
X163333482Y-110030992D01*
X163471208Y-110103276D01*
X163622229Y-110140500D01*
X163622233Y-110140500D01*
X163777767Y-110140500D01*
X163777771Y-110140500D01*
X163928792Y-110103276D01*
X164066518Y-110030992D01*
X164066520Y-110030989D01*
X164066522Y-110030989D01*
X164182941Y-109927850D01*
X164182946Y-109927844D01*
X164271297Y-109799845D01*
X164271300Y-109799841D01*
X164326456Y-109654407D01*
X164345204Y-109500000D01*
X164326456Y-109345593D01*
X164271300Y-109200159D01*
X164271297Y-109200154D01*
X164182946Y-109072155D01*
X164182941Y-109072149D01*
X164066522Y-108969010D01*
X163928790Y-108896723D01*
X163777774Y-108859500D01*
X163777771Y-108859500D01*
X163622229Y-108859500D01*
X163622225Y-108859500D01*
X163471209Y-108896723D01*
X163333477Y-108969010D01*
X163217058Y-109072149D01*
X163217053Y-109072155D01*
X163128702Y-109200154D01*
X163128701Y-109200156D01*
X163073544Y-109345593D01*
X163073543Y-109345594D01*
X163054796Y-109499998D01*
X163054796Y-109500001D01*
X158409825Y-109500001D01*
X157888607Y-108978783D01*
X157875731Y-108962926D01*
X157868896Y-108952464D01*
X157841513Y-108931151D01*
X157836918Y-108927094D01*
X157833789Y-108923965D01*
X157815539Y-108910934D01*
X157797282Y-108896724D01*
X157773951Y-108878565D01*
X157767282Y-108874956D01*
X157760520Y-108871651D01*
X157709987Y-108856606D01*
X157660156Y-108839499D01*
X157652685Y-108838253D01*
X157645207Y-108837321D01*
X157645206Y-108837321D01*
X157592534Y-108839500D01*
X156851485Y-108839500D01*
X156793294Y-108820593D01*
X156790700Y-108818377D01*
X156790636Y-108818461D01*
X156785490Y-108814512D01*
X156785489Y-108814511D01*
X156672582Y-108727874D01*
X156672581Y-108727873D01*
X156672579Y-108727872D01*
X156541103Y-108673413D01*
X156541095Y-108673411D01*
X156400001Y-108654836D01*
X156399999Y-108654836D01*
X156258904Y-108673411D01*
X156258896Y-108673413D01*
X156127420Y-108727872D01*
X156014512Y-108814510D01*
X156014510Y-108814512D01*
X155927872Y-108927420D01*
X155873413Y-109058896D01*
X155873411Y-109058904D01*
X155854836Y-109199999D01*
X155854836Y-109200000D01*
X148905288Y-109200000D01*
X148972582Y-109172126D01*
X149085489Y-109085489D01*
X149085490Y-109085487D01*
X149090636Y-109081539D01*
X149092452Y-109083906D01*
X149135998Y-109061719D01*
X149151485Y-109060500D01*
X149752343Y-109060500D01*
X149772657Y-109062606D01*
X149784896Y-109065173D01*
X149819337Y-109060879D01*
X149825463Y-109060500D01*
X149829870Y-109060500D01*
X149829873Y-109060500D01*
X149846454Y-109057732D01*
X149851982Y-109056810D01*
X149865057Y-109055180D01*
X149904286Y-109050291D01*
X149904290Y-109050288D01*
X149911557Y-109048125D01*
X149918671Y-109045682D01*
X149918673Y-109045682D01*
X149965032Y-109020593D01*
X150012375Y-108997449D01*
X150012380Y-108997443D01*
X150018532Y-108993052D01*
X150024483Y-108988420D01*
X150024486Y-108988419D01*
X150060188Y-108949635D01*
X152535663Y-106474160D01*
X152590180Y-106446383D01*
X152593579Y-106446115D01*
X152593566Y-106446011D01*
X152599999Y-106445163D01*
X152600000Y-106445164D01*
X152741099Y-106426588D01*
X152872582Y-106372126D01*
X152985489Y-106285489D01*
X153072126Y-106172582D01*
X153102190Y-106100000D01*
X162464234Y-106100000D01*
X162482809Y-106241095D01*
X162482811Y-106241103D01*
X162537270Y-106372579D01*
X162537271Y-106372581D01*
X162537272Y-106372582D01*
X162623909Y-106485489D01*
X162623910Y-106485490D01*
X162627860Y-106490637D01*
X162625492Y-106492453D01*
X162647679Y-106535998D01*
X162648898Y-106551485D01*
X162648898Y-107012355D01*
X162629991Y-107070546D01*
X162628459Y-107072597D01*
X162605818Y-107102103D01*
X162586008Y-107127920D01*
X162531549Y-107259396D01*
X162531547Y-107259404D01*
X162512972Y-107400499D01*
X162512972Y-107400500D01*
X162531547Y-107541595D01*
X162531549Y-107541603D01*
X162586008Y-107673079D01*
X162586009Y-107673081D01*
X162586010Y-107673082D01*
X162672647Y-107785989D01*
X162785554Y-107872626D01*
X162917037Y-107927088D01*
X163022861Y-107941020D01*
X163058135Y-107945664D01*
X163058136Y-107945664D01*
X163058137Y-107945664D01*
X163086355Y-107941948D01*
X163199235Y-107927088D01*
X163330718Y-107872626D01*
X163443625Y-107785989D01*
X163530262Y-107673082D01*
X163584724Y-107541599D01*
X163603300Y-107400500D01*
X163584724Y-107259401D01*
X163530262Y-107127918D01*
X163443625Y-107015011D01*
X163439286Y-107011681D01*
X163408629Y-106988157D01*
X163373974Y-106937732D01*
X163369898Y-106909616D01*
X163369898Y-106551485D01*
X163388805Y-106493294D01*
X163391019Y-106490701D01*
X163390936Y-106490637D01*
X163394885Y-106485490D01*
X163394887Y-106485489D01*
X163481524Y-106372582D01*
X163535986Y-106241099D01*
X163554562Y-106100000D01*
X163535986Y-105958901D01*
X163533344Y-105952522D01*
X163481525Y-105827420D01*
X163481524Y-105827419D01*
X163481524Y-105827418D01*
X163394887Y-105714511D01*
X163281980Y-105627874D01*
X163281979Y-105627873D01*
X163281977Y-105627872D01*
X163150501Y-105573413D01*
X163150493Y-105573411D01*
X163009399Y-105554836D01*
X163009397Y-105554836D01*
X162868302Y-105573411D01*
X162868294Y-105573413D01*
X162736818Y-105627872D01*
X162623910Y-105714510D01*
X162623908Y-105714512D01*
X162537270Y-105827420D01*
X162482811Y-105958896D01*
X162482809Y-105958904D01*
X162464234Y-106099999D01*
X162464234Y-106100000D01*
X153102190Y-106100000D01*
X153126588Y-106041099D01*
X153145164Y-105900000D01*
X153126588Y-105758901D01*
X153126586Y-105758896D01*
X153072127Y-105627420D01*
X153072126Y-105627419D01*
X153072126Y-105627418D01*
X152985489Y-105514511D01*
X152872582Y-105427874D01*
X152872581Y-105427873D01*
X152872579Y-105427872D01*
X152741103Y-105373413D01*
X152741095Y-105373411D01*
X152600001Y-105354836D01*
X152599999Y-105354836D01*
X152458904Y-105373411D01*
X152458896Y-105373413D01*
X152327420Y-105427872D01*
X152214512Y-105514510D01*
X152214510Y-105514512D01*
X152127872Y-105627420D01*
X152073413Y-105758896D01*
X152073411Y-105758904D01*
X152053989Y-105906433D01*
X152051030Y-105906043D01*
X152035929Y-105952522D01*
X152025840Y-105964335D01*
X149679672Y-108310504D01*
X149625155Y-108338281D01*
X149609668Y-108339500D01*
X149151485Y-108339500D01*
X149093294Y-108320593D01*
X149090700Y-108318377D01*
X149090636Y-108318461D01*
X149085490Y-108314512D01*
X149085489Y-108314511D01*
X148972582Y-108227874D01*
X148972581Y-108227873D01*
X148972579Y-108227872D01*
X148841103Y-108173413D01*
X148841095Y-108173411D01*
X148693567Y-108153989D01*
X148693956Y-108151030D01*
X148647477Y-108135929D01*
X148635664Y-108125840D01*
X148288607Y-107778783D01*
X148275731Y-107762926D01*
X148268896Y-107752464D01*
X148241513Y-107731151D01*
X148236918Y-107727094D01*
X148233789Y-107723965D01*
X148215539Y-107710934D01*
X148173952Y-107678566D01*
X148173951Y-107678565D01*
X148167282Y-107674956D01*
X148160520Y-107671651D01*
X148109987Y-107656606D01*
X148060156Y-107639499D01*
X148052685Y-107638253D01*
X148045207Y-107637321D01*
X148045206Y-107637321D01*
X147992534Y-107639500D01*
X134190332Y-107639500D01*
X134132141Y-107620593D01*
X134120328Y-107610504D01*
X131913811Y-105403987D01*
X131886034Y-105349470D01*
X131895605Y-105289038D01*
X131938870Y-105245773D01*
X131970890Y-105235831D01*
X132041099Y-105226588D01*
X132172582Y-105172126D01*
X132285489Y-105085489D01*
X132372126Y-104972582D01*
X132426588Y-104841099D01*
X132445164Y-104700000D01*
X132426588Y-104558901D01*
X132412333Y-104524486D01*
X132372127Y-104427420D01*
X132372126Y-104427419D01*
X132372126Y-104427418D01*
X132285489Y-104314511D01*
X132172582Y-104227874D01*
X132172581Y-104227873D01*
X132172579Y-104227872D01*
X132041103Y-104173413D01*
X132041095Y-104173411D01*
X131946578Y-104160968D01*
X131891353Y-104134627D01*
X131862158Y-104080856D01*
X131860500Y-104062815D01*
X131860500Y-98547652D01*
X131862607Y-98527336D01*
X131865172Y-98515104D01*
X131860879Y-98480667D01*
X131860500Y-98474543D01*
X131860500Y-98470126D01*
X131856809Y-98448008D01*
X131856560Y-98446011D01*
X131850291Y-98395714D01*
X131850287Y-98395707D01*
X131848137Y-98388483D01*
X131845683Y-98381334D01*
X131845682Y-98381327D01*
X131820593Y-98334967D01*
X131797449Y-98287625D01*
X131797446Y-98287622D01*
X131793050Y-98281465D01*
X131788419Y-98275514D01*
X131749635Y-98239811D01*
X131637242Y-98127418D01*
X131360307Y-97850483D01*
X131332532Y-97795969D01*
X131342103Y-97735537D01*
X131385368Y-97692272D01*
X131445800Y-97682701D01*
X131468198Y-97689018D01*
X131518827Y-97709989D01*
X131558901Y-97726588D01*
X131664725Y-97740520D01*
X131699999Y-97745164D01*
X131700000Y-97745164D01*
X131700001Y-97745164D01*
X131728219Y-97741448D01*
X131841099Y-97726588D01*
X131972582Y-97672126D01*
X132085489Y-97585489D01*
X132172126Y-97472582D01*
X132226588Y-97341099D01*
X132245164Y-97200000D01*
X132226588Y-97058901D01*
X132196272Y-96985711D01*
X132172127Y-96927420D01*
X132172126Y-96927419D01*
X132172126Y-96927418D01*
X132085489Y-96814511D01*
X132085487Y-96814509D01*
X132081539Y-96809364D01*
X132083894Y-96807556D01*
X132061706Y-96763917D01*
X132060500Y-96748514D01*
X132060500Y-96690331D01*
X132079407Y-96632140D01*
X132089490Y-96620333D01*
X132409823Y-96300000D01*
X134554836Y-96300000D01*
X134573411Y-96441095D01*
X134573413Y-96441103D01*
X134627872Y-96572579D01*
X134627873Y-96572581D01*
X134627874Y-96572582D01*
X134714511Y-96685489D01*
X134827418Y-96772126D01*
X134827419Y-96772126D01*
X134827420Y-96772127D01*
X134958896Y-96826586D01*
X134958901Y-96826588D01*
X135054433Y-96839165D01*
X135099999Y-96845164D01*
X135100000Y-96845164D01*
X135100001Y-96845164D01*
X135128219Y-96841448D01*
X135241099Y-96826588D01*
X135372582Y-96772126D01*
X135485489Y-96685489D01*
X135572126Y-96572582D01*
X135626588Y-96441099D01*
X135645164Y-96300000D01*
X135626588Y-96158901D01*
X135626586Y-96158896D01*
X135572127Y-96027420D01*
X135572126Y-96027419D01*
X135572126Y-96027418D01*
X135485489Y-95914511D01*
X135372582Y-95827874D01*
X135372581Y-95827873D01*
X135372579Y-95827872D01*
X135241103Y-95773413D01*
X135241095Y-95773411D01*
X135100001Y-95754836D01*
X135099999Y-95754836D01*
X134958904Y-95773411D01*
X134958896Y-95773413D01*
X134827420Y-95827872D01*
X134714512Y-95914510D01*
X134714510Y-95914512D01*
X134627872Y-96027420D01*
X134573413Y-96158896D01*
X134573411Y-96158904D01*
X134554836Y-96299999D01*
X134554836Y-96300000D01*
X132409823Y-96300000D01*
X135821220Y-92888602D01*
X135837071Y-92875732D01*
X135847536Y-92868896D01*
X135868850Y-92841511D01*
X135872920Y-92836903D01*
X135876035Y-92833789D01*
X135889065Y-92815539D01*
X135893389Y-92809984D01*
X135921435Y-92773951D01*
X135925039Y-92767290D01*
X135928348Y-92760521D01*
X135928347Y-92760521D01*
X135928349Y-92760520D01*
X135943393Y-92709987D01*
X135960500Y-92660157D01*
X135960500Y-92660152D01*
X135961745Y-92652692D01*
X135962677Y-92645213D01*
X135962679Y-92645207D01*
X135962504Y-92640977D01*
X135978990Y-92582055D01*
X136025655Y-92544571D01*
X136088160Y-92520358D01*
X136259989Y-92413966D01*
X136409342Y-92277813D01*
X136531134Y-92116534D01*
X136621217Y-91935622D01*
X136676525Y-91741237D01*
X136695172Y-91540000D01*
X136676525Y-91338763D01*
X136621217Y-91144378D01*
X136531134Y-90963466D01*
X136409342Y-90802187D01*
X136259989Y-90666034D01*
X136088160Y-90559642D01*
X135899708Y-90486635D01*
X135899707Y-90486634D01*
X135899705Y-90486634D01*
X135701050Y-90449500D01*
X135498950Y-90449500D01*
X135300294Y-90486634D01*
X135265793Y-90500000D01*
X135111840Y-90559642D01*
X134948445Y-90660812D01*
X134940008Y-90666036D01*
X134826195Y-90769790D01*
X134770454Y-90795020D01*
X134710529Y-90782668D01*
X134669309Y-90737451D01*
X134660500Y-90696628D01*
X134660500Y-90287657D01*
X134662607Y-90267341D01*
X134665173Y-90255104D01*
X134660880Y-90220663D01*
X134660500Y-90214536D01*
X134660500Y-90210127D01*
X134656810Y-90188016D01*
X134654886Y-90172581D01*
X134650291Y-90135715D01*
X134650287Y-90135708D01*
X134648131Y-90128463D01*
X134645682Y-90121330D01*
X134645682Y-90121327D01*
X134620594Y-90074969D01*
X134597450Y-90027626D01*
X134597447Y-90027623D01*
X134593054Y-90021469D01*
X134588419Y-90015514D01*
X134549635Y-89979811D01*
X134093100Y-89523275D01*
X134065323Y-89468759D01*
X134074484Y-89409142D01*
X134081217Y-89395622D01*
X134136525Y-89201237D01*
X134155172Y-89000000D01*
X134136525Y-88798763D01*
X134081217Y-88604378D01*
X133991134Y-88423466D01*
X133869342Y-88262187D01*
X133836953Y-88232660D01*
X133806688Y-88179486D01*
X133813459Y-88118676D01*
X133854680Y-88073460D01*
X133903650Y-88060500D01*
X134756350Y-88060500D01*
X134814541Y-88079407D01*
X134850505Y-88128907D01*
X134850505Y-88190093D01*
X134823046Y-88232660D01*
X134795449Y-88257818D01*
X134791864Y-88261088D01*
X134790658Y-88262187D01*
X134788831Y-88264606D01*
X134668867Y-88423464D01*
X134668862Y-88423473D01*
X134578784Y-88604375D01*
X134523475Y-88798761D01*
X134523475Y-88798763D01*
X134504828Y-89000000D01*
X134523475Y-89201237D01*
X134578783Y-89395622D01*
X134668866Y-89576534D01*
X134790658Y-89737813D01*
X134940011Y-89873966D01*
X135111840Y-89980358D01*
X135300292Y-90053365D01*
X135498950Y-90090500D01*
X135701050Y-90090500D01*
X135899708Y-90053365D01*
X136088160Y-89980358D01*
X136259989Y-89873966D01*
X136409342Y-89737813D01*
X136531134Y-89576534D01*
X136621217Y-89395622D01*
X136676525Y-89201237D01*
X136695172Y-89000000D01*
X136676525Y-88798763D01*
X136621217Y-88604378D01*
X136531134Y-88423466D01*
X136409342Y-88262187D01*
X136376953Y-88232660D01*
X136346688Y-88179486D01*
X136353459Y-88118676D01*
X136394680Y-88073460D01*
X136443650Y-88060500D01*
X137296350Y-88060500D01*
X137354541Y-88079407D01*
X137390505Y-88128907D01*
X137390505Y-88190093D01*
X137363046Y-88232660D01*
X137335449Y-88257818D01*
X137331864Y-88261088D01*
X137330658Y-88262187D01*
X137328831Y-88264606D01*
X137208867Y-88423464D01*
X137208862Y-88423473D01*
X137118784Y-88604375D01*
X137063475Y-88798761D01*
X137063475Y-88798763D01*
X137044828Y-89000000D01*
X137063475Y-89201237D01*
X137118783Y-89395622D01*
X137208866Y-89576534D01*
X137330658Y-89737813D01*
X137480011Y-89873966D01*
X137651840Y-89980358D01*
X137840292Y-90053365D01*
X138038950Y-90090500D01*
X138241050Y-90090500D01*
X138439708Y-90053365D01*
X138555301Y-90008582D01*
X138616393Y-90005192D01*
X138661069Y-90030893D01*
X139010504Y-90380328D01*
X139038281Y-90434845D01*
X139039500Y-90450332D01*
X139039500Y-90660164D01*
X139020593Y-90718355D01*
X138971093Y-90754319D01*
X138909907Y-90754319D01*
X138873806Y-90733327D01*
X138799989Y-90666034D01*
X138628160Y-90559642D01*
X138439708Y-90486635D01*
X138439707Y-90486634D01*
X138439705Y-90486634D01*
X138241050Y-90449500D01*
X138038950Y-90449500D01*
X137840294Y-90486634D01*
X137805793Y-90500000D01*
X137651840Y-90559642D01*
X137518939Y-90641931D01*
X137480011Y-90666034D01*
X137330659Y-90802186D01*
X137208867Y-90963464D01*
X137208862Y-90963473D01*
X137118784Y-91144375D01*
X137063475Y-91338761D01*
X137045415Y-91533667D01*
X137044828Y-91540000D01*
X137063475Y-91741237D01*
X137118783Y-91935622D01*
X137208866Y-92116534D01*
X137330658Y-92277813D01*
X137480011Y-92413966D01*
X137651840Y-92520358D01*
X137840292Y-92593365D01*
X138038950Y-92630500D01*
X138241050Y-92630500D01*
X138439708Y-92593365D01*
X138628160Y-92520358D01*
X138799989Y-92413966D01*
X138946014Y-92280846D01*
X139001752Y-92255618D01*
X139061678Y-92267970D01*
X139097380Y-92305982D01*
X139097782Y-92305696D01*
X139099911Y-92308678D01*
X139101646Y-92310525D01*
X139102549Y-92312372D01*
X139106954Y-92318541D01*
X139111582Y-92324487D01*
X139150364Y-92360188D01*
X141511393Y-94721217D01*
X141524268Y-94737073D01*
X141531104Y-94747536D01*
X141556400Y-94767224D01*
X141558483Y-94768846D01*
X141563080Y-94772905D01*
X141566211Y-94776035D01*
X141566212Y-94776036D01*
X141584461Y-94789065D01*
X141626048Y-94821434D01*
X141626050Y-94821434D01*
X141632712Y-94825040D01*
X141639479Y-94828348D01*
X141639480Y-94828348D01*
X141639481Y-94828349D01*
X141690008Y-94843391D01*
X141739843Y-94860500D01*
X141739847Y-94860500D01*
X141747307Y-94861745D01*
X141754786Y-94862677D01*
X141754793Y-94862679D01*
X141807476Y-94860500D01*
X145365160Y-94860500D01*
X145423351Y-94879407D01*
X145435164Y-94889496D01*
X151294341Y-100748673D01*
X151322118Y-100803190D01*
X151315801Y-100856562D01*
X151273413Y-100958895D01*
X151273411Y-100958904D01*
X151254836Y-101099999D01*
X151254836Y-101100000D01*
X151273411Y-101241095D01*
X151273413Y-101241103D01*
X151327872Y-101372579D01*
X151327873Y-101372580D01*
X151327874Y-101372582D01*
X151414511Y-101485489D01*
X151486984Y-101541100D01*
X151489982Y-101543400D01*
X151524638Y-101593824D01*
X151523037Y-101654989D01*
X151489984Y-101700483D01*
X151441033Y-101738045D01*
X151441029Y-101738049D01*
X151354391Y-101850957D01*
X151299932Y-101982433D01*
X151299930Y-101982441D01*
X151281355Y-102123536D01*
X151281355Y-102123537D01*
X151299930Y-102264632D01*
X151299932Y-102264640D01*
X151354391Y-102396116D01*
X151354391Y-102396117D01*
X151354393Y-102396119D01*
X151379541Y-102428892D01*
X151399966Y-102486567D01*
X151400000Y-102489160D01*
X151400000Y-102651168D01*
X151381093Y-102709359D01*
X151331593Y-102745323D01*
X151270407Y-102745323D01*
X151230996Y-102721172D01*
X149388607Y-100878783D01*
X149375731Y-100862926D01*
X149368896Y-100852464D01*
X149341513Y-100831151D01*
X149336918Y-100827094D01*
X149333789Y-100823965D01*
X149315539Y-100810934D01*
X149304767Y-100802550D01*
X149273951Y-100778565D01*
X149267282Y-100774956D01*
X149260520Y-100771651D01*
X149209987Y-100756606D01*
X149160156Y-100739499D01*
X149152685Y-100738253D01*
X149145207Y-100737321D01*
X149145206Y-100737321D01*
X149092534Y-100739500D01*
X135147658Y-100739500D01*
X135127343Y-100737393D01*
X135115105Y-100734827D01*
X135115104Y-100734827D01*
X135080662Y-100739120D01*
X135074537Y-100739500D01*
X135070126Y-100739500D01*
X135048018Y-100743189D01*
X134995713Y-100749709D01*
X134988462Y-100751867D01*
X134981326Y-100754317D01*
X134934967Y-100779406D01*
X134887626Y-100802550D01*
X134881455Y-100806955D01*
X134875512Y-100811581D01*
X134864934Y-100823073D01*
X134811612Y-100853080D01*
X134805020Y-100854175D01*
X134658904Y-100873411D01*
X134658896Y-100873413D01*
X134527420Y-100927872D01*
X134414512Y-101014510D01*
X134414510Y-101014512D01*
X134327872Y-101127420D01*
X134273413Y-101258896D01*
X134273411Y-101258904D01*
X134254836Y-101399999D01*
X134254836Y-101400000D01*
X134273411Y-101541095D01*
X134273413Y-101541103D01*
X134327872Y-101672579D01*
X134327873Y-101672581D01*
X134327874Y-101672582D01*
X134414511Y-101785489D01*
X134527418Y-101872126D01*
X134527419Y-101872126D01*
X134527420Y-101872127D01*
X134642554Y-101919817D01*
X134658901Y-101926588D01*
X134800000Y-101945164D01*
X134859889Y-101937279D01*
X134920049Y-101948429D01*
X134962167Y-101992811D01*
X134970964Y-102022507D01*
X134973412Y-102041100D01*
X135027872Y-102172579D01*
X135027873Y-102172581D01*
X135027874Y-102172582D01*
X135114511Y-102285489D01*
X135227418Y-102372126D01*
X135227419Y-102372126D01*
X135227420Y-102372127D01*
X135355164Y-102425040D01*
X135358901Y-102426588D01*
X135464725Y-102440520D01*
X135499999Y-102445164D01*
X135500000Y-102445164D01*
X135500001Y-102445164D01*
X135528219Y-102441448D01*
X135641099Y-102426588D01*
X135772582Y-102372126D01*
X135885489Y-102285489D01*
X135972126Y-102172582D01*
X136026588Y-102041099D01*
X136033766Y-101986578D01*
X136060107Y-101931353D01*
X136113878Y-101902158D01*
X136131919Y-101900500D01*
X148727414Y-101900500D01*
X148785605Y-101919407D01*
X148797418Y-101929496D01*
X151429139Y-104561217D01*
X151442014Y-104577073D01*
X151448850Y-104587536D01*
X151474146Y-104607224D01*
X151476229Y-104608846D01*
X151480826Y-104612905D01*
X151483954Y-104616032D01*
X151483957Y-104616035D01*
X151502206Y-104629065D01*
X151543794Y-104661434D01*
X151550447Y-104665034D01*
X151557223Y-104668347D01*
X151557226Y-104668349D01*
X151607758Y-104683393D01*
X151657589Y-104700500D01*
X151657591Y-104700500D01*
X151665056Y-104701746D01*
X151672533Y-104702677D01*
X151672539Y-104702679D01*
X151723119Y-104700586D01*
X151725212Y-104700500D01*
X154934597Y-104700500D01*
X154954911Y-104702606D01*
X154967150Y-104705173D01*
X155001591Y-104700879D01*
X155007717Y-104700500D01*
X155012124Y-104700500D01*
X155012127Y-104700500D01*
X155028708Y-104697732D01*
X155034236Y-104696810D01*
X155047311Y-104695180D01*
X155086540Y-104690291D01*
X155086544Y-104690288D01*
X155093811Y-104688125D01*
X155100925Y-104685682D01*
X155100927Y-104685682D01*
X155147286Y-104660593D01*
X155194629Y-104637449D01*
X155194634Y-104637443D01*
X155200786Y-104633052D01*
X155206737Y-104628420D01*
X155206740Y-104628419D01*
X155232900Y-104600001D01*
X163054796Y-104600001D01*
X163073543Y-104754405D01*
X163073544Y-104754407D01*
X163097917Y-104818672D01*
X163128701Y-104899843D01*
X163128702Y-104899845D01*
X163217053Y-105027844D01*
X163217058Y-105027850D01*
X163333477Y-105130989D01*
X163333480Y-105130991D01*
X163333482Y-105130992D01*
X163471208Y-105203276D01*
X163622229Y-105240500D01*
X163622233Y-105240500D01*
X163777767Y-105240500D01*
X163777771Y-105240500D01*
X163928792Y-105203276D01*
X164066518Y-105130992D01*
X164066520Y-105130989D01*
X164066522Y-105130989D01*
X164182941Y-105027850D01*
X164182946Y-105027844D01*
X164271297Y-104899845D01*
X164271300Y-104899841D01*
X164326456Y-104754407D01*
X164345204Y-104600000D01*
X164343945Y-104589635D01*
X164326456Y-104445594D01*
X164326456Y-104445593D01*
X164271300Y-104300159D01*
X164260765Y-104284896D01*
X164182946Y-104172155D01*
X164182941Y-104172149D01*
X164066522Y-104069010D01*
X163928790Y-103996723D01*
X163777774Y-103959500D01*
X163777771Y-103959500D01*
X163622229Y-103959500D01*
X163622225Y-103959500D01*
X163471209Y-103996723D01*
X163333477Y-104069010D01*
X163217058Y-104172149D01*
X163217053Y-104172155D01*
X163128702Y-104300154D01*
X163128701Y-104300156D01*
X163073544Y-104445593D01*
X163073543Y-104445594D01*
X163054796Y-104599998D01*
X163054796Y-104600001D01*
X155232900Y-104600001D01*
X155242442Y-104589635D01*
X158032076Y-101800000D01*
X158754836Y-101800000D01*
X158773411Y-101941095D01*
X158773413Y-101941103D01*
X158827872Y-102072579D01*
X158827873Y-102072581D01*
X158827874Y-102072582D01*
X158914511Y-102185489D01*
X159027418Y-102272126D01*
X159027419Y-102272126D01*
X159027420Y-102272127D01*
X159145934Y-102321217D01*
X159158901Y-102326588D01*
X159238543Y-102337073D01*
X159299999Y-102345164D01*
X159300000Y-102345164D01*
X159300001Y-102345164D01*
X159330907Y-102341095D01*
X159441099Y-102326588D01*
X159572582Y-102272126D01*
X159685489Y-102185489D01*
X159772126Y-102072582D01*
X159826588Y-101941099D01*
X159845164Y-101800000D01*
X159826588Y-101658901D01*
X159823486Y-101651411D01*
X159772127Y-101527420D01*
X159772126Y-101527419D01*
X159772126Y-101527418D01*
X159685489Y-101414511D01*
X159572582Y-101327874D01*
X159572581Y-101327873D01*
X159572579Y-101327872D01*
X159441103Y-101273413D01*
X159441095Y-101273411D01*
X159300001Y-101254836D01*
X159299999Y-101254836D01*
X159158904Y-101273411D01*
X159158896Y-101273413D01*
X159027420Y-101327872D01*
X158914512Y-101414510D01*
X158914510Y-101414512D01*
X158827872Y-101527420D01*
X158773413Y-101658896D01*
X158773411Y-101658904D01*
X158754836Y-101799999D01*
X158754836Y-101800000D01*
X158032076Y-101800000D01*
X160121220Y-99710856D01*
X160137071Y-99697986D01*
X160147536Y-99691150D01*
X160168850Y-99663765D01*
X160172920Y-99659157D01*
X160176035Y-99656043D01*
X160189065Y-99637793D01*
X160221434Y-99596206D01*
X160221433Y-99596206D01*
X160221435Y-99596205D01*
X160225035Y-99589551D01*
X160228348Y-99582775D01*
X160228347Y-99582775D01*
X160228349Y-99582774D01*
X160243394Y-99532238D01*
X160260500Y-99482411D01*
X160260500Y-99482406D01*
X160261746Y-99474943D01*
X160262677Y-99467468D01*
X160262679Y-99467462D01*
X160260500Y-99414789D01*
X160260500Y-98400000D01*
X161435336Y-98400000D01*
X161453911Y-98541095D01*
X161453913Y-98541103D01*
X161508372Y-98672579D01*
X161508373Y-98672581D01*
X161508374Y-98672582D01*
X161595011Y-98785489D01*
X161707918Y-98872126D01*
X161707919Y-98872126D01*
X161707920Y-98872127D01*
X161839396Y-98926586D01*
X161839401Y-98926588D01*
X161945225Y-98940520D01*
X161980499Y-98945164D01*
X161980500Y-98945164D01*
X161980501Y-98945164D01*
X162008719Y-98941448D01*
X162121599Y-98926588D01*
X162253082Y-98872126D01*
X162365989Y-98785489D01*
X162452626Y-98672582D01*
X162507088Y-98541099D01*
X162525664Y-98400000D01*
X162507088Y-98258901D01*
X162464769Y-98156734D01*
X162452627Y-98127420D01*
X162452626Y-98127419D01*
X162452626Y-98127418D01*
X162365989Y-98014511D01*
X162365987Y-98014509D01*
X162362039Y-98009364D01*
X162364394Y-98007556D01*
X162342206Y-97963917D01*
X162341000Y-97948514D01*
X162341000Y-97900000D01*
X167254836Y-97900000D01*
X167273411Y-98041095D01*
X167273413Y-98041103D01*
X167327872Y-98172579D01*
X167327873Y-98172581D01*
X167327874Y-98172582D01*
X167414511Y-98285489D01*
X167527418Y-98372126D01*
X167527419Y-98372126D01*
X167527420Y-98372127D01*
X167597425Y-98401124D01*
X167658901Y-98426588D01*
X167764725Y-98440520D01*
X167799999Y-98445164D01*
X167800000Y-98445164D01*
X167800001Y-98445164D01*
X167831234Y-98441052D01*
X167941099Y-98426588D01*
X168072582Y-98372126D01*
X168185489Y-98285489D01*
X168272126Y-98172582D01*
X168326588Y-98041099D01*
X168345164Y-97900000D01*
X168326588Y-97758901D01*
X168306327Y-97709987D01*
X168272127Y-97627420D01*
X168272126Y-97627419D01*
X168272126Y-97627418D01*
X168185489Y-97514511D01*
X168072582Y-97427874D01*
X168072581Y-97427873D01*
X168072579Y-97427872D01*
X167941103Y-97373413D01*
X167941095Y-97373411D01*
X167800001Y-97354836D01*
X167799999Y-97354836D01*
X167658904Y-97373411D01*
X167658896Y-97373413D01*
X167527420Y-97427872D01*
X167414512Y-97514510D01*
X167414510Y-97514512D01*
X167327872Y-97627420D01*
X167273413Y-97758896D01*
X167273411Y-97758904D01*
X167254836Y-97899999D01*
X167254836Y-97900000D01*
X162341000Y-97900000D01*
X162341000Y-97409830D01*
X162359907Y-97351639D01*
X162369984Y-97339839D01*
X162735664Y-96974158D01*
X162790179Y-96946383D01*
X162793579Y-96946115D01*
X162793566Y-96946011D01*
X162799999Y-96945163D01*
X162800000Y-96945164D01*
X162941099Y-96926588D01*
X163072582Y-96872126D01*
X163185489Y-96785489D01*
X163272126Y-96672582D01*
X163326588Y-96541099D01*
X163345164Y-96400000D01*
X163326588Y-96258901D01*
X163321204Y-96245903D01*
X163272127Y-96127420D01*
X163272126Y-96127419D01*
X163272126Y-96127418D01*
X163185489Y-96014511D01*
X163072582Y-95927874D01*
X163072581Y-95927873D01*
X163072579Y-95927872D01*
X162941103Y-95873413D01*
X162941095Y-95873411D01*
X162800001Y-95854836D01*
X162799999Y-95854836D01*
X162658904Y-95873411D01*
X162658896Y-95873413D01*
X162527420Y-95927872D01*
X162414512Y-96014510D01*
X162414510Y-96014512D01*
X162327872Y-96127420D01*
X162273413Y-96258896D01*
X162273411Y-96258904D01*
X162253989Y-96406433D01*
X162251030Y-96406043D01*
X162235929Y-96452522D01*
X162225839Y-96464335D01*
X161759280Y-96930893D01*
X161743431Y-96943765D01*
X161732964Y-96950604D01*
X161732961Y-96950606D01*
X161711646Y-96977990D01*
X161707587Y-96982587D01*
X161704471Y-96985703D01*
X161704465Y-96985711D01*
X161691434Y-97003960D01*
X161659066Y-97045547D01*
X161655463Y-97052204D01*
X161652151Y-97058979D01*
X161637106Y-97109512D01*
X161620000Y-97159341D01*
X161618752Y-97166816D01*
X161617821Y-97174295D01*
X161620000Y-97226965D01*
X161620000Y-97948514D01*
X161601093Y-98006705D01*
X161598878Y-98009300D01*
X161598961Y-98009364D01*
X161595012Y-98014510D01*
X161595011Y-98014511D01*
X161574609Y-98041099D01*
X161508372Y-98127420D01*
X161453913Y-98258896D01*
X161453911Y-98258904D01*
X161435336Y-98399999D01*
X161435336Y-98400000D01*
X160260500Y-98400000D01*
X160260500Y-92830330D01*
X160279407Y-92772139D01*
X160289484Y-92760338D01*
X160478931Y-92570891D01*
X160533446Y-92543116D01*
X160584694Y-92548581D01*
X160700292Y-92593365D01*
X160898950Y-92630500D01*
X161101050Y-92630500D01*
X161299708Y-92593365D01*
X161488160Y-92520358D01*
X161659989Y-92413966D01*
X161809342Y-92277813D01*
X161931134Y-92116534D01*
X162021217Y-91935622D01*
X162076525Y-91741237D01*
X162095172Y-91540000D01*
X162076525Y-91338763D01*
X162021217Y-91144378D01*
X161931134Y-90963466D01*
X161809342Y-90802187D01*
X161659989Y-90666034D01*
X161488160Y-90559642D01*
X161299708Y-90486635D01*
X161299707Y-90486634D01*
X161299705Y-90486634D01*
X161101050Y-90449500D01*
X160898950Y-90449500D01*
X160700294Y-90486634D01*
X160665793Y-90500000D01*
X160511840Y-90559642D01*
X160378939Y-90641931D01*
X160340011Y-90666034D01*
X160190659Y-90802186D01*
X160068867Y-90963464D01*
X160068862Y-90963473D01*
X159978784Y-91144375D01*
X159923475Y-91338761D01*
X159905415Y-91533667D01*
X159904828Y-91540000D01*
X159923475Y-91741237D01*
X159978783Y-91935622D01*
X159985516Y-91949144D01*
X159994529Y-92009660D01*
X159966899Y-92063275D01*
X159800491Y-92229683D01*
X159745974Y-92257460D01*
X159685542Y-92247889D01*
X159663437Y-92232516D01*
X159649635Y-92219811D01*
X159493100Y-92063275D01*
X159465323Y-92008759D01*
X159474484Y-91949142D01*
X159481217Y-91935622D01*
X159536525Y-91741237D01*
X159555172Y-91540000D01*
X159536525Y-91338763D01*
X159481217Y-91144378D01*
X159391134Y-90963466D01*
X159269342Y-90802187D01*
X159119989Y-90666034D01*
X158948160Y-90559642D01*
X158759708Y-90486635D01*
X158759707Y-90486634D01*
X158759705Y-90486634D01*
X158561050Y-90449500D01*
X158358950Y-90449500D01*
X158160294Y-90486634D01*
X158125793Y-90500000D01*
X157971840Y-90559642D01*
X157838939Y-90641931D01*
X157800011Y-90666034D01*
X157650659Y-90802186D01*
X157528867Y-90963464D01*
X157528862Y-90963473D01*
X157438784Y-91144375D01*
X157383475Y-91338761D01*
X157365415Y-91533667D01*
X157364828Y-91540000D01*
X157383475Y-91741237D01*
X157438783Y-91935622D01*
X157528866Y-92116534D01*
X157650658Y-92277813D01*
X157800011Y-92413966D01*
X157971840Y-92520358D01*
X158160292Y-92593365D01*
X158358950Y-92630500D01*
X158561050Y-92630500D01*
X158759708Y-92593365D01*
X158875301Y-92548582D01*
X158936393Y-92545192D01*
X158981069Y-92570893D01*
X159010504Y-92600328D01*
X159038281Y-92654845D01*
X159039500Y-92670332D01*
X159039500Y-99109668D01*
X159020593Y-99167859D01*
X159010504Y-99179672D01*
X154679672Y-103510504D01*
X154625155Y-103538281D01*
X154609668Y-103539500D01*
X153269332Y-103539500D01*
X153211141Y-103520593D01*
X153175177Y-103471093D01*
X153175177Y-103409907D01*
X153199328Y-103370496D01*
X153320328Y-103249496D01*
X153374845Y-103221719D01*
X153390332Y-103220500D01*
X154314597Y-103220500D01*
X154334911Y-103222606D01*
X154347150Y-103225173D01*
X154381591Y-103220879D01*
X154387717Y-103220500D01*
X154392124Y-103220500D01*
X154392127Y-103220500D01*
X154408708Y-103217732D01*
X154414236Y-103216810D01*
X154427311Y-103215180D01*
X154466540Y-103210291D01*
X154466544Y-103210288D01*
X154473811Y-103208125D01*
X154480925Y-103205682D01*
X154480927Y-103205682D01*
X154527286Y-103180593D01*
X154574629Y-103157449D01*
X154574634Y-103157443D01*
X154580786Y-103153052D01*
X154586737Y-103148420D01*
X154586740Y-103148419D01*
X154622442Y-103109635D01*
X156061220Y-101670856D01*
X156077071Y-101657986D01*
X156087536Y-101651150D01*
X156108856Y-101623757D01*
X156112913Y-101619164D01*
X156116035Y-101616043D01*
X156129062Y-101597796D01*
X156161434Y-101556206D01*
X156161435Y-101556200D01*
X156165030Y-101549559D01*
X156168346Y-101542777D01*
X156168346Y-101542776D01*
X156168348Y-101542774D01*
X156183386Y-101492260D01*
X156200500Y-101442411D01*
X156200500Y-101442406D01*
X156201743Y-101434958D01*
X156202678Y-101427462D01*
X156200500Y-101374803D01*
X156200500Y-96287657D01*
X156202607Y-96267341D01*
X156205173Y-96255104D01*
X156200880Y-96220663D01*
X156200500Y-96214536D01*
X156200500Y-96210127D01*
X156196810Y-96188016D01*
X156196421Y-96184896D01*
X156190291Y-96135715D01*
X156190287Y-96135708D01*
X156188131Y-96128463D01*
X156185682Y-96121330D01*
X156185682Y-96121327D01*
X156160594Y-96074969D01*
X156137450Y-96027626D01*
X156137447Y-96027623D01*
X156133054Y-96021469D01*
X156128419Y-96015514D01*
X156089635Y-95979811D01*
X155229496Y-95119672D01*
X155201719Y-95065155D01*
X155200500Y-95049668D01*
X155200500Y-92810330D01*
X155219407Y-92752139D01*
X155229484Y-92740338D01*
X155398931Y-92570891D01*
X155453446Y-92543116D01*
X155504694Y-92548581D01*
X155620292Y-92593365D01*
X155818950Y-92630500D01*
X156021050Y-92630500D01*
X156219708Y-92593365D01*
X156408160Y-92520358D01*
X156579989Y-92413966D01*
X156729342Y-92277813D01*
X156851134Y-92116534D01*
X156941217Y-91935622D01*
X156996525Y-91741237D01*
X157015172Y-91540000D01*
X156996525Y-91338763D01*
X156941217Y-91144378D01*
X156851134Y-90963466D01*
X156729342Y-90802187D01*
X156579989Y-90666034D01*
X156408160Y-90559642D01*
X156219708Y-90486635D01*
X156219707Y-90486634D01*
X156219705Y-90486634D01*
X156021050Y-90449500D01*
X155818950Y-90449500D01*
X155620294Y-90486634D01*
X155585793Y-90500000D01*
X155431840Y-90559642D01*
X155298939Y-90641931D01*
X155260011Y-90666034D01*
X155110659Y-90802186D01*
X154988867Y-90963464D01*
X154988862Y-90963473D01*
X154898784Y-91144375D01*
X154843475Y-91338761D01*
X154825415Y-91533667D01*
X154824828Y-91540000D01*
X154843475Y-91741237D01*
X154898783Y-91935622D01*
X154905516Y-91949144D01*
X154914529Y-92009660D01*
X154886899Y-92063275D01*
X154720003Y-92230171D01*
X154665486Y-92257948D01*
X154605054Y-92248377D01*
X154579995Y-92230171D01*
X154413100Y-92063276D01*
X154385323Y-92008759D01*
X154394484Y-91949142D01*
X154401217Y-91935622D01*
X154456525Y-91741237D01*
X154475172Y-91540000D01*
X154456525Y-91338763D01*
X154401217Y-91144378D01*
X154311134Y-90963466D01*
X154189342Y-90802187D01*
X154039989Y-90666034D01*
X153868160Y-90559642D01*
X153679708Y-90486635D01*
X153679707Y-90486634D01*
X153679705Y-90486634D01*
X153481050Y-90449500D01*
X153278950Y-90449500D01*
X153080294Y-90486634D01*
X153045793Y-90500000D01*
X152891840Y-90559642D01*
X152720011Y-90666034D01*
X152626194Y-90751558D01*
X152570454Y-90776788D01*
X152510529Y-90764436D01*
X152469309Y-90719219D01*
X152460500Y-90678396D01*
X152460500Y-89861603D01*
X152479407Y-89803412D01*
X152528907Y-89767448D01*
X152590093Y-89767448D01*
X152626191Y-89788438D01*
X152720011Y-89873966D01*
X152891840Y-89980358D01*
X153080292Y-90053365D01*
X153278950Y-90090500D01*
X153481050Y-90090500D01*
X153679708Y-90053365D01*
X153868160Y-89980358D01*
X154039989Y-89873966D01*
X154189342Y-89737813D01*
X154311134Y-89576534D01*
X154401217Y-89395622D01*
X154456525Y-89201237D01*
X154475172Y-89000000D01*
X154824828Y-89000000D01*
X154843475Y-89201237D01*
X154898783Y-89395622D01*
X154988866Y-89576534D01*
X155110658Y-89737813D01*
X155260011Y-89873966D01*
X155431840Y-89980358D01*
X155620292Y-90053365D01*
X155818950Y-90090500D01*
X156021050Y-90090500D01*
X156219708Y-90053365D01*
X156408160Y-89980358D01*
X156579989Y-89873966D01*
X156729342Y-89737813D01*
X156851134Y-89576534D01*
X156941217Y-89395622D01*
X156996525Y-89201237D01*
X157015172Y-89000000D01*
X157364828Y-89000000D01*
X157383475Y-89201237D01*
X157438783Y-89395622D01*
X157528866Y-89576534D01*
X157650658Y-89737813D01*
X157800011Y-89873966D01*
X157971840Y-89980358D01*
X158160292Y-90053365D01*
X158358950Y-90090500D01*
X158561050Y-90090500D01*
X158759708Y-90053365D01*
X158948160Y-89980358D01*
X159119989Y-89873966D01*
X159269342Y-89737813D01*
X159391134Y-89576534D01*
X159481217Y-89395622D01*
X159536525Y-89201237D01*
X159555172Y-89000000D01*
X159536525Y-88798763D01*
X159481217Y-88604378D01*
X159391134Y-88423466D01*
X159269342Y-88262187D01*
X159165335Y-88167372D01*
X159135070Y-88114198D01*
X159141841Y-88053389D01*
X159183061Y-88008172D01*
X159232032Y-87995212D01*
X159649999Y-87995212D01*
X159650000Y-87995212D01*
X159743839Y-87976546D01*
X159745001Y-87975769D01*
X159747231Y-87975140D01*
X159752845Y-87972815D01*
X159753120Y-87973479D01*
X159803887Y-87959162D01*
X159847007Y-87973172D01*
X159847156Y-87972815D01*
X159851700Y-87974697D01*
X159854998Y-87975769D01*
X159856161Y-87976546D01*
X159856167Y-87976547D01*
X159857903Y-87977267D01*
X159860279Y-87979297D01*
X159864268Y-87981962D01*
X159863952Y-87982434D01*
X159904427Y-88017006D01*
X159918709Y-88076501D01*
X159917112Y-88088044D01*
X159909500Y-88126309D01*
X159909500Y-88126311D01*
X159909500Y-88126312D01*
X159909500Y-89873688D01*
X159923454Y-89943839D01*
X159976609Y-90023391D01*
X160056161Y-90076546D01*
X160126312Y-90090500D01*
X160126313Y-90090500D01*
X161873687Y-90090500D01*
X161873688Y-90090500D01*
X161943839Y-90076546D01*
X162023391Y-90023391D01*
X162076546Y-89943839D01*
X162090500Y-89873688D01*
X162090500Y-88126312D01*
X162076546Y-88056161D01*
X162023391Y-87976609D01*
X161943839Y-87923454D01*
X161943838Y-87923453D01*
X161943837Y-87923453D01*
X161920183Y-87918748D01*
X161866800Y-87888850D01*
X161841186Y-87833285D01*
X161840500Y-87821651D01*
X161840500Y-87427524D01*
X161840811Y-87421978D01*
X161843646Y-87396814D01*
X161845164Y-87383343D01*
X161834354Y-87326213D01*
X161825685Y-87268694D01*
X161823496Y-87261597D01*
X161823944Y-87261458D01*
X161823372Y-87259719D01*
X161822929Y-87259875D01*
X161820477Y-87252869D01*
X161820477Y-87252868D01*
X161796086Y-87206718D01*
X161793309Y-87201463D01*
X161768073Y-87149059D01*
X161763894Y-87142930D01*
X161764278Y-87142667D01*
X161763208Y-87141158D01*
X161762833Y-87141436D01*
X161758429Y-87135468D01*
X161717320Y-87094359D01*
X161677750Y-87051712D01*
X161671952Y-87047089D01*
X161672242Y-87046725D01*
X161661257Y-87038296D01*
X161330937Y-86707975D01*
X161327246Y-86703845D01*
X161303001Y-86673443D01*
X161254945Y-86640679D01*
X161230744Y-86622818D01*
X161208204Y-86606182D01*
X161172611Y-86556414D01*
X161172003Y-86554420D01*
X161157733Y-86505824D01*
X161157732Y-86505820D01*
X161098004Y-86375035D01*
X161060272Y-86316322D01*
X161060270Y-86316320D01*
X161060267Y-86316315D01*
X160966126Y-86207670D01*
X160966124Y-86207668D01*
X160966118Y-86207661D01*
X160913369Y-86161953D01*
X160913370Y-86161953D01*
X160913367Y-86161951D01*
X160913359Y-86161945D01*
X160792424Y-86084226D01*
X160792417Y-86084222D01*
X160784639Y-86080670D01*
X160728928Y-86055228D01*
X160704339Y-86048008D01*
X160590974Y-86014721D01*
X160590969Y-86014720D01*
X160539354Y-86007299D01*
X160521889Y-86004788D01*
X159950000Y-86004788D01*
X159949999Y-86004788D01*
X159927231Y-86009317D01*
X159856161Y-86023454D01*
X159856159Y-86023454D01*
X159856159Y-86023455D01*
X159856155Y-86023457D01*
X159854995Y-86024232D01*
X159852767Y-86024860D01*
X159847149Y-86027187D01*
X159846873Y-86026521D01*
X159796106Y-86040835D01*
X159752999Y-86026829D01*
X159752851Y-86027187D01*
X159748304Y-86025304D01*
X159745005Y-86024232D01*
X159743844Y-86023457D01*
X159743840Y-86023455D01*
X159743839Y-86023454D01*
X159650000Y-86004788D01*
X159078111Y-86004788D01*
X159064170Y-86006792D01*
X159009030Y-86014720D01*
X159009025Y-86014721D01*
X158871074Y-86055227D01*
X158807582Y-86084222D01*
X158807575Y-86084226D01*
X158686640Y-86161945D01*
X158686632Y-86161951D01*
X158633890Y-86207653D01*
X158633873Y-86207670D01*
X158539732Y-86316315D01*
X158539726Y-86316324D01*
X158502001Y-86375026D01*
X158501993Y-86375039D01*
X158444629Y-86500649D01*
X158403257Y-86545726D01*
X158372982Y-86556796D01*
X158326213Y-86565645D01*
X158268694Y-86574314D01*
X158261609Y-86576500D01*
X158261472Y-86576057D01*
X158259715Y-86576635D01*
X158259869Y-86577073D01*
X158252873Y-86579521D01*
X158252869Y-86579522D01*
X158252868Y-86579523D01*
X158224665Y-86594427D01*
X158201463Y-86606690D01*
X158149058Y-86631927D01*
X158142929Y-86636106D01*
X158142670Y-86635726D01*
X158141159Y-86636798D01*
X158141433Y-86637169D01*
X158135464Y-86641574D01*
X158094360Y-86682678D01*
X158051710Y-86722253D01*
X158047088Y-86728049D01*
X158046724Y-86727759D01*
X158038299Y-86738738D01*
X157707978Y-87069058D01*
X157703837Y-87072759D01*
X157673443Y-87096997D01*
X157673442Y-87096999D01*
X157640679Y-87145054D01*
X157606147Y-87191843D01*
X157602682Y-87198401D01*
X157602272Y-87198184D01*
X157601441Y-87199829D01*
X157601859Y-87200031D01*
X157598638Y-87206718D01*
X157581499Y-87262284D01*
X157562290Y-87317179D01*
X157560912Y-87324466D01*
X157560456Y-87324379D01*
X157560147Y-87326204D01*
X157560605Y-87326273D01*
X157559500Y-87333606D01*
X157559500Y-87391747D01*
X157557325Y-87449877D01*
X157558156Y-87457252D01*
X157557692Y-87457304D01*
X157559500Y-87471028D01*
X157559500Y-88349718D01*
X157540593Y-88407909D01*
X157539530Y-88409343D01*
X157534098Y-88416537D01*
X157528864Y-88423468D01*
X157438784Y-88604375D01*
X157383475Y-88798761D01*
X157383475Y-88798763D01*
X157364828Y-89000000D01*
X157015172Y-89000000D01*
X156996525Y-88798763D01*
X156941217Y-88604378D01*
X156851134Y-88423466D01*
X156729342Y-88262187D01*
X156579989Y-88126034D01*
X156408160Y-88019642D01*
X156219708Y-87946635D01*
X156219707Y-87946634D01*
X156219705Y-87946634D01*
X156021050Y-87909500D01*
X155818950Y-87909500D01*
X155620294Y-87946634D01*
X155613005Y-87949458D01*
X155431840Y-88019642D01*
X155318058Y-88090093D01*
X155260011Y-88126034D01*
X155111864Y-88261088D01*
X155110658Y-88262187D01*
X155108831Y-88264606D01*
X154988867Y-88423464D01*
X154988862Y-88423473D01*
X154898784Y-88604375D01*
X154843475Y-88798761D01*
X154843475Y-88798763D01*
X154824828Y-89000000D01*
X154475172Y-89000000D01*
X154456525Y-88798763D01*
X154401217Y-88604378D01*
X154311134Y-88423466D01*
X154189342Y-88262187D01*
X154039989Y-88126034D01*
X153868160Y-88019642D01*
X153679708Y-87946635D01*
X153679707Y-87946634D01*
X153679705Y-87946634D01*
X153481050Y-87909500D01*
X153278950Y-87909500D01*
X153080294Y-87946634D01*
X153073005Y-87949458D01*
X152891840Y-88019642D01*
X152720011Y-88126034D01*
X152594627Y-88240337D01*
X152571864Y-88261088D01*
X152516122Y-88286318D01*
X152456197Y-88273966D01*
X152416227Y-88231407D01*
X152397449Y-88192995D01*
X152397448Y-88192994D01*
X152393050Y-88186835D01*
X152388419Y-88180884D01*
X152349635Y-88145181D01*
X151814266Y-87609812D01*
X151802864Y-87593840D01*
X151802217Y-87594303D01*
X151793054Y-87581469D01*
X151788419Y-87575514D01*
X151749635Y-87539811D01*
X151148607Y-86938783D01*
X151135731Y-86922926D01*
X151128896Y-86912464D01*
X151101513Y-86891151D01*
X151096918Y-86887094D01*
X151093789Y-86883965D01*
X151075539Y-86870934D01*
X151033952Y-86838566D01*
X151033951Y-86838565D01*
X151027282Y-86834956D01*
X151020520Y-86831651D01*
X150969987Y-86816606D01*
X150920156Y-86799499D01*
X150912685Y-86798253D01*
X150905207Y-86797321D01*
X150905206Y-86797321D01*
X150852534Y-86799500D01*
X147050332Y-86799500D01*
X146992141Y-86780593D01*
X146980328Y-86770504D01*
X146553828Y-86344004D01*
X146526051Y-86289487D01*
X146535622Y-86229055D01*
X146578887Y-86185790D01*
X146623832Y-86175000D01*
X146799999Y-86175000D01*
X146800000Y-86174999D01*
X146800000Y-85219534D01*
X146819052Y-85234363D01*
X146937424Y-85275000D01*
X147031073Y-85275000D01*
X147123446Y-85259586D01*
X147200000Y-85218156D01*
X147200000Y-86174999D01*
X147200001Y-86175000D01*
X147415638Y-86175000D01*
X147452489Y-86172100D01*
X147610200Y-86126280D01*
X147610201Y-86126280D01*
X147751552Y-86042685D01*
X147867685Y-85926552D01*
X147951280Y-85785201D01*
X147951281Y-85785198D01*
X147982108Y-85679091D01*
X148016499Y-85628485D01*
X148074067Y-85607759D01*
X148100868Y-85610586D01*
X148222229Y-85640500D01*
X148222233Y-85640500D01*
X148377767Y-85640500D01*
X148377771Y-85640500D01*
X148528792Y-85603276D01*
X148666518Y-85530992D01*
X148666520Y-85530989D01*
X148666522Y-85530989D01*
X148782941Y-85427850D01*
X148782941Y-85427849D01*
X148782942Y-85427849D01*
X148868526Y-85303859D01*
X148917141Y-85266711D01*
X148978308Y-85265233D01*
X149028663Y-85299990D01*
X149031452Y-85303828D01*
X149070418Y-85360279D01*
X149117058Y-85427849D01*
X149117058Y-85427850D01*
X149233477Y-85530989D01*
X149233480Y-85530991D01*
X149233482Y-85530992D01*
X149371208Y-85603276D01*
X149522229Y-85640500D01*
X149522233Y-85640500D01*
X149677767Y-85640500D01*
X149677771Y-85640500D01*
X149828792Y-85603276D01*
X149966518Y-85530992D01*
X149966520Y-85530989D01*
X149966522Y-85530989D01*
X150082941Y-85427850D01*
X150082946Y-85427844D01*
X150171297Y-85299845D01*
X150171300Y-85299841D01*
X150226456Y-85154407D01*
X150245204Y-85000001D01*
X151354796Y-85000001D01*
X151373543Y-85154405D01*
X151373544Y-85154407D01*
X151419279Y-85275000D01*
X151428701Y-85299843D01*
X151428702Y-85299845D01*
X151517053Y-85427844D01*
X151517058Y-85427850D01*
X151633477Y-85530989D01*
X151633480Y-85530991D01*
X151633482Y-85530992D01*
X151771208Y-85603276D01*
X151922229Y-85640500D01*
X151922233Y-85640500D01*
X152077767Y-85640500D01*
X152077771Y-85640500D01*
X152228792Y-85603276D01*
X152366518Y-85530992D01*
X152366520Y-85530989D01*
X152366522Y-85530989D01*
X152482941Y-85427850D01*
X152482946Y-85427844D01*
X152571297Y-85299845D01*
X152571300Y-85299841D01*
X152626456Y-85154407D01*
X152645204Y-85000000D01*
X152626456Y-84845593D01*
X152571300Y-84700159D01*
X152571297Y-84700154D01*
X152482946Y-84572155D01*
X152482941Y-84572149D01*
X152366522Y-84469010D01*
X152228790Y-84396723D01*
X152077774Y-84359500D01*
X152077771Y-84359500D01*
X151922229Y-84359500D01*
X151922225Y-84359500D01*
X151771209Y-84396723D01*
X151633477Y-84469010D01*
X151517058Y-84572149D01*
X151517053Y-84572155D01*
X151428702Y-84700154D01*
X151428701Y-84700156D01*
X151373544Y-84845593D01*
X151373543Y-84845594D01*
X151354796Y-84999998D01*
X151354796Y-85000001D01*
X150245204Y-85000001D01*
X150245204Y-85000000D01*
X150226456Y-84845593D01*
X150171300Y-84700159D01*
X150171297Y-84700154D01*
X150082946Y-84572155D01*
X150082941Y-84572149D01*
X149966522Y-84469010D01*
X149828790Y-84396723D01*
X149677774Y-84359500D01*
X149677771Y-84359500D01*
X149522229Y-84359500D01*
X149522225Y-84359500D01*
X149371209Y-84396723D01*
X149233477Y-84469010D01*
X149117058Y-84572149D01*
X149117053Y-84572155D01*
X149031475Y-84696138D01*
X148982859Y-84733288D01*
X148921692Y-84734766D01*
X148871337Y-84700009D01*
X148868525Y-84696138D01*
X148782946Y-84572155D01*
X148782941Y-84572149D01*
X148666522Y-84469010D01*
X148528790Y-84396723D01*
X148377774Y-84359500D01*
X148377771Y-84359500D01*
X148222229Y-84359500D01*
X148222225Y-84359500D01*
X148122692Y-84384033D01*
X148061667Y-84379601D01*
X148014902Y-84340146D01*
X148000000Y-84287910D01*
X148000000Y-84209362D01*
X147997100Y-84172510D01*
X147951280Y-84014799D01*
X147951280Y-84014798D01*
X147867685Y-83873447D01*
X147751552Y-83757314D01*
X147610200Y-83673719D01*
X147452489Y-83627899D01*
X147415638Y-83625000D01*
X147200001Y-83625000D01*
X147200000Y-83625001D01*
X147200000Y-84580465D01*
X147180948Y-84565637D01*
X147062576Y-84525000D01*
X146968927Y-84525000D01*
X146876554Y-84540414D01*
X146800000Y-84581843D01*
X146800000Y-83625001D01*
X146799999Y-83625000D01*
X146584362Y-83625000D01*
X146547508Y-83627900D01*
X146487119Y-83645444D01*
X146425964Y-83643522D01*
X146377618Y-83606020D01*
X146360500Y-83550375D01*
X146360500Y-82990330D01*
X146379407Y-82932139D01*
X146389491Y-82920332D01*
X146521217Y-82788605D01*
X146537063Y-82775737D01*
X146547536Y-82768896D01*
X146568850Y-82741511D01*
X146572920Y-82736903D01*
X146576035Y-82733789D01*
X146589065Y-82715539D01*
X146621434Y-82673952D01*
X146621433Y-82673952D01*
X146621435Y-82673951D01*
X146625035Y-82667297D01*
X146628348Y-82660521D01*
X146628347Y-82660521D01*
X146628349Y-82660520D01*
X146643394Y-82609984D01*
X146660500Y-82560157D01*
X146660500Y-82560152D01*
X146661746Y-82552689D01*
X146662677Y-82545214D01*
X146662679Y-82545208D01*
X146660500Y-82492535D01*
X146660500Y-81770844D01*
X146662607Y-81750528D01*
X146665173Y-81738291D01*
X146660880Y-81703850D01*
X146660500Y-81697723D01*
X146660500Y-81693314D01*
X146656810Y-81671203D01*
X146651617Y-81629544D01*
X146650291Y-81618902D01*
X146650287Y-81618895D01*
X146648131Y-81611650D01*
X146645682Y-81604517D01*
X146645682Y-81604514D01*
X146620594Y-81558156D01*
X146597450Y-81510813D01*
X146597447Y-81510810D01*
X146593054Y-81504656D01*
X146588419Y-81498701D01*
X146549635Y-81462998D01*
X145865420Y-80778783D01*
X145852544Y-80762926D01*
X145845709Y-80752464D01*
X145818326Y-80731151D01*
X145813731Y-80727094D01*
X145810602Y-80723965D01*
X145792352Y-80710934D01*
X145765294Y-80689874D01*
X145750764Y-80678565D01*
X145744095Y-80674956D01*
X145737333Y-80671651D01*
X145686800Y-80656606D01*
X145636969Y-80639499D01*
X145629498Y-80638253D01*
X145622020Y-80637321D01*
X145622019Y-80637321D01*
X145569347Y-80639500D01*
X143472098Y-80639500D01*
X143413907Y-80620593D01*
X143402094Y-80610504D01*
X143089496Y-80297906D01*
X143061719Y-80243389D01*
X143060500Y-80227902D01*
X143060500Y-78899000D01*
X143079407Y-78840809D01*
X143128907Y-78804845D01*
X143159500Y-78800000D01*
X144323259Y-78800000D01*
X144381450Y-78818907D01*
X144417414Y-78868407D01*
X144417414Y-78929593D01*
X144415831Y-78934090D01*
X144402792Y-78968473D01*
X144373544Y-79045593D01*
X144373543Y-79045594D01*
X144354796Y-79199998D01*
X144354796Y-79200001D01*
X144373543Y-79354405D01*
X144373544Y-79354407D01*
X144426406Y-79493792D01*
X144428701Y-79499843D01*
X144428702Y-79499845D01*
X144517053Y-79627844D01*
X144517058Y-79627850D01*
X144633477Y-79730989D01*
X144633480Y-79730991D01*
X144633482Y-79730992D01*
X144771208Y-79803276D01*
X144922229Y-79840500D01*
X144922233Y-79840500D01*
X145077767Y-79840500D01*
X145077771Y-79840500D01*
X145228792Y-79803276D01*
X145366518Y-79730992D01*
X145366520Y-79730989D01*
X145366522Y-79730989D01*
X145482941Y-79627850D01*
X145482946Y-79627844D01*
X145571080Y-79500159D01*
X145571189Y-79500001D01*
X147654796Y-79500001D01*
X147673543Y-79654405D01*
X147673544Y-79654406D01*
X147728701Y-79799843D01*
X147728702Y-79799845D01*
X147817053Y-79927844D01*
X147817058Y-79927850D01*
X147933477Y-80030989D01*
X147933480Y-80030991D01*
X147933482Y-80030992D01*
X148071208Y-80103276D01*
X148222229Y-80140500D01*
X148222233Y-80140500D01*
X148377767Y-80140500D01*
X148377771Y-80140500D01*
X148528792Y-80103276D01*
X148666518Y-80030992D01*
X148666520Y-80030989D01*
X148666522Y-80030989D01*
X148782941Y-79927850D01*
X148782946Y-79927844D01*
X148868929Y-79803276D01*
X148871300Y-79799841D01*
X148926456Y-79654407D01*
X148945204Y-79500000D01*
X148944543Y-79494560D01*
X148926456Y-79345594D01*
X148926456Y-79345593D01*
X148871300Y-79200159D01*
X148871191Y-79200001D01*
X148782946Y-79072155D01*
X148782941Y-79072149D01*
X148698851Y-78997652D01*
X148667832Y-78944912D01*
X148665500Y-78923550D01*
X148665500Y-75892401D01*
X148684407Y-75834210D01*
X148694490Y-75822404D01*
X148950770Y-75566123D01*
X149005285Y-75538347D01*
X149065717Y-75547918D01*
X149066779Y-75548468D01*
X149142976Y-75588459D01*
X149171208Y-75603276D01*
X149322229Y-75640500D01*
X149322233Y-75640500D01*
X149477767Y-75640500D01*
X149477771Y-75640500D01*
X149628792Y-75603276D01*
X149766518Y-75530992D01*
X149766520Y-75530989D01*
X149766522Y-75530989D01*
X149882941Y-75427850D01*
X149882946Y-75427844D01*
X149902165Y-75400000D01*
X155400000Y-75400000D01*
X155400000Y-79000000D01*
X159000000Y-79000000D01*
X159000000Y-75400000D01*
X155400000Y-75400000D01*
X149902165Y-75400000D01*
X149971297Y-75299845D01*
X149971300Y-75299841D01*
X150009165Y-75200000D01*
X159054836Y-75200000D01*
X159073411Y-75341095D01*
X159073413Y-75341103D01*
X159127872Y-75472579D01*
X159127873Y-75472581D01*
X159127874Y-75472582D01*
X159214511Y-75585489D01*
X159327418Y-75672126D01*
X159327419Y-75672126D01*
X159327420Y-75672127D01*
X159451900Y-75723688D01*
X159458901Y-75726588D01*
X159564725Y-75740520D01*
X159599999Y-75745164D01*
X159600000Y-75745164D01*
X159600001Y-75745164D01*
X159628219Y-75741448D01*
X159741099Y-75726588D01*
X159872582Y-75672126D01*
X159985489Y-75585489D01*
X159985490Y-75585487D01*
X159990636Y-75581539D01*
X159992452Y-75583906D01*
X160035998Y-75561719D01*
X160051485Y-75560500D01*
X160510500Y-75560500D01*
X160568691Y-75579407D01*
X160604655Y-75628907D01*
X160609500Y-75659500D01*
X160609500Y-75723688D01*
X160623454Y-75793839D01*
X160623455Y-75793840D01*
X160625357Y-75803401D01*
X160622007Y-75804067D01*
X160625337Y-75846595D01*
X160625357Y-75846599D01*
X160625343Y-75846668D01*
X160625459Y-75848149D01*
X160624400Y-75851406D01*
X160623454Y-75856160D01*
X160623454Y-75856161D01*
X160604788Y-75950000D01*
X160604788Y-76571889D01*
X160614721Y-76640973D01*
X160655228Y-76778928D01*
X160658882Y-76786929D01*
X160684222Y-76842417D01*
X160684226Y-76842424D01*
X160761945Y-76963359D01*
X160761951Y-76963367D01*
X160761953Y-76963369D01*
X160807661Y-77016118D01*
X160807668Y-77016124D01*
X160807670Y-77016126D01*
X160916315Y-77110267D01*
X160916320Y-77110270D01*
X160916322Y-77110272D01*
X160975035Y-77148004D01*
X161105820Y-77207732D01*
X161132061Y-77215437D01*
X161168393Y-77226106D01*
X161218899Y-77260642D01*
X161239460Y-77318269D01*
X161239500Y-77321095D01*
X161239500Y-77409668D01*
X161220593Y-77467859D01*
X161210503Y-77479672D01*
X160878783Y-77811391D01*
X160862934Y-77824263D01*
X160852464Y-77831104D01*
X160852461Y-77831106D01*
X160831146Y-77858490D01*
X160827087Y-77863087D01*
X160823971Y-77866203D01*
X160823965Y-77866211D01*
X160810934Y-77884460D01*
X160778566Y-77926047D01*
X160774963Y-77932704D01*
X160771651Y-77939479D01*
X160756606Y-77990012D01*
X160739500Y-78039841D01*
X160738252Y-78047316D01*
X160737321Y-78054795D01*
X160739500Y-78107465D01*
X160739500Y-80052342D01*
X160737393Y-80072656D01*
X160734827Y-80084896D01*
X160737118Y-80103276D01*
X160739120Y-80119334D01*
X160739500Y-80125462D01*
X160739500Y-80129874D01*
X160743189Y-80151981D01*
X160749709Y-80204288D01*
X160751864Y-80211526D01*
X160754317Y-80218672D01*
X160779406Y-80265032D01*
X160802549Y-80312372D01*
X160806954Y-80318541D01*
X160811580Y-80324485D01*
X160811581Y-80324486D01*
X160850364Y-80360188D01*
X166710505Y-86220329D01*
X166738281Y-86274844D01*
X166739500Y-86290331D01*
X166739500Y-95675980D01*
X166720593Y-95734171D01*
X166671093Y-95770135D01*
X166665105Y-95771490D01*
X166665170Y-95771732D01*
X166658900Y-95773412D01*
X166527420Y-95827872D01*
X166414512Y-95914510D01*
X166414510Y-95914512D01*
X166327872Y-96027420D01*
X166273413Y-96158896D01*
X166273411Y-96158904D01*
X166254836Y-96299999D01*
X166254836Y-96300000D01*
X166273411Y-96441095D01*
X166273413Y-96441103D01*
X166327872Y-96572579D01*
X166327873Y-96572581D01*
X166327874Y-96572582D01*
X166414511Y-96685489D01*
X166527418Y-96772126D01*
X166527419Y-96772126D01*
X166527420Y-96772127D01*
X166658896Y-96826586D01*
X166658901Y-96826588D01*
X166754433Y-96839165D01*
X166799999Y-96845164D01*
X166800000Y-96845164D01*
X166800001Y-96845164D01*
X166828219Y-96841448D01*
X166941099Y-96826588D01*
X167072582Y-96772126D01*
X167185489Y-96685489D01*
X167272126Y-96572582D01*
X167326588Y-96441099D01*
X167345164Y-96300000D01*
X167345164Y-96299999D01*
X167346011Y-96293567D01*
X167349050Y-96293967D01*
X167364071Y-96247738D01*
X167366011Y-96245158D01*
X167368852Y-96241507D01*
X167372891Y-96236932D01*
X167376035Y-96233789D01*
X167389065Y-96215539D01*
X167401825Y-96199145D01*
X167421435Y-96173951D01*
X167425035Y-96167297D01*
X167428348Y-96160521D01*
X167428347Y-96160521D01*
X167428349Y-96160520D01*
X167443394Y-96109984D01*
X167460500Y-96060157D01*
X167460500Y-96060152D01*
X167461746Y-96052689D01*
X167462677Y-96045214D01*
X167462679Y-96045208D01*
X167460500Y-95992535D01*
X167460500Y-86147652D01*
X167462607Y-86127336D01*
X167465172Y-86115104D01*
X167460879Y-86080667D01*
X167460500Y-86074543D01*
X167460500Y-86070126D01*
X167456809Y-86048008D01*
X167450291Y-85995714D01*
X167450287Y-85995707D01*
X167448137Y-85988483D01*
X167445683Y-85981334D01*
X167445682Y-85981327D01*
X167420593Y-85934967D01*
X167397449Y-85887625D01*
X167397446Y-85887622D01*
X167393050Y-85881465D01*
X167388419Y-85875514D01*
X167349635Y-85839811D01*
X161489496Y-79979672D01*
X161461719Y-79925155D01*
X161460500Y-79909668D01*
X161460500Y-79397712D01*
X161479407Y-79339521D01*
X161528907Y-79303557D01*
X161590093Y-79303557D01*
X161625151Y-79323611D01*
X161633482Y-79330992D01*
X161771208Y-79403276D01*
X161922229Y-79440500D01*
X161922233Y-79440500D01*
X162077767Y-79440500D01*
X162077771Y-79440500D01*
X162228792Y-79403276D01*
X162293573Y-79369276D01*
X162353880Y-79358976D01*
X162408729Y-79386092D01*
X162437164Y-79440268D01*
X162429320Y-79493989D01*
X162430824Y-79494560D01*
X162428701Y-79500157D01*
X162428700Y-79500159D01*
X162380275Y-79627844D01*
X162373544Y-79645593D01*
X162373543Y-79645594D01*
X162354796Y-79799998D01*
X162354796Y-79800001D01*
X162373543Y-79954405D01*
X162373544Y-79954407D01*
X162423032Y-80084896D01*
X162428701Y-80099843D01*
X162428702Y-80099845D01*
X162517053Y-80227844D01*
X162517058Y-80227850D01*
X162633477Y-80330989D01*
X162633480Y-80330991D01*
X162633482Y-80330992D01*
X162771208Y-80403276D01*
X162922229Y-80440500D01*
X162922233Y-80440500D01*
X163077767Y-80440500D01*
X163077771Y-80440500D01*
X163228792Y-80403276D01*
X163366518Y-80330992D01*
X163366520Y-80330989D01*
X163366522Y-80330989D01*
X163482941Y-80227850D01*
X163482946Y-80227844D01*
X163571297Y-80099845D01*
X163571300Y-80099841D01*
X163626456Y-79954407D01*
X163645204Y-79800000D01*
X163626456Y-79645593D01*
X163571300Y-79500159D01*
X163571298Y-79500157D01*
X163569176Y-79494560D01*
X163571199Y-79493792D01*
X163562461Y-79442632D01*
X163589578Y-79387784D01*
X163643755Y-79359350D01*
X163704299Y-79368191D01*
X163706366Y-79369244D01*
X163771208Y-79403276D01*
X163922229Y-79440500D01*
X163922233Y-79440500D01*
X164077767Y-79440500D01*
X164077771Y-79440500D01*
X164228792Y-79403276D01*
X164366518Y-79330992D01*
X164366520Y-79330989D01*
X164366522Y-79330989D01*
X164482941Y-79227850D01*
X164482946Y-79227844D01*
X164571297Y-79099845D01*
X164571300Y-79099841D01*
X164626456Y-78954407D01*
X164645204Y-78800000D01*
X164626456Y-78645593D01*
X164571300Y-78500159D01*
X164571297Y-78500154D01*
X164482946Y-78372155D01*
X164482941Y-78372149D01*
X164366522Y-78269010D01*
X164235764Y-78200383D01*
X164228792Y-78196724D01*
X164228791Y-78196723D01*
X164228790Y-78196723D01*
X164077774Y-78159500D01*
X164077771Y-78159500D01*
X163922229Y-78159500D01*
X163922225Y-78159500D01*
X163771209Y-78196723D01*
X163633480Y-78269009D01*
X163605150Y-78294108D01*
X163549056Y-78318544D01*
X163489312Y-78305341D01*
X163448738Y-78259544D01*
X163440500Y-78220006D01*
X163440500Y-73510005D01*
X163459407Y-73451814D01*
X163473853Y-73435901D01*
X163482937Y-73427853D01*
X163482942Y-73427849D01*
X163571300Y-73299841D01*
X163626456Y-73154407D01*
X163645204Y-73000000D01*
X163626456Y-72845593D01*
X163571300Y-72700159D01*
X163570104Y-72698426D01*
X163482946Y-72572155D01*
X163482941Y-72572149D01*
X163366522Y-72469010D01*
X163228790Y-72396723D01*
X163077774Y-72359500D01*
X163077771Y-72359500D01*
X162922229Y-72359500D01*
X162922225Y-72359500D01*
X162771209Y-72396723D01*
X162633477Y-72469010D01*
X162517064Y-72572144D01*
X162517055Y-72572154D01*
X162503536Y-72591740D01*
X162454919Y-72628889D01*
X162422062Y-72634500D01*
X162073172Y-72634500D01*
X162052857Y-72632393D01*
X162040314Y-72629763D01*
X162040313Y-72629763D01*
X162005356Y-72634120D01*
X161999233Y-72634500D01*
X161994713Y-72634500D01*
X161972292Y-72638241D01*
X161919265Y-72644851D01*
X161911931Y-72647034D01*
X161904679Y-72649524D01*
X161873349Y-72666479D01*
X161857684Y-72674957D01*
X161834216Y-72686430D01*
X161809680Y-72698425D01*
X161803435Y-72702884D01*
X161797399Y-72707582D01*
X161761209Y-72746895D01*
X161682632Y-72825472D01*
X161669751Y-72843513D01*
X161659187Y-72855986D01*
X161392029Y-73123145D01*
X161337512Y-73150923D01*
X161322025Y-73152142D01*
X161315098Y-73152142D01*
X161172792Y-73172603D01*
X161172788Y-73172603D01*
X161172787Y-73172604D01*
X161172785Y-73172604D01*
X161172774Y-73172607D01*
X161105824Y-73192266D01*
X160975033Y-73251997D01*
X160975026Y-73252001D01*
X160916324Y-73289726D01*
X160916315Y-73289732D01*
X160807670Y-73383873D01*
X160807653Y-73383890D01*
X160761951Y-73436632D01*
X160761945Y-73436640D01*
X160684226Y-73557575D01*
X160684222Y-73557582D01*
X160655227Y-73621074D01*
X160614721Y-73759025D01*
X160614720Y-73759030D01*
X160604788Y-73828111D01*
X160604788Y-74450000D01*
X160623454Y-74543839D01*
X160623455Y-74543840D01*
X160625357Y-74553401D01*
X160622007Y-74554067D01*
X160625337Y-74596595D01*
X160625357Y-74596599D01*
X160625343Y-74596668D01*
X160625459Y-74598149D01*
X160624400Y-74601406D01*
X160623454Y-74606160D01*
X160623454Y-74606161D01*
X160618468Y-74631228D01*
X160609500Y-74676311D01*
X160609500Y-74740500D01*
X160590593Y-74798691D01*
X160541093Y-74834655D01*
X160510500Y-74839500D01*
X160051485Y-74839500D01*
X159993294Y-74820593D01*
X159990700Y-74818377D01*
X159990636Y-74818461D01*
X159985490Y-74814512D01*
X159985489Y-74814511D01*
X159872582Y-74727874D01*
X159872581Y-74727873D01*
X159872579Y-74727872D01*
X159741103Y-74673413D01*
X159741095Y-74673411D01*
X159600001Y-74654836D01*
X159599999Y-74654836D01*
X159458904Y-74673411D01*
X159458896Y-74673413D01*
X159327420Y-74727872D01*
X159214512Y-74814510D01*
X159214510Y-74814512D01*
X159127872Y-74927420D01*
X159073413Y-75058896D01*
X159073411Y-75058904D01*
X159054836Y-75199999D01*
X159054836Y-75200000D01*
X150009165Y-75200000D01*
X150026456Y-75154407D01*
X150045204Y-75000000D01*
X150040307Y-74959672D01*
X150026456Y-74845594D01*
X150026456Y-74845593D01*
X149971300Y-74700159D01*
X149970102Y-74698423D01*
X149882946Y-74572155D01*
X149882941Y-74572149D01*
X149766522Y-74469010D01*
X149628790Y-74396723D01*
X149477774Y-74359500D01*
X149477771Y-74359500D01*
X149322229Y-74359500D01*
X149322225Y-74359500D01*
X149171209Y-74396723D01*
X149033477Y-74469010D01*
X148917064Y-74572144D01*
X148917055Y-74572154D01*
X148867641Y-74643740D01*
X148829650Y-74676439D01*
X148784683Y-74698423D01*
X148778435Y-74702884D01*
X148772399Y-74707582D01*
X148736209Y-74746895D01*
X148075611Y-75407491D01*
X148059763Y-75420362D01*
X148049034Y-75427372D01*
X148049031Y-75427375D01*
X148027395Y-75455171D01*
X148023336Y-75459768D01*
X148020141Y-75462963D01*
X148020134Y-75462971D01*
X148006930Y-75481465D01*
X147974105Y-75523637D01*
X147970477Y-75530341D01*
X147967096Y-75537256D01*
X147951853Y-75588460D01*
X147934499Y-75639009D01*
X147933240Y-75646553D01*
X147932292Y-75654167D01*
X147934500Y-75707549D01*
X147934500Y-78923550D01*
X147915593Y-78981741D01*
X147901149Y-78997652D01*
X147817058Y-79072149D01*
X147817053Y-79072155D01*
X147728702Y-79200154D01*
X147728701Y-79200156D01*
X147673544Y-79345593D01*
X147673543Y-79345594D01*
X147654796Y-79499998D01*
X147654796Y-79500001D01*
X145571189Y-79500001D01*
X145571300Y-79499841D01*
X145626456Y-79354407D01*
X145640287Y-79240500D01*
X145645204Y-79200001D01*
X145645204Y-79199998D01*
X145626456Y-79045594D01*
X145626456Y-79045593D01*
X145571300Y-78900159D01*
X145558022Y-78880923D01*
X145540500Y-78824687D01*
X145540500Y-75310005D01*
X145559407Y-75251814D01*
X145573853Y-75235901D01*
X145582937Y-75227853D01*
X145582942Y-75227849D01*
X145671300Y-75099841D01*
X145726456Y-74954407D01*
X145742704Y-74820593D01*
X145745204Y-74800001D01*
X145745204Y-74799998D01*
X145726456Y-74645594D01*
X145726456Y-74645593D01*
X145671300Y-74500159D01*
X145671297Y-74500154D01*
X145582946Y-74372155D01*
X145582941Y-74372149D01*
X145500000Y-74298669D01*
X145500000Y-72000000D01*
X164423905Y-72000000D01*
X164482096Y-72018907D01*
G37*
%TD.AperFunction*%
%TA.AperFunction,Conductor*%
G36*
X149768896Y-91036973D02*
G01*
X149811014Y-91081355D01*
X149819000Y-91142017D01*
X149816879Y-91151069D01*
X149763475Y-91338761D01*
X149745415Y-91533667D01*
X149744828Y-91540000D01*
X149763475Y-91741237D01*
X149818783Y-91935622D01*
X149908866Y-92116534D01*
X150030658Y-92277813D01*
X150180011Y-92413966D01*
X150351840Y-92520358D01*
X150540292Y-92593365D01*
X150738950Y-92630500D01*
X150941050Y-92630500D01*
X151122310Y-92596617D01*
X151182983Y-92604510D01*
X151227430Y-92646558D01*
X151239500Y-92693931D01*
X151239500Y-97352342D01*
X151237393Y-97372656D01*
X151234827Y-97384894D01*
X151239120Y-97419334D01*
X151239500Y-97425462D01*
X151239500Y-97429874D01*
X151243189Y-97451981D01*
X151249709Y-97504288D01*
X151251864Y-97511526D01*
X151254317Y-97518672D01*
X151279406Y-97565032D01*
X151302549Y-97612372D01*
X151306954Y-97618541D01*
X151311582Y-97624487D01*
X151350364Y-97660188D01*
X151944460Y-98254284D01*
X151957335Y-98270140D01*
X151964171Y-98280603D01*
X151989467Y-98300291D01*
X151991550Y-98301913D01*
X151996147Y-98305972D01*
X151999275Y-98309099D01*
X151999278Y-98309102D01*
X152017527Y-98322132D01*
X152034018Y-98334967D01*
X152059115Y-98354501D01*
X152065768Y-98358101D01*
X152072544Y-98361414D01*
X152072547Y-98361416D01*
X152123079Y-98376460D01*
X152172910Y-98393567D01*
X152172912Y-98393567D01*
X152180377Y-98394813D01*
X152187854Y-98395744D01*
X152187860Y-98395746D01*
X152238440Y-98393653D01*
X152240533Y-98393567D01*
X153593086Y-98393567D01*
X153651277Y-98412474D01*
X153653347Y-98414020D01*
X153749448Y-98487761D01*
X153749449Y-98487761D01*
X153749450Y-98487762D01*
X153869251Y-98537385D01*
X153880931Y-98542223D01*
X153986755Y-98556155D01*
X154022029Y-98560799D01*
X154022030Y-98560799D01*
X154022031Y-98560799D01*
X154050249Y-98557083D01*
X154163129Y-98542223D01*
X154294612Y-98487761D01*
X154407519Y-98401124D01*
X154494156Y-98288217D01*
X154548618Y-98156734D01*
X154567194Y-98015635D01*
X154566368Y-98009364D01*
X154558357Y-97948514D01*
X154548618Y-97874536D01*
X154538656Y-97850486D01*
X154494157Y-97743055D01*
X154494156Y-97743054D01*
X154494156Y-97743053D01*
X154407519Y-97630146D01*
X154294612Y-97543509D01*
X154294611Y-97543508D01*
X154294609Y-97543507D01*
X154163133Y-97489048D01*
X154163125Y-97489046D01*
X154022031Y-97470471D01*
X154022029Y-97470471D01*
X153945371Y-97480563D01*
X153885210Y-97469413D01*
X153843093Y-97425030D01*
X153834296Y-97395332D01*
X153827156Y-97341099D01*
X153818055Y-97271968D01*
X153788245Y-97200000D01*
X153763594Y-97140487D01*
X153763593Y-97140486D01*
X153763593Y-97140485D01*
X153676956Y-97027578D01*
X153676954Y-97027576D01*
X153673006Y-97022431D01*
X153675361Y-97020623D01*
X153653173Y-96976984D01*
X153651967Y-96961581D01*
X153651967Y-95239124D01*
X153654074Y-95218808D01*
X153656640Y-95206571D01*
X153652347Y-95172130D01*
X153651967Y-95166003D01*
X153651967Y-95161594D01*
X153648277Y-95139483D01*
X153646760Y-95127311D01*
X153641758Y-95087182D01*
X153641754Y-95087175D01*
X153639598Y-95079930D01*
X153637149Y-95072797D01*
X153637149Y-95072794D01*
X153612061Y-95026436D01*
X153588917Y-94979093D01*
X153588914Y-94979090D01*
X153584521Y-94972936D01*
X153579886Y-94966981D01*
X153541102Y-94931278D01*
X152489496Y-93879672D01*
X152461719Y-93825155D01*
X152460500Y-93809668D01*
X152460500Y-92401603D01*
X152479407Y-92343412D01*
X152528907Y-92307448D01*
X152590093Y-92307448D01*
X152626191Y-92328438D01*
X152720011Y-92413966D01*
X152891840Y-92520358D01*
X153080292Y-92593365D01*
X153278950Y-92630500D01*
X153481050Y-92630500D01*
X153679708Y-92593365D01*
X153795301Y-92548582D01*
X153856393Y-92545192D01*
X153901069Y-92570893D01*
X154010504Y-92680328D01*
X154038281Y-92734845D01*
X154039500Y-92750332D01*
X154039500Y-95374595D01*
X154037393Y-95394911D01*
X154034827Y-95407146D01*
X154034827Y-95407148D01*
X154034827Y-95407150D01*
X154039120Y-95441588D01*
X154039500Y-95447716D01*
X154039500Y-95452128D01*
X154043189Y-95474235D01*
X154049709Y-95526542D01*
X154051864Y-95533780D01*
X154054317Y-95540926D01*
X154079406Y-95587286D01*
X154102549Y-95634626D01*
X154106954Y-95640795D01*
X154111580Y-95646739D01*
X154111581Y-95646740D01*
X154150364Y-95682442D01*
X155010505Y-96542583D01*
X155038281Y-96597098D01*
X155039500Y-96612585D01*
X155039500Y-101009668D01*
X155020593Y-101067859D01*
X155010504Y-101079672D01*
X154350486Y-101739689D01*
X154295969Y-101767466D01*
X154235537Y-101757895D01*
X154192272Y-101714630D01*
X154182701Y-101654198D01*
X154189016Y-101631805D01*
X154226588Y-101541099D01*
X154245164Y-101400000D01*
X154226588Y-101258901D01*
X154198380Y-101190800D01*
X154172127Y-101127420D01*
X154172126Y-101127419D01*
X154172126Y-101127418D01*
X154085489Y-101014511D01*
X153972582Y-100927874D01*
X153972581Y-100927873D01*
X153972579Y-100927872D01*
X153841103Y-100873413D01*
X153841095Y-100873411D01*
X153693567Y-100853989D01*
X153693956Y-100851030D01*
X153647477Y-100835929D01*
X153635664Y-100825840D01*
X149396114Y-96586290D01*
X149368337Y-96531773D01*
X149377908Y-96471341D01*
X149405850Y-96437744D01*
X149410632Y-96434073D01*
X149410635Y-96434073D01*
X149523542Y-96347436D01*
X149610179Y-96234529D01*
X149664641Y-96103046D01*
X149683217Y-95961947D01*
X149681007Y-95945164D01*
X149670098Y-95862299D01*
X149664641Y-95820848D01*
X149640009Y-95761380D01*
X149610180Y-95689367D01*
X149610179Y-95689366D01*
X149610179Y-95689365D01*
X149523542Y-95576458D01*
X149410635Y-95489821D01*
X149410634Y-95489820D01*
X149410632Y-95489819D01*
X149279156Y-95435360D01*
X149279148Y-95435358D01*
X149131620Y-95415936D01*
X149132009Y-95412977D01*
X149085530Y-95397876D01*
X149073717Y-95387787D01*
X148689496Y-95003566D01*
X148661719Y-94949049D01*
X148660500Y-94933562D01*
X148660500Y-92637629D01*
X148679407Y-92579438D01*
X148723735Y-92545315D01*
X148788160Y-92520358D01*
X148959989Y-92413966D01*
X149109342Y-92277813D01*
X149231134Y-92116534D01*
X149321217Y-91935622D01*
X149376525Y-91741237D01*
X149395172Y-91540000D01*
X149376525Y-91338763D01*
X149323756Y-91153301D01*
X149326017Y-91092159D01*
X149363785Y-91044022D01*
X149422635Y-91027278D01*
X149431875Y-91028054D01*
X149561832Y-91045164D01*
X149702931Y-91026588D01*
X149702934Y-91026586D01*
X149708735Y-91025823D01*
X149768896Y-91036973D01*
G37*
%TD.AperFunction*%
%TA.AperFunction,Conductor*%
G36*
X148500000Y-90237277D02*
G01*
X148517881Y-90235713D01*
X148729157Y-90179102D01*
X148927386Y-90086667D01*
X148984707Y-90046531D01*
X149043218Y-90028642D01*
X149101070Y-90048562D01*
X149136165Y-90098682D01*
X149135097Y-90159858D01*
X149120033Y-90187894D01*
X149089706Y-90227415D01*
X149089704Y-90227420D01*
X149035245Y-90358896D01*
X149035243Y-90358904D01*
X149016668Y-90499999D01*
X149016668Y-90500003D01*
X149018243Y-90511969D01*
X149007092Y-90572130D01*
X148962709Y-90614246D01*
X148902047Y-90622231D01*
X148867973Y-90609060D01*
X148788165Y-90559645D01*
X148788160Y-90559642D01*
X148699761Y-90525396D01*
X148599708Y-90486635D01*
X148599707Y-90486634D01*
X148599705Y-90486634D01*
X148401050Y-90449500D01*
X148198950Y-90449500D01*
X148000294Y-90486634D01*
X147965793Y-90500000D01*
X147811840Y-90559642D01*
X147640011Y-90666034D01*
X147518520Y-90776788D01*
X147490657Y-90802188D01*
X147474839Y-90823134D01*
X147424682Y-90858176D01*
X147363507Y-90857043D01*
X147314681Y-90820169D01*
X147306900Y-90806957D01*
X147297449Y-90787625D01*
X147297445Y-90787621D01*
X147293050Y-90781465D01*
X147288419Y-90775514D01*
X147249635Y-90739811D01*
X147180532Y-90670708D01*
X147106360Y-90596536D01*
X147078585Y-90542022D01*
X147088156Y-90481590D01*
X147131421Y-90438325D01*
X147163444Y-90428382D01*
X147177073Y-90426588D01*
X147308556Y-90372126D01*
X147421463Y-90285489D01*
X147508100Y-90172582D01*
X147525468Y-90130649D01*
X147565203Y-90084126D01*
X147624698Y-90069841D01*
X147668299Y-90085497D01*
X147668871Y-90084507D01*
X147672611Y-90086666D01*
X147870842Y-90179102D01*
X148082118Y-90235713D01*
X148099999Y-90237277D01*
X148100000Y-90237277D01*
X148100000Y-89458335D01*
X148157685Y-89484680D01*
X148264237Y-89500000D01*
X148335763Y-89500000D01*
X148442315Y-89484680D01*
X148500000Y-89458335D01*
X148500000Y-90237277D01*
G37*
%TD.AperFunction*%
%TA.AperFunction,Conductor*%
G36*
X151040000Y-90237277D02*
G01*
X151057881Y-90235713D01*
X151269157Y-90179102D01*
X151467386Y-90086667D01*
X151583716Y-90005212D01*
X151642227Y-89987323D01*
X151700079Y-90007243D01*
X151735174Y-90057363D01*
X151739500Y-90086308D01*
X151739500Y-90660164D01*
X151720593Y-90718355D01*
X151671093Y-90754319D01*
X151609907Y-90754319D01*
X151573806Y-90733327D01*
X151499989Y-90666034D01*
X151328160Y-90559642D01*
X151139708Y-90486635D01*
X151139707Y-90486634D01*
X151139705Y-90486634D01*
X150941050Y-90449500D01*
X150738950Y-90449500D01*
X150540294Y-90486634D01*
X150351839Y-90559642D01*
X150351837Y-90559643D01*
X150254239Y-90620073D01*
X150194811Y-90634631D01*
X150138175Y-90611477D01*
X150105966Y-90559456D01*
X150103970Y-90522982D01*
X150106996Y-90500000D01*
X150088420Y-90358901D01*
X150033958Y-90227418D01*
X149984660Y-90163172D01*
X149964237Y-90105498D01*
X149981614Y-90046832D01*
X150030156Y-90009585D01*
X150091320Y-90007983D01*
X150119987Y-90021810D01*
X150212613Y-90086667D01*
X150410842Y-90179102D01*
X150622118Y-90235713D01*
X150639999Y-90237277D01*
X150640000Y-90237277D01*
X150640000Y-89458335D01*
X150697685Y-89484680D01*
X150804237Y-89500000D01*
X150875763Y-89500000D01*
X150982315Y-89484680D01*
X151040000Y-89458335D01*
X151040000Y-90237277D01*
G37*
%TD.AperFunction*%
%TA.AperFunction,Conductor*%
G36*
X141524272Y-88818907D02*
G01*
X141560236Y-88868407D01*
X141565081Y-88899000D01*
X141565081Y-89101000D01*
X141546174Y-89159191D01*
X141496674Y-89195155D01*
X141466081Y-89200000D01*
X141142383Y-89200000D01*
X141180000Y-89071889D01*
X141180000Y-88928111D01*
X141142383Y-88800000D01*
X141466081Y-88800000D01*
X141524272Y-88818907D01*
G37*
%TD.AperFunction*%
%TA.AperFunction,Conductor*%
G36*
X142720000Y-88928111D02*
G01*
X142720000Y-89071889D01*
X142757617Y-89200000D01*
X142385081Y-89200000D01*
X142326890Y-89181093D01*
X142290926Y-89131593D01*
X142286081Y-89101000D01*
X142286081Y-88899000D01*
X142304988Y-88840809D01*
X142354488Y-88804845D01*
X142385081Y-88800000D01*
X142757617Y-88800000D01*
X142720000Y-88928111D01*
G37*
%TD.AperFunction*%
%TA.AperFunction,Conductor*%
G36*
X144098691Y-88818907D02*
G01*
X144134655Y-88868407D01*
X144139500Y-88899000D01*
X144139500Y-89101000D01*
X144120593Y-89159191D01*
X144071093Y-89195155D01*
X144040500Y-89200000D01*
X143682383Y-89200000D01*
X143720000Y-89071889D01*
X143720000Y-88928111D01*
X143682383Y-88800000D01*
X144040500Y-88800000D01*
X144098691Y-88818907D01*
G37*
%TD.AperFunction*%
%TA.AperFunction,Conductor*%
G36*
X145260000Y-88928111D02*
G01*
X145260000Y-89071889D01*
X145297617Y-89200000D01*
X144959500Y-89200000D01*
X144901309Y-89181093D01*
X144865345Y-89131593D01*
X144860500Y-89101000D01*
X144860500Y-88899000D01*
X144879407Y-88840809D01*
X144928907Y-88804845D01*
X144959500Y-88800000D01*
X145297617Y-88800000D01*
X145260000Y-88928111D01*
G37*
%TD.AperFunction*%
%TA.AperFunction,Conductor*%
G36*
X146634665Y-88818907D02*
G01*
X146670629Y-88868407D01*
X146675474Y-88899000D01*
X146675474Y-89101000D01*
X146656567Y-89159191D01*
X146607067Y-89195155D01*
X146576474Y-89200000D01*
X146222383Y-89200000D01*
X146260000Y-89071889D01*
X146260000Y-88928111D01*
X146222383Y-88800000D01*
X146576474Y-88800000D01*
X146634665Y-88818907D01*
G37*
%TD.AperFunction*%
%TA.AperFunction,Conductor*%
G36*
X147800000Y-88928111D02*
G01*
X147800000Y-89071889D01*
X147837617Y-89200000D01*
X147495474Y-89200000D01*
X147437283Y-89181093D01*
X147401319Y-89131593D01*
X147396474Y-89101000D01*
X147396474Y-88899000D01*
X147415381Y-88840809D01*
X147464881Y-88804845D01*
X147495474Y-88800000D01*
X147837617Y-88800000D01*
X147800000Y-88928111D01*
G37*
%TD.AperFunction*%
%TA.AperFunction,Conductor*%
G36*
X149160523Y-88818907D02*
G01*
X149196487Y-88868407D01*
X149201332Y-88899000D01*
X149201332Y-89101000D01*
X149182425Y-89159191D01*
X149132925Y-89195155D01*
X149102332Y-89200000D01*
X148762383Y-89200000D01*
X148800000Y-89071889D01*
X148800000Y-88928111D01*
X148762383Y-88800000D01*
X149102332Y-88800000D01*
X149160523Y-88818907D01*
G37*
%TD.AperFunction*%
%TA.AperFunction,Conductor*%
G36*
X150340000Y-88928111D02*
G01*
X150340000Y-89071889D01*
X150377617Y-89200000D01*
X150021332Y-89200000D01*
X149963141Y-89181093D01*
X149927177Y-89131593D01*
X149922332Y-89101000D01*
X149922332Y-88899000D01*
X149941239Y-88840809D01*
X149990739Y-88804845D01*
X150021332Y-88800000D01*
X150377617Y-88800000D01*
X150340000Y-88928111D01*
G37*
%TD.AperFunction*%
%TD*%
%TA.AperFunction,Conductor*%
%TO.N,GND*%
G36*
X158975182Y-75527930D02*
G01*
X159000000Y-75563884D01*
X159000000Y-79000000D01*
X155400000Y-79000000D01*
X155400000Y-75400000D01*
X158926665Y-75400000D01*
X158975182Y-75527930D01*
G37*
%TD.AperFunction*%
%TD*%
%TA.AperFunction,Conductor*%
%TO.N,GND*%
G36*
X139600000Y-79000000D02*
G01*
X136000000Y-79000000D01*
X136000000Y-75400000D01*
X139600000Y-75400000D01*
X139600000Y-79000000D01*
G37*
%TD.AperFunction*%
%TD*%
%TA.AperFunction,Conductor*%
%TO.N,GNDRF*%
G36*
X168627871Y-102018907D02*
G01*
X168663835Y-102068407D01*
X168663835Y-102129593D01*
X168641690Y-102166938D01*
X168577390Y-102235090D01*
X168577384Y-102235098D01*
X168490895Y-102384901D01*
X168462424Y-102480000D01*
X168950101Y-102480000D01*
X168901799Y-102543962D01*
X168871105Y-102651840D01*
X168881454Y-102763521D01*
X168931448Y-102863922D01*
X168949084Y-102880000D01*
X168458849Y-102880000D01*
X168461260Y-102893677D01*
X168529774Y-103052513D01*
X168529778Y-103052519D01*
X168633078Y-103191275D01*
X168633080Y-103191277D01*
X168765592Y-103302468D01*
X168920185Y-103380107D01*
X168920184Y-103380107D01*
X169088508Y-103420000D01*
X169374999Y-103420000D01*
X169375000Y-103419999D01*
X169375000Y-102980000D01*
X169775000Y-102980000D01*
X169775000Y-103419999D01*
X169775001Y-103420000D01*
X170018097Y-103420000D01*
X170146821Y-103404953D01*
X170146825Y-103404952D01*
X170309370Y-103345790D01*
X170309375Y-103345787D01*
X170346598Y-103321306D01*
X170405606Y-103305126D01*
X170462854Y-103326720D01*
X170496476Y-103377840D01*
X170500000Y-103404019D01*
X170500000Y-110595080D01*
X170481093Y-110653271D01*
X170431593Y-110689235D01*
X170370407Y-110689235D01*
X170356569Y-110683550D01*
X170229815Y-110619892D01*
X170061492Y-110580000D01*
X169775001Y-110580000D01*
X169775000Y-110580001D01*
X169775000Y-111020000D01*
X169375000Y-111020000D01*
X169375000Y-110580001D01*
X169374999Y-110580000D01*
X169131903Y-110580000D01*
X169003178Y-110595046D01*
X169003174Y-110595047D01*
X168840629Y-110654209D01*
X168840619Y-110654214D01*
X168696104Y-110749263D01*
X168696098Y-110749268D01*
X168577390Y-110875090D01*
X168577384Y-110875098D01*
X168490895Y-111024901D01*
X168462424Y-111120000D01*
X168950101Y-111120000D01*
X168901799Y-111183962D01*
X168871105Y-111291840D01*
X168881454Y-111403521D01*
X168931448Y-111503922D01*
X168949084Y-111520000D01*
X168458849Y-111520000D01*
X168461260Y-111533677D01*
X168529774Y-111692513D01*
X168529778Y-111692519D01*
X168633078Y-111831275D01*
X168633080Y-111831277D01*
X168765592Y-111942468D01*
X168920185Y-112020107D01*
X168920184Y-112020107D01*
X169088508Y-112060000D01*
X169374999Y-112060000D01*
X169375000Y-112059999D01*
X169375000Y-111620000D01*
X169775000Y-111620000D01*
X169775000Y-112059999D01*
X169775001Y-112060000D01*
X170018097Y-112060000D01*
X170146821Y-112044953D01*
X170146825Y-112044952D01*
X170309370Y-111985790D01*
X170309375Y-111985787D01*
X170346598Y-111961306D01*
X170405606Y-111945126D01*
X170462854Y-111966720D01*
X170496476Y-112017840D01*
X170500000Y-112044019D01*
X170500000Y-116958992D01*
X170481093Y-117017183D01*
X170471004Y-117028996D01*
X170028996Y-117471004D01*
X169974479Y-117498781D01*
X169958992Y-117500000D01*
X168826716Y-117500000D01*
X168768525Y-117481093D01*
X168732561Y-117431593D01*
X168732561Y-117370407D01*
X168751114Y-117337083D01*
X168751304Y-117336857D01*
X168775522Y-117308213D01*
X168934047Y-117059887D01*
X169058060Y-116792647D01*
X169145346Y-116511262D01*
X169194349Y-116220754D01*
X169204193Y-115926306D01*
X169174704Y-115633173D01*
X169106407Y-115346586D01*
X169000521Y-115071660D01*
X168858936Y-114813300D01*
X168769405Y-114691787D01*
X168684183Y-114576122D01*
X168684181Y-114576119D01*
X168578460Y-114466805D01*
X168479365Y-114364342D01*
X168479357Y-114364335D01*
X168479350Y-114364329D01*
X168248161Y-114181761D01*
X168248156Y-114181758D01*
X168248154Y-114181756D01*
X168116189Y-114103593D01*
X167994670Y-114031617D01*
X167994668Y-114031616D01*
X167810460Y-113953505D01*
X167723434Y-113916603D01*
X167723432Y-113916602D01*
X167723431Y-113916602D01*
X167723421Y-113916598D01*
X167439296Y-113838769D01*
X167439288Y-113838767D01*
X167192674Y-113805601D01*
X167147306Y-113799500D01*
X166926429Y-113799500D01*
X166860113Y-113803939D01*
X166706047Y-113814252D01*
X166417347Y-113872933D01*
X166417324Y-113872939D01*
X166139039Y-113969570D01*
X166139019Y-113969579D01*
X165876084Y-114102445D01*
X165633186Y-114269184D01*
X165414685Y-114466807D01*
X165414684Y-114466808D01*
X165224479Y-114691785D01*
X165224474Y-114691791D01*
X165065952Y-114940113D01*
X164941936Y-115207362D01*
X164854658Y-115488723D01*
X164854654Y-115488738D01*
X164805651Y-115779246D01*
X164800735Y-115926306D01*
X164795807Y-116073696D01*
X164825295Y-116366821D01*
X164893590Y-116653404D01*
X164893593Y-116653414D01*
X164999478Y-116928337D01*
X164999482Y-116928347D01*
X165141066Y-117186703D01*
X165141067Y-117186705D01*
X165255692Y-117342276D01*
X165274988Y-117400339D01*
X165256470Y-117458654D01*
X165207211Y-117494948D01*
X165175990Y-117500000D01*
X155119692Y-117500000D01*
X155081806Y-117492464D01*
X155000181Y-117458654D01*
X154593247Y-117290096D01*
X154264641Y-117153983D01*
X154232523Y-117132523D01*
X152658029Y-115558029D01*
X150953553Y-113853553D01*
X150600000Y-113500000D01*
X150100000Y-113500000D01*
X150099998Y-113500000D01*
X148597466Y-113500000D01*
X148539275Y-113481093D01*
X148503311Y-113431593D01*
X148503311Y-113370407D01*
X148515991Y-113344762D01*
X148549758Y-113295841D01*
X148553460Y-113290478D01*
X148606894Y-113149586D01*
X148625057Y-113000000D01*
X148624358Y-112994247D01*
X148606894Y-112850415D01*
X148606891Y-112850406D01*
X148553462Y-112709526D01*
X148553460Y-112709523D01*
X148553460Y-112709522D01*
X148467862Y-112585511D01*
X148355073Y-112485588D01*
X148327285Y-112471004D01*
X148221649Y-112415562D01*
X148075343Y-112379500D01*
X148075342Y-112379500D01*
X147924658Y-112379500D01*
X147924656Y-112379500D01*
X147778351Y-112415562D01*
X147778350Y-112415562D01*
X147644926Y-112485588D01*
X147532137Y-112585512D01*
X147446539Y-112709523D01*
X147446537Y-112709526D01*
X147393108Y-112850406D01*
X147393105Y-112850415D01*
X147374943Y-112999998D01*
X147374943Y-113000001D01*
X147393105Y-113149584D01*
X147393108Y-113149593D01*
X147446537Y-113290473D01*
X147446542Y-113290482D01*
X147484009Y-113344762D01*
X147501505Y-113403392D01*
X147481197Y-113461109D01*
X147430843Y-113495866D01*
X147402534Y-113500000D01*
X144597466Y-113500000D01*
X144539275Y-113481093D01*
X144503311Y-113431593D01*
X144503311Y-113370407D01*
X144515991Y-113344762D01*
X144549758Y-113295841D01*
X144553460Y-113290478D01*
X144606894Y-113149586D01*
X144625057Y-113000000D01*
X144624358Y-112994247D01*
X144606894Y-112850415D01*
X144606891Y-112850406D01*
X144553462Y-112709526D01*
X144553460Y-112709523D01*
X144553460Y-112709522D01*
X144467862Y-112585511D01*
X144355073Y-112485588D01*
X144327285Y-112471004D01*
X144221649Y-112415562D01*
X144075343Y-112379500D01*
X144075342Y-112379500D01*
X143924658Y-112379500D01*
X143924656Y-112379500D01*
X143778351Y-112415562D01*
X143778350Y-112415562D01*
X143644926Y-112485588D01*
X143532137Y-112585512D01*
X143446539Y-112709523D01*
X143446537Y-112709526D01*
X143393108Y-112850406D01*
X143393105Y-112850415D01*
X143374943Y-112999998D01*
X143374943Y-113000001D01*
X143393105Y-113149584D01*
X143393108Y-113149593D01*
X143446537Y-113290473D01*
X143446542Y-113290482D01*
X143484009Y-113344762D01*
X143501505Y-113403392D01*
X143481197Y-113461109D01*
X143430843Y-113495866D01*
X143402534Y-113500000D01*
X140597466Y-113500000D01*
X140539275Y-113481093D01*
X140503311Y-113431593D01*
X140503311Y-113370407D01*
X140515991Y-113344762D01*
X140549758Y-113295841D01*
X140553460Y-113290478D01*
X140606894Y-113149586D01*
X140625057Y-113000000D01*
X140624358Y-112994247D01*
X140606894Y-112850415D01*
X140606891Y-112850406D01*
X140553462Y-112709526D01*
X140553460Y-112709523D01*
X140553460Y-112709522D01*
X140467862Y-112585511D01*
X140355073Y-112485588D01*
X140327285Y-112471004D01*
X140221649Y-112415562D01*
X140075343Y-112379500D01*
X140075342Y-112379500D01*
X139924658Y-112379500D01*
X139924656Y-112379500D01*
X139778351Y-112415562D01*
X139778350Y-112415562D01*
X139644926Y-112485588D01*
X139532137Y-112585512D01*
X139446539Y-112709523D01*
X139446537Y-112709526D01*
X139393108Y-112850406D01*
X139393105Y-112850415D01*
X139374943Y-112999998D01*
X139374943Y-113000001D01*
X139393105Y-113149584D01*
X139393108Y-113149593D01*
X139446537Y-113290473D01*
X139446542Y-113290482D01*
X139484009Y-113344762D01*
X139501505Y-113403392D01*
X139481197Y-113461109D01*
X139430843Y-113495866D01*
X139402534Y-113500000D01*
X136597466Y-113500000D01*
X136539275Y-113481093D01*
X136503311Y-113431593D01*
X136503311Y-113370407D01*
X136515991Y-113344762D01*
X136549758Y-113295841D01*
X136553460Y-113290478D01*
X136606894Y-113149586D01*
X136625057Y-113000000D01*
X136624358Y-112994247D01*
X136606894Y-112850415D01*
X136606891Y-112850406D01*
X136553462Y-112709526D01*
X136553460Y-112709523D01*
X136553460Y-112709522D01*
X136467862Y-112585511D01*
X136355073Y-112485588D01*
X136327285Y-112471004D01*
X136221649Y-112415562D01*
X136075343Y-112379500D01*
X136075342Y-112379500D01*
X135924658Y-112379500D01*
X135924656Y-112379500D01*
X135778351Y-112415562D01*
X135778350Y-112415562D01*
X135644926Y-112485588D01*
X135532137Y-112585512D01*
X135446539Y-112709523D01*
X135446537Y-112709526D01*
X135393108Y-112850406D01*
X135393105Y-112850415D01*
X135374943Y-112999998D01*
X135374943Y-113000001D01*
X135393105Y-113149584D01*
X135393108Y-113149593D01*
X135446537Y-113290473D01*
X135446542Y-113290482D01*
X135484009Y-113344762D01*
X135501505Y-113403392D01*
X135481197Y-113461109D01*
X135430843Y-113495866D01*
X135402534Y-113500000D01*
X133600002Y-113500000D01*
X133600000Y-113500000D01*
X133100000Y-113500000D01*
X132746449Y-113853551D01*
X129467476Y-117132523D01*
X129435358Y-117153983D01*
X128618194Y-117492464D01*
X128580308Y-117500000D01*
X95878341Y-117500000D01*
X95820150Y-117481093D01*
X95784186Y-117431593D01*
X95784186Y-117370407D01*
X95790782Y-117354800D01*
X95824917Y-117290105D01*
X95824921Y-117290098D01*
X95953568Y-116959672D01*
X96043710Y-116616736D01*
X96094173Y-116265759D01*
X96104299Y-115911317D01*
X96073955Y-115558032D01*
X96003537Y-115210508D01*
X95893964Y-114873277D01*
X95746664Y-114550734D01*
X95563557Y-114247085D01*
X95513178Y-114181753D01*
X95347031Y-113966289D01*
X95347028Y-113966286D01*
X95256309Y-113872939D01*
X95099905Y-113712003D01*
X95099904Y-113712002D01*
X95099900Y-113711998D01*
X94825410Y-113487549D01*
X94825401Y-113487542D01*
X94527106Y-113295839D01*
X94358762Y-113213071D01*
X94208904Y-113139391D01*
X93874939Y-113020232D01*
X93874934Y-113020230D01*
X93874929Y-113020229D01*
X93529575Y-112939921D01*
X93529569Y-112939920D01*
X93529568Y-112939920D01*
X93177293Y-112899500D01*
X92911424Y-112899500D01*
X92745529Y-112908986D01*
X92645989Y-112914678D01*
X92296601Y-112975142D01*
X91956373Y-113075042D01*
X91629757Y-113213071D01*
X91321003Y-113387433D01*
X91192092Y-113481093D01*
X91034139Y-113595853D01*
X91034137Y-113595854D01*
X91034134Y-113595857D01*
X90965941Y-113658444D01*
X90910285Y-113683861D01*
X90850318Y-113671710D01*
X90808946Y-113626632D01*
X90800000Y-113585506D01*
X90800000Y-112000000D01*
X104500000Y-112000000D01*
X122958992Y-112000000D01*
X123017183Y-112018907D01*
X123028996Y-112028996D01*
X123471004Y-112471004D01*
X123498781Y-112525521D01*
X123500000Y-112541008D01*
X123500000Y-113700000D01*
X129999998Y-113700000D01*
X130000000Y-113700000D01*
X130500000Y-113700000D01*
X130579500Y-113620500D01*
X130675338Y-113620500D01*
X130675342Y-113620500D01*
X130821648Y-113584438D01*
X130955073Y-113514412D01*
X131067862Y-113414489D01*
X131153460Y-113290478D01*
X131206894Y-113149586D01*
X131224402Y-113005392D01*
X131250185Y-112949905D01*
X131252621Y-112947378D01*
X132232526Y-111967473D01*
X132264637Y-111946018D01*
X133081806Y-111607535D01*
X133119692Y-111600000D01*
X150380308Y-111600000D01*
X150418193Y-111607535D01*
X151235359Y-111946017D01*
X151267476Y-111967476D01*
X152294247Y-112994247D01*
X152317687Y-113031553D01*
X152346744Y-113114591D01*
X152346744Y-113114592D01*
X152368737Y-113149593D01*
X152433126Y-113252067D01*
X152547933Y-113366874D01*
X152547935Y-113366875D01*
X152547936Y-113366876D01*
X152650932Y-113431593D01*
X152685409Y-113453256D01*
X152707852Y-113461109D01*
X152789775Y-113489775D01*
X152800000Y-113500000D01*
X152818996Y-113500000D01*
X152838652Y-113506878D01*
X152838656Y-113506879D01*
X152838659Y-113506880D01*
X152838660Y-113506880D01*
X152838664Y-113506881D01*
X152999996Y-113525059D01*
X153000000Y-113525059D01*
X153000004Y-113525059D01*
X153107560Y-113512939D01*
X153161341Y-113506880D01*
X153181003Y-113500000D01*
X162999998Y-113500000D01*
X163000000Y-113500000D01*
X163500000Y-113500000D01*
X164940000Y-112060000D01*
X165194999Y-112060000D01*
X165195000Y-112059999D01*
X165195000Y-111620000D01*
X165595000Y-111620000D01*
X165595000Y-112059999D01*
X165595001Y-112060000D01*
X165988097Y-112060000D01*
X166116821Y-112044953D01*
X166116825Y-112044952D01*
X166279370Y-111985790D01*
X166279380Y-111985785D01*
X166423895Y-111890736D01*
X166423901Y-111890731D01*
X166542609Y-111764909D01*
X166542615Y-111764901D01*
X166629104Y-111615098D01*
X166657575Y-111520000D01*
X166169899Y-111520000D01*
X166218201Y-111456038D01*
X166248895Y-111348160D01*
X166238546Y-111236479D01*
X166188552Y-111136078D01*
X166170916Y-111120000D01*
X166661151Y-111120000D01*
X166658739Y-111106322D01*
X166590225Y-110947486D01*
X166590221Y-110947480D01*
X166486921Y-110808724D01*
X166486919Y-110808722D01*
X166354407Y-110697531D01*
X166199814Y-110619892D01*
X166199815Y-110619892D01*
X166146264Y-110607201D01*
X166094002Y-110575384D01*
X166070422Y-110518924D01*
X166084532Y-110459388D01*
X166130942Y-110419516D01*
X166131209Y-110419405D01*
X166143077Y-110414489D01*
X166187250Y-110396192D01*
X166308304Y-110303304D01*
X166401192Y-110182250D01*
X166459584Y-110041280D01*
X166479500Y-109890000D01*
X166459584Y-109738720D01*
X166401192Y-109597750D01*
X166308304Y-109476696D01*
X166187250Y-109383808D01*
X166046280Y-109325416D01*
X166046278Y-109325415D01*
X166046276Y-109325415D01*
X165932981Y-109310500D01*
X165932980Y-109310500D01*
X165857020Y-109310500D01*
X165857018Y-109310500D01*
X165743723Y-109325415D01*
X165743717Y-109325417D01*
X165602751Y-109383807D01*
X165481697Y-109476695D01*
X165481695Y-109476697D01*
X165388807Y-109597751D01*
X165330417Y-109738717D01*
X165330415Y-109738723D01*
X165315711Y-109850414D01*
X165310500Y-109890000D01*
X165330416Y-110041280D01*
X165344359Y-110074941D01*
X165385142Y-110173401D01*
X165388808Y-110182250D01*
X165481696Y-110303304D01*
X165539858Y-110347933D01*
X165607898Y-110400142D01*
X165607138Y-110401131D01*
X165643570Y-110441586D01*
X165649970Y-110502436D01*
X165623136Y-110551863D01*
X165595000Y-110579999D01*
X165595000Y-111020000D01*
X165195000Y-111020000D01*
X165195000Y-110580001D01*
X165194999Y-110580000D01*
X165099000Y-110580000D01*
X165040809Y-110561093D01*
X165004845Y-110511593D01*
X165000000Y-110481000D01*
X165000000Y-103519000D01*
X165018907Y-103460809D01*
X165068407Y-103424845D01*
X165099000Y-103420000D01*
X165194999Y-103420000D01*
X165195000Y-103419999D01*
X165195000Y-102980000D01*
X165595000Y-102980000D01*
X165595000Y-103419999D01*
X165623136Y-103448135D01*
X165650913Y-103502652D01*
X165641342Y-103563084D01*
X165607249Y-103599012D01*
X165607898Y-103599858D01*
X165481697Y-103696695D01*
X165481695Y-103696697D01*
X165388807Y-103817751D01*
X165330417Y-103958717D01*
X165330415Y-103958723D01*
X165310500Y-104109999D01*
X165310500Y-104110000D01*
X165330415Y-104261276D01*
X165330417Y-104261282D01*
X165379384Y-104379500D01*
X165388808Y-104402250D01*
X165481696Y-104523304D01*
X165602750Y-104616192D01*
X165743720Y-104674584D01*
X165857020Y-104689500D01*
X165857021Y-104689500D01*
X165932979Y-104689500D01*
X165932980Y-104689500D01*
X166046280Y-104674584D01*
X166187250Y-104616192D01*
X166308304Y-104523304D01*
X166401192Y-104402250D01*
X166459584Y-104261280D01*
X166479500Y-104110000D01*
X166459584Y-103958720D01*
X166401192Y-103817750D01*
X166308304Y-103696696D01*
X166187250Y-103603808D01*
X166177714Y-103599858D01*
X166133972Y-103581739D01*
X166087446Y-103542002D01*
X166073163Y-103482507D01*
X166096578Y-103425979D01*
X166137998Y-103397245D01*
X166279375Y-103345787D01*
X166279380Y-103345785D01*
X166423895Y-103250736D01*
X166423901Y-103250731D01*
X166542609Y-103124909D01*
X166542615Y-103124901D01*
X166629104Y-102975098D01*
X166657575Y-102880000D01*
X166169899Y-102880000D01*
X166218201Y-102816038D01*
X166248895Y-102708160D01*
X166238546Y-102596479D01*
X166188552Y-102496078D01*
X166170916Y-102480000D01*
X166661151Y-102480000D01*
X166658739Y-102466322D01*
X166590225Y-102307486D01*
X166590221Y-102307480D01*
X166486921Y-102168724D01*
X166485237Y-102166939D01*
X166484616Y-102165628D01*
X166483478Y-102164099D01*
X166483784Y-102163870D01*
X166459056Y-102111638D01*
X166470380Y-102051510D01*
X166514884Y-102009521D01*
X166557246Y-102000000D01*
X168569680Y-102000000D01*
X168627871Y-102018907D01*
G37*
%TD.AperFunction*%
%TD*%
M02*
