%TF.GenerationSoftware,KiCad,Pcbnew,7.0.9*%
%TF.CreationDate,2024-02-26T10:01:53+01:00*%
%TF.ProjectId,C2LoraGateway,43324c6f-7261-4476-9174-657761792e6b,rev?*%
%TF.SameCoordinates,Original*%
%TF.FileFunction,Legend,Top*%
%TF.FilePolarity,Positive*%
%FSLAX46Y46*%
G04 Gerber Fmt 4.6, Leading zero omitted, Abs format (unit mm)*
G04 Created by KiCad (PCBNEW 7.0.9) date 2024-02-26 10:01:53*
%MOMM*%
%LPD*%
G01*
G04 APERTURE LIST*
%ADD10C,0.150000*%
%ADD11C,0.175000*%
%ADD12C,0.100000*%
%ADD13C,0.120000*%
G04 APERTURE END LIST*
D10*
X160650000Y-93450000D02*
X160900000Y-93700000D01*
X157550000Y-93450000D02*
X160650000Y-93450000D01*
X125870112Y-114746009D02*
X126012969Y-114793628D01*
X126012969Y-114793628D02*
X126060588Y-114841247D01*
X126060588Y-114841247D02*
X126108207Y-114936485D01*
X126108207Y-114936485D02*
X126108207Y-115079342D01*
X126108207Y-115079342D02*
X126060588Y-115174580D01*
X126060588Y-115174580D02*
X126012969Y-115222200D01*
X126012969Y-115222200D02*
X125917731Y-115269819D01*
X125917731Y-115269819D02*
X125536779Y-115269819D01*
X125536779Y-115269819D02*
X125536779Y-114269819D01*
X125536779Y-114269819D02*
X125870112Y-114269819D01*
X125870112Y-114269819D02*
X125965350Y-114317438D01*
X125965350Y-114317438D02*
X126012969Y-114365057D01*
X126012969Y-114365057D02*
X126060588Y-114460295D01*
X126060588Y-114460295D02*
X126060588Y-114555533D01*
X126060588Y-114555533D02*
X126012969Y-114650771D01*
X126012969Y-114650771D02*
X125965350Y-114698390D01*
X125965350Y-114698390D02*
X125870112Y-114746009D01*
X125870112Y-114746009D02*
X125536779Y-114746009D01*
X126679636Y-115269819D02*
X126584398Y-115222200D01*
X126584398Y-115222200D02*
X126536779Y-115174580D01*
X126536779Y-115174580D02*
X126489160Y-115079342D01*
X126489160Y-115079342D02*
X126489160Y-114793628D01*
X126489160Y-114793628D02*
X126536779Y-114698390D01*
X126536779Y-114698390D02*
X126584398Y-114650771D01*
X126584398Y-114650771D02*
X126679636Y-114603152D01*
X126679636Y-114603152D02*
X126822493Y-114603152D01*
X126822493Y-114603152D02*
X126917731Y-114650771D01*
X126917731Y-114650771D02*
X126965350Y-114698390D01*
X126965350Y-114698390D02*
X127012969Y-114793628D01*
X127012969Y-114793628D02*
X127012969Y-115079342D01*
X127012969Y-115079342D02*
X126965350Y-115174580D01*
X126965350Y-115174580D02*
X126917731Y-115222200D01*
X126917731Y-115222200D02*
X126822493Y-115269819D01*
X126822493Y-115269819D02*
X126679636Y-115269819D01*
X127584398Y-115269819D02*
X127489160Y-115222200D01*
X127489160Y-115222200D02*
X127441541Y-115174580D01*
X127441541Y-115174580D02*
X127393922Y-115079342D01*
X127393922Y-115079342D02*
X127393922Y-114793628D01*
X127393922Y-114793628D02*
X127441541Y-114698390D01*
X127441541Y-114698390D02*
X127489160Y-114650771D01*
X127489160Y-114650771D02*
X127584398Y-114603152D01*
X127584398Y-114603152D02*
X127727255Y-114603152D01*
X127727255Y-114603152D02*
X127822493Y-114650771D01*
X127822493Y-114650771D02*
X127870112Y-114698390D01*
X127870112Y-114698390D02*
X127917731Y-114793628D01*
X127917731Y-114793628D02*
X127917731Y-115079342D01*
X127917731Y-115079342D02*
X127870112Y-115174580D01*
X127870112Y-115174580D02*
X127822493Y-115222200D01*
X127822493Y-115222200D02*
X127727255Y-115269819D01*
X127727255Y-115269819D02*
X127584398Y-115269819D01*
X128203446Y-114603152D02*
X128584398Y-114603152D01*
X128346303Y-114269819D02*
X128346303Y-115126961D01*
X128346303Y-115126961D02*
X128393922Y-115222200D01*
X128393922Y-115222200D02*
X128489160Y-115269819D01*
X128489160Y-115269819D02*
X128584398Y-115269819D01*
X97232017Y-117420866D02*
X97232017Y-116020866D01*
X97232017Y-116020866D02*
X97565350Y-116020866D01*
X97565350Y-116020866D02*
X97765350Y-116087533D01*
X97765350Y-116087533D02*
X97898684Y-116220866D01*
X97898684Y-116220866D02*
X97965350Y-116354200D01*
X97965350Y-116354200D02*
X98032017Y-116620866D01*
X98032017Y-116620866D02*
X98032017Y-116820866D01*
X98032017Y-116820866D02*
X97965350Y-117087533D01*
X97965350Y-117087533D02*
X97898684Y-117220866D01*
X97898684Y-117220866D02*
X97765350Y-117354200D01*
X97765350Y-117354200D02*
X97565350Y-117420866D01*
X97565350Y-117420866D02*
X97232017Y-117420866D01*
X99165350Y-117354200D02*
X99032017Y-117420866D01*
X99032017Y-117420866D02*
X98765350Y-117420866D01*
X98765350Y-117420866D02*
X98632017Y-117354200D01*
X98632017Y-117354200D02*
X98565350Y-117220866D01*
X98565350Y-117220866D02*
X98565350Y-116687533D01*
X98565350Y-116687533D02*
X98632017Y-116554200D01*
X98632017Y-116554200D02*
X98765350Y-116487533D01*
X98765350Y-116487533D02*
X99032017Y-116487533D01*
X99032017Y-116487533D02*
X99165350Y-116554200D01*
X99165350Y-116554200D02*
X99232017Y-116687533D01*
X99232017Y-116687533D02*
X99232017Y-116820866D01*
X99232017Y-116820866D02*
X98565350Y-116954200D01*
X99765350Y-117354200D02*
X99898684Y-117420866D01*
X99898684Y-117420866D02*
X100165350Y-117420866D01*
X100165350Y-117420866D02*
X100298684Y-117354200D01*
X100298684Y-117354200D02*
X100365350Y-117220866D01*
X100365350Y-117220866D02*
X100365350Y-117154200D01*
X100365350Y-117154200D02*
X100298684Y-117020866D01*
X100298684Y-117020866D02*
X100165350Y-116954200D01*
X100165350Y-116954200D02*
X99965350Y-116954200D01*
X99965350Y-116954200D02*
X99832017Y-116887533D01*
X99832017Y-116887533D02*
X99765350Y-116754200D01*
X99765350Y-116754200D02*
X99765350Y-116687533D01*
X99765350Y-116687533D02*
X99832017Y-116554200D01*
X99832017Y-116554200D02*
X99965350Y-116487533D01*
X99965350Y-116487533D02*
X100165350Y-116487533D01*
X100165350Y-116487533D02*
X100298684Y-116554200D01*
X100965350Y-117420866D02*
X100965350Y-116487533D01*
X100965350Y-116020866D02*
X100898683Y-116087533D01*
X100898683Y-116087533D02*
X100965350Y-116154200D01*
X100965350Y-116154200D02*
X101032017Y-116087533D01*
X101032017Y-116087533D02*
X100965350Y-116020866D01*
X100965350Y-116020866D02*
X100965350Y-116154200D01*
X102232017Y-116487533D02*
X102232017Y-117620866D01*
X102232017Y-117620866D02*
X102165350Y-117754200D01*
X102165350Y-117754200D02*
X102098684Y-117820866D01*
X102098684Y-117820866D02*
X101965350Y-117887533D01*
X101965350Y-117887533D02*
X101765350Y-117887533D01*
X101765350Y-117887533D02*
X101632017Y-117820866D01*
X102232017Y-117354200D02*
X102098684Y-117420866D01*
X102098684Y-117420866D02*
X101832017Y-117420866D01*
X101832017Y-117420866D02*
X101698684Y-117354200D01*
X101698684Y-117354200D02*
X101632017Y-117287533D01*
X101632017Y-117287533D02*
X101565350Y-117154200D01*
X101565350Y-117154200D02*
X101565350Y-116754200D01*
X101565350Y-116754200D02*
X101632017Y-116620866D01*
X101632017Y-116620866D02*
X101698684Y-116554200D01*
X101698684Y-116554200D02*
X101832017Y-116487533D01*
X101832017Y-116487533D02*
X102098684Y-116487533D01*
X102098684Y-116487533D02*
X102232017Y-116554200D01*
X102898684Y-116487533D02*
X102898684Y-117420866D01*
X102898684Y-116620866D02*
X102965351Y-116554200D01*
X102965351Y-116554200D02*
X103098684Y-116487533D01*
X103098684Y-116487533D02*
X103298684Y-116487533D01*
X103298684Y-116487533D02*
X103432017Y-116554200D01*
X103432017Y-116554200D02*
X103498684Y-116687533D01*
X103498684Y-116687533D02*
X103498684Y-117420866D01*
X105165351Y-116154200D02*
X105232018Y-116087533D01*
X105232018Y-116087533D02*
X105365351Y-116020866D01*
X105365351Y-116020866D02*
X105698685Y-116020866D01*
X105698685Y-116020866D02*
X105832018Y-116087533D01*
X105832018Y-116087533D02*
X105898685Y-116154200D01*
X105898685Y-116154200D02*
X105965351Y-116287533D01*
X105965351Y-116287533D02*
X105965351Y-116420866D01*
X105965351Y-116420866D02*
X105898685Y-116620866D01*
X105898685Y-116620866D02*
X105098685Y-117420866D01*
X105098685Y-117420866D02*
X105965351Y-117420866D01*
X106832018Y-116020866D02*
X106965351Y-116020866D01*
X106965351Y-116020866D02*
X107098684Y-116087533D01*
X107098684Y-116087533D02*
X107165351Y-116154200D01*
X107165351Y-116154200D02*
X107232018Y-116287533D01*
X107232018Y-116287533D02*
X107298684Y-116554200D01*
X107298684Y-116554200D02*
X107298684Y-116887533D01*
X107298684Y-116887533D02*
X107232018Y-117154200D01*
X107232018Y-117154200D02*
X107165351Y-117287533D01*
X107165351Y-117287533D02*
X107098684Y-117354200D01*
X107098684Y-117354200D02*
X106965351Y-117420866D01*
X106965351Y-117420866D02*
X106832018Y-117420866D01*
X106832018Y-117420866D02*
X106698684Y-117354200D01*
X106698684Y-117354200D02*
X106632018Y-117287533D01*
X106632018Y-117287533D02*
X106565351Y-117154200D01*
X106565351Y-117154200D02*
X106498684Y-116887533D01*
X106498684Y-116887533D02*
X106498684Y-116554200D01*
X106498684Y-116554200D02*
X106565351Y-116287533D01*
X106565351Y-116287533D02*
X106632018Y-116154200D01*
X106632018Y-116154200D02*
X106698684Y-116087533D01*
X106698684Y-116087533D02*
X106832018Y-116020866D01*
X107832017Y-116154200D02*
X107898684Y-116087533D01*
X107898684Y-116087533D02*
X108032017Y-116020866D01*
X108032017Y-116020866D02*
X108365351Y-116020866D01*
X108365351Y-116020866D02*
X108498684Y-116087533D01*
X108498684Y-116087533D02*
X108565351Y-116154200D01*
X108565351Y-116154200D02*
X108632017Y-116287533D01*
X108632017Y-116287533D02*
X108632017Y-116420866D01*
X108632017Y-116420866D02*
X108565351Y-116620866D01*
X108565351Y-116620866D02*
X107765351Y-117420866D01*
X107765351Y-117420866D02*
X108632017Y-117420866D01*
X109832017Y-116487533D02*
X109832017Y-117420866D01*
X109498684Y-115954200D02*
X109165350Y-116954200D01*
X109165350Y-116954200D02*
X110032017Y-116954200D01*
X111632017Y-117420866D02*
X111632017Y-116020866D01*
X111632017Y-116554200D02*
X111765350Y-116487533D01*
X111765350Y-116487533D02*
X112032017Y-116487533D01*
X112032017Y-116487533D02*
X112165350Y-116554200D01*
X112165350Y-116554200D02*
X112232017Y-116620866D01*
X112232017Y-116620866D02*
X112298684Y-116754200D01*
X112298684Y-116754200D02*
X112298684Y-117154200D01*
X112298684Y-117154200D02*
X112232017Y-117287533D01*
X112232017Y-117287533D02*
X112165350Y-117354200D01*
X112165350Y-117354200D02*
X112032017Y-117420866D01*
X112032017Y-117420866D02*
X111765350Y-117420866D01*
X111765350Y-117420866D02*
X111632017Y-117354200D01*
X112765351Y-116487533D02*
X113098684Y-117420866D01*
X113432017Y-116487533D02*
X113098684Y-117420866D01*
X113098684Y-117420866D02*
X112965351Y-117754200D01*
X112965351Y-117754200D02*
X112898684Y-117820866D01*
X112898684Y-117820866D02*
X112765351Y-117887533D01*
X115032018Y-117420866D02*
X115032018Y-116020866D01*
X115032018Y-116020866D02*
X115365351Y-116020866D01*
X115365351Y-116020866D02*
X115565351Y-116087533D01*
X115565351Y-116087533D02*
X115698685Y-116220866D01*
X115698685Y-116220866D02*
X115765351Y-116354200D01*
X115765351Y-116354200D02*
X115832018Y-116620866D01*
X115832018Y-116620866D02*
X115832018Y-116820866D01*
X115832018Y-116820866D02*
X115765351Y-117087533D01*
X115765351Y-117087533D02*
X115698685Y-117220866D01*
X115698685Y-117220866D02*
X115565351Y-117354200D01*
X115565351Y-117354200D02*
X115365351Y-117420866D01*
X115365351Y-117420866D02*
X115032018Y-117420866D01*
X116698685Y-116020866D02*
X116965351Y-116020866D01*
X116965351Y-116020866D02*
X117098685Y-116087533D01*
X117098685Y-116087533D02*
X117232018Y-116220866D01*
X117232018Y-116220866D02*
X117298685Y-116487533D01*
X117298685Y-116487533D02*
X117298685Y-116954200D01*
X117298685Y-116954200D02*
X117232018Y-117220866D01*
X117232018Y-117220866D02*
X117098685Y-117354200D01*
X117098685Y-117354200D02*
X116965351Y-117420866D01*
X116965351Y-117420866D02*
X116698685Y-117420866D01*
X116698685Y-117420866D02*
X116565351Y-117354200D01*
X116565351Y-117354200D02*
X116432018Y-117220866D01*
X116432018Y-117220866D02*
X116365351Y-116954200D01*
X116365351Y-116954200D02*
X116365351Y-116487533D01*
X116365351Y-116487533D02*
X116432018Y-116220866D01*
X116432018Y-116220866D02*
X116565351Y-116087533D01*
X116565351Y-116087533D02*
X116698685Y-116020866D01*
X118632018Y-117420866D02*
X117832018Y-117420866D01*
X118232018Y-117420866D02*
X118232018Y-116020866D01*
X118232018Y-116020866D02*
X118098685Y-116220866D01*
X118098685Y-116220866D02*
X117965352Y-116354200D01*
X117965352Y-116354200D02*
X117832018Y-116420866D01*
X119698685Y-116687533D02*
X119232018Y-116687533D01*
X119232018Y-117420866D02*
X119232018Y-116020866D01*
X119232018Y-116020866D02*
X119898685Y-116020866D01*
X120832018Y-116020866D02*
X120832018Y-117020866D01*
X120832018Y-117020866D02*
X120765351Y-117220866D01*
X120765351Y-117220866D02*
X120632018Y-117354200D01*
X120632018Y-117354200D02*
X120432018Y-117420866D01*
X120432018Y-117420866D02*
X120298685Y-117420866D01*
X121498685Y-117420866D02*
X121498685Y-116020866D01*
X121498685Y-116020866D02*
X122298685Y-117420866D01*
X122298685Y-117420866D02*
X122298685Y-116020866D01*
X154708207Y-114669819D02*
X154374874Y-114193628D01*
X154136779Y-114669819D02*
X154136779Y-113669819D01*
X154136779Y-113669819D02*
X154517731Y-113669819D01*
X154517731Y-113669819D02*
X154612969Y-113717438D01*
X154612969Y-113717438D02*
X154660588Y-113765057D01*
X154660588Y-113765057D02*
X154708207Y-113860295D01*
X154708207Y-113860295D02*
X154708207Y-114003152D01*
X154708207Y-114003152D02*
X154660588Y-114098390D01*
X154660588Y-114098390D02*
X154612969Y-114146009D01*
X154612969Y-114146009D02*
X154517731Y-114193628D01*
X154517731Y-114193628D02*
X154136779Y-114193628D01*
X155517731Y-114622200D02*
X155422493Y-114669819D01*
X155422493Y-114669819D02*
X155232017Y-114669819D01*
X155232017Y-114669819D02*
X155136779Y-114622200D01*
X155136779Y-114622200D02*
X155089160Y-114526961D01*
X155089160Y-114526961D02*
X155089160Y-114146009D01*
X155089160Y-114146009D02*
X155136779Y-114050771D01*
X155136779Y-114050771D02*
X155232017Y-114003152D01*
X155232017Y-114003152D02*
X155422493Y-114003152D01*
X155422493Y-114003152D02*
X155517731Y-114050771D01*
X155517731Y-114050771D02*
X155565350Y-114146009D01*
X155565350Y-114146009D02*
X155565350Y-114241247D01*
X155565350Y-114241247D02*
X155089160Y-114336485D01*
X155946303Y-114622200D02*
X156041541Y-114669819D01*
X156041541Y-114669819D02*
X156232017Y-114669819D01*
X156232017Y-114669819D02*
X156327255Y-114622200D01*
X156327255Y-114622200D02*
X156374874Y-114526961D01*
X156374874Y-114526961D02*
X156374874Y-114479342D01*
X156374874Y-114479342D02*
X156327255Y-114384104D01*
X156327255Y-114384104D02*
X156232017Y-114336485D01*
X156232017Y-114336485D02*
X156089160Y-114336485D01*
X156089160Y-114336485D02*
X155993922Y-114288866D01*
X155993922Y-114288866D02*
X155946303Y-114193628D01*
X155946303Y-114193628D02*
X155946303Y-114146009D01*
X155946303Y-114146009D02*
X155993922Y-114050771D01*
X155993922Y-114050771D02*
X156089160Y-114003152D01*
X156089160Y-114003152D02*
X156232017Y-114003152D01*
X156232017Y-114003152D02*
X156327255Y-114050771D01*
X157184398Y-114622200D02*
X157089160Y-114669819D01*
X157089160Y-114669819D02*
X156898684Y-114669819D01*
X156898684Y-114669819D02*
X156803446Y-114622200D01*
X156803446Y-114622200D02*
X156755827Y-114526961D01*
X156755827Y-114526961D02*
X156755827Y-114146009D01*
X156755827Y-114146009D02*
X156803446Y-114050771D01*
X156803446Y-114050771D02*
X156898684Y-114003152D01*
X156898684Y-114003152D02*
X157089160Y-114003152D01*
X157089160Y-114003152D02*
X157184398Y-114050771D01*
X157184398Y-114050771D02*
X157232017Y-114146009D01*
X157232017Y-114146009D02*
X157232017Y-114241247D01*
X157232017Y-114241247D02*
X156755827Y-114336485D01*
X157517732Y-114003152D02*
X157898684Y-114003152D01*
X157660589Y-113669819D02*
X157660589Y-114526961D01*
X157660589Y-114526961D02*
X157708208Y-114622200D01*
X157708208Y-114622200D02*
X157803446Y-114669819D01*
X157803446Y-114669819D02*
X157898684Y-114669819D01*
D11*
X101748464Y-73486233D02*
X101681797Y-73552900D01*
X101681797Y-73552900D02*
X101481797Y-73619566D01*
X101481797Y-73619566D02*
X101348464Y-73619566D01*
X101348464Y-73619566D02*
X101148464Y-73552900D01*
X101148464Y-73552900D02*
X101015131Y-73419566D01*
X101015131Y-73419566D02*
X100948464Y-73286233D01*
X100948464Y-73286233D02*
X100881797Y-73019566D01*
X100881797Y-73019566D02*
X100881797Y-72819566D01*
X100881797Y-72819566D02*
X100948464Y-72552900D01*
X100948464Y-72552900D02*
X101015131Y-72419566D01*
X101015131Y-72419566D02*
X101148464Y-72286233D01*
X101148464Y-72286233D02*
X101348464Y-72219566D01*
X101348464Y-72219566D02*
X101481797Y-72219566D01*
X101481797Y-72219566D02*
X101681797Y-72286233D01*
X101681797Y-72286233D02*
X101748464Y-72352900D01*
X102281797Y-72352900D02*
X102348464Y-72286233D01*
X102348464Y-72286233D02*
X102481797Y-72219566D01*
X102481797Y-72219566D02*
X102815131Y-72219566D01*
X102815131Y-72219566D02*
X102948464Y-72286233D01*
X102948464Y-72286233D02*
X103015131Y-72352900D01*
X103015131Y-72352900D02*
X103081797Y-72486233D01*
X103081797Y-72486233D02*
X103081797Y-72619566D01*
X103081797Y-72619566D02*
X103015131Y-72819566D01*
X103015131Y-72819566D02*
X102215131Y-73619566D01*
X102215131Y-73619566D02*
X103081797Y-73619566D01*
X105415131Y-73619566D02*
X104748464Y-73619566D01*
X104748464Y-73619566D02*
X104748464Y-72219566D01*
X106081797Y-73619566D02*
X105948464Y-73552900D01*
X105948464Y-73552900D02*
X105881797Y-73486233D01*
X105881797Y-73486233D02*
X105815130Y-73352900D01*
X105815130Y-73352900D02*
X105815130Y-72952900D01*
X105815130Y-72952900D02*
X105881797Y-72819566D01*
X105881797Y-72819566D02*
X105948464Y-72752900D01*
X105948464Y-72752900D02*
X106081797Y-72686233D01*
X106081797Y-72686233D02*
X106281797Y-72686233D01*
X106281797Y-72686233D02*
X106415130Y-72752900D01*
X106415130Y-72752900D02*
X106481797Y-72819566D01*
X106481797Y-72819566D02*
X106548464Y-72952900D01*
X106548464Y-72952900D02*
X106548464Y-73352900D01*
X106548464Y-73352900D02*
X106481797Y-73486233D01*
X106481797Y-73486233D02*
X106415130Y-73552900D01*
X106415130Y-73552900D02*
X106281797Y-73619566D01*
X106281797Y-73619566D02*
X106081797Y-73619566D01*
X107148464Y-73619566D02*
X107148464Y-72686233D01*
X107148464Y-72952900D02*
X107215131Y-72819566D01*
X107215131Y-72819566D02*
X107281797Y-72752900D01*
X107281797Y-72752900D02*
X107415131Y-72686233D01*
X107415131Y-72686233D02*
X107548464Y-72686233D01*
X108615131Y-73619566D02*
X108615131Y-72886233D01*
X108615131Y-72886233D02*
X108548464Y-72752900D01*
X108548464Y-72752900D02*
X108415131Y-72686233D01*
X108415131Y-72686233D02*
X108148464Y-72686233D01*
X108148464Y-72686233D02*
X108015131Y-72752900D01*
X108615131Y-73552900D02*
X108481798Y-73619566D01*
X108481798Y-73619566D02*
X108148464Y-73619566D01*
X108148464Y-73619566D02*
X108015131Y-73552900D01*
X108015131Y-73552900D02*
X107948464Y-73419566D01*
X107948464Y-73419566D02*
X107948464Y-73286233D01*
X107948464Y-73286233D02*
X108015131Y-73152900D01*
X108015131Y-73152900D02*
X108148464Y-73086233D01*
X108148464Y-73086233D02*
X108481798Y-73086233D01*
X108481798Y-73086233D02*
X108615131Y-73019566D01*
X111081798Y-72286233D02*
X110948465Y-72219566D01*
X110948465Y-72219566D02*
X110748465Y-72219566D01*
X110748465Y-72219566D02*
X110548465Y-72286233D01*
X110548465Y-72286233D02*
X110415132Y-72419566D01*
X110415132Y-72419566D02*
X110348465Y-72552900D01*
X110348465Y-72552900D02*
X110281798Y-72819566D01*
X110281798Y-72819566D02*
X110281798Y-73019566D01*
X110281798Y-73019566D02*
X110348465Y-73286233D01*
X110348465Y-73286233D02*
X110415132Y-73419566D01*
X110415132Y-73419566D02*
X110548465Y-73552900D01*
X110548465Y-73552900D02*
X110748465Y-73619566D01*
X110748465Y-73619566D02*
X110881798Y-73619566D01*
X110881798Y-73619566D02*
X111081798Y-73552900D01*
X111081798Y-73552900D02*
X111148465Y-73486233D01*
X111148465Y-73486233D02*
X111148465Y-73019566D01*
X111148465Y-73019566D02*
X110881798Y-73019566D01*
X112348465Y-73619566D02*
X112348465Y-72886233D01*
X112348465Y-72886233D02*
X112281798Y-72752900D01*
X112281798Y-72752900D02*
X112148465Y-72686233D01*
X112148465Y-72686233D02*
X111881798Y-72686233D01*
X111881798Y-72686233D02*
X111748465Y-72752900D01*
X112348465Y-73552900D02*
X112215132Y-73619566D01*
X112215132Y-73619566D02*
X111881798Y-73619566D01*
X111881798Y-73619566D02*
X111748465Y-73552900D01*
X111748465Y-73552900D02*
X111681798Y-73419566D01*
X111681798Y-73419566D02*
X111681798Y-73286233D01*
X111681798Y-73286233D02*
X111748465Y-73152900D01*
X111748465Y-73152900D02*
X111881798Y-73086233D01*
X111881798Y-73086233D02*
X112215132Y-73086233D01*
X112215132Y-73086233D02*
X112348465Y-73019566D01*
X112815132Y-72686233D02*
X113348465Y-72686233D01*
X113015132Y-72219566D02*
X113015132Y-73419566D01*
X113015132Y-73419566D02*
X113081799Y-73552900D01*
X113081799Y-73552900D02*
X113215132Y-73619566D01*
X113215132Y-73619566D02*
X113348465Y-73619566D01*
X114348465Y-73552900D02*
X114215132Y-73619566D01*
X114215132Y-73619566D02*
X113948465Y-73619566D01*
X113948465Y-73619566D02*
X113815132Y-73552900D01*
X113815132Y-73552900D02*
X113748465Y-73419566D01*
X113748465Y-73419566D02*
X113748465Y-72886233D01*
X113748465Y-72886233D02*
X113815132Y-72752900D01*
X113815132Y-72752900D02*
X113948465Y-72686233D01*
X113948465Y-72686233D02*
X114215132Y-72686233D01*
X114215132Y-72686233D02*
X114348465Y-72752900D01*
X114348465Y-72752900D02*
X114415132Y-72886233D01*
X114415132Y-72886233D02*
X114415132Y-73019566D01*
X114415132Y-73019566D02*
X113748465Y-73152900D01*
X114881799Y-72686233D02*
X115148465Y-73619566D01*
X115148465Y-73619566D02*
X115415132Y-72952900D01*
X115415132Y-72952900D02*
X115681799Y-73619566D01*
X115681799Y-73619566D02*
X115948465Y-72686233D01*
X117081799Y-73619566D02*
X117081799Y-72886233D01*
X117081799Y-72886233D02*
X117015132Y-72752900D01*
X117015132Y-72752900D02*
X116881799Y-72686233D01*
X116881799Y-72686233D02*
X116615132Y-72686233D01*
X116615132Y-72686233D02*
X116481799Y-72752900D01*
X117081799Y-73552900D02*
X116948466Y-73619566D01*
X116948466Y-73619566D02*
X116615132Y-73619566D01*
X116615132Y-73619566D02*
X116481799Y-73552900D01*
X116481799Y-73552900D02*
X116415132Y-73419566D01*
X116415132Y-73419566D02*
X116415132Y-73286233D01*
X116415132Y-73286233D02*
X116481799Y-73152900D01*
X116481799Y-73152900D02*
X116615132Y-73086233D01*
X116615132Y-73086233D02*
X116948466Y-73086233D01*
X116948466Y-73086233D02*
X117081799Y-73019566D01*
X117615133Y-72686233D02*
X117948466Y-73619566D01*
X118281799Y-72686233D02*
X117948466Y-73619566D01*
X117948466Y-73619566D02*
X117815133Y-73952900D01*
X117815133Y-73952900D02*
X117748466Y-74019566D01*
X117748466Y-74019566D02*
X117615133Y-74086233D01*
D10*
X142033333Y-76704819D02*
X141700000Y-76228628D01*
X141461905Y-76704819D02*
X141461905Y-75704819D01*
X141461905Y-75704819D02*
X141842857Y-75704819D01*
X141842857Y-75704819D02*
X141938095Y-75752438D01*
X141938095Y-75752438D02*
X141985714Y-75800057D01*
X141985714Y-75800057D02*
X142033333Y-75895295D01*
X142033333Y-75895295D02*
X142033333Y-76038152D01*
X142033333Y-76038152D02*
X141985714Y-76133390D01*
X141985714Y-76133390D02*
X141938095Y-76181009D01*
X141938095Y-76181009D02*
X141842857Y-76228628D01*
X141842857Y-76228628D02*
X141461905Y-76228628D01*
X142604762Y-76133390D02*
X142509524Y-76085771D01*
X142509524Y-76085771D02*
X142461905Y-76038152D01*
X142461905Y-76038152D02*
X142414286Y-75942914D01*
X142414286Y-75942914D02*
X142414286Y-75895295D01*
X142414286Y-75895295D02*
X142461905Y-75800057D01*
X142461905Y-75800057D02*
X142509524Y-75752438D01*
X142509524Y-75752438D02*
X142604762Y-75704819D01*
X142604762Y-75704819D02*
X142795238Y-75704819D01*
X142795238Y-75704819D02*
X142890476Y-75752438D01*
X142890476Y-75752438D02*
X142938095Y-75800057D01*
X142938095Y-75800057D02*
X142985714Y-75895295D01*
X142985714Y-75895295D02*
X142985714Y-75942914D01*
X142985714Y-75942914D02*
X142938095Y-76038152D01*
X142938095Y-76038152D02*
X142890476Y-76085771D01*
X142890476Y-76085771D02*
X142795238Y-76133390D01*
X142795238Y-76133390D02*
X142604762Y-76133390D01*
X142604762Y-76133390D02*
X142509524Y-76181009D01*
X142509524Y-76181009D02*
X142461905Y-76228628D01*
X142461905Y-76228628D02*
X142414286Y-76323866D01*
X142414286Y-76323866D02*
X142414286Y-76514342D01*
X142414286Y-76514342D02*
X142461905Y-76609580D01*
X142461905Y-76609580D02*
X142509524Y-76657200D01*
X142509524Y-76657200D02*
X142604762Y-76704819D01*
X142604762Y-76704819D02*
X142795238Y-76704819D01*
X142795238Y-76704819D02*
X142890476Y-76657200D01*
X142890476Y-76657200D02*
X142938095Y-76609580D01*
X142938095Y-76609580D02*
X142985714Y-76514342D01*
X142985714Y-76514342D02*
X142985714Y-76323866D01*
X142985714Y-76323866D02*
X142938095Y-76228628D01*
X142938095Y-76228628D02*
X142890476Y-76181009D01*
X142890476Y-76181009D02*
X142795238Y-76133390D01*
X90454819Y-91563094D02*
X89454819Y-91563094D01*
X89454819Y-91563094D02*
X89454819Y-91324999D01*
X89454819Y-91324999D02*
X89502438Y-91182142D01*
X89502438Y-91182142D02*
X89597676Y-91086904D01*
X89597676Y-91086904D02*
X89692914Y-91039285D01*
X89692914Y-91039285D02*
X89883390Y-90991666D01*
X89883390Y-90991666D02*
X90026247Y-90991666D01*
X90026247Y-90991666D02*
X90216723Y-91039285D01*
X90216723Y-91039285D02*
X90311961Y-91086904D01*
X90311961Y-91086904D02*
X90407200Y-91182142D01*
X90407200Y-91182142D02*
X90454819Y-91324999D01*
X90454819Y-91324999D02*
X90454819Y-91563094D01*
X89550057Y-90610713D02*
X89502438Y-90563094D01*
X89502438Y-90563094D02*
X89454819Y-90467856D01*
X89454819Y-90467856D02*
X89454819Y-90229761D01*
X89454819Y-90229761D02*
X89502438Y-90134523D01*
X89502438Y-90134523D02*
X89550057Y-90086904D01*
X89550057Y-90086904D02*
X89645295Y-90039285D01*
X89645295Y-90039285D02*
X89740533Y-90039285D01*
X89740533Y-90039285D02*
X89883390Y-90086904D01*
X89883390Y-90086904D02*
X90454819Y-90658332D01*
X90454819Y-90658332D02*
X90454819Y-90039285D01*
X146157142Y-76409580D02*
X146109523Y-76457200D01*
X146109523Y-76457200D02*
X145966666Y-76504819D01*
X145966666Y-76504819D02*
X145871428Y-76504819D01*
X145871428Y-76504819D02*
X145728571Y-76457200D01*
X145728571Y-76457200D02*
X145633333Y-76361961D01*
X145633333Y-76361961D02*
X145585714Y-76266723D01*
X145585714Y-76266723D02*
X145538095Y-76076247D01*
X145538095Y-76076247D02*
X145538095Y-75933390D01*
X145538095Y-75933390D02*
X145585714Y-75742914D01*
X145585714Y-75742914D02*
X145633333Y-75647676D01*
X145633333Y-75647676D02*
X145728571Y-75552438D01*
X145728571Y-75552438D02*
X145871428Y-75504819D01*
X145871428Y-75504819D02*
X145966666Y-75504819D01*
X145966666Y-75504819D02*
X146109523Y-75552438D01*
X146109523Y-75552438D02*
X146157142Y-75600057D01*
X147109523Y-76504819D02*
X146538095Y-76504819D01*
X146823809Y-76504819D02*
X146823809Y-75504819D01*
X146823809Y-75504819D02*
X146728571Y-75647676D01*
X146728571Y-75647676D02*
X146633333Y-75742914D01*
X146633333Y-75742914D02*
X146538095Y-75790533D01*
X147966666Y-75838152D02*
X147966666Y-76504819D01*
X147728571Y-75457200D02*
X147490476Y-76171485D01*
X147490476Y-76171485D02*
X148109523Y-76171485D01*
X142309580Y-79717857D02*
X142357200Y-79765476D01*
X142357200Y-79765476D02*
X142404819Y-79908333D01*
X142404819Y-79908333D02*
X142404819Y-80003571D01*
X142404819Y-80003571D02*
X142357200Y-80146428D01*
X142357200Y-80146428D02*
X142261961Y-80241666D01*
X142261961Y-80241666D02*
X142166723Y-80289285D01*
X142166723Y-80289285D02*
X141976247Y-80336904D01*
X141976247Y-80336904D02*
X141833390Y-80336904D01*
X141833390Y-80336904D02*
X141642914Y-80289285D01*
X141642914Y-80289285D02*
X141547676Y-80241666D01*
X141547676Y-80241666D02*
X141452438Y-80146428D01*
X141452438Y-80146428D02*
X141404819Y-80003571D01*
X141404819Y-80003571D02*
X141404819Y-79908333D01*
X141404819Y-79908333D02*
X141452438Y-79765476D01*
X141452438Y-79765476D02*
X141500057Y-79717857D01*
X142404819Y-78765476D02*
X142404819Y-79336904D01*
X142404819Y-79051190D02*
X141404819Y-79051190D01*
X141404819Y-79051190D02*
X141547676Y-79146428D01*
X141547676Y-79146428D02*
X141642914Y-79241666D01*
X141642914Y-79241666D02*
X141690533Y-79336904D01*
X141404819Y-78432142D02*
X141404819Y-77813095D01*
X141404819Y-77813095D02*
X141785771Y-78146428D01*
X141785771Y-78146428D02*
X141785771Y-78003571D01*
X141785771Y-78003571D02*
X141833390Y-77908333D01*
X141833390Y-77908333D02*
X141881009Y-77860714D01*
X141881009Y-77860714D02*
X141976247Y-77813095D01*
X141976247Y-77813095D02*
X142214342Y-77813095D01*
X142214342Y-77813095D02*
X142309580Y-77860714D01*
X142309580Y-77860714D02*
X142357200Y-77908333D01*
X142357200Y-77908333D02*
X142404819Y-78003571D01*
X142404819Y-78003571D02*
X142404819Y-78289285D01*
X142404819Y-78289285D02*
X142357200Y-78384523D01*
X142357200Y-78384523D02*
X142309580Y-78432142D01*
X157257142Y-71759580D02*
X157209523Y-71807200D01*
X157209523Y-71807200D02*
X157066666Y-71854819D01*
X157066666Y-71854819D02*
X156971428Y-71854819D01*
X156971428Y-71854819D02*
X156828571Y-71807200D01*
X156828571Y-71807200D02*
X156733333Y-71711961D01*
X156733333Y-71711961D02*
X156685714Y-71616723D01*
X156685714Y-71616723D02*
X156638095Y-71426247D01*
X156638095Y-71426247D02*
X156638095Y-71283390D01*
X156638095Y-71283390D02*
X156685714Y-71092914D01*
X156685714Y-71092914D02*
X156733333Y-70997676D01*
X156733333Y-70997676D02*
X156828571Y-70902438D01*
X156828571Y-70902438D02*
X156971428Y-70854819D01*
X156971428Y-70854819D02*
X157066666Y-70854819D01*
X157066666Y-70854819D02*
X157209523Y-70902438D01*
X157209523Y-70902438D02*
X157257142Y-70950057D01*
X158209523Y-71854819D02*
X157638095Y-71854819D01*
X157923809Y-71854819D02*
X157923809Y-70854819D01*
X157923809Y-70854819D02*
X157828571Y-70997676D01*
X157828571Y-70997676D02*
X157733333Y-71092914D01*
X157733333Y-71092914D02*
X157638095Y-71140533D01*
X159161904Y-71854819D02*
X158590476Y-71854819D01*
X158876190Y-71854819D02*
X158876190Y-70854819D01*
X158876190Y-70854819D02*
X158780952Y-70997676D01*
X158780952Y-70997676D02*
X158685714Y-71092914D01*
X158685714Y-71092914D02*
X158590476Y-71140533D01*
X127159580Y-75941666D02*
X127207200Y-75989285D01*
X127207200Y-75989285D02*
X127254819Y-76132142D01*
X127254819Y-76132142D02*
X127254819Y-76227380D01*
X127254819Y-76227380D02*
X127207200Y-76370237D01*
X127207200Y-76370237D02*
X127111961Y-76465475D01*
X127111961Y-76465475D02*
X127016723Y-76513094D01*
X127016723Y-76513094D02*
X126826247Y-76560713D01*
X126826247Y-76560713D02*
X126683390Y-76560713D01*
X126683390Y-76560713D02*
X126492914Y-76513094D01*
X126492914Y-76513094D02*
X126397676Y-76465475D01*
X126397676Y-76465475D02*
X126302438Y-76370237D01*
X126302438Y-76370237D02*
X126254819Y-76227380D01*
X126254819Y-76227380D02*
X126254819Y-76132142D01*
X126254819Y-76132142D02*
X126302438Y-75989285D01*
X126302438Y-75989285D02*
X126350057Y-75941666D01*
X126588152Y-75084523D02*
X127254819Y-75084523D01*
X126207200Y-75322618D02*
X126921485Y-75560713D01*
X126921485Y-75560713D02*
X126921485Y-74941666D01*
X154757142Y-109309580D02*
X154709523Y-109357200D01*
X154709523Y-109357200D02*
X154566666Y-109404819D01*
X154566666Y-109404819D02*
X154471428Y-109404819D01*
X154471428Y-109404819D02*
X154328571Y-109357200D01*
X154328571Y-109357200D02*
X154233333Y-109261961D01*
X154233333Y-109261961D02*
X154185714Y-109166723D01*
X154185714Y-109166723D02*
X154138095Y-108976247D01*
X154138095Y-108976247D02*
X154138095Y-108833390D01*
X154138095Y-108833390D02*
X154185714Y-108642914D01*
X154185714Y-108642914D02*
X154233333Y-108547676D01*
X154233333Y-108547676D02*
X154328571Y-108452438D01*
X154328571Y-108452438D02*
X154471428Y-108404819D01*
X154471428Y-108404819D02*
X154566666Y-108404819D01*
X154566666Y-108404819D02*
X154709523Y-108452438D01*
X154709523Y-108452438D02*
X154757142Y-108500057D01*
X155709523Y-109404819D02*
X155138095Y-109404819D01*
X155423809Y-109404819D02*
X155423809Y-108404819D01*
X155423809Y-108404819D02*
X155328571Y-108547676D01*
X155328571Y-108547676D02*
X155233333Y-108642914D01*
X155233333Y-108642914D02*
X155138095Y-108690533D01*
X156280952Y-108833390D02*
X156185714Y-108785771D01*
X156185714Y-108785771D02*
X156138095Y-108738152D01*
X156138095Y-108738152D02*
X156090476Y-108642914D01*
X156090476Y-108642914D02*
X156090476Y-108595295D01*
X156090476Y-108595295D02*
X156138095Y-108500057D01*
X156138095Y-108500057D02*
X156185714Y-108452438D01*
X156185714Y-108452438D02*
X156280952Y-108404819D01*
X156280952Y-108404819D02*
X156471428Y-108404819D01*
X156471428Y-108404819D02*
X156566666Y-108452438D01*
X156566666Y-108452438D02*
X156614285Y-108500057D01*
X156614285Y-108500057D02*
X156661904Y-108595295D01*
X156661904Y-108595295D02*
X156661904Y-108642914D01*
X156661904Y-108642914D02*
X156614285Y-108738152D01*
X156614285Y-108738152D02*
X156566666Y-108785771D01*
X156566666Y-108785771D02*
X156471428Y-108833390D01*
X156471428Y-108833390D02*
X156280952Y-108833390D01*
X156280952Y-108833390D02*
X156185714Y-108881009D01*
X156185714Y-108881009D02*
X156138095Y-108928628D01*
X156138095Y-108928628D02*
X156090476Y-109023866D01*
X156090476Y-109023866D02*
X156090476Y-109214342D01*
X156090476Y-109214342D02*
X156138095Y-109309580D01*
X156138095Y-109309580D02*
X156185714Y-109357200D01*
X156185714Y-109357200D02*
X156280952Y-109404819D01*
X156280952Y-109404819D02*
X156471428Y-109404819D01*
X156471428Y-109404819D02*
X156566666Y-109357200D01*
X156566666Y-109357200D02*
X156614285Y-109309580D01*
X156614285Y-109309580D02*
X156661904Y-109214342D01*
X156661904Y-109214342D02*
X156661904Y-109023866D01*
X156661904Y-109023866D02*
X156614285Y-108928628D01*
X156614285Y-108928628D02*
X156566666Y-108881009D01*
X156566666Y-108881009D02*
X156471428Y-108833390D01*
X160938095Y-98954819D02*
X160938095Y-99764342D01*
X160938095Y-99764342D02*
X160985714Y-99859580D01*
X160985714Y-99859580D02*
X161033333Y-99907200D01*
X161033333Y-99907200D02*
X161128571Y-99954819D01*
X161128571Y-99954819D02*
X161319047Y-99954819D01*
X161319047Y-99954819D02*
X161414285Y-99907200D01*
X161414285Y-99907200D02*
X161461904Y-99859580D01*
X161461904Y-99859580D02*
X161509523Y-99764342D01*
X161509523Y-99764342D02*
X161509523Y-98954819D01*
X162461904Y-98954819D02*
X161985714Y-98954819D01*
X161985714Y-98954819D02*
X161938095Y-99431009D01*
X161938095Y-99431009D02*
X161985714Y-99383390D01*
X161985714Y-99383390D02*
X162080952Y-99335771D01*
X162080952Y-99335771D02*
X162319047Y-99335771D01*
X162319047Y-99335771D02*
X162414285Y-99383390D01*
X162414285Y-99383390D02*
X162461904Y-99431009D01*
X162461904Y-99431009D02*
X162509523Y-99526247D01*
X162509523Y-99526247D02*
X162509523Y-99764342D01*
X162509523Y-99764342D02*
X162461904Y-99859580D01*
X162461904Y-99859580D02*
X162414285Y-99907200D01*
X162414285Y-99907200D02*
X162319047Y-99954819D01*
X162319047Y-99954819D02*
X162080952Y-99954819D01*
X162080952Y-99954819D02*
X161985714Y-99907200D01*
X161985714Y-99907200D02*
X161938095Y-99859580D01*
X92566666Y-100904819D02*
X92566666Y-101619104D01*
X92566666Y-101619104D02*
X92519047Y-101761961D01*
X92519047Y-101761961D02*
X92423809Y-101857200D01*
X92423809Y-101857200D02*
X92280952Y-101904819D01*
X92280952Y-101904819D02*
X92185714Y-101904819D01*
X93566666Y-101904819D02*
X92995238Y-101904819D01*
X93280952Y-101904819D02*
X93280952Y-100904819D01*
X93280952Y-100904819D02*
X93185714Y-101047676D01*
X93185714Y-101047676D02*
X93090476Y-101142914D01*
X93090476Y-101142914D02*
X92995238Y-101190533D01*
X170254819Y-105138094D02*
X169254819Y-105138094D01*
X169254819Y-105138094D02*
X169254819Y-104899999D01*
X169254819Y-104899999D02*
X169302438Y-104757142D01*
X169302438Y-104757142D02*
X169397676Y-104661904D01*
X169397676Y-104661904D02*
X169492914Y-104614285D01*
X169492914Y-104614285D02*
X169683390Y-104566666D01*
X169683390Y-104566666D02*
X169826247Y-104566666D01*
X169826247Y-104566666D02*
X170016723Y-104614285D01*
X170016723Y-104614285D02*
X170111961Y-104661904D01*
X170111961Y-104661904D02*
X170207200Y-104757142D01*
X170207200Y-104757142D02*
X170254819Y-104899999D01*
X170254819Y-104899999D02*
X170254819Y-105138094D01*
X169254819Y-103709523D02*
X169254819Y-103899999D01*
X169254819Y-103899999D02*
X169302438Y-103995237D01*
X169302438Y-103995237D02*
X169350057Y-104042856D01*
X169350057Y-104042856D02*
X169492914Y-104138094D01*
X169492914Y-104138094D02*
X169683390Y-104185713D01*
X169683390Y-104185713D02*
X170064342Y-104185713D01*
X170064342Y-104185713D02*
X170159580Y-104138094D01*
X170159580Y-104138094D02*
X170207200Y-104090475D01*
X170207200Y-104090475D02*
X170254819Y-103995237D01*
X170254819Y-103995237D02*
X170254819Y-103804761D01*
X170254819Y-103804761D02*
X170207200Y-103709523D01*
X170207200Y-103709523D02*
X170159580Y-103661904D01*
X170159580Y-103661904D02*
X170064342Y-103614285D01*
X170064342Y-103614285D02*
X169826247Y-103614285D01*
X169826247Y-103614285D02*
X169731009Y-103661904D01*
X169731009Y-103661904D02*
X169683390Y-103709523D01*
X169683390Y-103709523D02*
X169635771Y-103804761D01*
X169635771Y-103804761D02*
X169635771Y-103995237D01*
X169635771Y-103995237D02*
X169683390Y-104090475D01*
X169683390Y-104090475D02*
X169731009Y-104138094D01*
X169731009Y-104138094D02*
X169826247Y-104185713D01*
X169559580Y-86042857D02*
X169607200Y-86090476D01*
X169607200Y-86090476D02*
X169654819Y-86233333D01*
X169654819Y-86233333D02*
X169654819Y-86328571D01*
X169654819Y-86328571D02*
X169607200Y-86471428D01*
X169607200Y-86471428D02*
X169511961Y-86566666D01*
X169511961Y-86566666D02*
X169416723Y-86614285D01*
X169416723Y-86614285D02*
X169226247Y-86661904D01*
X169226247Y-86661904D02*
X169083390Y-86661904D01*
X169083390Y-86661904D02*
X168892914Y-86614285D01*
X168892914Y-86614285D02*
X168797676Y-86566666D01*
X168797676Y-86566666D02*
X168702438Y-86471428D01*
X168702438Y-86471428D02*
X168654819Y-86328571D01*
X168654819Y-86328571D02*
X168654819Y-86233333D01*
X168654819Y-86233333D02*
X168702438Y-86090476D01*
X168702438Y-86090476D02*
X168750057Y-86042857D01*
X169654819Y-85090476D02*
X169654819Y-85661904D01*
X169654819Y-85376190D02*
X168654819Y-85376190D01*
X168654819Y-85376190D02*
X168797676Y-85471428D01*
X168797676Y-85471428D02*
X168892914Y-85566666D01*
X168892914Y-85566666D02*
X168940533Y-85661904D01*
X168654819Y-84233333D02*
X168654819Y-84423809D01*
X168654819Y-84423809D02*
X168702438Y-84519047D01*
X168702438Y-84519047D02*
X168750057Y-84566666D01*
X168750057Y-84566666D02*
X168892914Y-84661904D01*
X168892914Y-84661904D02*
X169083390Y-84709523D01*
X169083390Y-84709523D02*
X169464342Y-84709523D01*
X169464342Y-84709523D02*
X169559580Y-84661904D01*
X169559580Y-84661904D02*
X169607200Y-84614285D01*
X169607200Y-84614285D02*
X169654819Y-84519047D01*
X169654819Y-84519047D02*
X169654819Y-84328571D01*
X169654819Y-84328571D02*
X169607200Y-84233333D01*
X169607200Y-84233333D02*
X169559580Y-84185714D01*
X169559580Y-84185714D02*
X169464342Y-84138095D01*
X169464342Y-84138095D02*
X169226247Y-84138095D01*
X169226247Y-84138095D02*
X169131009Y-84185714D01*
X169131009Y-84185714D02*
X169083390Y-84233333D01*
X169083390Y-84233333D02*
X169035771Y-84328571D01*
X169035771Y-84328571D02*
X169035771Y-84519047D01*
X169035771Y-84519047D02*
X169083390Y-84614285D01*
X169083390Y-84614285D02*
X169131009Y-84661904D01*
X169131009Y-84661904D02*
X169226247Y-84709523D01*
X141454819Y-84433333D02*
X142169104Y-84433333D01*
X142169104Y-84433333D02*
X142311961Y-84480952D01*
X142311961Y-84480952D02*
X142407200Y-84576190D01*
X142407200Y-84576190D02*
X142454819Y-84719047D01*
X142454819Y-84719047D02*
X142454819Y-84814285D01*
X141454819Y-83480952D02*
X141454819Y-83957142D01*
X141454819Y-83957142D02*
X141931009Y-84004761D01*
X141931009Y-84004761D02*
X141883390Y-83957142D01*
X141883390Y-83957142D02*
X141835771Y-83861904D01*
X141835771Y-83861904D02*
X141835771Y-83623809D01*
X141835771Y-83623809D02*
X141883390Y-83528571D01*
X141883390Y-83528571D02*
X141931009Y-83480952D01*
X141931009Y-83480952D02*
X142026247Y-83433333D01*
X142026247Y-83433333D02*
X142264342Y-83433333D01*
X142264342Y-83433333D02*
X142359580Y-83480952D01*
X142359580Y-83480952D02*
X142407200Y-83528571D01*
X142407200Y-83528571D02*
X142454819Y-83623809D01*
X142454819Y-83623809D02*
X142454819Y-83861904D01*
X142454819Y-83861904D02*
X142407200Y-83957142D01*
X142407200Y-83957142D02*
X142359580Y-84004761D01*
X167054819Y-97442857D02*
X166578628Y-97776190D01*
X167054819Y-98014285D02*
X166054819Y-98014285D01*
X166054819Y-98014285D02*
X166054819Y-97633333D01*
X166054819Y-97633333D02*
X166102438Y-97538095D01*
X166102438Y-97538095D02*
X166150057Y-97490476D01*
X166150057Y-97490476D02*
X166245295Y-97442857D01*
X166245295Y-97442857D02*
X166388152Y-97442857D01*
X166388152Y-97442857D02*
X166483390Y-97490476D01*
X166483390Y-97490476D02*
X166531009Y-97538095D01*
X166531009Y-97538095D02*
X166578628Y-97633333D01*
X166578628Y-97633333D02*
X166578628Y-98014285D01*
X167054819Y-96490476D02*
X167054819Y-97061904D01*
X167054819Y-96776190D02*
X166054819Y-96776190D01*
X166054819Y-96776190D02*
X166197676Y-96871428D01*
X166197676Y-96871428D02*
X166292914Y-96966666D01*
X166292914Y-96966666D02*
X166340533Y-97061904D01*
X166054819Y-96157142D02*
X166054819Y-95490476D01*
X166054819Y-95490476D02*
X167054819Y-95919047D01*
X90454819Y-100163094D02*
X89454819Y-100163094D01*
X89454819Y-100163094D02*
X89454819Y-99924999D01*
X89454819Y-99924999D02*
X89502438Y-99782142D01*
X89502438Y-99782142D02*
X89597676Y-99686904D01*
X89597676Y-99686904D02*
X89692914Y-99639285D01*
X89692914Y-99639285D02*
X89883390Y-99591666D01*
X89883390Y-99591666D02*
X90026247Y-99591666D01*
X90026247Y-99591666D02*
X90216723Y-99639285D01*
X90216723Y-99639285D02*
X90311961Y-99686904D01*
X90311961Y-99686904D02*
X90407200Y-99782142D01*
X90407200Y-99782142D02*
X90454819Y-99924999D01*
X90454819Y-99924999D02*
X90454819Y-100163094D01*
X90454819Y-98639285D02*
X90454819Y-99210713D01*
X90454819Y-98924999D02*
X89454819Y-98924999D01*
X89454819Y-98924999D02*
X89597676Y-99020237D01*
X89597676Y-99020237D02*
X89692914Y-99115475D01*
X89692914Y-99115475D02*
X89740533Y-99210713D01*
X163261905Y-88654819D02*
X163261905Y-87654819D01*
X163261905Y-87654819D02*
X163500000Y-87654819D01*
X163500000Y-87654819D02*
X163642857Y-87702438D01*
X163642857Y-87702438D02*
X163738095Y-87797676D01*
X163738095Y-87797676D02*
X163785714Y-87892914D01*
X163785714Y-87892914D02*
X163833333Y-88083390D01*
X163833333Y-88083390D02*
X163833333Y-88226247D01*
X163833333Y-88226247D02*
X163785714Y-88416723D01*
X163785714Y-88416723D02*
X163738095Y-88511961D01*
X163738095Y-88511961D02*
X163642857Y-88607200D01*
X163642857Y-88607200D02*
X163500000Y-88654819D01*
X163500000Y-88654819D02*
X163261905Y-88654819D01*
X164690476Y-87988152D02*
X164690476Y-88654819D01*
X164452381Y-87607200D02*
X164214286Y-88321485D01*
X164214286Y-88321485D02*
X164833333Y-88321485D01*
X164159580Y-83442857D02*
X164207200Y-83490476D01*
X164207200Y-83490476D02*
X164254819Y-83633333D01*
X164254819Y-83633333D02*
X164254819Y-83728571D01*
X164254819Y-83728571D02*
X164207200Y-83871428D01*
X164207200Y-83871428D02*
X164111961Y-83966666D01*
X164111961Y-83966666D02*
X164016723Y-84014285D01*
X164016723Y-84014285D02*
X163826247Y-84061904D01*
X163826247Y-84061904D02*
X163683390Y-84061904D01*
X163683390Y-84061904D02*
X163492914Y-84014285D01*
X163492914Y-84014285D02*
X163397676Y-83966666D01*
X163397676Y-83966666D02*
X163302438Y-83871428D01*
X163302438Y-83871428D02*
X163254819Y-83728571D01*
X163254819Y-83728571D02*
X163254819Y-83633333D01*
X163254819Y-83633333D02*
X163302438Y-83490476D01*
X163302438Y-83490476D02*
X163350057Y-83442857D01*
X164254819Y-82490476D02*
X164254819Y-83061904D01*
X164254819Y-82776190D02*
X163254819Y-82776190D01*
X163254819Y-82776190D02*
X163397676Y-82871428D01*
X163397676Y-82871428D02*
X163492914Y-82966666D01*
X163492914Y-82966666D02*
X163540533Y-83061904D01*
X163254819Y-81585714D02*
X163254819Y-82061904D01*
X163254819Y-82061904D02*
X163731009Y-82109523D01*
X163731009Y-82109523D02*
X163683390Y-82061904D01*
X163683390Y-82061904D02*
X163635771Y-81966666D01*
X163635771Y-81966666D02*
X163635771Y-81728571D01*
X163635771Y-81728571D02*
X163683390Y-81633333D01*
X163683390Y-81633333D02*
X163731009Y-81585714D01*
X163731009Y-81585714D02*
X163826247Y-81538095D01*
X163826247Y-81538095D02*
X164064342Y-81538095D01*
X164064342Y-81538095D02*
X164159580Y-81585714D01*
X164159580Y-81585714D02*
X164207200Y-81633333D01*
X164207200Y-81633333D02*
X164254819Y-81728571D01*
X164254819Y-81728571D02*
X164254819Y-81966666D01*
X164254819Y-81966666D02*
X164207200Y-82061904D01*
X164207200Y-82061904D02*
X164159580Y-82109523D01*
X162454819Y-107333333D02*
X163169104Y-107333333D01*
X163169104Y-107333333D02*
X163311961Y-107380952D01*
X163311961Y-107380952D02*
X163407200Y-107476190D01*
X163407200Y-107476190D02*
X163454819Y-107619047D01*
X163454819Y-107619047D02*
X163454819Y-107714285D01*
X162788152Y-106428571D02*
X163454819Y-106428571D01*
X162407200Y-106666666D02*
X163121485Y-106904761D01*
X163121485Y-106904761D02*
X163121485Y-106285714D01*
X94854819Y-97467857D02*
X94378628Y-97801190D01*
X94854819Y-98039285D02*
X93854819Y-98039285D01*
X93854819Y-98039285D02*
X93854819Y-97658333D01*
X93854819Y-97658333D02*
X93902438Y-97563095D01*
X93902438Y-97563095D02*
X93950057Y-97515476D01*
X93950057Y-97515476D02*
X94045295Y-97467857D01*
X94045295Y-97467857D02*
X94188152Y-97467857D01*
X94188152Y-97467857D02*
X94283390Y-97515476D01*
X94283390Y-97515476D02*
X94331009Y-97563095D01*
X94331009Y-97563095D02*
X94378628Y-97658333D01*
X94378628Y-97658333D02*
X94378628Y-98039285D01*
X94854819Y-96515476D02*
X94854819Y-97086904D01*
X94854819Y-96801190D02*
X93854819Y-96801190D01*
X93854819Y-96801190D02*
X93997676Y-96896428D01*
X93997676Y-96896428D02*
X94092914Y-96991666D01*
X94092914Y-96991666D02*
X94140533Y-97086904D01*
X93854819Y-95896428D02*
X93854819Y-95801190D01*
X93854819Y-95801190D02*
X93902438Y-95705952D01*
X93902438Y-95705952D02*
X93950057Y-95658333D01*
X93950057Y-95658333D02*
X94045295Y-95610714D01*
X94045295Y-95610714D02*
X94235771Y-95563095D01*
X94235771Y-95563095D02*
X94473866Y-95563095D01*
X94473866Y-95563095D02*
X94664342Y-95610714D01*
X94664342Y-95610714D02*
X94759580Y-95658333D01*
X94759580Y-95658333D02*
X94807200Y-95705952D01*
X94807200Y-95705952D02*
X94854819Y-95801190D01*
X94854819Y-95801190D02*
X94854819Y-95896428D01*
X94854819Y-95896428D02*
X94807200Y-95991666D01*
X94807200Y-95991666D02*
X94759580Y-96039285D01*
X94759580Y-96039285D02*
X94664342Y-96086904D01*
X94664342Y-96086904D02*
X94473866Y-96134523D01*
X94473866Y-96134523D02*
X94235771Y-96134523D01*
X94235771Y-96134523D02*
X94045295Y-96086904D01*
X94045295Y-96086904D02*
X93950057Y-96039285D01*
X93950057Y-96039285D02*
X93902438Y-95991666D01*
X93902438Y-95991666D02*
X93854819Y-95896428D01*
X129033333Y-74559580D02*
X128985714Y-74607200D01*
X128985714Y-74607200D02*
X128842857Y-74654819D01*
X128842857Y-74654819D02*
X128747619Y-74654819D01*
X128747619Y-74654819D02*
X128604762Y-74607200D01*
X128604762Y-74607200D02*
X128509524Y-74511961D01*
X128509524Y-74511961D02*
X128461905Y-74416723D01*
X128461905Y-74416723D02*
X128414286Y-74226247D01*
X128414286Y-74226247D02*
X128414286Y-74083390D01*
X128414286Y-74083390D02*
X128461905Y-73892914D01*
X128461905Y-73892914D02*
X128509524Y-73797676D01*
X128509524Y-73797676D02*
X128604762Y-73702438D01*
X128604762Y-73702438D02*
X128747619Y-73654819D01*
X128747619Y-73654819D02*
X128842857Y-73654819D01*
X128842857Y-73654819D02*
X128985714Y-73702438D01*
X128985714Y-73702438D02*
X129033333Y-73750057D01*
X129985714Y-74654819D02*
X129414286Y-74654819D01*
X129700000Y-74654819D02*
X129700000Y-73654819D01*
X129700000Y-73654819D02*
X129604762Y-73797676D01*
X129604762Y-73797676D02*
X129509524Y-73892914D01*
X129509524Y-73892914D02*
X129414286Y-73940533D01*
X150157142Y-82359580D02*
X150109523Y-82407200D01*
X150109523Y-82407200D02*
X149966666Y-82454819D01*
X149966666Y-82454819D02*
X149871428Y-82454819D01*
X149871428Y-82454819D02*
X149728571Y-82407200D01*
X149728571Y-82407200D02*
X149633333Y-82311961D01*
X149633333Y-82311961D02*
X149585714Y-82216723D01*
X149585714Y-82216723D02*
X149538095Y-82026247D01*
X149538095Y-82026247D02*
X149538095Y-81883390D01*
X149538095Y-81883390D02*
X149585714Y-81692914D01*
X149585714Y-81692914D02*
X149633333Y-81597676D01*
X149633333Y-81597676D02*
X149728571Y-81502438D01*
X149728571Y-81502438D02*
X149871428Y-81454819D01*
X149871428Y-81454819D02*
X149966666Y-81454819D01*
X149966666Y-81454819D02*
X150109523Y-81502438D01*
X150109523Y-81502438D02*
X150157142Y-81550057D01*
X151109523Y-82454819D02*
X150538095Y-82454819D01*
X150823809Y-82454819D02*
X150823809Y-81454819D01*
X150823809Y-81454819D02*
X150728571Y-81597676D01*
X150728571Y-81597676D02*
X150633333Y-81692914D01*
X150633333Y-81692914D02*
X150538095Y-81740533D01*
X151490476Y-81550057D02*
X151538095Y-81502438D01*
X151538095Y-81502438D02*
X151633333Y-81454819D01*
X151633333Y-81454819D02*
X151871428Y-81454819D01*
X151871428Y-81454819D02*
X151966666Y-81502438D01*
X151966666Y-81502438D02*
X152014285Y-81550057D01*
X152014285Y-81550057D02*
X152061904Y-81645295D01*
X152061904Y-81645295D02*
X152061904Y-81740533D01*
X152061904Y-81740533D02*
X152014285Y-81883390D01*
X152014285Y-81883390D02*
X151442857Y-82454819D01*
X151442857Y-82454819D02*
X152061904Y-82454819D01*
X142557142Y-71759580D02*
X142509523Y-71807200D01*
X142509523Y-71807200D02*
X142366666Y-71854819D01*
X142366666Y-71854819D02*
X142271428Y-71854819D01*
X142271428Y-71854819D02*
X142128571Y-71807200D01*
X142128571Y-71807200D02*
X142033333Y-71711961D01*
X142033333Y-71711961D02*
X141985714Y-71616723D01*
X141985714Y-71616723D02*
X141938095Y-71426247D01*
X141938095Y-71426247D02*
X141938095Y-71283390D01*
X141938095Y-71283390D02*
X141985714Y-71092914D01*
X141985714Y-71092914D02*
X142033333Y-70997676D01*
X142033333Y-70997676D02*
X142128571Y-70902438D01*
X142128571Y-70902438D02*
X142271428Y-70854819D01*
X142271428Y-70854819D02*
X142366666Y-70854819D01*
X142366666Y-70854819D02*
X142509523Y-70902438D01*
X142509523Y-70902438D02*
X142557142Y-70950057D01*
X143509523Y-71854819D02*
X142938095Y-71854819D01*
X143223809Y-71854819D02*
X143223809Y-70854819D01*
X143223809Y-70854819D02*
X143128571Y-70997676D01*
X143128571Y-70997676D02*
X143033333Y-71092914D01*
X143033333Y-71092914D02*
X142938095Y-71140533D01*
X144128571Y-70854819D02*
X144223809Y-70854819D01*
X144223809Y-70854819D02*
X144319047Y-70902438D01*
X144319047Y-70902438D02*
X144366666Y-70950057D01*
X144366666Y-70950057D02*
X144414285Y-71045295D01*
X144414285Y-71045295D02*
X144461904Y-71235771D01*
X144461904Y-71235771D02*
X144461904Y-71473866D01*
X144461904Y-71473866D02*
X144414285Y-71664342D01*
X144414285Y-71664342D02*
X144366666Y-71759580D01*
X144366666Y-71759580D02*
X144319047Y-71807200D01*
X144319047Y-71807200D02*
X144223809Y-71854819D01*
X144223809Y-71854819D02*
X144128571Y-71854819D01*
X144128571Y-71854819D02*
X144033333Y-71807200D01*
X144033333Y-71807200D02*
X143985714Y-71759580D01*
X143985714Y-71759580D02*
X143938095Y-71664342D01*
X143938095Y-71664342D02*
X143890476Y-71473866D01*
X143890476Y-71473866D02*
X143890476Y-71235771D01*
X143890476Y-71235771D02*
X143938095Y-71045295D01*
X143938095Y-71045295D02*
X143985714Y-70950057D01*
X143985714Y-70950057D02*
X144033333Y-70902438D01*
X144033333Y-70902438D02*
X144128571Y-70854819D01*
X168254819Y-104442857D02*
X167778628Y-104776190D01*
X168254819Y-105014285D02*
X167254819Y-105014285D01*
X167254819Y-105014285D02*
X167254819Y-104633333D01*
X167254819Y-104633333D02*
X167302438Y-104538095D01*
X167302438Y-104538095D02*
X167350057Y-104490476D01*
X167350057Y-104490476D02*
X167445295Y-104442857D01*
X167445295Y-104442857D02*
X167588152Y-104442857D01*
X167588152Y-104442857D02*
X167683390Y-104490476D01*
X167683390Y-104490476D02*
X167731009Y-104538095D01*
X167731009Y-104538095D02*
X167778628Y-104633333D01*
X167778628Y-104633333D02*
X167778628Y-105014285D01*
X168254819Y-103490476D02*
X168254819Y-104061904D01*
X168254819Y-103776190D02*
X167254819Y-103776190D01*
X167254819Y-103776190D02*
X167397676Y-103871428D01*
X167397676Y-103871428D02*
X167492914Y-103966666D01*
X167492914Y-103966666D02*
X167540533Y-104061904D01*
X167254819Y-102633333D02*
X167254819Y-102823809D01*
X167254819Y-102823809D02*
X167302438Y-102919047D01*
X167302438Y-102919047D02*
X167350057Y-102966666D01*
X167350057Y-102966666D02*
X167492914Y-103061904D01*
X167492914Y-103061904D02*
X167683390Y-103109523D01*
X167683390Y-103109523D02*
X168064342Y-103109523D01*
X168064342Y-103109523D02*
X168159580Y-103061904D01*
X168159580Y-103061904D02*
X168207200Y-103014285D01*
X168207200Y-103014285D02*
X168254819Y-102919047D01*
X168254819Y-102919047D02*
X168254819Y-102728571D01*
X168254819Y-102728571D02*
X168207200Y-102633333D01*
X168207200Y-102633333D02*
X168159580Y-102585714D01*
X168159580Y-102585714D02*
X168064342Y-102538095D01*
X168064342Y-102538095D02*
X167826247Y-102538095D01*
X167826247Y-102538095D02*
X167731009Y-102585714D01*
X167731009Y-102585714D02*
X167683390Y-102633333D01*
X167683390Y-102633333D02*
X167635771Y-102728571D01*
X167635771Y-102728571D02*
X167635771Y-102919047D01*
X167635771Y-102919047D02*
X167683390Y-103014285D01*
X167683390Y-103014285D02*
X167731009Y-103061904D01*
X167731009Y-103061904D02*
X167826247Y-103109523D01*
X152433333Y-86659580D02*
X152385714Y-86707200D01*
X152385714Y-86707200D02*
X152242857Y-86754819D01*
X152242857Y-86754819D02*
X152147619Y-86754819D01*
X152147619Y-86754819D02*
X152004762Y-86707200D01*
X152004762Y-86707200D02*
X151909524Y-86611961D01*
X151909524Y-86611961D02*
X151861905Y-86516723D01*
X151861905Y-86516723D02*
X151814286Y-86326247D01*
X151814286Y-86326247D02*
X151814286Y-86183390D01*
X151814286Y-86183390D02*
X151861905Y-85992914D01*
X151861905Y-85992914D02*
X151909524Y-85897676D01*
X151909524Y-85897676D02*
X152004762Y-85802438D01*
X152004762Y-85802438D02*
X152147619Y-85754819D01*
X152147619Y-85754819D02*
X152242857Y-85754819D01*
X152242857Y-85754819D02*
X152385714Y-85802438D01*
X152385714Y-85802438D02*
X152433333Y-85850057D01*
X152909524Y-86754819D02*
X153100000Y-86754819D01*
X153100000Y-86754819D02*
X153195238Y-86707200D01*
X153195238Y-86707200D02*
X153242857Y-86659580D01*
X153242857Y-86659580D02*
X153338095Y-86516723D01*
X153338095Y-86516723D02*
X153385714Y-86326247D01*
X153385714Y-86326247D02*
X153385714Y-85945295D01*
X153385714Y-85945295D02*
X153338095Y-85850057D01*
X153338095Y-85850057D02*
X153290476Y-85802438D01*
X153290476Y-85802438D02*
X153195238Y-85754819D01*
X153195238Y-85754819D02*
X153004762Y-85754819D01*
X153004762Y-85754819D02*
X152909524Y-85802438D01*
X152909524Y-85802438D02*
X152861905Y-85850057D01*
X152861905Y-85850057D02*
X152814286Y-85945295D01*
X152814286Y-85945295D02*
X152814286Y-86183390D01*
X152814286Y-86183390D02*
X152861905Y-86278628D01*
X152861905Y-86278628D02*
X152909524Y-86326247D01*
X152909524Y-86326247D02*
X153004762Y-86373866D01*
X153004762Y-86373866D02*
X153195238Y-86373866D01*
X153195238Y-86373866D02*
X153290476Y-86326247D01*
X153290476Y-86326247D02*
X153338095Y-86278628D01*
X153338095Y-86278628D02*
X153385714Y-86183390D01*
X131866666Y-86054819D02*
X131866666Y-86769104D01*
X131866666Y-86769104D02*
X131819047Y-86911961D01*
X131819047Y-86911961D02*
X131723809Y-87007200D01*
X131723809Y-87007200D02*
X131580952Y-87054819D01*
X131580952Y-87054819D02*
X131485714Y-87054819D01*
X132247619Y-86054819D02*
X132866666Y-86054819D01*
X132866666Y-86054819D02*
X132533333Y-86435771D01*
X132533333Y-86435771D02*
X132676190Y-86435771D01*
X132676190Y-86435771D02*
X132771428Y-86483390D01*
X132771428Y-86483390D02*
X132819047Y-86531009D01*
X132819047Y-86531009D02*
X132866666Y-86626247D01*
X132866666Y-86626247D02*
X132866666Y-86864342D01*
X132866666Y-86864342D02*
X132819047Y-86959580D01*
X132819047Y-86959580D02*
X132771428Y-87007200D01*
X132771428Y-87007200D02*
X132676190Y-87054819D01*
X132676190Y-87054819D02*
X132390476Y-87054819D01*
X132390476Y-87054819D02*
X132295238Y-87007200D01*
X132295238Y-87007200D02*
X132247619Y-86959580D01*
X132033333Y-84454819D02*
X131557143Y-84454819D01*
X131557143Y-84454819D02*
X131557143Y-83454819D01*
X132319048Y-83550057D02*
X132366667Y-83502438D01*
X132366667Y-83502438D02*
X132461905Y-83454819D01*
X132461905Y-83454819D02*
X132700000Y-83454819D01*
X132700000Y-83454819D02*
X132795238Y-83502438D01*
X132795238Y-83502438D02*
X132842857Y-83550057D01*
X132842857Y-83550057D02*
X132890476Y-83645295D01*
X132890476Y-83645295D02*
X132890476Y-83740533D01*
X132890476Y-83740533D02*
X132842857Y-83883390D01*
X132842857Y-83883390D02*
X132271429Y-84454819D01*
X132271429Y-84454819D02*
X132890476Y-84454819D01*
X163782142Y-101359580D02*
X163734523Y-101407200D01*
X163734523Y-101407200D02*
X163591666Y-101454819D01*
X163591666Y-101454819D02*
X163496428Y-101454819D01*
X163496428Y-101454819D02*
X163353571Y-101407200D01*
X163353571Y-101407200D02*
X163258333Y-101311961D01*
X163258333Y-101311961D02*
X163210714Y-101216723D01*
X163210714Y-101216723D02*
X163163095Y-101026247D01*
X163163095Y-101026247D02*
X163163095Y-100883390D01*
X163163095Y-100883390D02*
X163210714Y-100692914D01*
X163210714Y-100692914D02*
X163258333Y-100597676D01*
X163258333Y-100597676D02*
X163353571Y-100502438D01*
X163353571Y-100502438D02*
X163496428Y-100454819D01*
X163496428Y-100454819D02*
X163591666Y-100454819D01*
X163591666Y-100454819D02*
X163734523Y-100502438D01*
X163734523Y-100502438D02*
X163782142Y-100550057D01*
X164734523Y-101454819D02*
X164163095Y-101454819D01*
X164448809Y-101454819D02*
X164448809Y-100454819D01*
X164448809Y-100454819D02*
X164353571Y-100597676D01*
X164353571Y-100597676D02*
X164258333Y-100692914D01*
X164258333Y-100692914D02*
X164163095Y-100740533D01*
X165210714Y-101454819D02*
X165401190Y-101454819D01*
X165401190Y-101454819D02*
X165496428Y-101407200D01*
X165496428Y-101407200D02*
X165544047Y-101359580D01*
X165544047Y-101359580D02*
X165639285Y-101216723D01*
X165639285Y-101216723D02*
X165686904Y-101026247D01*
X165686904Y-101026247D02*
X165686904Y-100645295D01*
X165686904Y-100645295D02*
X165639285Y-100550057D01*
X165639285Y-100550057D02*
X165591666Y-100502438D01*
X165591666Y-100502438D02*
X165496428Y-100454819D01*
X165496428Y-100454819D02*
X165305952Y-100454819D01*
X165305952Y-100454819D02*
X165210714Y-100502438D01*
X165210714Y-100502438D02*
X165163095Y-100550057D01*
X165163095Y-100550057D02*
X165115476Y-100645295D01*
X165115476Y-100645295D02*
X165115476Y-100883390D01*
X165115476Y-100883390D02*
X165163095Y-100978628D01*
X165163095Y-100978628D02*
X165210714Y-101026247D01*
X165210714Y-101026247D02*
X165305952Y-101073866D01*
X165305952Y-101073866D02*
X165496428Y-101073866D01*
X165496428Y-101073866D02*
X165591666Y-101026247D01*
X165591666Y-101026247D02*
X165639285Y-100978628D01*
X165639285Y-100978628D02*
X165686904Y-100883390D01*
X152038095Y-116654819D02*
X152038095Y-117464342D01*
X152038095Y-117464342D02*
X152085714Y-117559580D01*
X152085714Y-117559580D02*
X152133333Y-117607200D01*
X152133333Y-117607200D02*
X152228571Y-117654819D01*
X152228571Y-117654819D02*
X152419047Y-117654819D01*
X152419047Y-117654819D02*
X152514285Y-117607200D01*
X152514285Y-117607200D02*
X152561904Y-117559580D01*
X152561904Y-117559580D02*
X152609523Y-117464342D01*
X152609523Y-117464342D02*
X152609523Y-116654819D01*
X153514285Y-116654819D02*
X153323809Y-116654819D01*
X153323809Y-116654819D02*
X153228571Y-116702438D01*
X153228571Y-116702438D02*
X153180952Y-116750057D01*
X153180952Y-116750057D02*
X153085714Y-116892914D01*
X153085714Y-116892914D02*
X153038095Y-117083390D01*
X153038095Y-117083390D02*
X153038095Y-117464342D01*
X153038095Y-117464342D02*
X153085714Y-117559580D01*
X153085714Y-117559580D02*
X153133333Y-117607200D01*
X153133333Y-117607200D02*
X153228571Y-117654819D01*
X153228571Y-117654819D02*
X153419047Y-117654819D01*
X153419047Y-117654819D02*
X153514285Y-117607200D01*
X153514285Y-117607200D02*
X153561904Y-117559580D01*
X153561904Y-117559580D02*
X153609523Y-117464342D01*
X153609523Y-117464342D02*
X153609523Y-117226247D01*
X153609523Y-117226247D02*
X153561904Y-117131009D01*
X153561904Y-117131009D02*
X153514285Y-117083390D01*
X153514285Y-117083390D02*
X153419047Y-117035771D01*
X153419047Y-117035771D02*
X153228571Y-117035771D01*
X153228571Y-117035771D02*
X153133333Y-117083390D01*
X153133333Y-117083390D02*
X153085714Y-117131009D01*
X153085714Y-117131009D02*
X153038095Y-117226247D01*
X137138094Y-116979104D02*
X137614284Y-116979104D01*
X137042856Y-117264819D02*
X137376189Y-116264819D01*
X137376189Y-116264819D02*
X137709522Y-117264819D01*
X138042856Y-116598152D02*
X138042856Y-117264819D01*
X138042856Y-116693390D02*
X138090475Y-116645771D01*
X138090475Y-116645771D02*
X138185713Y-116598152D01*
X138185713Y-116598152D02*
X138328570Y-116598152D01*
X138328570Y-116598152D02*
X138423808Y-116645771D01*
X138423808Y-116645771D02*
X138471427Y-116741009D01*
X138471427Y-116741009D02*
X138471427Y-117264819D01*
X138804761Y-116598152D02*
X139185713Y-116598152D01*
X138947618Y-116264819D02*
X138947618Y-117121961D01*
X138947618Y-117121961D02*
X138995237Y-117217200D01*
X138995237Y-117217200D02*
X139090475Y-117264819D01*
X139090475Y-117264819D02*
X139185713Y-117264819D01*
X139899999Y-117217200D02*
X139804761Y-117264819D01*
X139804761Y-117264819D02*
X139614285Y-117264819D01*
X139614285Y-117264819D02*
X139519047Y-117217200D01*
X139519047Y-117217200D02*
X139471428Y-117121961D01*
X139471428Y-117121961D02*
X139471428Y-116741009D01*
X139471428Y-116741009D02*
X139519047Y-116645771D01*
X139519047Y-116645771D02*
X139614285Y-116598152D01*
X139614285Y-116598152D02*
X139804761Y-116598152D01*
X139804761Y-116598152D02*
X139899999Y-116645771D01*
X139899999Y-116645771D02*
X139947618Y-116741009D01*
X139947618Y-116741009D02*
X139947618Y-116836247D01*
X139947618Y-116836247D02*
X139471428Y-116931485D01*
X140376190Y-116598152D02*
X140376190Y-117264819D01*
X140376190Y-116693390D02*
X140423809Y-116645771D01*
X140423809Y-116645771D02*
X140519047Y-116598152D01*
X140519047Y-116598152D02*
X140661904Y-116598152D01*
X140661904Y-116598152D02*
X140757142Y-116645771D01*
X140757142Y-116645771D02*
X140804761Y-116741009D01*
X140804761Y-116741009D02*
X140804761Y-117264819D01*
X141280952Y-116598152D02*
X141280952Y-117264819D01*
X141280952Y-116693390D02*
X141328571Y-116645771D01*
X141328571Y-116645771D02*
X141423809Y-116598152D01*
X141423809Y-116598152D02*
X141566666Y-116598152D01*
X141566666Y-116598152D02*
X141661904Y-116645771D01*
X141661904Y-116645771D02*
X141709523Y-116741009D01*
X141709523Y-116741009D02*
X141709523Y-117264819D01*
X142614285Y-117264819D02*
X142614285Y-116741009D01*
X142614285Y-116741009D02*
X142566666Y-116645771D01*
X142566666Y-116645771D02*
X142471428Y-116598152D01*
X142471428Y-116598152D02*
X142280952Y-116598152D01*
X142280952Y-116598152D02*
X142185714Y-116645771D01*
X142614285Y-117217200D02*
X142519047Y-117264819D01*
X142519047Y-117264819D02*
X142280952Y-117264819D01*
X142280952Y-117264819D02*
X142185714Y-117217200D01*
X142185714Y-117217200D02*
X142138095Y-117121961D01*
X142138095Y-117121961D02*
X142138095Y-117026723D01*
X142138095Y-117026723D02*
X142185714Y-116931485D01*
X142185714Y-116931485D02*
X142280952Y-116883866D01*
X142280952Y-116883866D02*
X142519047Y-116883866D01*
X142519047Y-116883866D02*
X142614285Y-116836247D01*
X143804762Y-116979104D02*
X144280952Y-116979104D01*
X143709524Y-117264819D02*
X144042857Y-116264819D01*
X144042857Y-116264819D02*
X144376190Y-117264819D01*
X144709524Y-117264819D02*
X144709524Y-116598152D01*
X144709524Y-116788628D02*
X144757143Y-116693390D01*
X144757143Y-116693390D02*
X144804762Y-116645771D01*
X144804762Y-116645771D02*
X144900000Y-116598152D01*
X144900000Y-116598152D02*
X144995238Y-116598152D01*
X145709524Y-117217200D02*
X145614286Y-117264819D01*
X145614286Y-117264819D02*
X145423810Y-117264819D01*
X145423810Y-117264819D02*
X145328572Y-117217200D01*
X145328572Y-117217200D02*
X145280953Y-117121961D01*
X145280953Y-117121961D02*
X145280953Y-116741009D01*
X145280953Y-116741009D02*
X145328572Y-116645771D01*
X145328572Y-116645771D02*
X145423810Y-116598152D01*
X145423810Y-116598152D02*
X145614286Y-116598152D01*
X145614286Y-116598152D02*
X145709524Y-116645771D01*
X145709524Y-116645771D02*
X145757143Y-116741009D01*
X145757143Y-116741009D02*
X145757143Y-116836247D01*
X145757143Y-116836247D02*
X145280953Y-116931485D01*
X146614286Y-117264819D02*
X146614286Y-116741009D01*
X146614286Y-116741009D02*
X146566667Y-116645771D01*
X146566667Y-116645771D02*
X146471429Y-116598152D01*
X146471429Y-116598152D02*
X146280953Y-116598152D01*
X146280953Y-116598152D02*
X146185715Y-116645771D01*
X146614286Y-117217200D02*
X146519048Y-117264819D01*
X146519048Y-117264819D02*
X146280953Y-117264819D01*
X146280953Y-117264819D02*
X146185715Y-117217200D01*
X146185715Y-117217200D02*
X146138096Y-117121961D01*
X146138096Y-117121961D02*
X146138096Y-117026723D01*
X146138096Y-117026723D02*
X146185715Y-116931485D01*
X146185715Y-116931485D02*
X146280953Y-116883866D01*
X146280953Y-116883866D02*
X146519048Y-116883866D01*
X146519048Y-116883866D02*
X146614286Y-116836247D01*
X164459580Y-76966666D02*
X164507200Y-77014285D01*
X164507200Y-77014285D02*
X164554819Y-77157142D01*
X164554819Y-77157142D02*
X164554819Y-77252380D01*
X164554819Y-77252380D02*
X164507200Y-77395237D01*
X164507200Y-77395237D02*
X164411961Y-77490475D01*
X164411961Y-77490475D02*
X164316723Y-77538094D01*
X164316723Y-77538094D02*
X164126247Y-77585713D01*
X164126247Y-77585713D02*
X163983390Y-77585713D01*
X163983390Y-77585713D02*
X163792914Y-77538094D01*
X163792914Y-77538094D02*
X163697676Y-77490475D01*
X163697676Y-77490475D02*
X163602438Y-77395237D01*
X163602438Y-77395237D02*
X163554819Y-77252380D01*
X163554819Y-77252380D02*
X163554819Y-77157142D01*
X163554819Y-77157142D02*
X163602438Y-77014285D01*
X163602438Y-77014285D02*
X163650057Y-76966666D01*
X163554819Y-76109523D02*
X163554819Y-76299999D01*
X163554819Y-76299999D02*
X163602438Y-76395237D01*
X163602438Y-76395237D02*
X163650057Y-76442856D01*
X163650057Y-76442856D02*
X163792914Y-76538094D01*
X163792914Y-76538094D02*
X163983390Y-76585713D01*
X163983390Y-76585713D02*
X164364342Y-76585713D01*
X164364342Y-76585713D02*
X164459580Y-76538094D01*
X164459580Y-76538094D02*
X164507200Y-76490475D01*
X164507200Y-76490475D02*
X164554819Y-76395237D01*
X164554819Y-76395237D02*
X164554819Y-76204761D01*
X164554819Y-76204761D02*
X164507200Y-76109523D01*
X164507200Y-76109523D02*
X164459580Y-76061904D01*
X164459580Y-76061904D02*
X164364342Y-76014285D01*
X164364342Y-76014285D02*
X164126247Y-76014285D01*
X164126247Y-76014285D02*
X164031009Y-76061904D01*
X164031009Y-76061904D02*
X163983390Y-76109523D01*
X163983390Y-76109523D02*
X163935771Y-76204761D01*
X163935771Y-76204761D02*
X163935771Y-76395237D01*
X163935771Y-76395237D02*
X163983390Y-76490475D01*
X163983390Y-76490475D02*
X164031009Y-76538094D01*
X164031009Y-76538094D02*
X164126247Y-76585713D01*
X94854819Y-93591666D02*
X94378628Y-93924999D01*
X94854819Y-94163094D02*
X93854819Y-94163094D01*
X93854819Y-94163094D02*
X93854819Y-93782142D01*
X93854819Y-93782142D02*
X93902438Y-93686904D01*
X93902438Y-93686904D02*
X93950057Y-93639285D01*
X93950057Y-93639285D02*
X94045295Y-93591666D01*
X94045295Y-93591666D02*
X94188152Y-93591666D01*
X94188152Y-93591666D02*
X94283390Y-93639285D01*
X94283390Y-93639285D02*
X94331009Y-93686904D01*
X94331009Y-93686904D02*
X94378628Y-93782142D01*
X94378628Y-93782142D02*
X94378628Y-94163094D01*
X94854819Y-93115475D02*
X94854819Y-92924999D01*
X94854819Y-92924999D02*
X94807200Y-92829761D01*
X94807200Y-92829761D02*
X94759580Y-92782142D01*
X94759580Y-92782142D02*
X94616723Y-92686904D01*
X94616723Y-92686904D02*
X94426247Y-92639285D01*
X94426247Y-92639285D02*
X94045295Y-92639285D01*
X94045295Y-92639285D02*
X93950057Y-92686904D01*
X93950057Y-92686904D02*
X93902438Y-92734523D01*
X93902438Y-92734523D02*
X93854819Y-92829761D01*
X93854819Y-92829761D02*
X93854819Y-93020237D01*
X93854819Y-93020237D02*
X93902438Y-93115475D01*
X93902438Y-93115475D02*
X93950057Y-93163094D01*
X93950057Y-93163094D02*
X94045295Y-93210713D01*
X94045295Y-93210713D02*
X94283390Y-93210713D01*
X94283390Y-93210713D02*
X94378628Y-93163094D01*
X94378628Y-93163094D02*
X94426247Y-93115475D01*
X94426247Y-93115475D02*
X94473866Y-93020237D01*
X94473866Y-93020237D02*
X94473866Y-92829761D01*
X94473866Y-92829761D02*
X94426247Y-92734523D01*
X94426247Y-92734523D02*
X94378628Y-92686904D01*
X94378628Y-92686904D02*
X94283390Y-92639285D01*
X154633333Y-71854819D02*
X154300000Y-71378628D01*
X154061905Y-71854819D02*
X154061905Y-70854819D01*
X154061905Y-70854819D02*
X154442857Y-70854819D01*
X154442857Y-70854819D02*
X154538095Y-70902438D01*
X154538095Y-70902438D02*
X154585714Y-70950057D01*
X154585714Y-70950057D02*
X154633333Y-71045295D01*
X154633333Y-71045295D02*
X154633333Y-71188152D01*
X154633333Y-71188152D02*
X154585714Y-71283390D01*
X154585714Y-71283390D02*
X154538095Y-71331009D01*
X154538095Y-71331009D02*
X154442857Y-71378628D01*
X154442857Y-71378628D02*
X154061905Y-71378628D01*
X155490476Y-70854819D02*
X155300000Y-70854819D01*
X155300000Y-70854819D02*
X155204762Y-70902438D01*
X155204762Y-70902438D02*
X155157143Y-70950057D01*
X155157143Y-70950057D02*
X155061905Y-71092914D01*
X155061905Y-71092914D02*
X155014286Y-71283390D01*
X155014286Y-71283390D02*
X155014286Y-71664342D01*
X155014286Y-71664342D02*
X155061905Y-71759580D01*
X155061905Y-71759580D02*
X155109524Y-71807200D01*
X155109524Y-71807200D02*
X155204762Y-71854819D01*
X155204762Y-71854819D02*
X155395238Y-71854819D01*
X155395238Y-71854819D02*
X155490476Y-71807200D01*
X155490476Y-71807200D02*
X155538095Y-71759580D01*
X155538095Y-71759580D02*
X155585714Y-71664342D01*
X155585714Y-71664342D02*
X155585714Y-71426247D01*
X155585714Y-71426247D02*
X155538095Y-71331009D01*
X155538095Y-71331009D02*
X155490476Y-71283390D01*
X155490476Y-71283390D02*
X155395238Y-71235771D01*
X155395238Y-71235771D02*
X155204762Y-71235771D01*
X155204762Y-71235771D02*
X155109524Y-71283390D01*
X155109524Y-71283390D02*
X155061905Y-71331009D01*
X155061905Y-71331009D02*
X155014286Y-71426247D01*
X161033333Y-71854819D02*
X160700000Y-71378628D01*
X160461905Y-71854819D02*
X160461905Y-70854819D01*
X160461905Y-70854819D02*
X160842857Y-70854819D01*
X160842857Y-70854819D02*
X160938095Y-70902438D01*
X160938095Y-70902438D02*
X160985714Y-70950057D01*
X160985714Y-70950057D02*
X161033333Y-71045295D01*
X161033333Y-71045295D02*
X161033333Y-71188152D01*
X161033333Y-71188152D02*
X160985714Y-71283390D01*
X160985714Y-71283390D02*
X160938095Y-71331009D01*
X160938095Y-71331009D02*
X160842857Y-71378628D01*
X160842857Y-71378628D02*
X160461905Y-71378628D01*
X161938095Y-70854819D02*
X161461905Y-70854819D01*
X161461905Y-70854819D02*
X161414286Y-71331009D01*
X161414286Y-71331009D02*
X161461905Y-71283390D01*
X161461905Y-71283390D02*
X161557143Y-71235771D01*
X161557143Y-71235771D02*
X161795238Y-71235771D01*
X161795238Y-71235771D02*
X161890476Y-71283390D01*
X161890476Y-71283390D02*
X161938095Y-71331009D01*
X161938095Y-71331009D02*
X161985714Y-71426247D01*
X161985714Y-71426247D02*
X161985714Y-71664342D01*
X161985714Y-71664342D02*
X161938095Y-71759580D01*
X161938095Y-71759580D02*
X161890476Y-71807200D01*
X161890476Y-71807200D02*
X161795238Y-71854819D01*
X161795238Y-71854819D02*
X161557143Y-71854819D01*
X161557143Y-71854819D02*
X161461905Y-71807200D01*
X161461905Y-71807200D02*
X161414286Y-71759580D01*
X163254819Y-110242857D02*
X162778628Y-110576190D01*
X163254819Y-110814285D02*
X162254819Y-110814285D01*
X162254819Y-110814285D02*
X162254819Y-110433333D01*
X162254819Y-110433333D02*
X162302438Y-110338095D01*
X162302438Y-110338095D02*
X162350057Y-110290476D01*
X162350057Y-110290476D02*
X162445295Y-110242857D01*
X162445295Y-110242857D02*
X162588152Y-110242857D01*
X162588152Y-110242857D02*
X162683390Y-110290476D01*
X162683390Y-110290476D02*
X162731009Y-110338095D01*
X162731009Y-110338095D02*
X162778628Y-110433333D01*
X162778628Y-110433333D02*
X162778628Y-110814285D01*
X163254819Y-109290476D02*
X163254819Y-109861904D01*
X163254819Y-109576190D02*
X162254819Y-109576190D01*
X162254819Y-109576190D02*
X162397676Y-109671428D01*
X162397676Y-109671428D02*
X162492914Y-109766666D01*
X162492914Y-109766666D02*
X162540533Y-109861904D01*
X162254819Y-108385714D02*
X162254819Y-108861904D01*
X162254819Y-108861904D02*
X162731009Y-108909523D01*
X162731009Y-108909523D02*
X162683390Y-108861904D01*
X162683390Y-108861904D02*
X162635771Y-108766666D01*
X162635771Y-108766666D02*
X162635771Y-108528571D01*
X162635771Y-108528571D02*
X162683390Y-108433333D01*
X162683390Y-108433333D02*
X162731009Y-108385714D01*
X162731009Y-108385714D02*
X162826247Y-108338095D01*
X162826247Y-108338095D02*
X163064342Y-108338095D01*
X163064342Y-108338095D02*
X163159580Y-108385714D01*
X163159580Y-108385714D02*
X163207200Y-108433333D01*
X163207200Y-108433333D02*
X163254819Y-108528571D01*
X163254819Y-108528571D02*
X163254819Y-108766666D01*
X163254819Y-108766666D02*
X163207200Y-108861904D01*
X163207200Y-108861904D02*
X163159580Y-108909523D01*
X129759580Y-75941666D02*
X129807200Y-75989285D01*
X129807200Y-75989285D02*
X129854819Y-76132142D01*
X129854819Y-76132142D02*
X129854819Y-76227380D01*
X129854819Y-76227380D02*
X129807200Y-76370237D01*
X129807200Y-76370237D02*
X129711961Y-76465475D01*
X129711961Y-76465475D02*
X129616723Y-76513094D01*
X129616723Y-76513094D02*
X129426247Y-76560713D01*
X129426247Y-76560713D02*
X129283390Y-76560713D01*
X129283390Y-76560713D02*
X129092914Y-76513094D01*
X129092914Y-76513094D02*
X128997676Y-76465475D01*
X128997676Y-76465475D02*
X128902438Y-76370237D01*
X128902438Y-76370237D02*
X128854819Y-76227380D01*
X128854819Y-76227380D02*
X128854819Y-76132142D01*
X128854819Y-76132142D02*
X128902438Y-75989285D01*
X128902438Y-75989285D02*
X128950057Y-75941666D01*
X128950057Y-75560713D02*
X128902438Y-75513094D01*
X128902438Y-75513094D02*
X128854819Y-75417856D01*
X128854819Y-75417856D02*
X128854819Y-75179761D01*
X128854819Y-75179761D02*
X128902438Y-75084523D01*
X128902438Y-75084523D02*
X128950057Y-75036904D01*
X128950057Y-75036904D02*
X129045295Y-74989285D01*
X129045295Y-74989285D02*
X129140533Y-74989285D01*
X129140533Y-74989285D02*
X129283390Y-75036904D01*
X129283390Y-75036904D02*
X129854819Y-75608332D01*
X129854819Y-75608332D02*
X129854819Y-74989285D01*
X152333333Y-84254819D02*
X151857143Y-84254819D01*
X151857143Y-84254819D02*
X151857143Y-83254819D01*
X152571429Y-83254819D02*
X153190476Y-83254819D01*
X153190476Y-83254819D02*
X152857143Y-83635771D01*
X152857143Y-83635771D02*
X153000000Y-83635771D01*
X153000000Y-83635771D02*
X153095238Y-83683390D01*
X153095238Y-83683390D02*
X153142857Y-83731009D01*
X153142857Y-83731009D02*
X153190476Y-83826247D01*
X153190476Y-83826247D02*
X153190476Y-84064342D01*
X153190476Y-84064342D02*
X153142857Y-84159580D01*
X153142857Y-84159580D02*
X153095238Y-84207200D01*
X153095238Y-84207200D02*
X153000000Y-84254819D01*
X153000000Y-84254819D02*
X152714286Y-84254819D01*
X152714286Y-84254819D02*
X152619048Y-84207200D01*
X152619048Y-84207200D02*
X152571429Y-84159580D01*
X154066667Y-105407200D02*
X154209524Y-105454819D01*
X154209524Y-105454819D02*
X154447619Y-105454819D01*
X154447619Y-105454819D02*
X154542857Y-105407200D01*
X154542857Y-105407200D02*
X154590476Y-105359580D01*
X154590476Y-105359580D02*
X154638095Y-105264342D01*
X154638095Y-105264342D02*
X154638095Y-105169104D01*
X154638095Y-105169104D02*
X154590476Y-105073866D01*
X154590476Y-105073866D02*
X154542857Y-105026247D01*
X154542857Y-105026247D02*
X154447619Y-104978628D01*
X154447619Y-104978628D02*
X154257143Y-104931009D01*
X154257143Y-104931009D02*
X154161905Y-104883390D01*
X154161905Y-104883390D02*
X154114286Y-104835771D01*
X154114286Y-104835771D02*
X154066667Y-104740533D01*
X154066667Y-104740533D02*
X154066667Y-104645295D01*
X154066667Y-104645295D02*
X154114286Y-104550057D01*
X154114286Y-104550057D02*
X154161905Y-104502438D01*
X154161905Y-104502438D02*
X154257143Y-104454819D01*
X154257143Y-104454819D02*
X154495238Y-104454819D01*
X154495238Y-104454819D02*
X154638095Y-104502438D01*
X154971429Y-104454819D02*
X155209524Y-105454819D01*
X155209524Y-105454819D02*
X155400000Y-104740533D01*
X155400000Y-104740533D02*
X155590476Y-105454819D01*
X155590476Y-105454819D02*
X155828572Y-104454819D01*
X156161905Y-104550057D02*
X156209524Y-104502438D01*
X156209524Y-104502438D02*
X156304762Y-104454819D01*
X156304762Y-104454819D02*
X156542857Y-104454819D01*
X156542857Y-104454819D02*
X156638095Y-104502438D01*
X156638095Y-104502438D02*
X156685714Y-104550057D01*
X156685714Y-104550057D02*
X156733333Y-104645295D01*
X156733333Y-104645295D02*
X156733333Y-104740533D01*
X156733333Y-104740533D02*
X156685714Y-104883390D01*
X156685714Y-104883390D02*
X156114286Y-105454819D01*
X156114286Y-105454819D02*
X156733333Y-105454819D01*
X133359580Y-81366666D02*
X133407200Y-81414285D01*
X133407200Y-81414285D02*
X133454819Y-81557142D01*
X133454819Y-81557142D02*
X133454819Y-81652380D01*
X133454819Y-81652380D02*
X133407200Y-81795237D01*
X133407200Y-81795237D02*
X133311961Y-81890475D01*
X133311961Y-81890475D02*
X133216723Y-81938094D01*
X133216723Y-81938094D02*
X133026247Y-81985713D01*
X133026247Y-81985713D02*
X132883390Y-81985713D01*
X132883390Y-81985713D02*
X132692914Y-81938094D01*
X132692914Y-81938094D02*
X132597676Y-81890475D01*
X132597676Y-81890475D02*
X132502438Y-81795237D01*
X132502438Y-81795237D02*
X132454819Y-81652380D01*
X132454819Y-81652380D02*
X132454819Y-81557142D01*
X132454819Y-81557142D02*
X132502438Y-81414285D01*
X132502438Y-81414285D02*
X132550057Y-81366666D01*
X132454819Y-81033332D02*
X132454819Y-80414285D01*
X132454819Y-80414285D02*
X132835771Y-80747618D01*
X132835771Y-80747618D02*
X132835771Y-80604761D01*
X132835771Y-80604761D02*
X132883390Y-80509523D01*
X132883390Y-80509523D02*
X132931009Y-80461904D01*
X132931009Y-80461904D02*
X133026247Y-80414285D01*
X133026247Y-80414285D02*
X133264342Y-80414285D01*
X133264342Y-80414285D02*
X133359580Y-80461904D01*
X133359580Y-80461904D02*
X133407200Y-80509523D01*
X133407200Y-80509523D02*
X133454819Y-80604761D01*
X133454819Y-80604761D02*
X133454819Y-80890475D01*
X133454819Y-80890475D02*
X133407200Y-80985713D01*
X133407200Y-80985713D02*
X133359580Y-81033332D01*
X155357142Y-94154819D02*
X155023809Y-93678628D01*
X154785714Y-94154819D02*
X154785714Y-93154819D01*
X154785714Y-93154819D02*
X155166666Y-93154819D01*
X155166666Y-93154819D02*
X155261904Y-93202438D01*
X155261904Y-93202438D02*
X155309523Y-93250057D01*
X155309523Y-93250057D02*
X155357142Y-93345295D01*
X155357142Y-93345295D02*
X155357142Y-93488152D01*
X155357142Y-93488152D02*
X155309523Y-93583390D01*
X155309523Y-93583390D02*
X155261904Y-93631009D01*
X155261904Y-93631009D02*
X155166666Y-93678628D01*
X155166666Y-93678628D02*
X154785714Y-93678628D01*
X156309523Y-94154819D02*
X155738095Y-94154819D01*
X156023809Y-94154819D02*
X156023809Y-93154819D01*
X156023809Y-93154819D02*
X155928571Y-93297676D01*
X155928571Y-93297676D02*
X155833333Y-93392914D01*
X155833333Y-93392914D02*
X155738095Y-93440533D01*
X157166666Y-93488152D02*
X157166666Y-94154819D01*
X156928571Y-93107200D02*
X156690476Y-93821485D01*
X156690476Y-93821485D02*
X157309523Y-93821485D01*
X153954819Y-77941584D02*
X154764342Y-77941584D01*
X154764342Y-77941584D02*
X154859580Y-77893965D01*
X154859580Y-77893965D02*
X154907200Y-77846346D01*
X154907200Y-77846346D02*
X154954819Y-77751108D01*
X154954819Y-77751108D02*
X154954819Y-77560632D01*
X154954819Y-77560632D02*
X154907200Y-77465394D01*
X154907200Y-77465394D02*
X154859580Y-77417775D01*
X154859580Y-77417775D02*
X154764342Y-77370156D01*
X154764342Y-77370156D02*
X153954819Y-77370156D01*
X154050057Y-76941584D02*
X154002438Y-76893965D01*
X154002438Y-76893965D02*
X153954819Y-76798727D01*
X153954819Y-76798727D02*
X153954819Y-76560632D01*
X153954819Y-76560632D02*
X154002438Y-76465394D01*
X154002438Y-76465394D02*
X154050057Y-76417775D01*
X154050057Y-76417775D02*
X154145295Y-76370156D01*
X154145295Y-76370156D02*
X154240533Y-76370156D01*
X154240533Y-76370156D02*
X154383390Y-76417775D01*
X154383390Y-76417775D02*
X154954819Y-76989203D01*
X154954819Y-76989203D02*
X154954819Y-76370156D01*
X134554819Y-77941584D02*
X135364342Y-77941584D01*
X135364342Y-77941584D02*
X135459580Y-77893965D01*
X135459580Y-77893965D02*
X135507200Y-77846346D01*
X135507200Y-77846346D02*
X135554819Y-77751108D01*
X135554819Y-77751108D02*
X135554819Y-77560632D01*
X135554819Y-77560632D02*
X135507200Y-77465394D01*
X135507200Y-77465394D02*
X135459580Y-77417775D01*
X135459580Y-77417775D02*
X135364342Y-77370156D01*
X135364342Y-77370156D02*
X134554819Y-77370156D01*
X135554819Y-76370156D02*
X135554819Y-76941584D01*
X135554819Y-76655870D02*
X134554819Y-76655870D01*
X134554819Y-76655870D02*
X134697676Y-76751108D01*
X134697676Y-76751108D02*
X134792914Y-76846346D01*
X134792914Y-76846346D02*
X134840533Y-76941584D01*
X155854819Y-96538094D02*
X154854819Y-96538094D01*
X154854819Y-96538094D02*
X154854819Y-96299999D01*
X154854819Y-96299999D02*
X154902438Y-96157142D01*
X154902438Y-96157142D02*
X154997676Y-96061904D01*
X154997676Y-96061904D02*
X155092914Y-96014285D01*
X155092914Y-96014285D02*
X155283390Y-95966666D01*
X155283390Y-95966666D02*
X155426247Y-95966666D01*
X155426247Y-95966666D02*
X155616723Y-96014285D01*
X155616723Y-96014285D02*
X155711961Y-96061904D01*
X155711961Y-96061904D02*
X155807200Y-96157142D01*
X155807200Y-96157142D02*
X155854819Y-96299999D01*
X155854819Y-96299999D02*
X155854819Y-96538094D01*
X154854819Y-95633332D02*
X154854819Y-95014285D01*
X154854819Y-95014285D02*
X155235771Y-95347618D01*
X155235771Y-95347618D02*
X155235771Y-95204761D01*
X155235771Y-95204761D02*
X155283390Y-95109523D01*
X155283390Y-95109523D02*
X155331009Y-95061904D01*
X155331009Y-95061904D02*
X155426247Y-95014285D01*
X155426247Y-95014285D02*
X155664342Y-95014285D01*
X155664342Y-95014285D02*
X155759580Y-95061904D01*
X155759580Y-95061904D02*
X155807200Y-95109523D01*
X155807200Y-95109523D02*
X155854819Y-95204761D01*
X155854819Y-95204761D02*
X155854819Y-95490475D01*
X155854819Y-95490475D02*
X155807200Y-95585713D01*
X155807200Y-95585713D02*
X155759580Y-95633332D01*
D12*
X123257419Y-113209523D02*
X122257419Y-113209523D01*
X122257419Y-113209523D02*
X122971704Y-112876190D01*
X122971704Y-112876190D02*
X122257419Y-112542857D01*
X122257419Y-112542857D02*
X123257419Y-112542857D01*
X123257419Y-111542857D02*
X123257419Y-112114285D01*
X123257419Y-111828571D02*
X122257419Y-111828571D01*
X122257419Y-111828571D02*
X122400276Y-111923809D01*
X122400276Y-111923809D02*
X122495514Y-112019047D01*
X122495514Y-112019047D02*
X122543133Y-112114285D01*
D10*
X158854819Y-108961904D02*
X159664342Y-108961904D01*
X159664342Y-108961904D02*
X159759580Y-108914285D01*
X159759580Y-108914285D02*
X159807200Y-108866666D01*
X159807200Y-108866666D02*
X159854819Y-108771428D01*
X159854819Y-108771428D02*
X159854819Y-108580952D01*
X159854819Y-108580952D02*
X159807200Y-108485714D01*
X159807200Y-108485714D02*
X159759580Y-108438095D01*
X159759580Y-108438095D02*
X159664342Y-108390476D01*
X159664342Y-108390476D02*
X158854819Y-108390476D01*
X159188152Y-107485714D02*
X159854819Y-107485714D01*
X158807200Y-107723809D02*
X159521485Y-107961904D01*
X159521485Y-107961904D02*
X159521485Y-107342857D01*
X160757142Y-104054819D02*
X160423809Y-103578628D01*
X160185714Y-104054819D02*
X160185714Y-103054819D01*
X160185714Y-103054819D02*
X160566666Y-103054819D01*
X160566666Y-103054819D02*
X160661904Y-103102438D01*
X160661904Y-103102438D02*
X160709523Y-103150057D01*
X160709523Y-103150057D02*
X160757142Y-103245295D01*
X160757142Y-103245295D02*
X160757142Y-103388152D01*
X160757142Y-103388152D02*
X160709523Y-103483390D01*
X160709523Y-103483390D02*
X160661904Y-103531009D01*
X160661904Y-103531009D02*
X160566666Y-103578628D01*
X160566666Y-103578628D02*
X160185714Y-103578628D01*
X161709523Y-104054819D02*
X161138095Y-104054819D01*
X161423809Y-104054819D02*
X161423809Y-103054819D01*
X161423809Y-103054819D02*
X161328571Y-103197676D01*
X161328571Y-103197676D02*
X161233333Y-103292914D01*
X161233333Y-103292914D02*
X161138095Y-103340533D01*
X162042857Y-103054819D02*
X162661904Y-103054819D01*
X162661904Y-103054819D02*
X162328571Y-103435771D01*
X162328571Y-103435771D02*
X162471428Y-103435771D01*
X162471428Y-103435771D02*
X162566666Y-103483390D01*
X162566666Y-103483390D02*
X162614285Y-103531009D01*
X162614285Y-103531009D02*
X162661904Y-103626247D01*
X162661904Y-103626247D02*
X162661904Y-103864342D01*
X162661904Y-103864342D02*
X162614285Y-103959580D01*
X162614285Y-103959580D02*
X162566666Y-104007200D01*
X162566666Y-104007200D02*
X162471428Y-104054819D01*
X162471428Y-104054819D02*
X162185714Y-104054819D01*
X162185714Y-104054819D02*
X162090476Y-104007200D01*
X162090476Y-104007200D02*
X162042857Y-103959580D01*
X132433333Y-71854819D02*
X132100000Y-71378628D01*
X131861905Y-71854819D02*
X131861905Y-70854819D01*
X131861905Y-70854819D02*
X132242857Y-70854819D01*
X132242857Y-70854819D02*
X132338095Y-70902438D01*
X132338095Y-70902438D02*
X132385714Y-70950057D01*
X132385714Y-70950057D02*
X132433333Y-71045295D01*
X132433333Y-71045295D02*
X132433333Y-71188152D01*
X132433333Y-71188152D02*
X132385714Y-71283390D01*
X132385714Y-71283390D02*
X132338095Y-71331009D01*
X132338095Y-71331009D02*
X132242857Y-71378628D01*
X132242857Y-71378628D02*
X131861905Y-71378628D01*
X132814286Y-70950057D02*
X132861905Y-70902438D01*
X132861905Y-70902438D02*
X132957143Y-70854819D01*
X132957143Y-70854819D02*
X133195238Y-70854819D01*
X133195238Y-70854819D02*
X133290476Y-70902438D01*
X133290476Y-70902438D02*
X133338095Y-70950057D01*
X133338095Y-70950057D02*
X133385714Y-71045295D01*
X133385714Y-71045295D02*
X133385714Y-71140533D01*
X133385714Y-71140533D02*
X133338095Y-71283390D01*
X133338095Y-71283390D02*
X132766667Y-71854819D01*
X132766667Y-71854819D02*
X133385714Y-71854819D01*
X148333333Y-74959580D02*
X148285714Y-75007200D01*
X148285714Y-75007200D02*
X148142857Y-75054819D01*
X148142857Y-75054819D02*
X148047619Y-75054819D01*
X148047619Y-75054819D02*
X147904762Y-75007200D01*
X147904762Y-75007200D02*
X147809524Y-74911961D01*
X147809524Y-74911961D02*
X147761905Y-74816723D01*
X147761905Y-74816723D02*
X147714286Y-74626247D01*
X147714286Y-74626247D02*
X147714286Y-74483390D01*
X147714286Y-74483390D02*
X147761905Y-74292914D01*
X147761905Y-74292914D02*
X147809524Y-74197676D01*
X147809524Y-74197676D02*
X147904762Y-74102438D01*
X147904762Y-74102438D02*
X148047619Y-74054819D01*
X148047619Y-74054819D02*
X148142857Y-74054819D01*
X148142857Y-74054819D02*
X148285714Y-74102438D01*
X148285714Y-74102438D02*
X148333333Y-74150057D01*
X148666667Y-74054819D02*
X149333333Y-74054819D01*
X149333333Y-74054819D02*
X148904762Y-75054819D01*
X160557142Y-98354819D02*
X160223809Y-97878628D01*
X159985714Y-98354819D02*
X159985714Y-97354819D01*
X159985714Y-97354819D02*
X160366666Y-97354819D01*
X160366666Y-97354819D02*
X160461904Y-97402438D01*
X160461904Y-97402438D02*
X160509523Y-97450057D01*
X160509523Y-97450057D02*
X160557142Y-97545295D01*
X160557142Y-97545295D02*
X160557142Y-97688152D01*
X160557142Y-97688152D02*
X160509523Y-97783390D01*
X160509523Y-97783390D02*
X160461904Y-97831009D01*
X160461904Y-97831009D02*
X160366666Y-97878628D01*
X160366666Y-97878628D02*
X159985714Y-97878628D01*
X161509523Y-98354819D02*
X160938095Y-98354819D01*
X161223809Y-98354819D02*
X161223809Y-97354819D01*
X161223809Y-97354819D02*
X161128571Y-97497676D01*
X161128571Y-97497676D02*
X161033333Y-97592914D01*
X161033333Y-97592914D02*
X160938095Y-97640533D01*
X161890476Y-97450057D02*
X161938095Y-97402438D01*
X161938095Y-97402438D02*
X162033333Y-97354819D01*
X162033333Y-97354819D02*
X162271428Y-97354819D01*
X162271428Y-97354819D02*
X162366666Y-97402438D01*
X162366666Y-97402438D02*
X162414285Y-97450057D01*
X162414285Y-97450057D02*
X162461904Y-97545295D01*
X162461904Y-97545295D02*
X162461904Y-97640533D01*
X162461904Y-97640533D02*
X162414285Y-97783390D01*
X162414285Y-97783390D02*
X161842857Y-98354819D01*
X161842857Y-98354819D02*
X162461904Y-98354819D01*
X160238095Y-114654819D02*
X160238095Y-115464342D01*
X160238095Y-115464342D02*
X160285714Y-115559580D01*
X160285714Y-115559580D02*
X160333333Y-115607200D01*
X160333333Y-115607200D02*
X160428571Y-115654819D01*
X160428571Y-115654819D02*
X160619047Y-115654819D01*
X160619047Y-115654819D02*
X160714285Y-115607200D01*
X160714285Y-115607200D02*
X160761904Y-115559580D01*
X160761904Y-115559580D02*
X160809523Y-115464342D01*
X160809523Y-115464342D02*
X160809523Y-114654819D01*
X161190476Y-114654819D02*
X161809523Y-114654819D01*
X161809523Y-114654819D02*
X161476190Y-115035771D01*
X161476190Y-115035771D02*
X161619047Y-115035771D01*
X161619047Y-115035771D02*
X161714285Y-115083390D01*
X161714285Y-115083390D02*
X161761904Y-115131009D01*
X161761904Y-115131009D02*
X161809523Y-115226247D01*
X161809523Y-115226247D02*
X161809523Y-115464342D01*
X161809523Y-115464342D02*
X161761904Y-115559580D01*
X161761904Y-115559580D02*
X161714285Y-115607200D01*
X161714285Y-115607200D02*
X161619047Y-115654819D01*
X161619047Y-115654819D02*
X161333333Y-115654819D01*
X161333333Y-115654819D02*
X161238095Y-115607200D01*
X161238095Y-115607200D02*
X161190476Y-115559580D01*
X153833333Y-79759580D02*
X153785714Y-79807200D01*
X153785714Y-79807200D02*
X153642857Y-79854819D01*
X153642857Y-79854819D02*
X153547619Y-79854819D01*
X153547619Y-79854819D02*
X153404762Y-79807200D01*
X153404762Y-79807200D02*
X153309524Y-79711961D01*
X153309524Y-79711961D02*
X153261905Y-79616723D01*
X153261905Y-79616723D02*
X153214286Y-79426247D01*
X153214286Y-79426247D02*
X153214286Y-79283390D01*
X153214286Y-79283390D02*
X153261905Y-79092914D01*
X153261905Y-79092914D02*
X153309524Y-78997676D01*
X153309524Y-78997676D02*
X153404762Y-78902438D01*
X153404762Y-78902438D02*
X153547619Y-78854819D01*
X153547619Y-78854819D02*
X153642857Y-78854819D01*
X153642857Y-78854819D02*
X153785714Y-78902438D01*
X153785714Y-78902438D02*
X153833333Y-78950057D01*
X154404762Y-79283390D02*
X154309524Y-79235771D01*
X154309524Y-79235771D02*
X154261905Y-79188152D01*
X154261905Y-79188152D02*
X154214286Y-79092914D01*
X154214286Y-79092914D02*
X154214286Y-79045295D01*
X154214286Y-79045295D02*
X154261905Y-78950057D01*
X154261905Y-78950057D02*
X154309524Y-78902438D01*
X154309524Y-78902438D02*
X154404762Y-78854819D01*
X154404762Y-78854819D02*
X154595238Y-78854819D01*
X154595238Y-78854819D02*
X154690476Y-78902438D01*
X154690476Y-78902438D02*
X154738095Y-78950057D01*
X154738095Y-78950057D02*
X154785714Y-79045295D01*
X154785714Y-79045295D02*
X154785714Y-79092914D01*
X154785714Y-79092914D02*
X154738095Y-79188152D01*
X154738095Y-79188152D02*
X154690476Y-79235771D01*
X154690476Y-79235771D02*
X154595238Y-79283390D01*
X154595238Y-79283390D02*
X154404762Y-79283390D01*
X154404762Y-79283390D02*
X154309524Y-79331009D01*
X154309524Y-79331009D02*
X154261905Y-79378628D01*
X154261905Y-79378628D02*
X154214286Y-79473866D01*
X154214286Y-79473866D02*
X154214286Y-79664342D01*
X154214286Y-79664342D02*
X154261905Y-79759580D01*
X154261905Y-79759580D02*
X154309524Y-79807200D01*
X154309524Y-79807200D02*
X154404762Y-79854819D01*
X154404762Y-79854819D02*
X154595238Y-79854819D01*
X154595238Y-79854819D02*
X154690476Y-79807200D01*
X154690476Y-79807200D02*
X154738095Y-79759580D01*
X154738095Y-79759580D02*
X154785714Y-79664342D01*
X154785714Y-79664342D02*
X154785714Y-79473866D01*
X154785714Y-79473866D02*
X154738095Y-79378628D01*
X154738095Y-79378628D02*
X154690476Y-79331009D01*
X154690476Y-79331009D02*
X154595238Y-79283390D01*
X169061905Y-94654819D02*
X169061905Y-93654819D01*
X169061905Y-93654819D02*
X169300000Y-93654819D01*
X169300000Y-93654819D02*
X169442857Y-93702438D01*
X169442857Y-93702438D02*
X169538095Y-93797676D01*
X169538095Y-93797676D02*
X169585714Y-93892914D01*
X169585714Y-93892914D02*
X169633333Y-94083390D01*
X169633333Y-94083390D02*
X169633333Y-94226247D01*
X169633333Y-94226247D02*
X169585714Y-94416723D01*
X169585714Y-94416723D02*
X169538095Y-94511961D01*
X169538095Y-94511961D02*
X169442857Y-94607200D01*
X169442857Y-94607200D02*
X169300000Y-94654819D01*
X169300000Y-94654819D02*
X169061905Y-94654819D01*
X170538095Y-93654819D02*
X170061905Y-93654819D01*
X170061905Y-93654819D02*
X170014286Y-94131009D01*
X170014286Y-94131009D02*
X170061905Y-94083390D01*
X170061905Y-94083390D02*
X170157143Y-94035771D01*
X170157143Y-94035771D02*
X170395238Y-94035771D01*
X170395238Y-94035771D02*
X170490476Y-94083390D01*
X170490476Y-94083390D02*
X170538095Y-94131009D01*
X170538095Y-94131009D02*
X170585714Y-94226247D01*
X170585714Y-94226247D02*
X170585714Y-94464342D01*
X170585714Y-94464342D02*
X170538095Y-94559580D01*
X170538095Y-94559580D02*
X170490476Y-94607200D01*
X170490476Y-94607200D02*
X170395238Y-94654819D01*
X170395238Y-94654819D02*
X170157143Y-94654819D01*
X170157143Y-94654819D02*
X170061905Y-94607200D01*
X170061905Y-94607200D02*
X170014286Y-94559580D01*
X166557142Y-94654819D02*
X166223809Y-94178628D01*
X165985714Y-94654819D02*
X165985714Y-93654819D01*
X165985714Y-93654819D02*
X166366666Y-93654819D01*
X166366666Y-93654819D02*
X166461904Y-93702438D01*
X166461904Y-93702438D02*
X166509523Y-93750057D01*
X166509523Y-93750057D02*
X166557142Y-93845295D01*
X166557142Y-93845295D02*
X166557142Y-93988152D01*
X166557142Y-93988152D02*
X166509523Y-94083390D01*
X166509523Y-94083390D02*
X166461904Y-94131009D01*
X166461904Y-94131009D02*
X166366666Y-94178628D01*
X166366666Y-94178628D02*
X165985714Y-94178628D01*
X167509523Y-94654819D02*
X166938095Y-94654819D01*
X167223809Y-94654819D02*
X167223809Y-93654819D01*
X167223809Y-93654819D02*
X167128571Y-93797676D01*
X167128571Y-93797676D02*
X167033333Y-93892914D01*
X167033333Y-93892914D02*
X166938095Y-93940533D01*
X168461904Y-94654819D02*
X167890476Y-94654819D01*
X168176190Y-94654819D02*
X168176190Y-93654819D01*
X168176190Y-93654819D02*
X168080952Y-93797676D01*
X168080952Y-93797676D02*
X167985714Y-93892914D01*
X167985714Y-93892914D02*
X167890476Y-93940533D01*
X125633333Y-84454819D02*
X125300000Y-83978628D01*
X125061905Y-84454819D02*
X125061905Y-83454819D01*
X125061905Y-83454819D02*
X125442857Y-83454819D01*
X125442857Y-83454819D02*
X125538095Y-83502438D01*
X125538095Y-83502438D02*
X125585714Y-83550057D01*
X125585714Y-83550057D02*
X125633333Y-83645295D01*
X125633333Y-83645295D02*
X125633333Y-83788152D01*
X125633333Y-83788152D02*
X125585714Y-83883390D01*
X125585714Y-83883390D02*
X125538095Y-83931009D01*
X125538095Y-83931009D02*
X125442857Y-83978628D01*
X125442857Y-83978628D02*
X125061905Y-83978628D01*
X125966667Y-83454819D02*
X126585714Y-83454819D01*
X126585714Y-83454819D02*
X126252381Y-83835771D01*
X126252381Y-83835771D02*
X126395238Y-83835771D01*
X126395238Y-83835771D02*
X126490476Y-83883390D01*
X126490476Y-83883390D02*
X126538095Y-83931009D01*
X126538095Y-83931009D02*
X126585714Y-84026247D01*
X126585714Y-84026247D02*
X126585714Y-84264342D01*
X126585714Y-84264342D02*
X126538095Y-84359580D01*
X126538095Y-84359580D02*
X126490476Y-84407200D01*
X126490476Y-84407200D02*
X126395238Y-84454819D01*
X126395238Y-84454819D02*
X126109524Y-84454819D01*
X126109524Y-84454819D02*
X126014286Y-84407200D01*
X126014286Y-84407200D02*
X125966667Y-84359580D01*
X126866666Y-93454819D02*
X126866666Y-94169104D01*
X126866666Y-94169104D02*
X126819047Y-94311961D01*
X126819047Y-94311961D02*
X126723809Y-94407200D01*
X126723809Y-94407200D02*
X126580952Y-94454819D01*
X126580952Y-94454819D02*
X126485714Y-94454819D01*
X127295238Y-93550057D02*
X127342857Y-93502438D01*
X127342857Y-93502438D02*
X127438095Y-93454819D01*
X127438095Y-93454819D02*
X127676190Y-93454819D01*
X127676190Y-93454819D02*
X127771428Y-93502438D01*
X127771428Y-93502438D02*
X127819047Y-93550057D01*
X127819047Y-93550057D02*
X127866666Y-93645295D01*
X127866666Y-93645295D02*
X127866666Y-93740533D01*
X127866666Y-93740533D02*
X127819047Y-93883390D01*
X127819047Y-93883390D02*
X127247619Y-94454819D01*
X127247619Y-94454819D02*
X127866666Y-94454819D01*
X124559580Y-75941666D02*
X124607200Y-75989285D01*
X124607200Y-75989285D02*
X124654819Y-76132142D01*
X124654819Y-76132142D02*
X124654819Y-76227380D01*
X124654819Y-76227380D02*
X124607200Y-76370237D01*
X124607200Y-76370237D02*
X124511961Y-76465475D01*
X124511961Y-76465475D02*
X124416723Y-76513094D01*
X124416723Y-76513094D02*
X124226247Y-76560713D01*
X124226247Y-76560713D02*
X124083390Y-76560713D01*
X124083390Y-76560713D02*
X123892914Y-76513094D01*
X123892914Y-76513094D02*
X123797676Y-76465475D01*
X123797676Y-76465475D02*
X123702438Y-76370237D01*
X123702438Y-76370237D02*
X123654819Y-76227380D01*
X123654819Y-76227380D02*
X123654819Y-76132142D01*
X123654819Y-76132142D02*
X123702438Y-75989285D01*
X123702438Y-75989285D02*
X123750057Y-75941666D01*
X123654819Y-75036904D02*
X123654819Y-75513094D01*
X123654819Y-75513094D02*
X124131009Y-75560713D01*
X124131009Y-75560713D02*
X124083390Y-75513094D01*
X124083390Y-75513094D02*
X124035771Y-75417856D01*
X124035771Y-75417856D02*
X124035771Y-75179761D01*
X124035771Y-75179761D02*
X124083390Y-75084523D01*
X124083390Y-75084523D02*
X124131009Y-75036904D01*
X124131009Y-75036904D02*
X124226247Y-74989285D01*
X124226247Y-74989285D02*
X124464342Y-74989285D01*
X124464342Y-74989285D02*
X124559580Y-75036904D01*
X124559580Y-75036904D02*
X124607200Y-75084523D01*
X124607200Y-75084523D02*
X124654819Y-75179761D01*
X124654819Y-75179761D02*
X124654819Y-75417856D01*
X124654819Y-75417856D02*
X124607200Y-75513094D01*
X124607200Y-75513094D02*
X124559580Y-75560713D01*
X137633333Y-71854819D02*
X137300000Y-71378628D01*
X137061905Y-71854819D02*
X137061905Y-70854819D01*
X137061905Y-70854819D02*
X137442857Y-70854819D01*
X137442857Y-70854819D02*
X137538095Y-70902438D01*
X137538095Y-70902438D02*
X137585714Y-70950057D01*
X137585714Y-70950057D02*
X137633333Y-71045295D01*
X137633333Y-71045295D02*
X137633333Y-71188152D01*
X137633333Y-71188152D02*
X137585714Y-71283390D01*
X137585714Y-71283390D02*
X137538095Y-71331009D01*
X137538095Y-71331009D02*
X137442857Y-71378628D01*
X137442857Y-71378628D02*
X137061905Y-71378628D01*
X138490476Y-71188152D02*
X138490476Y-71854819D01*
X138252381Y-70807200D02*
X138014286Y-71521485D01*
X138014286Y-71521485D02*
X138633333Y-71521485D01*
X148333333Y-73454819D02*
X148000000Y-72978628D01*
X147761905Y-73454819D02*
X147761905Y-72454819D01*
X147761905Y-72454819D02*
X148142857Y-72454819D01*
X148142857Y-72454819D02*
X148238095Y-72502438D01*
X148238095Y-72502438D02*
X148285714Y-72550057D01*
X148285714Y-72550057D02*
X148333333Y-72645295D01*
X148333333Y-72645295D02*
X148333333Y-72788152D01*
X148333333Y-72788152D02*
X148285714Y-72883390D01*
X148285714Y-72883390D02*
X148238095Y-72931009D01*
X148238095Y-72931009D02*
X148142857Y-72978628D01*
X148142857Y-72978628D02*
X147761905Y-72978628D01*
X148666667Y-72454819D02*
X149333333Y-72454819D01*
X149333333Y-72454819D02*
X148904762Y-73454819D01*
X157157142Y-116359580D02*
X157109523Y-116407200D01*
X157109523Y-116407200D02*
X156966666Y-116454819D01*
X156966666Y-116454819D02*
X156871428Y-116454819D01*
X156871428Y-116454819D02*
X156728571Y-116407200D01*
X156728571Y-116407200D02*
X156633333Y-116311961D01*
X156633333Y-116311961D02*
X156585714Y-116216723D01*
X156585714Y-116216723D02*
X156538095Y-116026247D01*
X156538095Y-116026247D02*
X156538095Y-115883390D01*
X156538095Y-115883390D02*
X156585714Y-115692914D01*
X156585714Y-115692914D02*
X156633333Y-115597676D01*
X156633333Y-115597676D02*
X156728571Y-115502438D01*
X156728571Y-115502438D02*
X156871428Y-115454819D01*
X156871428Y-115454819D02*
X156966666Y-115454819D01*
X156966666Y-115454819D02*
X157109523Y-115502438D01*
X157109523Y-115502438D02*
X157157142Y-115550057D01*
X158109523Y-116454819D02*
X157538095Y-116454819D01*
X157823809Y-116454819D02*
X157823809Y-115454819D01*
X157823809Y-115454819D02*
X157728571Y-115597676D01*
X157728571Y-115597676D02*
X157633333Y-115692914D01*
X157633333Y-115692914D02*
X157538095Y-115740533D01*
X158442857Y-115454819D02*
X159109523Y-115454819D01*
X159109523Y-115454819D02*
X158680952Y-116454819D01*
X125466667Y-108407200D02*
X125609524Y-108454819D01*
X125609524Y-108454819D02*
X125847619Y-108454819D01*
X125847619Y-108454819D02*
X125942857Y-108407200D01*
X125942857Y-108407200D02*
X125990476Y-108359580D01*
X125990476Y-108359580D02*
X126038095Y-108264342D01*
X126038095Y-108264342D02*
X126038095Y-108169104D01*
X126038095Y-108169104D02*
X125990476Y-108073866D01*
X125990476Y-108073866D02*
X125942857Y-108026247D01*
X125942857Y-108026247D02*
X125847619Y-107978628D01*
X125847619Y-107978628D02*
X125657143Y-107931009D01*
X125657143Y-107931009D02*
X125561905Y-107883390D01*
X125561905Y-107883390D02*
X125514286Y-107835771D01*
X125514286Y-107835771D02*
X125466667Y-107740533D01*
X125466667Y-107740533D02*
X125466667Y-107645295D01*
X125466667Y-107645295D02*
X125514286Y-107550057D01*
X125514286Y-107550057D02*
X125561905Y-107502438D01*
X125561905Y-107502438D02*
X125657143Y-107454819D01*
X125657143Y-107454819D02*
X125895238Y-107454819D01*
X125895238Y-107454819D02*
X126038095Y-107502438D01*
X126371429Y-107454819D02*
X126609524Y-108454819D01*
X126609524Y-108454819D02*
X126800000Y-107740533D01*
X126800000Y-107740533D02*
X126990476Y-108454819D01*
X126990476Y-108454819D02*
X127228572Y-107454819D01*
X128133333Y-108454819D02*
X127561905Y-108454819D01*
X127847619Y-108454819D02*
X127847619Y-107454819D01*
X127847619Y-107454819D02*
X127752381Y-107597676D01*
X127752381Y-107597676D02*
X127657143Y-107692914D01*
X127657143Y-107692914D02*
X127561905Y-107740533D01*
D13*
%TO.C,R8*%
X142962742Y-74302500D02*
X143437258Y-74302500D01*
X142962742Y-75347500D02*
X143437258Y-75347500D01*
%TO.C,D2*%
X89265000Y-94910000D02*
X90735000Y-94910000D01*
X90735000Y-94910000D02*
X90735000Y-92625000D01*
X89265000Y-92625000D02*
X89265000Y-94910000D01*
%TO.C,C14*%
X146090000Y-79761252D02*
X146090000Y-78338748D01*
X147910000Y-79761252D02*
X147910000Y-78338748D01*
%TO.C,C13*%
X142890000Y-79786252D02*
X142890000Y-78363748D01*
X144710000Y-79786252D02*
X144710000Y-78363748D01*
%TO.C,C11*%
X158140580Y-73510000D02*
X157859420Y-73510000D01*
X158140580Y-72490000D02*
X157859420Y-72490000D01*
%TO.C,C4*%
X126890000Y-79911252D02*
X126890000Y-78488748D01*
X128710000Y-79911252D02*
X128710000Y-78488748D01*
%TO.C,C18*%
X154688748Y-109890000D02*
X156111252Y-109890000D01*
X154688748Y-111710000D02*
X156111252Y-111710000D01*
%TO.C,U5*%
X165300000Y-95840000D02*
X163900000Y-95840000D01*
X163900000Y-98160000D02*
X165800000Y-98160000D01*
%TO.C,J1*%
X94572500Y-104250000D02*
X94572500Y-105360000D01*
X90862500Y-104250000D02*
X90862500Y-105360000D01*
X95622500Y-105950000D02*
X95122500Y-106200000D01*
X95122500Y-106200000D02*
X95622500Y-106450000D01*
X95622500Y-106450000D02*
X95622500Y-105950000D01*
X94572500Y-107040000D02*
X94572500Y-108150000D01*
X90862500Y-107040000D02*
X90862500Y-108150000D01*
%TO.C,D6*%
X170535000Y-98115000D02*
X169065000Y-98115000D01*
X169065000Y-98115000D02*
X169065000Y-100400000D01*
X170535000Y-100400000D02*
X170535000Y-98115000D01*
%TO.C,C16*%
X168859420Y-87690000D02*
X169140580Y-87690000D01*
X168859420Y-88710000D02*
X169140580Y-88710000D01*
%TO.C,J5*%
X149360000Y-87010000D02*
X149360000Y-85760000D01*
X149060000Y-86710000D02*
X149060000Y-81990000D01*
X149060000Y-85400000D02*
X148450000Y-85400000D01*
X149060000Y-84100000D02*
X148450000Y-84100000D01*
X149060000Y-81990000D02*
X142940000Y-81990000D01*
X148450000Y-86100000D02*
X148450000Y-82600000D01*
X148450000Y-82600000D02*
X143550000Y-82600000D01*
X148110000Y-87010000D02*
X149360000Y-87010000D01*
X147600000Y-86910000D02*
X147600000Y-86710000D01*
X147300000Y-86910000D02*
X147600000Y-86910000D01*
X147300000Y-86810000D02*
X147600000Y-86810000D01*
X147300000Y-86710000D02*
X147300000Y-86910000D01*
X146500000Y-86710000D02*
X146500000Y-86100000D01*
X146500000Y-86100000D02*
X148450000Y-86100000D01*
X146100000Y-83100000D02*
X145900000Y-83100000D01*
X146100000Y-82600000D02*
X146100000Y-83100000D01*
X146000000Y-82600000D02*
X146000000Y-83100000D01*
X145900000Y-83100000D02*
X145900000Y-82600000D01*
X145500000Y-86100000D02*
X145500000Y-86710000D01*
X143550000Y-86100000D02*
X145500000Y-86100000D01*
X143550000Y-82600000D02*
X143550000Y-86100000D01*
X142940000Y-86710000D02*
X149060000Y-86710000D01*
X142940000Y-85400000D02*
X143550000Y-85400000D01*
X142940000Y-84100000D02*
X143550000Y-84100000D01*
X142940000Y-81990000D02*
X142940000Y-86710000D01*
%TO.C,R17*%
X167277500Y-96437258D02*
X167277500Y-95962742D01*
X168322500Y-96437258D02*
X168322500Y-95962742D01*
%TO.C,D1*%
X90735000Y-95340000D02*
X89265000Y-95340000D01*
X89265000Y-95340000D02*
X89265000Y-97625000D01*
X90735000Y-97625000D02*
X90735000Y-95340000D01*
%TO.C,D4*%
X163140000Y-89050000D02*
X163140000Y-93350000D01*
X163140000Y-89050000D02*
X168950000Y-89050000D01*
X163140000Y-93350000D02*
X168950000Y-93350000D01*
%TO.C,C15*%
X163204437Y-87060000D02*
X165340000Y-87060000D01*
X163204437Y-87060000D02*
X162140000Y-85995563D01*
X169595563Y-87060000D02*
X167460000Y-87060000D01*
X169595563Y-87060000D02*
X170660000Y-85995563D01*
X162140000Y-85995563D02*
X162140000Y-78540000D01*
X170660000Y-85995563D02*
X170660000Y-78540000D01*
X162140000Y-78540000D02*
X165340000Y-78540000D01*
X170660000Y-78540000D02*
X167460000Y-78540000D01*
%TO.C,J4*%
X168400000Y-111670000D02*
X166700000Y-111670000D01*
X168400000Y-102330000D02*
X166700000Y-102330000D01*
%TO.C,R10*%
X92277500Y-97062258D02*
X92277500Y-96587742D01*
X93322500Y-97062258D02*
X93322500Y-96587742D01*
%TO.C,C1*%
X132138748Y-74265000D02*
X132661252Y-74265000D01*
X132138748Y-75735000D02*
X132661252Y-75735000D01*
%TO.C,C12*%
X148690000Y-79761252D02*
X148690000Y-78338748D01*
X150510000Y-79761252D02*
X150510000Y-78338748D01*
%TO.C,C10*%
X143059420Y-72490000D02*
X143340580Y-72490000D01*
X143059420Y-73510000D02*
X143340580Y-73510000D01*
%TO.C,R16*%
X168322500Y-99362742D02*
X168322500Y-99837258D01*
X167277500Y-99362742D02*
X167277500Y-99837258D01*
%TO.C,C9*%
X151310000Y-85459420D02*
X151310000Y-85740580D01*
X150290000Y-85459420D02*
X150290000Y-85740580D01*
%TO.C,J3*%
X162330000Y-87670000D02*
X162330000Y-89000000D01*
X161000000Y-87670000D02*
X162330000Y-87670000D01*
X159730000Y-87670000D02*
X124110000Y-87670000D01*
X159730000Y-87670000D02*
X159730000Y-90270000D01*
X124110000Y-87670000D02*
X124110000Y-92870000D01*
X162330000Y-90270000D02*
X162330000Y-92870000D01*
X159730000Y-90270000D02*
X162330000Y-90270000D01*
X162330000Y-92870000D02*
X124110000Y-92870000D01*
%TO.C,L2*%
X134540000Y-80540000D02*
X134540000Y-80690000D01*
X134540000Y-80540000D02*
X141060000Y-80540000D01*
X134540000Y-87060000D02*
X134540000Y-86910000D01*
X134540000Y-87060000D02*
X141060000Y-87060000D01*
X141060000Y-80540000D02*
X141060000Y-80690000D01*
X141060000Y-87060000D02*
X141060000Y-86910000D01*
%TO.C,C19*%
X164284420Y-98890000D02*
X164565580Y-98890000D01*
X164284420Y-99910000D02*
X164565580Y-99910000D01*
%TO.C,U6*%
X150900000Y-119810000D02*
X150900000Y-113060000D01*
X150900000Y-119810000D02*
X132900000Y-119810000D01*
X150900000Y-95060000D02*
X150900000Y-94310000D01*
X150900000Y-94310000D02*
X149900000Y-94310000D01*
X132900000Y-119810000D02*
X132900000Y-113060000D01*
X132900000Y-113870000D02*
X150900000Y-113870000D01*
X132900000Y-95060000D02*
X132900000Y-94310000D01*
X132900000Y-94310000D02*
X133900000Y-94310000D01*
%TO.C,C6*%
X161090000Y-76811252D02*
X161090000Y-75388748D01*
X162910000Y-76811252D02*
X162910000Y-75388748D01*
%TO.C,R9*%
X93322500Y-93187742D02*
X93322500Y-93662258D01*
X92277500Y-93187742D02*
X92277500Y-93662258D01*
%TO.C,R6*%
X155037258Y-73522500D02*
X154562742Y-73522500D01*
X155037258Y-72477500D02*
X154562742Y-72477500D01*
%TO.C,R5*%
X160962742Y-72477500D02*
X161437258Y-72477500D01*
X160962742Y-73522500D02*
X161437258Y-73522500D01*
%TO.C,R15*%
X160837258Y-110722500D02*
X160362742Y-110722500D01*
X160837258Y-109677500D02*
X160362742Y-109677500D01*
%TO.C,C2*%
X129490000Y-79911252D02*
X129490000Y-78488748D01*
X131310000Y-79911252D02*
X131310000Y-78488748D01*
%TO.C,L3*%
X153940000Y-80540000D02*
X153940000Y-80690000D01*
X153940000Y-80540000D02*
X160460000Y-80540000D01*
X153940000Y-87060000D02*
X153940000Y-86910000D01*
X153940000Y-87060000D02*
X160460000Y-87060000D01*
X160460000Y-80540000D02*
X160460000Y-80690000D01*
X160460000Y-87060000D02*
X160460000Y-86910000D01*
%TO.C,SW2*%
X158730000Y-100770000D02*
X158730000Y-107230000D01*
X158700000Y-100770000D02*
X158730000Y-100770000D01*
X156800000Y-100770000D02*
X154200000Y-100770000D01*
X152270000Y-100770000D02*
X152300000Y-100770000D01*
X152270000Y-100770000D02*
X152270000Y-107230000D01*
X158730000Y-107230000D02*
X158700000Y-107230000D01*
X156800000Y-107230000D02*
X154200000Y-107230000D01*
X152270000Y-107230000D02*
X152300000Y-107230000D01*
%TO.C,C3*%
X132690000Y-78765580D02*
X132690000Y-78484420D01*
X133710000Y-78765580D02*
X133710000Y-78484420D01*
%TO.C,R14*%
X161437258Y-95122500D02*
X160962742Y-95122500D01*
X161437258Y-94077500D02*
X160962742Y-94077500D01*
%TO.C,U2*%
X155590000Y-78840000D02*
X155590000Y-77835000D01*
X158580000Y-78810000D02*
X158810000Y-78810000D01*
X158810000Y-78810000D02*
X158810000Y-77835000D01*
X155590000Y-76565000D02*
X155590000Y-75590000D01*
X158810000Y-76565000D02*
X158810000Y-75590000D01*
X155590000Y-75590000D02*
X155820000Y-75590000D01*
X158580000Y-75590000D02*
X158810000Y-75590000D01*
%TO.C,U1*%
X136190000Y-78840000D02*
X136190000Y-77835000D01*
X139180000Y-78810000D02*
X139410000Y-78810000D01*
X139410000Y-78810000D02*
X139410000Y-77835000D01*
X136190000Y-76565000D02*
X136190000Y-75590000D01*
X139410000Y-76565000D02*
X139410000Y-75590000D01*
X136190000Y-75590000D02*
X136420000Y-75590000D01*
X139180000Y-75590000D02*
X139410000Y-75590000D01*
%TO.C,D3*%
X156240000Y-95800000D02*
X156240000Y-97475000D01*
X156240000Y-95800000D02*
X156240000Y-95150000D01*
X159360000Y-95800000D02*
X159360000Y-96450000D01*
X159360000Y-95800000D02*
X159360000Y-95150000D01*
D10*
%TO.C,M1*%
X97250000Y-75000000D02*
X121750000Y-75000000D01*
X97250000Y-77300000D02*
X97250000Y-75000000D01*
X97250000Y-102750000D02*
X97250000Y-97150000D01*
X97250000Y-109750000D02*
X97250000Y-115000000D01*
X97250000Y-115000000D02*
X121750000Y-115000000D01*
X121750000Y-75000000D02*
X121750000Y-77350000D01*
X121750000Y-102700000D02*
X121750000Y-97100000D01*
X121750000Y-115000000D02*
X121750000Y-109800000D01*
X123300000Y-110600000D02*
G75*
G03*
X123300000Y-110600000I-600000J0D01*
G01*
D13*
%TO.C,U4*%
X161500000Y-106400000D02*
X161000000Y-106400000D01*
X161500000Y-109100000D02*
X160500000Y-109100000D01*
%TO.C,R13*%
X160837258Y-105772500D02*
X160362742Y-105772500D01*
X160837258Y-104727500D02*
X160362742Y-104727500D01*
%TO.C,R2*%
X132812258Y-73522500D02*
X132337742Y-73522500D01*
X132812258Y-72477500D02*
X132337742Y-72477500D01*
%TO.C,C7*%
X151138748Y-75735000D02*
X151661252Y-75735000D01*
X151138748Y-74265000D02*
X151661252Y-74265000D01*
%TO.C,R12*%
X161437258Y-96922500D02*
X160962742Y-96922500D01*
X161437258Y-95877500D02*
X160962742Y-95877500D01*
%TO.C,U3*%
X161000000Y-114360000D02*
X162675000Y-114360000D01*
X161000000Y-114360000D02*
X160350000Y-114360000D01*
X161000000Y-111240000D02*
X161650000Y-111240000D01*
X161000000Y-111240000D02*
X160350000Y-111240000D01*
%TO.C,C8*%
X151865000Y-78740580D02*
X151865000Y-78459420D01*
X152885000Y-78740580D02*
X152885000Y-78459420D01*
%TO.C,D5*%
X169065000Y-97685000D02*
X170535000Y-97685000D01*
X170535000Y-97685000D02*
X170535000Y-95400000D01*
X169065000Y-95400000D02*
X169065000Y-97685000D01*
%TO.C,R11*%
X164637258Y-95122500D02*
X164162742Y-95122500D01*
X164637258Y-94077500D02*
X164162742Y-94077500D01*
%TO.C,R3*%
X124362742Y-85406129D02*
X124837258Y-85406129D01*
X124362742Y-86451129D02*
X124837258Y-86451129D01*
%TO.C,J2*%
X128470000Y-100105000D02*
X127835000Y-100105000D01*
X128470000Y-99470000D02*
X128470000Y-100105000D01*
%TO.C,C5*%
X124290000Y-79911252D02*
X124290000Y-78488748D01*
X126110000Y-79911252D02*
X126110000Y-78488748D01*
%TO.C,R4*%
X138527063Y-74099723D02*
X137072935Y-74099723D01*
X138527063Y-72279723D02*
X137072935Y-72279723D01*
%TO.C,R7*%
X151837258Y-73522500D02*
X151362742Y-73522500D01*
X151837258Y-72477500D02*
X151362742Y-72477500D01*
%TO.C,C17*%
X156340580Y-113310000D02*
X156059420Y-113310000D01*
X156340580Y-112290000D02*
X156059420Y-112290000D01*
%TO.C,SW1*%
X130230000Y-104770000D02*
X130230000Y-111230000D01*
X130200000Y-104770000D02*
X130230000Y-104770000D01*
X128300000Y-104770000D02*
X125700000Y-104770000D01*
X123770000Y-104770000D02*
X123800000Y-104770000D01*
X123770000Y-104770000D02*
X123770000Y-111230000D01*
X130230000Y-111230000D02*
X130200000Y-111230000D01*
X128300000Y-111230000D02*
X125700000Y-111230000D01*
X123770000Y-111230000D02*
X123800000Y-111230000D01*
%TD*%
M02*
