%TF.GenerationSoftware,KiCad,Pcbnew,7.0.9*%
%TF.CreationDate,2024-02-26T10:01:54+01:00*%
%TF.ProjectId,C2LoraGateway,43324c6f-7261-4476-9174-657761792e6b,rev?*%
%TF.SameCoordinates,Original*%
%TF.FileFunction,Legend,Bot*%
%TF.FilePolarity,Positive*%
%FSLAX46Y46*%
G04 Gerber Fmt 4.6, Leading zero omitted, Abs format (unit mm)*
G04 Created by KiCad (PCBNEW 7.0.9) date 2024-02-26 10:01:54*
%MOMM*%
%LPD*%
G01*
G04 APERTURE LIST*
%ADD10C,0.150000*%
%ADD11C,0.120000*%
G04 APERTURE END LIST*
D10*
X158554819Y-74866666D02*
X159269104Y-74866666D01*
X159269104Y-74866666D02*
X159411961Y-74819047D01*
X159411961Y-74819047D02*
X159507200Y-74723809D01*
X159507200Y-74723809D02*
X159554819Y-74580952D01*
X159554819Y-74580952D02*
X159554819Y-74485714D01*
X159554819Y-75342857D02*
X158554819Y-75342857D01*
X158554819Y-75342857D02*
X158554819Y-75723809D01*
X158554819Y-75723809D02*
X158602438Y-75819047D01*
X158602438Y-75819047D02*
X158650057Y-75866666D01*
X158650057Y-75866666D02*
X158745295Y-75914285D01*
X158745295Y-75914285D02*
X158888152Y-75914285D01*
X158888152Y-75914285D02*
X158983390Y-75866666D01*
X158983390Y-75866666D02*
X159031009Y-75819047D01*
X159031009Y-75819047D02*
X159078628Y-75723809D01*
X159078628Y-75723809D02*
X159078628Y-75342857D01*
X158650057Y-76295238D02*
X158602438Y-76342857D01*
X158602438Y-76342857D02*
X158554819Y-76438095D01*
X158554819Y-76438095D02*
X158554819Y-76676190D01*
X158554819Y-76676190D02*
X158602438Y-76771428D01*
X158602438Y-76771428D02*
X158650057Y-76819047D01*
X158650057Y-76819047D02*
X158745295Y-76866666D01*
X158745295Y-76866666D02*
X158840533Y-76866666D01*
X158840533Y-76866666D02*
X158983390Y-76819047D01*
X158983390Y-76819047D02*
X159554819Y-76247619D01*
X159554819Y-76247619D02*
X159554819Y-76866666D01*
X160633333Y-84454819D02*
X160633333Y-85169104D01*
X160633333Y-85169104D02*
X160680952Y-85311961D01*
X160680952Y-85311961D02*
X160776190Y-85407200D01*
X160776190Y-85407200D02*
X160919047Y-85454819D01*
X160919047Y-85454819D02*
X161014285Y-85454819D01*
X160157142Y-85454819D02*
X160157142Y-84454819D01*
X160157142Y-84454819D02*
X159776190Y-84454819D01*
X159776190Y-84454819D02*
X159680952Y-84502438D01*
X159680952Y-84502438D02*
X159633333Y-84550057D01*
X159633333Y-84550057D02*
X159585714Y-84645295D01*
X159585714Y-84645295D02*
X159585714Y-84788152D01*
X159585714Y-84788152D02*
X159633333Y-84883390D01*
X159633333Y-84883390D02*
X159680952Y-84931009D01*
X159680952Y-84931009D02*
X159776190Y-84978628D01*
X159776190Y-84978628D02*
X160157142Y-84978628D01*
X159252380Y-84454819D02*
X158633333Y-84454819D01*
X158633333Y-84454819D02*
X158966666Y-84835771D01*
X158966666Y-84835771D02*
X158823809Y-84835771D01*
X158823809Y-84835771D02*
X158728571Y-84883390D01*
X158728571Y-84883390D02*
X158680952Y-84931009D01*
X158680952Y-84931009D02*
X158633333Y-85026247D01*
X158633333Y-85026247D02*
X158633333Y-85264342D01*
X158633333Y-85264342D02*
X158680952Y-85359580D01*
X158680952Y-85359580D02*
X158728571Y-85407200D01*
X158728571Y-85407200D02*
X158823809Y-85454819D01*
X158823809Y-85454819D02*
X159109523Y-85454819D01*
X159109523Y-85454819D02*
X159204761Y-85407200D01*
X159204761Y-85407200D02*
X159252380Y-85359580D01*
D11*
%TO.C,JP2*%
X161300000Y-77250000D02*
X161900000Y-77250000D01*
X160100000Y-76700000D02*
X160100000Y-76100000D01*
X162600000Y-76600000D02*
X162600000Y-73800000D01*
X160400000Y-76400000D02*
X160100000Y-76700000D01*
X160400000Y-76400000D02*
X160100000Y-76100000D01*
X160600000Y-73800000D02*
X160600000Y-76600000D01*
X161900000Y-73150000D02*
X161300000Y-73150000D01*
X160600000Y-76550000D02*
G75*
G03*
X161300000Y-77250000I699999J-1D01*
G01*
X161900000Y-77250000D02*
G75*
G03*
X162600000Y-76550000I1J699999D01*
G01*
X161300000Y-73150000D02*
G75*
G03*
X160600000Y-73850000I0J-700000D01*
G01*
X162600000Y-73850000D02*
G75*
G03*
X161900000Y-73150000I-700000J0D01*
G01*
%TO.C,JP3*%
X158400000Y-86700000D02*
X158400000Y-87300000D01*
X159100000Y-88000000D02*
X160500000Y-88000000D01*
X160500000Y-86000000D02*
X159100000Y-86000000D01*
X161200000Y-87300000D02*
X161200000Y-86700000D01*
X159100000Y-86000000D02*
G75*
G03*
X158400000Y-86700000I-1J-699999D01*
G01*
X158400000Y-87300000D02*
G75*
G03*
X159100000Y-88000000I699999J-1D01*
G01*
X161200000Y-86700000D02*
G75*
G03*
X160500000Y-86000000I-700000J0D01*
G01*
X160500000Y-88000000D02*
G75*
G03*
X161200000Y-87300000I0J700000D01*
G01*
%TD*%
M02*
